<?xml version="1.0" encoding="utf-8" standalone="no"?>
<!DOCTYPE svg PUBLIC "-//W3C//DTD SVG 1.1//EN"
  "http://www.w3.org/Graphics/SVG/1.1/DTD/svg11.dtd">
<!-- Created with matplotlib (https://matplotlib.org/) -->
<svg height="1080pt" version="1.1" viewBox="0 0 1080 1080" width="1080pt" xmlns="http://www.w3.org/2000/svg" xmlns:xlink="http://www.w3.org/1999/xlink">
 <defs>
  <style type="text/css">
*{stroke-linecap:butt;stroke-linejoin:round;}
  </style>
 </defs>
 <g id="figure_1">
  <g id="patch_1">
   <path d="M 0 1080 
L 1080 1080 
L 1080 0 
L 0 0 
z
" style="fill:#ffffff;"/>
  </g>
  <g id="axes_1">
   <g id="patch_2">
    <path d="M 135 945 
L 972 945 
L 972 129.6 
L 135 129.6 
z
" style="fill:#eaeaf2;"/>
   </g>
   <g id="matplotlib.axis_1">
    <g id="xtick_1">
     <g id="line2d_1">
      <path clip-path="url(#pdfee66b18e)" d="M 151.611396 945 
L 151.611396 129.6 
" style="fill:none;stroke:#ffffff;stroke-linecap:round;stroke-width:0.8;"/>
     </g>
     <g id="text_1">
      <!-- 2014-01 -->
      <defs>
       <path d="M 7 0 
L 54.859375 0 
L 54.859375 9.40625 
L 22.125 9.40625 
L 22.125 9.9375 
L 36.578125 25.078125 
C 49.890625 38.53125 53.6875 44.953125 53.6875 53.09375 
C 53.6875 64.765625 44.171875 73.71875 30.46875 73.71875 
C 16.875 73.71875 6.921875 64.921875 6.921875 51.640625 
L 17.40625 51.640625 
C 17.359375 59.453125 22.40625 64.5625 30.25 64.5625 
C 37.640625 64.5625 43.25 60.015625 43.25 52.765625 
C 43.25 46.34375 39.421875 41.71875 31.609375 33.453125 
L 7 7.953125 
z
" id="Inter-Medium-50"/>
       <path d="M 32.3125 -1.203125 
C 49.109375 -1.203125 58.953125 12.5 58.953125 36.328125 
C 58.953125 59.984375 48.96875 73.71875 32.3125 73.71875 
C 15.625 73.71875 5.6875 60.015625 5.640625 36.328125 
C 5.640625 12.53125 15.484375 -1.171875 32.3125 -1.203125 
z
M 32.3125 8.28125 
C 22.484375 8.28125 16.546875 18.140625 16.546875 36.328125 
C 16.578125 54.4375 22.515625 64.421875 32.3125 64.421875 
C 42.078125 64.421875 48.046875 54.4375 48.046875 36.328125 
C 48.046875 18.140625 42.125 8.28125 32.3125 8.28125 
z
" id="Inter-Medium-48"/>
       <path d="M 32.5625 72.734375 
L 22.34375 72.734375 
C 21.953125 70.734375 16.40625 61.546875 5.796875 61.546875 
L 5.796875 52.515625 
C 14.03125 52.515625 19.75 55.78125 20.953125 57.921875 
L 21.5625 57.921875 
L 21.5625 0 
L 32.5625 0 
z
" id="Inter-Medium-49"/>
       <path d="M 5.46875 14.203125 
L 39.953125 14.203125 
L 39.953125 0 
L 50.421875 0 
L 50.421875 14.203125 
L 60.046875 14.203125 
L 60.046875 23.515625 
L 50.421875 23.515625 
L 50.421875 72.734375 
L 36.890625 72.734375 
L 5.46875 23.078125 
z
M 40.015625 23.515625 
L 16.96875 23.515625 
L 16.96875 24.078125 
L 39.453125 59.65625 
L 40.015625 59.65625 
z
" id="Inter-Medium-52"/>
       <path d="M 39.28125 35.328125 
L 7.03125 35.328125 
L 7.03125 26.140625 
L 39.28125 26.140625 
z
" id="Inter-Medium-45"/>
      </defs>
      <g style="fill:#262626;" transform="translate(118.228974 964.364844)scale(0.17 -0.17)">
       <use xlink:href="#Inter-Medium-50"/>
       <use x="61.32814" xlink:href="#Inter-Medium-48"/>
       <use x="125.923325" xlink:href="#Inter-Medium-49"/>
       <use x="171.16481" xlink:href="#Inter-Medium-52"/>
       <use x="236.576752" xlink:href="#Inter-Medium-45"/>
       <use x="282.883575" xlink:href="#Inter-Medium-48"/>
       <use x="347.47876" xlink:href="#Inter-Medium-49"/>
      </g>
     </g>
    </g>
    <g id="xtick_2">
     <g id="line2d_2">
      <path clip-path="url(#pdfee66b18e)" d="M 237.347631 945 
L 237.347631 129.6 
" style="fill:none;stroke:#ffffff;stroke-linecap:round;stroke-width:0.8;"/>
     </g>
     <g id="text_2">
      <!-- 2014-05 -->
      <defs>
       <path d="M 31 -1 
C 45.640625 -1 56.078125 9.34375 56.03125 23.515625 
C 56.078125 37.578125 46.265625 47.796875 33.03125 47.796875 
C 27.625 47.796875 22.625 45.734375 19.78125 42.96875 
L 19.359375 42.96875 
L 21.65625 63.3125 
L 52.515625 63.3125 
L 52.515625 72.734375 
L 12.53125 72.734375 
L 8.453125 36.078125 
L 18.5 34.59375 
C 21.234375 37.03125 26.140625 38.703125 30.546875 38.703125 
C 39.171875 38.640625 45.421875 32.171875 45.421875 23.296875 
C 45.421875 14.5625 39.34375 8.234375 31 8.234375 
C 23.96875 8.234375 18.390625 12.71875 17.828125 18.96875 
L 7.171875 18.96875 
C 7.59375 7.390625 17.65625 -1 31 -1 
z
" id="Inter-Medium-53"/>
      </defs>
      <g style="fill:#262626;" transform="translate(202.541459 964.364844)scale(0.17 -0.17)">
       <use xlink:href="#Inter-Medium-50"/>
       <use x="61.32814" xlink:href="#Inter-Medium-48"/>
       <use x="125.923325" xlink:href="#Inter-Medium-49"/>
       <use x="171.16481" xlink:href="#Inter-Medium-52"/>
       <use x="236.576752" xlink:href="#Inter-Medium-45"/>
       <use x="282.883575" xlink:href="#Inter-Medium-48"/>
       <use x="347.47876" xlink:href="#Inter-Medium-53"/>
      </g>
     </g>
    </g>
    <g id="xtick_3">
     <g id="line2d_3">
      <path clip-path="url(#pdfee66b18e)" d="M 325.227273 945 
L 325.227273 129.6 
" style="fill:none;stroke:#ffffff;stroke-linecap:round;stroke-width:0.8;"/>
     </g>
     <g id="text_3">
      <!-- 2014-09 -->
      <defs>
       <path d="M 31.1875 73.90625 
C 15.90625 74 5.9375 63.0625 5.9375 49.140625 
C 5.9375 35.234375 16.015625 25.21875 28.625 25.21875 
C 36.328125 25.21875 42.9375 28.984375 46.65625 35.078125 
L 47.234375 35.078125 
C 47.203125 18.359375 40.90625 8.59375 30.25 8.59375 
C 23.296875 8.59375 18.828125 12.859375 17.40625 19.0625 
L 6.578125 19.0625 
C 8.171875 7.3125 17.265625 -1 30.25 -1 
C 47.15625 -1 57.703125 13.53125 57.75 38.984375 
C 57.703125 65.734375 44.140625 73.796875 31.1875 73.90625 
z
M 31.21875 64.671875 
C 39.625 64.671875 45.84375 57.53125 45.84375 49.390625 
C 45.84375 41.265625 39.3125 34.15625 31 34.15625 
C 22.65625 34.15625 16.578125 40.84375 16.578125 49.296875 
C 16.578125 57.890625 22.875 64.671875 31.21875 64.671875 
z
" id="Inter-Medium-57"/>
      </defs>
      <g style="fill:#262626;" transform="translate(290.288288 964.364844)scale(0.17 -0.17)">
       <use xlink:href="#Inter-Medium-50"/>
       <use x="61.32814" xlink:href="#Inter-Medium-48"/>
       <use x="125.923325" xlink:href="#Inter-Medium-49"/>
       <use x="171.16481" xlink:href="#Inter-Medium-52"/>
       <use x="236.576752" xlink:href="#Inter-Medium-45"/>
       <use x="282.883575" xlink:href="#Inter-Medium-48"/>
       <use x="347.47876" xlink:href="#Inter-Medium-57"/>
      </g>
     </g>
    </g>
    <g id="xtick_4">
     <g id="line2d_4">
      <path clip-path="url(#pdfee66b18e)" d="M 412.392446 945 
L 412.392446 129.6 
" style="fill:none;stroke:#ffffff;stroke-linecap:round;stroke-width:0.8;"/>
     </g>
     <g id="text_4">
      <!-- 2015-01 -->
      <g style="fill:#262626;" transform="translate(379.299555 964.364844)scale(0.17 -0.17)">
       <use xlink:href="#Inter-Medium-50"/>
       <use x="61.32814" xlink:href="#Inter-Medium-48"/>
       <use x="125.923325" xlink:href="#Inter-Medium-49"/>
       <use x="171.16481" xlink:href="#Inter-Medium-53"/>
       <use x="233.167664" xlink:href="#Inter-Medium-45"/>
       <use x="279.474487" xlink:href="#Inter-Medium-48"/>
       <use x="344.069672" xlink:href="#Inter-Medium-49"/>
      </g>
     </g>
    </g>
    <g id="xtick_5">
     <g id="line2d_5">
      <path clip-path="url(#pdfee66b18e)" d="M 498.128681 945 
L 498.128681 129.6 
" style="fill:none;stroke:#ffffff;stroke-linecap:round;stroke-width:0.8;"/>
     </g>
     <g id="text_5">
      <!-- 2015-05 -->
      <g style="fill:#262626;" transform="translate(463.612041 964.364844)scale(0.17 -0.17)">
       <use xlink:href="#Inter-Medium-50"/>
       <use x="61.32814" xlink:href="#Inter-Medium-48"/>
       <use x="125.923325" xlink:href="#Inter-Medium-49"/>
       <use x="171.16481" xlink:href="#Inter-Medium-53"/>
       <use x="233.167664" xlink:href="#Inter-Medium-45"/>
       <use x="279.474487" xlink:href="#Inter-Medium-48"/>
       <use x="344.069672" xlink:href="#Inter-Medium-53"/>
      </g>
     </g>
    </g>
    <g id="xtick_6">
     <g id="line2d_6">
      <path clip-path="url(#pdfee66b18e)" d="M 586.008323 945 
L 586.008323 129.6 
" style="fill:none;stroke:#ffffff;stroke-linecap:round;stroke-width:0.8;"/>
     </g>
     <g id="text_6">
      <!-- 2015-09 -->
      <g style="fill:#262626;" transform="translate(551.35887 964.364844)scale(0.17 -0.17)">
       <use xlink:href="#Inter-Medium-50"/>
       <use x="61.32814" xlink:href="#Inter-Medium-48"/>
       <use x="125.923325" xlink:href="#Inter-Medium-49"/>
       <use x="171.16481" xlink:href="#Inter-Medium-53"/>
       <use x="233.167664" xlink:href="#Inter-Medium-45"/>
       <use x="279.474487" xlink:href="#Inter-Medium-48"/>
       <use x="344.069672" xlink:href="#Inter-Medium-57"/>
      </g>
     </g>
    </g>
    <g id="xtick_7">
     <g id="line2d_7">
      <path clip-path="url(#pdfee66b18e)" d="M 673.173496 945 
L 673.173496 129.6 
" style="fill:none;stroke:#ffffff;stroke-linecap:round;stroke-width:0.8;"/>
     </g>
     <g id="text_7">
      <!-- 2016-01 -->
      <defs>
       <path d="M 32.390625 -1 
C 47.59375 -1.140625 57.671875 9.796875 57.640625 23.75 
C 57.671875 37.671875 47.546875 47.65625 34.9375 47.65625 
C 27.28125 47.65625 20.640625 43.96875 16.90625 37.8125 
L 16.375 37.8125 
C 16.40625 54.515625 22.65625 64.28125 33.3125 64.28125 
C 40.3125 64.28125 44.703125 60.046875 46.203125 53.828125 
L 57.03125 53.828125 
C 55.359375 65.515625 46.3125 73.90625 33.3125 73.90625 
C 16.40625 73.90625 5.859375 59.375 5.859375 33.90625 
C 5.859375 7.140625 19.46875 -0.890625 32.390625 -1 
z
M 32.359375 8.234375 
C 23.90625 8.234375 17.71875 15.34375 17.71875 23.515625 
C 17.75 31.640625 24.21875 38.75 32.59375 38.75 
C 40.90625 38.75 47.015625 32.03125 46.984375 23.609375 
C 47.015625 15.015625 40.65625 8.234375 32.359375 8.234375 
z
" id="Inter-Medium-54"/>
      </defs>
      <g style="fill:#262626;" transform="translate(639.947792 964.364844)scale(0.17 -0.17)">
       <use xlink:href="#Inter-Medium-50"/>
       <use x="61.32814" xlink:href="#Inter-Medium-48"/>
       <use x="125.923325" xlink:href="#Inter-Medium-49"/>
       <use x="171.16481" xlink:href="#Inter-Medium-54"/>
       <use x="234.730164" xlink:href="#Inter-Medium-45"/>
       <use x="281.036987" xlink:href="#Inter-Medium-48"/>
       <use x="345.632172" xlink:href="#Inter-Medium-49"/>
      </g>
     </g>
    </g>
    <g id="xtick_8">
     <g id="line2d_8">
      <path clip-path="url(#pdfee66b18e)" d="M 759.6242 945 
L 759.6242 129.6 
" style="fill:none;stroke:#ffffff;stroke-linecap:round;stroke-width:0.8;"/>
     </g>
     <g id="text_8">
      <!-- 2016-05 -->
      <g style="fill:#262626;" transform="translate(724.974747 964.364844)scale(0.17 -0.17)">
       <use xlink:href="#Inter-Medium-50"/>
       <use x="61.32814" xlink:href="#Inter-Medium-48"/>
       <use x="125.923325" xlink:href="#Inter-Medium-49"/>
       <use x="171.16481" xlink:href="#Inter-Medium-54"/>
       <use x="234.730164" xlink:href="#Inter-Medium-45"/>
       <use x="281.036987" xlink:href="#Inter-Medium-48"/>
       <use x="345.632172" xlink:href="#Inter-Medium-53"/>
      </g>
     </g>
    </g>
    <g id="xtick_9">
     <g id="line2d_9">
      <path clip-path="url(#pdfee66b18e)" d="M 847.503841 945 
L 847.503841 129.6 
" style="fill:none;stroke:#ffffff;stroke-linecap:round;stroke-width:0.8;"/>
     </g>
     <g id="text_9">
      <!-- 2016-09 -->
      <g style="fill:#262626;" transform="translate(812.721576 964.364844)scale(0.17 -0.17)">
       <use xlink:href="#Inter-Medium-50"/>
       <use x="61.32814" xlink:href="#Inter-Medium-48"/>
       <use x="125.923325" xlink:href="#Inter-Medium-49"/>
       <use x="171.16481" xlink:href="#Inter-Medium-54"/>
       <use x="234.730164" xlink:href="#Inter-Medium-45"/>
       <use x="281.036987" xlink:href="#Inter-Medium-48"/>
       <use x="345.632172" xlink:href="#Inter-Medium-57"/>
      </g>
     </g>
    </g>
    <g id="xtick_10">
     <g id="line2d_10">
      <path clip-path="url(#pdfee66b18e)" d="M 934.669014 945 
L 934.669014 129.6 
" style="fill:none;stroke:#ffffff;stroke-linecap:round;stroke-width:0.8;"/>
     </g>
     <g id="text_10">
      <!-- 2017-01 -->
      <defs>
       <path d="M 9.453125 0 
L 20.921875 0 
L 52.5625 63 
L 52.5625 72.734375 
L 4.46875 72.734375 
L 4.46875 63.3125 
L 41.1875 63.3125 
L 41.1875 62.78125 
z
" id="Inter-Medium-55"/>
      </defs>
      <g style="fill:#262626;" transform="translate(901.92542 964.364844)scale(0.17 -0.17)">
       <use xlink:href="#Inter-Medium-50"/>
       <use x="61.32814" xlink:href="#Inter-Medium-48"/>
       <use x="125.923325" xlink:href="#Inter-Medium-49"/>
       <use x="171.16481" xlink:href="#Inter-Medium-55"/>
       <use x="229.04834" xlink:href="#Inter-Medium-45"/>
       <use x="275.355164" xlink:href="#Inter-Medium-48"/>
       <use x="339.950348" xlink:href="#Inter-Medium-49"/>
      </g>
     </g>
    </g>
    <g id="text_11">
     <!-- Time -->
     <defs>
      <path d="M 4.40625 63.28125 
L 27.0625 63.28125 
L 27.0625 0 
L 38 0 
L 38 63.28125 
L 60.6875 63.28125 
L 60.6875 72.734375 
L 4.40625 72.734375 
z
" id="Inter-Medium-84"/>
      <path d="M 7.140625 0 
L 17.75 0 
L 17.75 54.546875 
L 7.140625 54.546875 
z
M 12.5 62.96875 
C 16.15625 62.96875 19.21875 65.796875 19.21875 69.28125 
C 19.21875 72.765625 16.15625 75.640625 12.5 75.640625 
C 8.8125 75.640625 5.796875 72.765625 5.796875 69.28125 
C 5.796875 65.796875 8.8125 62.96875 12.5 62.96875 
z
" id="Inter-Medium-105"/>
      <path d="M 7.140625 0 
L 17.75 0 
L 17.75 33.625 
C 17.75 40.984375 22.90625 46.09375 28.9375 46.09375 
C 34.84375 46.09375 38.921875 42.1875 38.921875 36.25 
L 38.921875 0 
L 49.5 0 
L 49.5 34.765625 
C 49.5 41.328125 53.515625 46.09375 60.4375 46.09375 
C 66.046875 46.09375 70.671875 42.96875 70.671875 35.578125 
L 70.671875 0 
L 81.28125 0 
L 81.28125 36.578125 
C 81.28125 49.046875 74.328125 55.25 64.453125 55.25 
C 56.609375 55.25 50.71875 51.484375 48.078125 45.671875 
L 47.515625 45.671875 
C 45.140625 51.640625 40.125 55.25 32.84375 55.25 
C 25.640625 55.25 20.28125 51.671875 18 45.671875 
L 17.328125 45.671875 
L 17.328125 54.546875 
L 7.140625 54.546875 
z
" id="Inter-Medium-109"/>
      <path d="M 30.640625 -1.09375 
C 42.546875 -1.09375 50.953125 4.765625 53.375 13.640625 
L 43.328125 15.453125 
C 41.40625 10.296875 36.796875 7.671875 30.75 7.671875 
C 21.65625 7.671875 15.5625 13.5625 15.265625 24.078125 
L 54.046875 24.078125 
L 54.046875 27.84375 
C 54.046875 47.546875 42.265625 55.25 29.90625 55.25 
C 14.703125 55.25 4.6875 43.671875 4.6875 26.921875 
C 4.6875 9.984375 14.5625 -1.09375 30.640625 -1.09375 
z
M 15.3125 32.03125 
C 15.734375 39.765625 21.34375 46.484375 29.96875 46.484375 
C 38.21875 46.484375 43.609375 40.375 43.640625 32.03125 
z
" id="Inter-Medium-101"/>
     </defs>
     <g style="fill:#262626;" transform="translate(525.050625 989.298125)scale(0.24 -0.24)">
      <use xlink:href="#Inter-Medium-84"/>
      <use x="65.092346" xlink:href="#Inter-Medium-105"/>
      <use x="89.985809" xlink:href="#Inter-Medium-109"/>
      <use x="178.338104" xlink:href="#Inter-Medium-101"/>
     </g>
    </g>
   </g>
   <g id="matplotlib.axis_2">
    <g id="ytick_1">
     <g id="line2d_11">
      <path clip-path="url(#pdfee66b18e)" d="M 135 945 
L 972 945 
" style="fill:none;stroke:#ffffff;stroke-linecap:round;stroke-width:0.8;"/>
     </g>
     <g id="line2d_12">
      <defs>
       <path d="M 0 0 
L -3.5 0 
" id="m10d724cf41" style="stroke:#262626;stroke-width:0.8;"/>
      </defs>
      <g>
       <use style="fill:#262626;stroke:#262626;stroke-width:0.8;" x="135" xlink:href="#m10d724cf41" y="945"/>
      </g>
     </g>
     <g id="text_12">
      <!-- 0 -->
      <g style="fill:#262626;" transform="translate(117.019063 951.182422)scale(0.17 -0.17)">
       <use xlink:href="#Inter-Medium-48"/>
      </g>
     </g>
    </g>
    <g id="ytick_2">
     <g id="line2d_13">
      <path clip-path="url(#pdfee66b18e)" d="M 135 781.92 
L 972 781.92 
" style="fill:none;stroke:#ffffff;stroke-linecap:round;stroke-width:0.8;"/>
     </g>
     <g id="line2d_14">
      <g>
       <use style="fill:#262626;stroke:#262626;stroke-width:0.8;" x="135" xlink:href="#m10d724cf41" y="781.92"/>
      </g>
     </g>
     <g id="text_13">
      <!-- 10 -->
      <g style="fill:#262626;" transform="translate(109.326562 788.102422)scale(0.17 -0.17)">
       <use xlink:href="#Inter-Medium-49"/>
       <use x="45.241486" xlink:href="#Inter-Medium-48"/>
      </g>
     </g>
    </g>
    <g id="ytick_3">
     <g id="line2d_15">
      <path clip-path="url(#pdfee66b18e)" d="M 135 618.84 
L 972 618.84 
" style="fill:none;stroke:#ffffff;stroke-linecap:round;stroke-width:0.8;"/>
     </g>
     <g id="line2d_16">
      <g>
       <use style="fill:#262626;stroke:#262626;stroke-width:0.8;" x="135" xlink:href="#m10d724cf41" y="618.84"/>
      </g>
     </g>
     <g id="text_14">
      <!-- 20 -->
      <g style="fill:#262626;" transform="translate(106.593281 625.022422)scale(0.17 -0.17)">
       <use xlink:href="#Inter-Medium-50"/>
       <use x="61.32814" xlink:href="#Inter-Medium-48"/>
      </g>
     </g>
    </g>
    <g id="ytick_4">
     <g id="line2d_17">
      <path clip-path="url(#pdfee66b18e)" d="M 135 455.76 
L 972 455.76 
" style="fill:none;stroke:#ffffff;stroke-linecap:round;stroke-width:0.8;"/>
     </g>
     <g id="line2d_18">
      <g>
       <use style="fill:#262626;stroke:#262626;stroke-width:0.8;" x="135" xlink:href="#m10d724cf41" y="455.76"/>
      </g>
     </g>
     <g id="text_15">
      <!-- 30 -->
      <defs>
       <path d="M 32.3125 -1 
C 47.15625 -1 58.0625 7.890625 58.03125 19.953125 
C 58.0625 29.15625 52.484375 35.765625 42.828125 37.25 
L 42.828125 37.8125 
C 50.421875 39.765625 55.359375 45.734375 55.328125 53.90625 
C 55.359375 64.59375 46.59375 73.71875 32.59375 73.71875 
C 19.25 73.71875 8.53125 65.65625 8.171875 53.828125 
L 18.78125 53.828125 
C 19.03125 60.515625 25.328125 64.5625 32.453125 64.5625 
C 39.875 64.5625 44.75 60.046875 44.703125 53.34375 
C 44.75 46.3125 39.09375 41.6875 31.03125 41.6875 
L 24.890625 41.6875 
L 24.890625 32.734375 
L 31.03125 32.734375 
C 41.125 32.734375 46.953125 27.625 46.953125 20.3125 
C 46.953125 13.25 40.796875 8.453125 32.25 8.453125 
C 24.359375 8.453125 18.21875 12.5 17.796875 18.96875 
L 6.640625 18.96875 
C 7.109375 7.109375 17.609375 -1 32.3125 -1 
z
" id="Inter-Medium-51"/>
      </defs>
      <g style="fill:#262626;" transform="translate(106.067344 461.942422)scale(0.17 -0.17)">
       <use xlink:href="#Inter-Medium-51"/>
       <use x="64.417633" xlink:href="#Inter-Medium-48"/>
      </g>
     </g>
    </g>
    <g id="ytick_5">
     <g id="line2d_19">
      <path clip-path="url(#pdfee66b18e)" d="M 135 292.68 
L 972 292.68 
" style="fill:none;stroke:#ffffff;stroke-linecap:round;stroke-width:0.8;"/>
     </g>
     <g id="line2d_20">
      <g>
       <use style="fill:#262626;stroke:#262626;stroke-width:0.8;" x="135" xlink:href="#m10d724cf41" y="292.68"/>
      </g>
     </g>
     <g id="text_16">
      <!-- 40 -->
      <g style="fill:#262626;" transform="translate(105.9 298.862422)scale(0.17 -0.17)">
       <use xlink:href="#Inter-Medium-52"/>
       <use x="65.411942" xlink:href="#Inter-Medium-48"/>
      </g>
     </g>
    </g>
    <g id="ytick_6">
     <g id="line2d_21">
      <path clip-path="url(#pdfee66b18e)" d="M 135 129.6 
L 972 129.6 
" style="fill:none;stroke:#ffffff;stroke-linecap:round;stroke-width:0.8;"/>
     </g>
     <g id="line2d_22">
      <g>
       <use style="fill:#262626;stroke:#262626;stroke-width:0.8;" x="135" xlink:href="#m10d724cf41" y="129.6"/>
      </g>
     </g>
     <g id="text_17">
      <!-- 50 -->
      <g style="fill:#262626;" transform="translate(106.479062 135.782422)scale(0.17 -0.17)">
       <use xlink:href="#Inter-Medium-53"/>
       <use x="62.002853" xlink:href="#Inter-Medium-48"/>
      </g>
     </g>
    </g>
    <g id="text_18">
     <!-- Average helpfulness score (top 25 and top 200) -->
     <defs>
      <path d="M 14.140625 0 
L 20.8125 19.25 
L 49.21875 19.25 
L 55.859375 0 
L 67.515625 0 
L 41.34375 72.734375 
L 28.65625 72.734375 
L 2.484375 0 
z
M 24 28.484375 
L 34.734375 59.515625 
L 35.296875 59.515625 
L 46.03125 28.484375 
z
" id="Inter-Medium-65"/>
      <path d="M 53.796875 54.546875 
L 42.40625 54.546875 
L 28.625 12.578125 
L 28.0625 12.578125 
L 14.234375 54.546875 
L 2.84375 54.546875 
L 22.65625 0 
L 34.015625 0 
z
" id="Inter-Medium-118"/>
      <path d="M 7.140625 0 
L 17.75 0 
L 17.75 33.3125 
C 17.75 40.40625 23.265625 45.5625 30.609375 45.5625 
C 32.671875 45.5625 34.265625 45.140625 35.546875 44.5 
L 38.953125 53.375 
C 37.140625 54.578125 34.796875 55.359375 31.8125 55.359375 
C 25.359375 55.359375 19.953125 51.734375 17.96875 45.875 
L 17.40625 45.875 
L 17.40625 54.546875 
L 7.140625 54.546875 
z
" id="Inter-Medium-114"/>
      <path d="M 23.015625 -1.203125 
C 32.03125 -1.203125 37.109375 3.375 39.140625 7.453125 
L 39.5625 7.453125 
L 39.5625 0 
L 49.9375 0 
L 49.9375 36.21875 
C 49.9375 52.09375 37.4375 55.25 28.765625 55.25 
C 18.890625 55.25 9.796875 51.28125 6.25 41.328125 
L 16.234375 39.0625 
C 17.796875 42.9375 21.765625 46.65625 28.90625 46.65625 
C 35.765625 46.65625 39.28125 43.078125 39.28125 36.890625 
L 39.28125 36.640625 
C 39.28125 32.78125 35.296875 32.84375 25.5 31.71875 
C 15.171875 30.5 4.578125 27.8125 4.578125 15.40625 
C 4.578125 4.6875 12.640625 -1.203125 23.015625 -1.203125 
z
M 25.328125 7.3125 
C 19.3125 7.3125 14.984375 10.015625 14.984375 15.265625 
C 14.984375 20.953125 20.03125 22.96875 26.171875 23.796875 
C 29.625 24.25 37.78125 25.171875 39.3125 26.703125 
L 39.3125 19.671875 
C 39.3125 13.203125 34.15625 7.3125 25.328125 7.3125 
z
" id="Inter-Medium-97"/>
      <path d="M 30.015625 -21.484375 
C 43.890625 -21.484375 54.625 -15.125 54.625 -1.203125 
L 54.625 54.546875 
L 44.21875 54.546875 
L 44.21875 45.703125 
L 43.4375 45.703125 
C 41.546875 49.078125 37.78125 55.25 27.625 55.25 
C 14.453125 55.25 4.765625 44.84375 4.765625 27.484375 
C 4.765625 10.078125 14.671875 0.8125 27.5625 0.8125 
C 37.578125 0.8125 41.4375 6.46875 43.359375 9.9375 
L 44.03125 9.9375 
L 44.03125 -0.78125 
C 44.03125 -9.203125 38.171875 -12.921875 30.109375 -12.921875 
C 21.265625 -12.921875 17.828125 -8.484375 15.953125 -5.46875 
L 6.8125 -9.234375 
C 9.703125 -15.796875 16.96875 -21.484375 30.015625 -21.484375 
z
M 29.90625 9.625 
C 20.421875 9.625 15.484375 16.90625 15.484375 27.625 
C 15.484375 38.109375 20.3125 46.234375 29.90625 46.234375 
C 39.171875 46.234375 44.140625 38.671875 44.140625 27.625 
C 44.140625 16.375 39.0625 9.625 29.90625 9.625 
z
" id="Inter-Medium-103"/>
      <path id="Inter-Medium-32"/>
      <path d="M 17.75 32.390625 
C 17.75 41.09375 23.265625 46.0625 30.828125 46.0625 
C 38.140625 46.0625 42.515625 41.40625 42.515625 33.421875 
L 42.515625 0 
L 53.125 0 
L 53.125 34.6875 
C 53.125 48.296875 45.671875 55.25 34.453125 55.25 
C 25.953125 55.25 20.84375 51.5625 18.296875 45.671875 
L 17.609375 45.671875 
L 17.609375 72.734375 
L 7.140625 72.734375 
L 7.140625 0 
L 17.75 0 
z
" id="Inter-Medium-104"/>
      <path d="M 17.75 72.734375 
L 7.140625 72.734375 
L 7.140625 0 
L 17.75 0 
z
" id="Inter-Medium-108"/>
      <path d="M 7.140625 -20.453125 
L 17.75 -20.453125 
L 17.75 8.484375 
L 18.390625 8.484375 
C 20.3125 5 24.21875 -1.0625 34.15625 -1.0625 
C 47.375 -1.0625 56.96875 9.515625 56.96875 27.171875 
C 56.96875 44.84375 47.234375 55.25 34.0625 55.25 
C 23.9375 55.25 20.28125 49.078125 18.390625 45.703125 
L 17.515625 45.703125 
L 17.515625 54.546875 
L 7.140625 54.546875 
z
M 17.546875 27.265625 
C 17.546875 38.671875 22.515625 46.234375 31.78125 46.234375 
C 41.40625 46.234375 46.234375 38.109375 46.234375 27.265625 
C 46.234375 16.328125 41.265625 7.984375 31.78125 7.984375 
C 22.65625 7.984375 17.546875 15.796875 17.546875 27.265625 
z
" id="Inter-Medium-112"/>
      <path d="M 33.28125 54.546875 
L 21.515625 54.546875 
L 21.515625 59.453125 
C 21.515625 64.28125 23.515625 66.90625 28.6875 66.90625 
C 30.890625 66.90625 32.453125 66.40625 33.453125 66.09375 
L 35.9375 74.6875 
C 34.453125 75.25 31.359375 76.140625 27.0625 76.140625 
C 18.4375 76.140625 10.875 71.09375 10.875 60.859375 
L 10.875 54.546875 
L 2.453125 54.546875 
L 2.453125 46.015625 
L 10.875 46.015625 
L 10.875 0 
L 21.515625 0 
L 21.515625 46.015625 
L 33.28125 46.015625 
z
" id="Inter-Medium-102"/>
      <path d="M 41.6875 22.625 
C 41.734375 13.359375 34.84375 8.953125 28.875 8.953125 
C 22.296875 8.953125 17.75 13.703125 17.75 21.125 
L 17.75 54.546875 
L 7.140625 54.546875 
L 7.140625 19.84375 
C 7.140625 6.328125 14.5625 -0.703125 25.03125 -0.703125 
C 33.234375 -0.703125 38.8125 3.625 41.34375 9.453125 
L 41.90625 9.453125 
L 41.90625 0 
L 52.34375 0 
L 52.34375 54.546875 
L 41.6875 54.546875 
z
" id="Inter-Medium-117"/>
      <path d="M 17.75 32.390625 
C 17.75 41.09375 23.078125 46.0625 30.46875 46.0625 
C 37.671875 46.0625 42.046875 41.328125 42.046875 33.421875 
L 42.046875 0 
L 52.671875 0 
L 52.671875 34.6875 
C 52.671875 48.1875 45.25 55.25 34.09375 55.25 
C 25.890625 55.25 20.53125 51.453125 18 45.671875 
L 17.328125 45.671875 
L 17.328125 54.546875 
L 7.140625 54.546875 
L 7.140625 0 
L 17.75 0 
z
" id="Inter-Medium-110"/>
      <path d="M 48.015625 41.234375 
C 45.8125 49.71875 39.171875 55.25 27.375 55.25 
C 15.0625 55.25 6.328125 48.75 6.328125 39.09375 
C 6.328125 31.359375 11.015625 26.203125 21.234375 23.9375 
L 30.46875 21.90625 
C 35.71875 20.734375 38.171875 18.390625 38.171875 14.984375 
C 38.171875 10.765625 33.671875 7.453125 26.703125 7.453125 
C 20.34375 7.453125 16.265625 10.1875 14.984375 15.546875 
L 4.71875 13.984375 
C 6.5 4.328125 14.53125 -1.09375 26.78125 -1.09375 
C 39.953125 -1.09375 49.078125 5.890625 49.078125 15.765625 
C 49.078125 23.46875 44.171875 28.234375 34.15625 30.546875 
L 25.5 32.53125 
C 19.5 33.953125 16.90625 35.96875 16.9375 39.671875 
C 16.90625 43.859375 21.453125 46.84375 27.484375 46.84375 
C 34.09375 46.84375 37.140625 43.1875 38.390625 39.53125 
z
" id="Inter-Medium-115"/>
      <path d="M 30.109375 -1.09375 
C 43 -1.09375 51.34375 6.640625 52.515625 17.265625 
L 42.1875 17.265625 
C 40.84375 11.359375 36.265625 7.890625 30.1875 7.890625 
C 21.203125 7.890625 15.40625 15.375 15.40625 27.265625 
C 15.40625 38.953125 21.3125 46.3125 30.1875 46.3125 
C 36.9375 46.3125 41.046875 42.046875 42.1875 36.9375 
L 52.515625 36.9375 
C 51.390625 47.9375 42.40625 55.25 30.015625 55.25 
C 14.625 55.25 4.6875 43.671875 4.6875 27.03125 
C 4.6875 10.578125 14.28125 -1.09375 30.109375 -1.09375 
z
" id="Inter-Medium-99"/>
      <path d="M 30.109375 -1.09375 
C 45.484375 -1.09375 55.546875 10.15625 55.546875 27.03125 
C 55.546875 44 45.484375 55.25 30.109375 55.25 
C 14.734375 55.25 4.6875 44 4.6875 27.03125 
C 4.6875 10.15625 14.734375 -1.09375 30.109375 -1.09375 
z
M 30.15625 7.8125 
C 20.09375 7.8125 15.40625 16.578125 15.40625 27.0625 
C 15.40625 37.5 20.09375 46.375 30.15625 46.375 
C 40.125 46.375 44.8125 37.5 44.8125 27.0625 
C 44.8125 16.578125 40.125 7.8125 30.15625 7.8125 
z
" id="Inter-Medium-111"/>
      <path d="M 10.234375 30.1875 
C 10.234375 12.359375 14.984375 -2.484375 24 -15.125 
L 33.734375 -15.125 
C 26.734375 -5.75 21.234375 13.28125 21.234375 30.1875 
C 21.234375 47.046875 26.734375 66.09375 33.734375 75.46875 
L 24 75.46875 
C 14.984375 62.8125 10.234375 47.96875 10.234375 30.1875 
z
" id="Inter-Medium-40"/>
      <path d="M 32.59375 54.546875 
L 21.421875 54.546875 
L 21.421875 67.609375 
L 10.796875 67.609375 
L 10.796875 54.546875 
L 2.8125 54.546875 
L 2.8125 46.015625 
L 10.796875 46.015625 
L 10.796875 13.8125 
C 10.765625 3.90625 18.328125 -0.890625 26.703125 -0.703125 
C 30.078125 -0.671875 32.359375 -0.03125 33.59375 0.421875 
L 31.671875 9.203125 
C 30.96875 9.0625 29.65625 8.734375 27.953125 8.734375 
C 24.5 8.734375 21.421875 9.875 21.421875 16.015625 
L 21.421875 46.015625 
L 32.59375 46.015625 
z
" id="Inter-Medium-116"/>
      <path d="M 27.5625 -1.0625 
C 37.5 -1.0625 41.40625 5 43.328125 8.484375 
L 44.21875 8.484375 
L 44.21875 0 
L 54.578125 0 
L 54.578125 72.734375 
L 43.96875 72.734375 
L 43.96875 45.703125 
L 43.328125 45.703125 
C 41.40625 49.078125 37.78125 55.25 27.625 55.25 
C 14.453125 55.25 4.765625 44.84375 4.765625 27.171875 
C 4.765625 9.515625 14.3125 -1.0625 27.5625 -1.0625 
z
M 29.90625 7.984375 
C 20.421875 7.984375 15.484375 16.328125 15.484375 27.265625 
C 15.484375 38.109375 20.3125 46.234375 29.90625 46.234375 
C 39.171875 46.234375 44.140625 38.671875 44.140625 27.265625 
C 44.140625 15.796875 39.0625 7.984375 29.90625 7.984375 
z
" id="Inter-Medium-100"/>
      <path d="M 27.5625 30.15625 
C 27.5625 47.96875 22.796875 62.8125 13.78125 75.46875 
L 4.046875 75.46875 
C 11.046875 66.09375 16.546875 47.046875 16.546875 30.15625 
C 16.546875 13.28125 11.046875 -5.75 4.046875 -15.125 
L 13.78125 -15.125 
C 22.796875 -2.484375 27.5625 12.359375 27.5625 30.15625 
z
" id="Inter-Medium-41"/>
     </defs>
     <g style="fill:#c73e31;" transform="translate(97.173437 789.949375)rotate(-90)scale(0.22 -0.22)">
      <use xlink:href="#Inter-Medium-65"/>
      <use x="69.99292" xlink:href="#Inter-Medium-118"/>
      <use x="126.63356" xlink:href="#Inter-Medium-101"/>
      <use x="185.36937" xlink:href="#Inter-Medium-114"/>
      <use x="225.21312" xlink:href="#Inter-Medium-97"/>
      <use x="282.137848" xlink:href="#Inter-Medium-103"/>
      <use x="343.856613" xlink:href="#Inter-Medium-101"/>
      <use x="402.592422" xlink:href="#Inter-Medium-32"/>
      <use x="429.083908" xlink:href="#Inter-Medium-104"/>
      <use x="489.275681" xlink:href="#Inter-Medium-101"/>
      <use x="548.01149" xlink:href="#Inter-Medium-108"/>
      <use x="572.904953" xlink:href="#Inter-Medium-112"/>
      <use x="634.623718" xlink:href="#Inter-Medium-102"/>
      <use x="671.697586" xlink:href="#Inter-Medium-117"/>
      <use x="731.143616" xlink:href="#Inter-Medium-108"/>
      <use x="756.037079" xlink:href="#Inter-Medium-110"/>
      <use x="815.767197" xlink:href="#Inter-Medium-101"/>
      <use x="874.503006" xlink:href="#Inter-Medium-115"/>
      <use x="928.089661" xlink:href="#Inter-Medium-115"/>
      <use x="981.676315" xlink:href="#Inter-Medium-32"/>
      <use x="1008.167801" xlink:href="#Inter-Medium-115"/>
      <use x="1061.754456" xlink:href="#Inter-Medium-99"/>
      <use x="1118.53714" xlink:href="#Inter-Medium-111"/>
      <use x="1178.76442" xlink:href="#Inter-Medium-114"/>
      <use x="1218.60817" xlink:href="#Inter-Medium-101"/>
      <use x="1277.343979" xlink:href="#Inter-Medium-32"/>
      <use x="1303.835464" xlink:href="#Inter-Medium-40"/>
      <use x="1341.619568" xlink:href="#Inter-Medium-116"/>
      <use x="1378.799973" xlink:href="#Inter-Medium-111"/>
      <use x="1439.027252" xlink:href="#Inter-Medium-112"/>
      <use x="1500.746017" xlink:href="#Inter-Medium-32"/>
      <use x="1527.237503" xlink:href="#Inter-Medium-50"/>
      <use x="1588.565643" xlink:href="#Inter-Medium-53"/>
      <use x="1650.568497" xlink:href="#Inter-Medium-32"/>
      <use x="1677.059982" xlink:href="#Inter-Medium-97"/>
      <use x="1733.984711" xlink:href="#Inter-Medium-110"/>
      <use x="1793.714828" xlink:href="#Inter-Medium-100"/>
      <use x="1856.285858" xlink:href="#Inter-Medium-32"/>
      <use x="1882.777344" xlink:href="#Inter-Medium-116"/>
      <use x="1919.957748" xlink:href="#Inter-Medium-111"/>
      <use x="1980.185028" xlink:href="#Inter-Medium-112"/>
      <use x="2041.903793" xlink:href="#Inter-Medium-32"/>
      <use x="2068.395279" xlink:href="#Inter-Medium-50"/>
      <use x="2129.723419" xlink:href="#Inter-Medium-48"/>
      <use x="2194.318604" xlink:href="#Inter-Medium-48"/>
      <use x="2258.913788" xlink:href="#Inter-Medium-41"/>
     </g>
    </g>
   </g>
   <g id="line2d_23">
    <path clip-path="url(#pdfee66b18e)" d="M 173.045455 823.01616 
L 193.050576 845.84736 
L 215.199104 768.8736 
L 236.633163 757.13184 
L 258.78169 769.52592 
L 280.215749 459.0216 
L 302.364277 743.43312 
L 324.512804 648.1944 
L 345.946863 788.4432 
L 368.095391 615.5784 
L 389.529449 757.78416 
L 411.677977 627.97248 
L 433.826504 799.53264 
L 453.831626 831.49632 
L 475.980154 805.40352 
L 497.414213 515.77344 
L 519.56274 663.19776 
L 540.996799 561.43584 
L 563.145327 698.42304 
L 585.293854 836.06256 
L 606.727913 504.684 
L 628.87644 798.88032 
L 650.310499 464.89248 
L 672.459027 664.5024 
L 694.607554 802.14192 
L 715.327145 794.31408 
L 737.475672 423.79632 
L 758.909731 686.02896 
L 781.058259 677.5488 
L 802.492318 663.19776 
L 824.640845 567.30672 
L 846.789373 451.19376 
L 868.223431 463.58784 
L 890.371959 773.43984 
L 911.806018 775.3968 
L 933.954545 843.23808 
" style="fill:none;stroke:#ff7f00;stroke-linecap:round;stroke-width:2;"/>
   </g>
   <g id="line2d_24">
    <path clip-path="url(#pdfee66b18e)" d="M 173.045455 926.32734 
L 193.050576 932.27976 
L 215.199104 922.9842 
L 236.633163 921.51648 
L 258.78169 918.74412 
L 280.215749 879.93108 
L 302.364277 918.33642 
L 324.512804 905.69772 
L 345.946863 924.94116 
L 368.095391 891.5913 
L 389.529449 911.24244 
L 411.677977 896.076 
L 433.826504 920.70108 
L 453.831626 929.5074 
L 475.980154 924.37038 
L 497.414213 884.2527 
L 519.56274 906.43158 
L 540.996799 887.75892 
L 563.145327 909.44856 
L 585.293854 929.26278 
L 606.727913 880.9911 
L 628.87644 918.66258 
L 650.310499 872.10324 
L 672.459027 896.64678 
L 694.607554 922.00572 
L 715.327145 917.2764 
L 737.475672 867.9447 
L 758.909731 897.21756 
L 781.058259 903.16998 
L 802.492318 897.13602 
L 824.640845 886.37274 
L 846.789373 867.86316 
L 868.223431 879.11568 
L 890.371959 919.64106 
L 911.806018 920.1303 
L 933.954545 930.15972 
" style="fill:none;stroke:#c73e31;stroke-linecap:round;stroke-width:2;"/>
   </g>
   <g id="patch_3">
    <path d="M 135 945 
L 135 129.6 
" style="fill:none;stroke:#ffffff;stroke-linecap:square;stroke-linejoin:miter;stroke-width:0.8;"/>
   </g>
   <g id="patch_4">
    <path d="M 972 945 
L 972 129.6 
" style="fill:none;stroke:#ffffff;stroke-linecap:square;stroke-linejoin:miter;stroke-width:0.8;"/>
   </g>
   <g id="patch_5">
    <path d="M 135 945 
L 972 945 
" style="fill:none;stroke:#ffffff;stroke-linecap:square;stroke-linejoin:miter;stroke-width:0.8;"/>
   </g>
   <g id="patch_6">
    <path d="M 135 129.6 
L 972 129.6 
" style="fill:none;stroke:#ffffff;stroke-linecap:square;stroke-linejoin:miter;stroke-width:0.8;"/>
   </g>
  </g>
  <g id="axes_2">
   <g id="matplotlib.axis_3"/>
   <g id="patch_7">
    <path d="M 135 945 
L 135 129.6 
" style="fill:none;stroke:#ffffff;stroke-linecap:square;stroke-linejoin:miter;stroke-width:0.8;"/>
   </g>
   <g id="patch_8">
    <path d="M 972 945 
L 972 129.6 
" style="fill:none;stroke:#ffffff;stroke-linecap:square;stroke-linejoin:miter;stroke-width:0.8;"/>
   </g>
   <g id="patch_9">
    <path d="M 135 945 
L 972 945 
" style="fill:none;stroke:#ffffff;stroke-linecap:square;stroke-linejoin:miter;stroke-width:0.8;"/>
   </g>
   <g id="patch_10">
    <path d="M 135 129.6 
L 972 129.6 
" style="fill:none;stroke:#ffffff;stroke-linecap:square;stroke-linejoin:miter;stroke-width:0.8;"/>
   </g>
  </g>
  <g id="axes_3">
   <g id="matplotlib.axis_4">
    <g id="ytick_7">
     <g id="line2d_25">
      <path clip-path="url(#pdfee66b18e)" d="M 135 945 
L 972 945 
" style="fill:none;stroke:#ffffff;stroke-linecap:round;stroke-width:0.8;"/>
     </g>
     <g id="line2d_26">
      <defs>
       <path d="M 0 0 
L 3.5 0 
" id="ma2ef708bff" style="stroke:#262626;stroke-width:0.8;"/>
      </defs>
      <g>
       <use style="fill:#262626;stroke:#262626;stroke-width:0.8;" x="972" xlink:href="#ma2ef708bff" y="945"/>
      </g>
     </g>
     <g id="text_19">
      <!-- 0 -->
      <g style="fill:#262626;" transform="translate(979 951.182422)scale(0.17 -0.17)">
       <use xlink:href="#Inter-Medium-48"/>
      </g>
     </g>
    </g>
    <g id="ytick_8">
     <g id="line2d_27">
      <path clip-path="url(#pdfee66b18e)" d="M 135 781.92 
L 972 781.92 
" style="fill:none;stroke:#ffffff;stroke-linecap:round;stroke-width:0.8;"/>
     </g>
     <g id="line2d_28">
      <g>
       <use style="fill:#262626;stroke:#262626;stroke-width:0.8;" x="972" xlink:href="#ma2ef708bff" y="781.92"/>
      </g>
     </g>
     <g id="text_20">
      <!-- 5K -->
      <defs>
       <path d="M 7.984375 0 
L 18.96875 0 
L 18.96875 22.625 
L 27.5625 32.5 
L 51.0625 0 
L 64.28125 0 
L 34.84375 39.984375 
L 64.171875 72.734375 
L 50.359375 72.734375 
L 19.859375 38 
L 18.96875 38 
L 18.96875 72.734375 
L 7.984375 72.734375 
z
" id="Inter-Medium-75"/>
      </defs>
      <g style="fill:#262626;" transform="translate(979 788.102422)scale(0.17 -0.17)">
       <use xlink:href="#Inter-Medium-53"/>
       <use x="62.002853" xlink:href="#Inter-Medium-75"/>
      </g>
     </g>
    </g>
    <g id="ytick_9">
     <g id="line2d_29">
      <path clip-path="url(#pdfee66b18e)" d="M 135 618.84 
L 972 618.84 
" style="fill:none;stroke:#ffffff;stroke-linecap:round;stroke-width:0.8;"/>
     </g>
     <g id="line2d_30">
      <g>
       <use style="fill:#262626;stroke:#262626;stroke-width:0.8;" x="972" xlink:href="#ma2ef708bff" y="618.84"/>
      </g>
     </g>
     <g id="text_21">
      <!-- 10K -->
      <g style="fill:#262626;" transform="translate(979 625.022422)scale(0.17 -0.17)">
       <use xlink:href="#Inter-Medium-49"/>
       <use x="45.241486" xlink:href="#Inter-Medium-48"/>
       <use x="109.83667" xlink:href="#Inter-Medium-75"/>
      </g>
     </g>
    </g>
    <g id="ytick_10">
     <g id="line2d_31">
      <path clip-path="url(#pdfee66b18e)" d="M 135 455.76 
L 972 455.76 
" style="fill:none;stroke:#ffffff;stroke-linecap:round;stroke-width:0.8;"/>
     </g>
     <g id="line2d_32">
      <g>
       <use style="fill:#262626;stroke:#262626;stroke-width:0.8;" x="972" xlink:href="#ma2ef708bff" y="455.76"/>
      </g>
     </g>
     <g id="text_22">
      <!-- 15K -->
      <g style="fill:#262626;" transform="translate(979 461.942422)scale(0.17 -0.17)">
       <use xlink:href="#Inter-Medium-49"/>
       <use x="45.241486" xlink:href="#Inter-Medium-53"/>
       <use x="107.244339" xlink:href="#Inter-Medium-75"/>
      </g>
     </g>
    </g>
    <g id="ytick_11">
     <g id="line2d_33">
      <path clip-path="url(#pdfee66b18e)" d="M 135 292.68 
L 972 292.68 
" style="fill:none;stroke:#ffffff;stroke-linecap:round;stroke-width:0.8;"/>
     </g>
     <g id="line2d_34">
      <g>
       <use style="fill:#262626;stroke:#262626;stroke-width:0.8;" x="972" xlink:href="#ma2ef708bff" y="292.68"/>
      </g>
     </g>
     <g id="text_23">
      <!-- 20K -->
      <g style="fill:#262626;" transform="translate(979 298.862422)scale(0.17 -0.17)">
       <use xlink:href="#Inter-Medium-50"/>
       <use x="61.32814" xlink:href="#Inter-Medium-48"/>
       <use x="125.923325" xlink:href="#Inter-Medium-75"/>
      </g>
     </g>
    </g>
    <g id="ytick_12">
     <g id="line2d_35">
      <path clip-path="url(#pdfee66b18e)" d="M 135 129.6 
L 972 129.6 
" style="fill:none;stroke:#ffffff;stroke-linecap:round;stroke-width:0.8;"/>
     </g>
     <g id="line2d_36">
      <g>
       <use style="fill:#262626;stroke:#262626;stroke-width:0.8;" x="972" xlink:href="#ma2ef708bff" y="129.6"/>
      </g>
     </g>
     <g id="text_24">
      <!-- 25K -->
      <g style="fill:#262626;" transform="translate(979 135.782422)scale(0.17 -0.17)">
       <use xlink:href="#Inter-Medium-50"/>
       <use x="61.32814" xlink:href="#Inter-Medium-53"/>
       <use x="123.330994" xlink:href="#Inter-Medium-75"/>
      </g>
     </g>
    </g>
    <g id="text_25">
     <!-- Total expressed helpfulness votes on reviews -->
     <defs>
      <path d="M 15.515625 54.546875 
L 3.875 54.546875 
L 20.640625 27.265625 
L 3.65625 0 
L 15.3125 0 
L 27.5625 20.390625 
L 39.84375 0 
L 51.453125 0 
L 34.3125 27.265625 
L 51.3125 54.546875 
L 39.703125 54.546875 
L 27.5625 33.3125 
z
" id="Inter-Medium-120"/>
      <path d="M 18.96875 0 
L 29.765625 0 
L 40.84375 39.375 
L 41.65625 39.375 
L 52.734375 0 
L 63.5625 0 
L 79.578125 54.546875 
L 68.609375 54.546875 
L 57.984375 14.671875 
L 57.453125 14.671875 
L 46.8125 54.546875 
L 35.828125 54.546875 
L 25.109375 14.484375 
L 24.578125 14.484375 
L 13.890625 54.546875 
L 2.90625 54.546875 
z
" id="Inter-Medium-119"/>
     </defs>
     <g style="fill:#3d6d3c;" transform="translate(1032.452031 778.57125)rotate(-90)scale(0.22 -0.22)">
      <use xlink:href="#Inter-Medium-84"/>
      <use x="65.092346" xlink:href="#Inter-Medium-111"/>
      <use x="125.319626" xlink:href="#Inter-Medium-116"/>
      <use x="162.500031" xlink:href="#Inter-Medium-97"/>
      <use x="219.424759" xlink:href="#Inter-Medium-108"/>
      <use x="244.318222" xlink:href="#Inter-Medium-32"/>
      <use x="270.809708" xlink:href="#Inter-Medium-101"/>
      <use x="329.545517" xlink:href="#Inter-Medium-120"/>
      <use x="384.659164" xlink:href="#Inter-Medium-112"/>
      <use x="446.37793" xlink:href="#Inter-Medium-114"/>
      <use x="486.22168" xlink:href="#Inter-Medium-101"/>
      <use x="544.957489" xlink:href="#Inter-Medium-115"/>
      <use x="598.544144" xlink:href="#Inter-Medium-115"/>
      <use x="652.130798" xlink:href="#Inter-Medium-101"/>
      <use x="710.866608" xlink:href="#Inter-Medium-100"/>
      <use x="773.437637" xlink:href="#Inter-Medium-32"/>
      <use x="799.929123" xlink:href="#Inter-Medium-104"/>
      <use x="860.120895" xlink:href="#Inter-Medium-101"/>
      <use x="918.856705" xlink:href="#Inter-Medium-108"/>
      <use x="943.750168" xlink:href="#Inter-Medium-112"/>
      <use x="1005.468933" xlink:href="#Inter-Medium-102"/>
      <use x="1042.542801" xlink:href="#Inter-Medium-117"/>
      <use x="1101.988831" xlink:href="#Inter-Medium-108"/>
      <use x="1126.882294" xlink:href="#Inter-Medium-110"/>
      <use x="1186.612411" xlink:href="#Inter-Medium-101"/>
      <use x="1245.348221" xlink:href="#Inter-Medium-115"/>
      <use x="1298.934875" xlink:href="#Inter-Medium-115"/>
      <use x="1352.52153" xlink:href="#Inter-Medium-32"/>
      <use x="1379.013016" xlink:href="#Inter-Medium-118"/>
      <use x="1435.653656" xlink:href="#Inter-Medium-111"/>
      <use x="1495.880936" xlink:href="#Inter-Medium-116"/>
      <use x="1533.06134" xlink:href="#Inter-Medium-101"/>
      <use x="1591.79715" xlink:href="#Inter-Medium-115"/>
      <use x="1645.383804" xlink:href="#Inter-Medium-32"/>
      <use x="1671.87529" xlink:href="#Inter-Medium-111"/>
      <use x="1732.10257" xlink:href="#Inter-Medium-110"/>
      <use x="1791.832687" xlink:href="#Inter-Medium-32"/>
      <use x="1818.324173" xlink:href="#Inter-Medium-114"/>
      <use x="1858.167923" xlink:href="#Inter-Medium-101"/>
      <use x="1916.903732" xlink:href="#Inter-Medium-118"/>
      <use x="1973.544373" xlink:href="#Inter-Medium-105"/>
      <use x="1998.437836" xlink:href="#Inter-Medium-101"/>
      <use x="2057.173645" xlink:href="#Inter-Medium-119"/>
      <use x="2139.666565" xlink:href="#Inter-Medium-115"/>
     </g>
    </g>
   </g>
   <g id="line2d_37">
    <path clip-path="url(#pdfee66b18e)" d="M 173.045455 625.102272 
L 193.050576 709.740792 
L 215.199104 720.43884 
L 236.633163 513.881712 
L 258.78169 564.566976 
L 280.215749 571.448952 
L 302.364277 527.613048 
L 324.512804 649.33596 
L 345.946863 393.202512 
L 368.095391 188.14572 
L 389.529449 216.35856 
L 411.677977 184.818888 
L 433.826504 462.77244 
L 453.831626 527.254272 
L 475.980154 436.614408 
L 497.414213 328.655448 
L 519.56274 440.397864 
L 540.996799 476.079768 
L 563.145327 442.87668 
L 585.293854 414.82692 
L 606.727913 228.393864 
L 628.87644 297.996408 
L 650.310499 217.565352 
L 672.459027 337.69008 
L 694.607554 334.624176 
L 715.327145 413.946288 
L 737.475672 143.429184 
L 758.909731 292.875696 
L 781.058259 308.042136 
L 802.492318 283.286592 
L 824.640845 247.800384 
L 846.789373 468.871632 
L 868.223431 501.715944 
L 890.371959 627.776784 
L 911.806018 732.963384 
L 933.954545 740.628144 
" style="fill:none;stroke:#4daf4a;stroke-linecap:round;stroke-width:2;"/>
   </g>
   <g id="patch_11">
    <path d="M 135 945 
L 135 129.6 
" style="fill:none;stroke:#ffffff;stroke-linecap:square;stroke-linejoin:miter;stroke-width:0.8;"/>
   </g>
   <g id="patch_12">
    <path d="M 972 945 
L 972 129.6 
" style="fill:none;stroke:#ffffff;stroke-linecap:square;stroke-linejoin:miter;stroke-width:0.8;"/>
   </g>
   <g id="patch_13">
    <path d="M 135 945 
L 972 945 
" style="fill:none;stroke:#ffffff;stroke-linecap:square;stroke-linejoin:miter;stroke-width:0.8;"/>
   </g>
   <g id="patch_14">
    <path d="M 135 129.6 
L 972 129.6 
" style="fill:none;stroke:#ffffff;stroke-linecap:square;stroke-linejoin:miter;stroke-width:0.8;"/>
   </g>
  </g>
 </g>
 <defs>
  <clipPath id="pdfee66b18e">
   <rect height="815.4" width="837" x="135" y="129.6"/>
  </clipPath>
 </defs>
</svg>
