<?xml version="1.0" encoding="utf-8" standalone="no"?>
<!DOCTYPE svg PUBLIC "-//W3C//DTD SVG 1.1//EN"
  "http://www.w3.org/Graphics/SVG/1.1/DTD/svg11.dtd">
<!-- Created with matplotlib (https://matplotlib.org/) -->
<svg height="345.6pt" version="1.1" viewBox="0 0 460.8 345.6" width="460.8pt" xmlns="http://www.w3.org/2000/svg" xmlns:xlink="http://www.w3.org/1999/xlink">
 <defs>
  <style type="text/css">
*{stroke-linecap:butt;stroke-linejoin:round;}
  </style>
 </defs>
 <g id="figure_1">
  <g id="patch_1">
   <path d="M 0 345.6 
L 460.8 345.6 
L 460.8 0 
L 0 0 
z
" style="fill:#ffffff;"/>
  </g>
  <g id="axes_1">
   <g id="patch_2">
    <path d="M 57.6 307.584 
L 414.72 307.584 
L 414.72 41.472 
L 57.6 41.472 
z
" style="fill:#ffffff;"/>
   </g>
   <g id="PolyCollection_1">
    <defs>
     <path d="M 118.539935 -53.936489 
L 115.700065 -53.936489 
L 109.50627 -56.302863 
L 94.088913 -58.669237 
L 75.979264 -61.035611 
L 69.504 -63.401985 
L 75.08013 -65.768359 
L 83.034624 -68.134733 
L 89.187046 -70.501107 
L 93.597871 -72.867481 
L 96.606865 -75.233855 
L 98.292021 -77.600229 
L 98.639628 -79.966603 
L 98.158081 -82.332977 
L 97.959588 -84.699351 
L 98.782821 -87.065725 
L 100.42074 -89.432098 
L 102.240918 -91.798472 
L 103.811889 -94.164846 
L 105.040945 -96.53122 
L 106.034757 -98.897594 
L 106.900367 -101.263968 
L 107.664989 -103.630342 
L 108.329596 -105.996716 
L 108.910546 -108.36309 
L 109.435669 -110.729464 
L 109.91843 -113.095838 
L 110.36939 -115.462212 
L 110.801658 -117.828586 
L 111.199281 -120.19496 
L 111.539781 -122.561334 
L 111.833948 -124.927708 
L 112.110515 -127.294082 
L 112.386373 -129.660456 
L 112.648141 -132.02683 
L 112.881014 -134.393204 
L 113.08787 -136.759578 
L 113.271036 -139.125952 
L 113.441266 -141.492326 
L 113.608082 -143.858699 
L 113.769766 -146.225073 
L 113.923466 -148.591447 
L 114.057622 -150.957821 
L 114.168724 -153.324195 
L 114.273893 -155.690569 
L 114.38684 -158.056943 
L 114.502201 -160.423317 
L 114.605058 -162.789691 
L 114.687736 -165.156065 
L 114.763568 -167.522439 
L 114.853028 -169.888813 
L 114.95443 -172.255187 
L 115.049263 -174.621561 
L 115.123207 -176.987935 
L 115.186594 -179.354309 
L 115.256252 -181.720683 
L 115.326868 -184.087057 
L 115.394757 -186.453431 
L 115.46686 -188.819805 
L 115.536688 -191.186179 
L 115.58888 -193.552553 
L 115.628193 -195.918927 
L 115.667539 -198.285301 
L 115.70663 -200.651674 
L 115.743105 -203.018048 
L 115.78155 -205.384422 
L 115.823091 -207.750796 
L 115.862469 -210.11717 
L 115.895047 -212.483544 
L 115.92228 -214.849918 
L 115.947485 -217.216292 
L 115.977804 -219.582666 
L 116.016336 -221.94904 
L 116.049675 -224.315414 
L 116.071595 -226.681788 
L 116.092444 -229.048162 
L 116.118976 -231.414536 
L 116.14918 -233.78091 
L 116.178639 -236.147284 
L 116.205019 -238.513658 
L 116.232301 -240.880032 
L 116.264975 -243.246406 
L 116.295121 -245.61278 
L 116.312488 -247.979154 
L 116.32234 -250.345528 
L 116.33451 -252.711902 
L 116.351519 -255.078275 
L 116.371927 -257.444649 
L 116.394903 -259.811023 
L 116.418021 -262.177397 
L 116.435787 -264.543771 
L 116.445549 -266.910145 
L 116.452065 -269.276519 
L 116.463934 -271.642893 
L 116.480141 -274.009267 
L 116.500248 -276.375641 
L 116.557621 -278.742015 
L 116.700305 -281.108389 
L 116.897015 -283.474763 
L 117.044581 -285.841137 
L 117.104917 -288.207511 
L 117.135083 -288.207511 
L 117.135083 -288.207511 
L 117.195419 -285.841137 
L 117.342985 -283.474763 
L 117.539695 -281.108389 
L 117.682379 -278.742015 
L 117.739752 -276.375641 
L 117.759859 -274.009267 
L 117.776066 -271.642893 
L 117.787935 -269.276519 
L 117.794451 -266.910145 
L 117.804213 -264.543771 
L 117.821979 -262.177397 
L 117.845097 -259.811023 
L 117.868073 -257.444649 
L 117.888481 -255.078275 
L 117.90549 -252.711902 
L 117.91766 -250.345528 
L 117.927512 -247.979154 
L 117.944879 -245.61278 
L 117.975025 -243.246406 
L 118.007699 -240.880032 
L 118.034981 -238.513658 
L 118.061361 -236.147284 
L 118.09082 -233.78091 
L 118.121024 -231.414536 
L 118.147556 -229.048162 
L 118.168405 -226.681788 
L 118.190325 -224.315414 
L 118.223664 -221.94904 
L 118.262196 -219.582666 
L 118.292515 -217.216292 
L 118.31772 -214.849918 
L 118.344953 -212.483544 
L 118.377531 -210.11717 
L 118.416909 -207.750796 
L 118.45845 -205.384422 
L 118.496895 -203.018048 
L 118.53337 -200.651674 
L 118.572461 -198.285301 
L 118.611807 -195.918927 
L 118.65112 -193.552553 
L 118.703312 -191.186179 
L 118.77314 -188.819805 
L 118.845243 -186.453431 
L 118.913132 -184.087057 
L 118.983748 -181.720683 
L 119.053406 -179.354309 
L 119.116793 -176.987935 
L 119.190737 -174.621561 
L 119.28557 -172.255187 
L 119.386972 -169.888813 
L 119.476432 -167.522439 
L 119.552264 -165.156065 
L 119.634942 -162.789691 
L 119.737799 -160.423317 
L 119.85316 -158.056943 
L 119.966107 -155.690569 
L 120.071276 -153.324195 
L 120.182378 -150.957821 
L 120.316534 -148.591447 
L 120.470234 -146.225073 
L 120.631918 -143.858699 
L 120.798734 -141.492326 
L 120.968964 -139.125952 
L 121.15213 -136.759578 
L 121.358986 -134.393204 
L 121.591859 -132.02683 
L 121.853627 -129.660456 
L 122.129485 -127.294082 
L 122.406052 -124.927708 
L 122.700219 -122.561334 
L 123.040719 -120.19496 
L 123.438342 -117.828586 
L 123.87061 -115.462212 
L 124.32157 -113.095838 
L 124.804331 -110.729464 
L 125.329454 -108.36309 
L 125.910404 -105.996716 
L 126.575011 -103.630342 
L 127.339633 -101.263968 
L 128.205243 -98.897594 
L 129.199055 -96.53122 
L 130.428111 -94.164846 
L 131.999082 -91.798472 
L 133.81926 -89.432098 
L 135.457179 -87.065725 
L 136.280412 -84.699351 
L 136.081919 -82.332977 
L 135.600372 -79.966603 
L 135.947979 -77.600229 
L 137.633135 -75.233855 
L 140.642129 -72.867481 
L 145.052954 -70.501107 
L 151.205376 -68.134733 
L 159.15987 -65.768359 
L 164.736 -63.401985 
L 158.260736 -61.035611 
L 140.151087 -58.669237 
L 124.73373 -56.302863 
L 118.539935 -53.936489 
z
" id="m5ef89013fc" style="stroke:#3d3d3d;stroke-width:1.5;"/>
    </defs>
    <g clip-path="url(#p79f974fcad)">
     <use style="fill:#3274a1;stroke:#3d3d3d;stroke-width:1.5;" x="0" xlink:href="#m5ef89013fc" y="345.6"/>
    </g>
   </g>
   <g id="PolyCollection_2">
    <defs>
     <path d="M 237.11943 -50.112 
L 235.20057 -50.112 
L 233.437035 -52.555636 
L 229.991298 -54.999273 
L 224.873751 -57.442909 
L 219.185428 -59.886545 
L 214.618866 -62.330182 
L 212.254511 -64.773818 
L 211.941667 -67.217455 
L 212.798269 -69.661091 
L 213.996409 -72.104727 
L 215.048653 -74.548364 
L 215.723349 -76.992 
L 215.989582 -79.435636 
L 216.035573 -81.879273 
L 216.189858 -84.322909 
L 216.720006 -86.766545 
L 217.675809 -89.210182 
L 218.906295 -91.653818 
L 220.197531 -94.097455 
L 221.397051 -96.541091 
L 222.454827 -98.984727 
L 223.394133 -101.428364 
L 224.25754 -103.872 
L 225.066348 -106.315636 
L 225.811603 -108.759273 
L 226.472975 -111.202909 
L 227.042525 -113.646545 
L 227.53103 -116.090182 
L 227.959569 -118.533818 
L 228.353451 -120.977455 
L 228.738986 -123.421091 
L 229.132661 -125.864727 
L 229.530121 -128.308364 
L 229.911588 -130.752 
L 230.259472 -133.195636 
L 230.56898 -135.639273 
L 230.845214 -138.082909 
L 231.096068 -140.526545 
L 231.328545 -142.970182 
L 231.547191 -145.413818 
L 231.752957 -147.857455 
L 231.94439 -150.301091 
L 232.120267 -152.744727 
L 232.280581 -155.188364 
L 232.426855 -157.632 
L 232.563729 -160.075636 
L 232.699508 -162.519273 
L 232.843088 -164.962909 
L 232.997986 -167.406545 
L 233.156586 -169.850182 
L 233.301083 -172.293818 
L 233.416001 -174.737455 
L 233.502964 -177.181091 
L 233.579903 -179.624727 
L 233.663658 -182.068364 
L 233.755938 -184.512 
L 233.846059 -186.955636 
L 233.922573 -189.399273 
L 233.981162 -191.842909 
L 234.026029 -194.286545 
L 234.066762 -196.730182 
L 234.11261 -199.173818 
L 234.167955 -201.617455 
L 234.231766 -204.061091 
L 234.300395 -206.504727 
L 234.371484 -208.948364 
L 234.445325 -211.392 
L 234.521291 -213.835636 
L 234.594276 -216.279273 
L 234.657345 -218.722909 
L 234.707766 -221.166545 
L 234.748983 -223.610182 
L 234.787091 -226.053818 
L 234.825967 -228.497455 
L 234.864686 -230.941091 
L 234.89862 -233.384727 
L 234.923679 -235.828364 
L 234.940601 -238.272 
L 234.955813 -240.715636 
L 234.97765 -243.159273 
L 235.009975 -245.602909 
L 235.048847 -248.046545 
L 235.086849 -250.490182 
L 235.120765 -252.933818 
L 235.153445 -255.377455 
L 235.188579 -257.821091 
L 235.225404 -260.264727 
L 235.258528 -262.708364 
L 235.282374 -265.152 
L 235.296646 -267.595636 
L 235.30911 -270.039273 
L 235.33437 -272.482909 
L 235.389482 -274.926545 
L 235.48689 -277.370182 
L 235.625533 -279.813818 
L 235.785528 -282.257455 
L 235.934745 -284.701091 
L 236.046365 -287.144727 
L 236.112821 -289.588364 
L 236.144112 -292.032 
L 236.175888 -292.032 
L 236.175888 -292.032 
L 236.207179 -289.588364 
L 236.273635 -287.144727 
L 236.385255 -284.701091 
L 236.534472 -282.257455 
L 236.694467 -279.813818 
L 236.83311 -277.370182 
L 236.930518 -274.926545 
L 236.98563 -272.482909 
L 237.01089 -270.039273 
L 237.023354 -267.595636 
L 237.037626 -265.152 
L 237.061472 -262.708364 
L 237.094596 -260.264727 
L 237.131421 -257.821091 
L 237.166555 -255.377455 
L 237.199235 -252.933818 
L 237.233151 -250.490182 
L 237.271153 -248.046545 
L 237.310025 -245.602909 
L 237.34235 -243.159273 
L 237.364187 -240.715636 
L 237.379399 -238.272 
L 237.396321 -235.828364 
L 237.42138 -233.384727 
L 237.455314 -230.941091 
L 237.494033 -228.497455 
L 237.532909 -226.053818 
L 237.571017 -223.610182 
L 237.612234 -221.166545 
L 237.662655 -218.722909 
L 237.725724 -216.279273 
L 237.798709 -213.835636 
L 237.874675 -211.392 
L 237.948516 -208.948364 
L 238.019605 -206.504727 
L 238.088234 -204.061091 
L 238.152045 -201.617455 
L 238.20739 -199.173818 
L 238.253238 -196.730182 
L 238.293971 -194.286545 
L 238.338838 -191.842909 
L 238.397427 -189.399273 
L 238.473941 -186.955636 
L 238.564062 -184.512 
L 238.656342 -182.068364 
L 238.740097 -179.624727 
L 238.817036 -177.181091 
L 238.903999 -174.737455 
L 239.018917 -172.293818 
L 239.163414 -169.850182 
L 239.322014 -167.406545 
L 239.476912 -164.962909 
L 239.620492 -162.519273 
L 239.756271 -160.075636 
L 239.893145 -157.632 
L 240.039419 -155.188364 
L 240.199733 -152.744727 
L 240.37561 -150.301091 
L 240.567043 -147.857455 
L 240.772809 -145.413818 
L 240.991455 -142.970182 
L 241.223932 -140.526545 
L 241.474786 -138.082909 
L 241.75102 -135.639273 
L 242.060528 -133.195636 
L 242.408412 -130.752 
L 242.789879 -128.308364 
L 243.187339 -125.864727 
L 243.581014 -123.421091 
L 243.966549 -120.977455 
L 244.360431 -118.533818 
L 244.78897 -116.090182 
L 245.277475 -113.646545 
L 245.847025 -111.202909 
L 246.508397 -108.759273 
L 247.253652 -106.315636 
L 248.06246 -103.872 
L 248.925867 -101.428364 
L 249.865173 -98.984727 
L 250.922949 -96.541091 
L 252.122469 -94.097455 
L 253.413705 -91.653818 
L 254.644191 -89.210182 
L 255.599994 -86.766545 
L 256.130142 -84.322909 
L 256.284427 -81.879273 
L 256.330418 -79.435636 
L 256.596651 -76.992 
L 257.271347 -74.548364 
L 258.323591 -72.104727 
L 259.521731 -69.661091 
L 260.378333 -67.217455 
L 260.065489 -64.773818 
L 257.701134 -62.330182 
L 253.134572 -59.886545 
L 247.446249 -57.442909 
L 242.328702 -54.999273 
L 238.882965 -52.555636 
L 237.11943 -50.112 
z
" id="m52ff720374" style="stroke:#3d3d3d;stroke-width:1.5;"/>
    </defs>
    <g clip-path="url(#p79f974fcad)">
     <use style="fill:#e1812c;stroke:#3d3d3d;stroke-width:1.5;" x="0" xlink:href="#m52ff720374" y="345.6"/>
    </g>
   </g>
   <g id="PolyCollection_3">
    <defs>
     <path d="M 355.736497 -51.188119 
L 354.663503 -51.188119 
L 353.359488 -53.610015 
L 350.361815 -56.031912 
L 345.291071 -58.453808 
L 339.017648 -60.875705 
L 333.454418 -63.297602 
L 330.173606 -65.719498 
L 329.373365 -68.141395 
L 330.187784 -70.563291 
L 331.574088 -72.985188 
L 332.799629 -75.407085 
L 333.5061 -77.828981 
L 333.703826 -80.250878 
L 333.7352 -82.672774 
L 334.056912 -85.094671 
L 334.919392 -87.516568 
L 336.233972 -89.938464 
L 337.722822 -92.360361 
L 339.141152 -94.782257 
L 340.373583 -97.204154 
L 341.410458 -99.62605 
L 342.29649 -102.047947 
L 343.092817 -104.469844 
L 343.843912 -106.89174 
L 344.556922 -109.313637 
L 345.216206 -111.735533 
L 345.814883 -114.15743 
L 346.363301 -116.579327 
L 346.873986 -119.001223 
L 347.349598 -121.42312 
L 347.785225 -123.845016 
L 348.175462 -126.266913 
L 348.518223 -128.68881 
L 348.819429 -131.110706 
L 349.096843 -133.532603 
L 349.374812 -135.954499 
L 349.66964 -138.376396 
L 349.976222 -140.798293 
L 350.272208 -143.220189 
L 350.539063 -145.642086 
L 350.776466 -148.063982 
L 350.995725 -150.485879 
L 351.203602 -152.907776 
L 351.39659 -155.329672 
L 351.569911 -157.751569 
L 351.725566 -160.173465 
L 351.869993 -162.595362 
L 352.008224 -165.017259 
L 352.13967 -167.439155 
L 352.258534 -169.861052 
L 352.361417 -172.282948 
L 352.454011 -174.704845 
L 352.549204 -177.126741 
L 352.657876 -179.548638 
L 352.778061 -181.970535 
L 352.895488 -184.392431 
L 352.998899 -186.814328 
L 353.089818 -189.236224 
L 353.174402 -191.658121 
L 353.253569 -194.080018 
L 353.324888 -196.501914 
L 353.387135 -198.923811 
L 353.441215 -201.345707 
L 353.491803 -203.767604 
L 353.546582 -206.189501 
L 353.61049 -208.611397 
L 353.681251 -211.033294 
L 353.750528 -213.45519 
L 353.809943 -215.877087 
L 353.855991 -218.298984 
L 353.889254 -220.72088 
L 353.913474 -223.142777 
L 353.936547 -225.564673 
L 353.966284 -227.98657 
L 354.004061 -230.408467 
L 354.046632 -232.830363 
L 354.09117 -235.25226 
L 354.134385 -237.674156 
L 354.17079 -240.096053 
L 354.196065 -242.51795 
L 354.211896 -244.939846 
L 354.226196 -247.361743 
L 354.247095 -249.783639 
L 354.276834 -252.205536 
L 354.31248 -254.627432 
L 354.350522 -257.049329 
L 354.388426 -259.471226 
L 354.424262 -261.893122 
L 354.45768 -264.315019 
L 354.489109 -266.736915 
L 354.517255 -269.158812 
L 354.540813 -271.580709 
L 354.564408 -274.002605 
L 354.603176 -276.424502 
L 354.678516 -278.846398 
L 354.799226 -281.268295 
L 354.943033 -283.690192 
L 355.068048 -286.112088 
L 355.147248 -288.533985 
L 355.183885 -290.955881 
L 355.216115 -290.955881 
L 355.216115 -290.955881 
L 355.252752 -288.533985 
L 355.331952 -286.112088 
L 355.456967 -283.690192 
L 355.600774 -281.268295 
L 355.721484 -278.846398 
L 355.796824 -276.424502 
L 355.835592 -274.002605 
L 355.859187 -271.580709 
L 355.882745 -269.158812 
L 355.910891 -266.736915 
L 355.94232 -264.315019 
L 355.975738 -261.893122 
L 356.011574 -259.471226 
L 356.049478 -257.049329 
L 356.08752 -254.627432 
L 356.123166 -252.205536 
L 356.152905 -249.783639 
L 356.173804 -247.361743 
L 356.188104 -244.939846 
L 356.203935 -242.51795 
L 356.22921 -240.096053 
L 356.265615 -237.674156 
L 356.30883 -235.25226 
L 356.353368 -232.830363 
L 356.395939 -230.408467 
L 356.433716 -227.98657 
L 356.463453 -225.564673 
L 356.486526 -223.142777 
L 356.510746 -220.72088 
L 356.544009 -218.298984 
L 356.590057 -215.877087 
L 356.649472 -213.45519 
L 356.718749 -211.033294 
L 356.78951 -208.611397 
L 356.853418 -206.189501 
L 356.908197 -203.767604 
L 356.958785 -201.345707 
L 357.012865 -198.923811 
L 357.075112 -196.501914 
L 357.146431 -194.080018 
L 357.225598 -191.658121 
L 357.310182 -189.236224 
L 357.401101 -186.814328 
L 357.504512 -184.392431 
L 357.621939 -181.970535 
L 357.742124 -179.548638 
L 357.850796 -177.126741 
L 357.945989 -174.704845 
L 358.038583 -172.282948 
L 358.141466 -169.861052 
L 358.26033 -167.439155 
L 358.391776 -165.017259 
L 358.530007 -162.595362 
L 358.674434 -160.173465 
L 358.830089 -157.751569 
L 359.00341 -155.329672 
L 359.196398 -152.907776 
L 359.404275 -150.485879 
L 359.623534 -148.063982 
L 359.860937 -145.642086 
L 360.127792 -143.220189 
L 360.423778 -140.798293 
L 360.73036 -138.376396 
L 361.025188 -135.954499 
L 361.303157 -133.532603 
L 361.580571 -131.110706 
L 361.881777 -128.68881 
L 362.224538 -126.266913 
L 362.614775 -123.845016 
L 363.050402 -121.42312 
L 363.526014 -119.001223 
L 364.036699 -116.579327 
L 364.585117 -114.15743 
L 365.183794 -111.735533 
L 365.843078 -109.313637 
L 366.556088 -106.89174 
L 367.307183 -104.469844 
L 368.10351 -102.047947 
L 368.989542 -99.62605 
L 370.026417 -97.204154 
L 371.258848 -94.782257 
L 372.677178 -92.360361 
L 374.166028 -89.938464 
L 375.480608 -87.516568 
L 376.343088 -85.094671 
L 376.6648 -82.672774 
L 376.696174 -80.250878 
L 376.8939 -77.828981 
L 377.600371 -75.407085 
L 378.825912 -72.985188 
L 380.212216 -70.563291 
L 381.026635 -68.141395 
L 380.226394 -65.719498 
L 376.945582 -63.297602 
L 371.382352 -60.875705 
L 365.108929 -58.453808 
L 360.038185 -56.031912 
L 357.040512 -53.610015 
L 355.736497 -51.188119 
z
" id="m91245974b7" style="stroke:#3d3d3d;stroke-width:1.5;"/>
    </defs>
    <g clip-path="url(#p79f974fcad)">
     <use style="fill:#3a923a;stroke:#3d3d3d;stroke-width:1.5;" x="0" xlink:href="#m91245974b7" y="345.6"/>
    </g>
   </g>
   <g id="matplotlib.axis_1">
    <g id="xtick_1">
     <g id="line2d_1">
      <defs>
       <path d="M 0 0 
L 0 3.5 
" id="m129b3e7568" style="stroke:#000000;stroke-width:0.8;"/>
      </defs>
      <g>
       <use style="stroke:#000000;stroke-width:0.8;" x="117.12" xlink:href="#m129b3e7568" y="307.584"/>
      </g>
     </g>
     <g id="text_1">
      <!-- positive -->
      <defs>
       <path d="M 7.140625 -20.453125 
L 17.75 -20.453125 
L 17.75 8.484375 
L 18.390625 8.484375 
C 20.3125 5 24.21875 -1.0625 34.15625 -1.0625 
C 47.375 -1.0625 56.96875 9.515625 56.96875 27.171875 
C 56.96875 44.84375 47.234375 55.25 34.0625 55.25 
C 23.9375 55.25 20.28125 49.078125 18.390625 45.703125 
L 17.515625 45.703125 
L 17.515625 54.546875 
L 7.140625 54.546875 
z
M 17.546875 27.265625 
C 17.546875 38.671875 22.515625 46.234375 31.78125 46.234375 
C 41.40625 46.234375 46.234375 38.109375 46.234375 27.265625 
C 46.234375 16.328125 41.265625 7.984375 31.78125 7.984375 
C 22.65625 7.984375 17.546875 15.796875 17.546875 27.265625 
z
" id="Inter-Medium-112"/>
       <path d="M 30.109375 -1.09375 
C 45.484375 -1.09375 55.546875 10.15625 55.546875 27.03125 
C 55.546875 44 45.484375 55.25 30.109375 55.25 
C 14.734375 55.25 4.6875 44 4.6875 27.03125 
C 4.6875 10.15625 14.734375 -1.09375 30.109375 -1.09375 
z
M 30.15625 7.8125 
C 20.09375 7.8125 15.40625 16.578125 15.40625 27.0625 
C 15.40625 37.5 20.09375 46.375 30.15625 46.375 
C 40.125 46.375 44.8125 37.5 44.8125 27.0625 
C 44.8125 16.578125 40.125 7.8125 30.15625 7.8125 
z
" id="Inter-Medium-111"/>
       <path d="M 48.015625 41.234375 
C 45.8125 49.71875 39.171875 55.25 27.375 55.25 
C 15.0625 55.25 6.328125 48.75 6.328125 39.09375 
C 6.328125 31.359375 11.015625 26.203125 21.234375 23.9375 
L 30.46875 21.90625 
C 35.71875 20.734375 38.171875 18.390625 38.171875 14.984375 
C 38.171875 10.765625 33.671875 7.453125 26.703125 7.453125 
C 20.34375 7.453125 16.265625 10.1875 14.984375 15.546875 
L 4.71875 13.984375 
C 6.5 4.328125 14.53125 -1.09375 26.78125 -1.09375 
C 39.953125 -1.09375 49.078125 5.890625 49.078125 15.765625 
C 49.078125 23.46875 44.171875 28.234375 34.15625 30.546875 
L 25.5 32.53125 
C 19.5 33.953125 16.90625 35.96875 16.9375 39.671875 
C 16.90625 43.859375 21.453125 46.84375 27.484375 46.84375 
C 34.09375 46.84375 37.140625 43.1875 38.390625 39.53125 
z
" id="Inter-Medium-115"/>
       <path d="M 7.140625 0 
L 17.75 0 
L 17.75 54.546875 
L 7.140625 54.546875 
z
M 12.5 62.96875 
C 16.15625 62.96875 19.21875 65.796875 19.21875 69.28125 
C 19.21875 72.765625 16.15625 75.640625 12.5 75.640625 
C 8.8125 75.640625 5.796875 72.765625 5.796875 69.28125 
C 5.796875 65.796875 8.8125 62.96875 12.5 62.96875 
z
" id="Inter-Medium-105"/>
       <path d="M 32.59375 54.546875 
L 21.421875 54.546875 
L 21.421875 67.609375 
L 10.796875 67.609375 
L 10.796875 54.546875 
L 2.8125 54.546875 
L 2.8125 46.015625 
L 10.796875 46.015625 
L 10.796875 13.8125 
C 10.765625 3.90625 18.328125 -0.890625 26.703125 -0.703125 
C 30.078125 -0.671875 32.359375 -0.03125 33.59375 0.421875 
L 31.671875 9.203125 
C 30.96875 9.0625 29.65625 8.734375 27.953125 8.734375 
C 24.5 8.734375 21.421875 9.875 21.421875 16.015625 
L 21.421875 46.015625 
L 32.59375 46.015625 
z
" id="Inter-Medium-116"/>
       <path d="M 53.796875 54.546875 
L 42.40625 54.546875 
L 28.625 12.578125 
L 28.0625 12.578125 
L 14.234375 54.546875 
L 2.84375 54.546875 
L 22.65625 0 
L 34.015625 0 
z
" id="Inter-Medium-118"/>
       <path d="M 30.640625 -1.09375 
C 42.546875 -1.09375 50.953125 4.765625 53.375 13.640625 
L 43.328125 15.453125 
C 41.40625 10.296875 36.796875 7.671875 30.75 7.671875 
C 21.65625 7.671875 15.5625 13.5625 15.265625 24.078125 
L 54.046875 24.078125 
L 54.046875 27.84375 
C 54.046875 47.546875 42.265625 55.25 29.90625 55.25 
C 14.703125 55.25 4.6875 43.671875 4.6875 26.921875 
C 4.6875 9.984375 14.5625 -1.09375 30.640625 -1.09375 
z
M 15.3125 32.03125 
C 15.734375 39.765625 21.34375 46.484375 29.96875 46.484375 
C 38.21875 46.484375 43.609375 40.375 43.640625 32.03125 
z
" id="Inter-Medium-101"/>
      </defs>
      <g transform="translate(84.999297 327.442906)scale(0.17 -0.17)">
       <use xlink:href="#Inter-Medium-112"/>
       <use x="61.718765" xlink:href="#Inter-Medium-111"/>
       <use x="121.946045" xlink:href="#Inter-Medium-115"/>
       <use x="175.5327" xlink:href="#Inter-Medium-105"/>
       <use x="200.426163" xlink:href="#Inter-Medium-116"/>
       <use x="237.606567" xlink:href="#Inter-Medium-105"/>
       <use x="262.500031" xlink:href="#Inter-Medium-118"/>
       <use x="319.140671" xlink:href="#Inter-Medium-101"/>
      </g>
     </g>
    </g>
    <g id="xtick_2">
     <g id="line2d_2">
      <g>
       <use style="stroke:#000000;stroke-width:0.8;" x="236.16" xlink:href="#m129b3e7568" y="307.584"/>
      </g>
     </g>
     <g id="text_2">
      <!-- neutral -->
      <defs>
       <path d="M 17.75 32.390625 
C 17.75 41.09375 23.078125 46.0625 30.46875 46.0625 
C 37.671875 46.0625 42.046875 41.328125 42.046875 33.421875 
L 42.046875 0 
L 52.671875 0 
L 52.671875 34.6875 
C 52.671875 48.1875 45.25 55.25 34.09375 55.25 
C 25.890625 55.25 20.53125 51.453125 18 45.671875 
L 17.328125 45.671875 
L 17.328125 54.546875 
L 7.140625 54.546875 
L 7.140625 0 
L 17.75 0 
z
" id="Inter-Medium-110"/>
       <path d="M 41.6875 22.625 
C 41.734375 13.359375 34.84375 8.953125 28.875 8.953125 
C 22.296875 8.953125 17.75 13.703125 17.75 21.125 
L 17.75 54.546875 
L 7.140625 54.546875 
L 7.140625 19.84375 
C 7.140625 6.328125 14.5625 -0.703125 25.03125 -0.703125 
C 33.234375 -0.703125 38.8125 3.625 41.34375 9.453125 
L 41.90625 9.453125 
L 41.90625 0 
L 52.34375 0 
L 52.34375 54.546875 
L 41.6875 54.546875 
z
" id="Inter-Medium-117"/>
       <path d="M 7.140625 0 
L 17.75 0 
L 17.75 33.3125 
C 17.75 40.40625 23.265625 45.5625 30.609375 45.5625 
C 32.671875 45.5625 34.265625 45.140625 35.546875 44.5 
L 38.953125 53.375 
C 37.140625 54.578125 34.796875 55.359375 31.8125 55.359375 
C 25.359375 55.359375 19.953125 51.734375 17.96875 45.875 
L 17.40625 45.875 
L 17.40625 54.546875 
L 7.140625 54.546875 
z
" id="Inter-Medium-114"/>
       <path d="M 23.015625 -1.203125 
C 32.03125 -1.203125 37.109375 3.375 39.140625 7.453125 
L 39.5625 7.453125 
L 39.5625 0 
L 49.9375 0 
L 49.9375 36.21875 
C 49.9375 52.09375 37.4375 55.25 28.765625 55.25 
C 18.890625 55.25 9.796875 51.28125 6.25 41.328125 
L 16.234375 39.0625 
C 17.796875 42.9375 21.765625 46.65625 28.90625 46.65625 
C 35.765625 46.65625 39.28125 43.078125 39.28125 36.890625 
L 39.28125 36.640625 
C 39.28125 32.78125 35.296875 32.84375 25.5 31.71875 
C 15.171875 30.5 4.578125 27.8125 4.578125 15.40625 
C 4.578125 4.6875 12.640625 -1.203125 23.015625 -1.203125 
z
M 25.328125 7.3125 
C 19.3125 7.3125 14.984375 10.015625 14.984375 15.265625 
C 14.984375 20.953125 20.03125 22.96875 26.171875 23.796875 
C 29.625 24.25 37.78125 25.171875 39.3125 26.703125 
L 39.3125 19.671875 
C 39.3125 13.203125 34.15625 7.3125 25.328125 7.3125 
z
" id="Inter-Medium-97"/>
       <path d="M 17.75 72.734375 
L 7.140625 72.734375 
L 7.140625 0 
L 17.75 0 
z
" id="Inter-Medium-108"/>
      </defs>
      <g transform="translate(207.534922 326.948844)scale(0.17 -0.17)">
       <use xlink:href="#Inter-Medium-110"/>
       <use x="59.730118" xlink:href="#Inter-Medium-101"/>
       <use x="118.465927" xlink:href="#Inter-Medium-117"/>
       <use x="177.911957" xlink:href="#Inter-Medium-116"/>
       <use x="215.092361" xlink:href="#Inter-Medium-114"/>
       <use x="254.936111" xlink:href="#Inter-Medium-97"/>
       <use x="311.86084" xlink:href="#Inter-Medium-108"/>
      </g>
     </g>
    </g>
    <g id="xtick_3">
     <g id="line2d_3">
      <g>
       <use style="stroke:#000000;stroke-width:0.8;" x="355.2" xlink:href="#m129b3e7568" y="307.584"/>
      </g>
     </g>
     <g id="text_3">
      <!-- negative -->
      <defs>
       <path d="M 30.015625 -21.484375 
C 43.890625 -21.484375 54.625 -15.125 54.625 -1.203125 
L 54.625 54.546875 
L 44.21875 54.546875 
L 44.21875 45.703125 
L 43.4375 45.703125 
C 41.546875 49.078125 37.78125 55.25 27.625 55.25 
C 14.453125 55.25 4.765625 44.84375 4.765625 27.484375 
C 4.765625 10.078125 14.671875 0.8125 27.5625 0.8125 
C 37.578125 0.8125 41.4375 6.46875 43.359375 9.9375 
L 44.03125 9.9375 
L 44.03125 -0.78125 
C 44.03125 -9.203125 38.171875 -12.921875 30.109375 -12.921875 
C 21.265625 -12.921875 17.828125 -8.484375 15.953125 -5.46875 
L 6.8125 -9.234375 
C 9.703125 -15.796875 16.96875 -21.484375 30.015625 -21.484375 
z
M 29.90625 9.625 
C 20.421875 9.625 15.484375 16.90625 15.484375 27.625 
C 15.484375 38.109375 20.3125 46.234375 29.90625 46.234375 
C 39.171875 46.234375 44.140625 38.671875 44.140625 27.625 
C 44.140625 16.375 39.0625 9.625 29.90625 9.625 
z
" id="Inter-Medium-103"/>
      </defs>
      <g transform="translate(319.962187 327.442906)scale(0.17 -0.17)">
       <use xlink:href="#Inter-Medium-110"/>
       <use x="59.730118" xlink:href="#Inter-Medium-101"/>
       <use x="118.465927" xlink:href="#Inter-Medium-103"/>
       <use x="180.184692" xlink:href="#Inter-Medium-97"/>
       <use x="237.109421" xlink:href="#Inter-Medium-116"/>
       <use x="274.289825" xlink:href="#Inter-Medium-105"/>
       <use x="299.183289" xlink:href="#Inter-Medium-118"/>
       <use x="355.823929" xlink:href="#Inter-Medium-101"/>
      </g>
     </g>
    </g>
    <g id="text_4">
     <!-- opinion -->
     <defs>
      <path d="M 28.984375 -1.140625 
C 41.828125 -1.140625 51.5625 11.046875 51.5625 27.125 
C 51.5625 43.1875 41.796875 55.390625 28.984375 55.390625 
C 16.125 55.390625 6.359375 43.21875 6.359375 27.125 
C 6.359375 11.046875 16.125 -1.140625 28.984375 -1.140625 
z
M 28.984375 1.140625 
C 17.40625 1.140625 8.671875 12.328125 8.671875 27.125 
C 8.671875 41.875 17.46875 53.125 28.984375 53.125 
C 40.515625 53.125 49.25 41.90625 49.25 27.125 
C 49.25 12.328125 40.5625 1.140625 28.984375 1.140625 
z
" id="Inter-ThinBETA-111"/>
      <path d="M 9.375 -20.453125 
L 11.65625 -20.453125 
L 11.65625 13.640625 
L 11.890625 13.640625 
C 14.734375 4.546875 21.734375 -1.140625 30.40625 -1.140625 
C 43.1875 -1.140625 51.421875 11.078125 51.421875 27.125 
C 51.421875 43.25 43.296875 55.390625 30.40625 55.390625 
C 21.625 55.390625 14.84375 49.6875 11.890625 40.625 
L 11.65625 40.625 
L 11.65625 54.546875 
L 9.34375 54.546875 
L 9.34375 -20.453125 
z
M 11.65625 27.125 
C 11.65625 41.90625 18.828125 53.125 30.40625 53.125 
C 41.96875 53.125 49.109375 41.90625 49.109375 27.125 
C 49.109375 12.359375 41.90625 1.140625 30.40625 1.140625 
C 18.890625 1.140625 11.65625 12.359375 11.65625 27.125 
z
" id="Inter-ThinBETA-112"/>
      <path d="M 9.9375 0 
L 12.21875 0 
L 12.21875 54.546875 
L 9.90625 54.546875 
L 9.90625 0 
z
M 11.078125 64.484375 
C 12.328125 64.484375 13.359375 65.515625 13.359375 66.765625 
C 13.359375 68 12.328125 69.03125 11.078125 69.03125 
C 9.84375 69.03125 8.765625 68 8.765625 66.765625 
C 8.765625 65.515625 9.84375 64.484375 11.078125 64.484375 
z
" id="Inter-ThinBETA-105"/>
      <path d="M 11.9375 36.640625 
C 11.9375 46.171875 18.890625 52.984375 28.546875 52.984375 
C 38.21875 52.984375 44.859375 46.3125 44.859375 36.640625 
L 44.859375 0 
L 47.15625 0 
L 47.15625 36.640625 
C 47.15625 47.578125 39.484375 55.25 28.546875 55.25 
C 21.03125 55.25 14.734375 51.5625 12.1875 45.875 
L 11.9375 45.875 
L 11.9375 54.546875 
L 9.625 54.546875 
L 9.625 0 
L 11.9375 0 
z
" id="Inter-ThinBETA-110"/>
     </defs>
     <g transform="translate(219.577188 342.368687)scale(0.1 -0.1)">
      <use xlink:href="#Inter-ThinBETA-111"/>
      <use x="57.954559" xlink:href="#Inter-ThinBETA-112"/>
      <use x="115.767075" xlink:href="#Inter-ThinBETA-105"/>
      <use x="137.926163" xlink:href="#Inter-ThinBETA-110"/>
      <use x="194.744354" xlink:href="#Inter-ThinBETA-105"/>
      <use x="216.903442" xlink:href="#Inter-ThinBETA-111"/>
      <use x="274.858002" xlink:href="#Inter-ThinBETA-110"/>
     </g>
    </g>
   </g>
   <g id="matplotlib.axis_2">
    <g id="ytick_1">
     <g id="line2d_4">
      <defs>
       <path d="M 0 0 
L -3.5 0 
" id="m543de92be2" style="stroke:#000000;stroke-width:0.8;"/>
      </defs>
      <g>
       <use style="stroke:#000000;stroke-width:0.8;" x="57.6" xlink:href="#m543de92be2" y="286.024777"/>
      </g>
     </g>
     <g id="text_5">
      <!-- 0 -->
      <defs>
       <path d="M 32.3125 -1.203125 
C 49.109375 -1.203125 58.953125 12.5 58.953125 36.328125 
C 58.953125 59.984375 48.96875 73.71875 32.3125 73.71875 
C 15.625 73.71875 5.6875 60.015625 5.640625 36.328125 
C 5.640625 12.53125 15.484375 -1.171875 32.3125 -1.203125 
z
M 32.3125 8.28125 
C 22.484375 8.28125 16.546875 18.140625 16.546875 36.328125 
C 16.578125 54.4375 22.515625 64.421875 32.3125 64.421875 
C 42.078125 64.421875 48.046875 54.4375 48.046875 36.328125 
C 48.046875 18.140625 42.125 8.28125 32.3125 8.28125 
z
" id="Inter-Medium-48"/>
      </defs>
      <g transform="translate(39.619062 292.207199)scale(0.17 -0.17)">
       <use xlink:href="#Inter-Medium-48"/>
      </g>
     </g>
    </g>
    <g id="ytick_2">
     <g id="line2d_5">
      <g>
       <use style="stroke:#000000;stroke-width:0.8;" x="57.6" xlink:href="#m543de92be2" y="241.470621"/>
      </g>
     </g>
     <g id="text_6">
      <!-- 200 -->
      <defs>
       <path d="M 7 0 
L 54.859375 0 
L 54.859375 9.40625 
L 22.125 9.40625 
L 22.125 9.9375 
L 36.578125 25.078125 
C 49.890625 38.53125 53.6875 44.953125 53.6875 53.09375 
C 53.6875 64.765625 44.171875 73.71875 30.46875 73.71875 
C 16.875 73.71875 6.921875 64.921875 6.921875 51.640625 
L 17.40625 51.640625 
C 17.359375 59.453125 22.40625 64.5625 30.25 64.5625 
C 37.640625 64.5625 43.25 60.015625 43.25 52.765625 
C 43.25 46.34375 39.421875 41.71875 31.609375 33.453125 
L 7 7.953125 
z
" id="Inter-Medium-50"/>
      </defs>
      <g transform="translate(18.212344 247.653043)scale(0.17 -0.17)">
       <use xlink:href="#Inter-Medium-50"/>
       <use x="61.32814" xlink:href="#Inter-Medium-48"/>
       <use x="125.923325" xlink:href="#Inter-Medium-48"/>
      </g>
     </g>
    </g>
    <g id="ytick_3">
     <g id="line2d_6">
      <g>
       <use style="stroke:#000000;stroke-width:0.8;" x="57.6" xlink:href="#m543de92be2" y="196.916464"/>
      </g>
     </g>
     <g id="text_7">
      <!-- 400 -->
      <defs>
       <path d="M 5.46875 14.203125 
L 39.953125 14.203125 
L 39.953125 0 
L 50.421875 0 
L 50.421875 14.203125 
L 60.046875 14.203125 
L 60.046875 23.515625 
L 50.421875 23.515625 
L 50.421875 72.734375 
L 36.890625 72.734375 
L 5.46875 23.078125 
z
M 40.015625 23.515625 
L 16.96875 23.515625 
L 16.96875 24.078125 
L 39.453125 59.65625 
L 40.015625 59.65625 
z
" id="Inter-Medium-52"/>
      </defs>
      <g transform="translate(17.519062 203.098886)scale(0.17 -0.17)">
       <use xlink:href="#Inter-Medium-52"/>
       <use x="65.411942" xlink:href="#Inter-Medium-48"/>
       <use x="130.007126" xlink:href="#Inter-Medium-48"/>
      </g>
     </g>
    </g>
    <g id="ytick_4">
     <g id="line2d_7">
      <g>
       <use style="stroke:#000000;stroke-width:0.8;" x="57.6" xlink:href="#m543de92be2" y="152.362307"/>
      </g>
     </g>
     <g id="text_8">
      <!-- 600 -->
      <defs>
       <path d="M 32.390625 -1 
C 47.59375 -1.140625 57.671875 9.796875 57.640625 23.75 
C 57.671875 37.671875 47.546875 47.65625 34.9375 47.65625 
C 27.28125 47.65625 20.640625 43.96875 16.90625 37.8125 
L 16.375 37.8125 
C 16.40625 54.515625 22.65625 64.28125 33.3125 64.28125 
C 40.3125 64.28125 44.703125 60.046875 46.203125 53.828125 
L 57.03125 53.828125 
C 55.359375 65.515625 46.3125 73.90625 33.3125 73.90625 
C 16.40625 73.90625 5.859375 59.375 5.859375 33.90625 
C 5.859375 7.140625 19.46875 -0.890625 32.390625 -1 
z
M 32.359375 8.234375 
C 23.90625 8.234375 17.71875 15.34375 17.71875 23.515625 
C 17.75 31.640625 24.21875 38.75 32.59375 38.75 
C 40.90625 38.75 47.015625 32.03125 46.984375 23.609375 
C 47.015625 15.015625 40.65625 8.234375 32.359375 8.234375 
z
" id="Inter-Medium-54"/>
      </defs>
      <g transform="translate(17.8325 158.544729)scale(0.17 -0.17)">
       <use xlink:href="#Inter-Medium-54"/>
       <use x="63.565353" xlink:href="#Inter-Medium-48"/>
       <use x="128.160538" xlink:href="#Inter-Medium-48"/>
      </g>
     </g>
    </g>
    <g id="ytick_5">
     <g id="line2d_8">
      <g>
       <use style="stroke:#000000;stroke-width:0.8;" x="57.6" xlink:href="#m543de92be2" y="107.80815"/>
      </g>
     </g>
     <g id="text_9">
      <!-- 800 -->
      <defs>
       <path d="M 31.578125 -1 
C 46.703125 -1 57.390625 7.59375 57.453125 19.390625 
C 57.390625 28.546875 50.953125 36.25 42.828125 37.71875 
L 42.828125 38.140625 
C 49.890625 39.84375 54.6875 46.484375 54.765625 54.328125 
C 54.6875 65.453125 44.890625 73.71875 31.578125 73.71875 
C 18.109375 73.71875 8.3125 65.453125 8.375 54.328125 
C 8.3125 46.515625 13.109375 39.84375 20.3125 38.140625 
L 20.3125 37.71875 
C 12.046875 36.25 5.609375 28.546875 5.6875 19.390625 
C 5.609375 7.59375 16.296875 -1 31.578125 -1 
z
M 31.578125 7.984375 
C 22.484375 7.984375 16.734375 12.8125 16.796875 20.09375 
C 16.734375 27.65625 22.984375 33.0625 31.578125 33.0625 
C 40.015625 33.0625 46.265625 27.65625 46.34375 20.09375 
C 46.265625 12.8125 40.5625 7.984375 31.578125 7.984375 
z
M 31.578125 41.828125 
C 24.21875 41.828125 19 46.484375 19.078125 53.40625 
C 19 60.234375 24.046875 64.734375 31.578125 64.734375 
C 38.953125 64.734375 44 60.234375 44.078125 53.40625 
C 44 46.484375 38.8125 41.828125 31.578125 41.828125 
z
" id="Inter-Medium-56"/>
      </defs>
      <g transform="translate(17.904219 113.990572)scale(0.17 -0.17)">
       <use xlink:href="#Inter-Medium-56"/>
       <use x="63.139221" xlink:href="#Inter-Medium-48"/>
       <use x="127.734406" xlink:href="#Inter-Medium-48"/>
      </g>
     </g>
    </g>
    <g id="ytick_6">
     <g id="line2d_9">
      <g>
       <use style="stroke:#000000;stroke-width:0.8;" x="57.6" xlink:href="#m543de92be2" y="63.253993"/>
      </g>
     </g>
     <g id="text_10">
      <!-- 1000 -->
      <defs>
       <path d="M 32.5625 72.734375 
L 22.34375 72.734375 
C 21.953125 70.734375 16.40625 61.546875 5.796875 61.546875 
L 5.796875 52.515625 
C 14.03125 52.515625 19.75 55.78125 20.953125 57.921875 
L 21.5625 57.921875 
L 21.5625 0 
L 32.5625 0 
z
" id="Inter-Medium-49"/>
      </defs>
      <g transform="translate(9.964687 69.436415)scale(0.17 -0.17)">
       <use xlink:href="#Inter-Medium-49"/>
       <use x="45.241486" xlink:href="#Inter-Medium-48"/>
       <use x="109.83667" xlink:href="#Inter-Medium-48"/>
       <use x="174.431854" xlink:href="#Inter-Medium-48"/>
      </g>
     </g>
    </g>
    <g id="text_11">
     <!-- n_words -->
     <defs>
      <path d="M 42.90625 0 
L -0.328125 0 
L -0.328125 -4.125 
L 42.90625 -4.125 
L 42.90625 0 
z
" id="Inter-ThinBETA-95"/>
      <path d="M 21.3125 0 
L 24.4375 0 
L 39.34375 50.28125 
L 39.59375 50.28125 
L 54.515625 0 
L 57.671875 0 
L 73.859375 54.546875 
L 71.421875 54.546875 
L 56.21875 3.125 
L 55.96875 3.125 
L 40.625 54.546875 
L 38.3125 54.546875 
L 22.984375 3.125 
L 22.734375 3.125 
L 7.53125 54.546875 
L 5.078125 54.546875 
L 21.265625 0 
z
" id="Inter-ThinBETA-119"/>
      <path d="M 9.65625 0 
L 11.9375 0 
L 11.9375 36.640625 
C 11.9375 46.171875 18.890625 52.984375 28.546875 52.984375 
C 30.640625 52.984375 32.5 52.65625 33.953125 52.09375 
L 34.796875 54.21875 
C 33.0625 54.859375 30.9375 55.25 28.546875 55.25 
C 21.03125 55.25 14.734375 51.5625 12.1875 45.875 
L 11.9375 45.875 
L 11.9375 54.546875 
L 9.625 54.546875 
L 9.625 0 
z
" id="Inter-ThinBETA-114"/>
      <path d="M 27.421875 -1.140625 
C 36.15625 -1.140625 42.90625 4.609375 45.875 13.640625 
L 46.125 13.640625 
L 46.125 0 
L 48.4375 0 
L 48.4375 72.734375 
L 46.125 72.734375 
L 46.125 40.625 
L 45.875 40.625 
C 43.046875 49.71875 36.078125 55.390625 27.421875 55.390625 
C 14.625 55.390625 6.359375 43.1875 6.359375 27.125 
C 6.359375 11.015625 14.484375 -1.140625 27.421875 -1.140625 
z
M 27.421875 1.140625 
C 15.84375 1.140625 8.671875 12.359375 8.671875 27.125 
C 8.671875 41.90625 15.90625 53.125 27.421875 53.125 
C 38.921875 53.125 46.125 41.90625 46.125 27.125 
C 46.125 12.359375 39 1.140625 27.421875 1.140625 
z
" id="Inter-ThinBETA-100"/>
      <path d="M 42.328125 43.046875 
C 39.671875 51.203125 33.984375 55.390625 25.5625 55.390625 
C 15.625 55.390625 8.625 49.609375 8.625 41.046875 
C 8.625 34.234375 13.0625 29.375 21.453125 27.265625 
L 29.96875 25.140625 
C 36.96875 23.40625 40.453125 19.421875 40.453125 13.78125 
C 40.453125 6.171875 34.0625 1.140625 24.578125 1.140625 
C 15.90625 1.140625 10.546875 5.328125 8.953125 13.0625 
L 6.640625 12.46875 
C 8.484375 3.796875 14.875 -1.140625 24.578125 -1.140625 
C 35.265625 -1.140625 42.75 4.859375 42.75 13.78125 
C 42.75 20.484375 38.53125 25.421875 30.546875 27.421875 
L 22.015625 29.546875 
C 14.59375 31.390625 10.9375 35.328125 10.9375 41.046875 
C 10.9375 48.296875 16.875 53.125 25.5625 53.125 
C 33.0625 53.125 37.78125 49.578125 40.015625 42.4375 
L 42.328125 43.046875 
z
" id="Inter-ThinBETA-115"/>
     </defs>
     <g transform="translate(3.919375 193.6155)rotate(-90)scale(0.1 -0.1)">
      <use xlink:href="#Inter-ThinBETA-110"/>
      <use x="56.818192" xlink:href="#Inter-ThinBETA-95"/>
      <use x="99.502853" xlink:href="#Inter-ThinBETA-119"/>
      <use x="178.480148" xlink:href="#Inter-ThinBETA-111"/>
      <use x="236.434708" xlink:href="#Inter-ThinBETA-114"/>
      <use x="272.656296" xlink:href="#Inter-ThinBETA-100"/>
      <use x="332.457443" xlink:href="#Inter-ThinBETA-115"/>
     </g>
    </g>
   </g>
   <g id="line2d_10">
    <path clip-path="url(#p79f974fcad)" d="M 117.12 285.802007 
L 117.12 167.51072 
" style="fill:none;stroke:#3d3d3d;stroke-linecap:square;stroke-width:1.5;"/>
   </g>
   <g id="line2d_11">
    <path clip-path="url(#p79f974fcad)" d="M 117.12 279.341654 
L 117.12 234.564726 
" style="fill:none;stroke:#3d3d3d;stroke-linecap:square;stroke-width:4.5;"/>
   </g>
   <g id="line2d_12">
    <path clip-path="url(#p79f974fcad)" d="M 236.16 285.802007 
L 236.16 139.664372 
" style="fill:none;stroke:#3d3d3d;stroke-linecap:square;stroke-width:1.5;"/>
   </g>
   <g id="line2d_13">
    <path clip-path="url(#p79f974fcad)" d="M 236.16 272.65853 
L 236.16 219.416313 
" style="fill:none;stroke:#3d3d3d;stroke-linecap:square;stroke-width:4.5;"/>
   </g>
   <g id="line2d_14">
    <path clip-path="url(#p79f974fcad)" d="M 355.2 285.802007 
L 355.2 145.456413 
" style="fill:none;stroke:#3d3d3d;stroke-linecap:square;stroke-width:1.5;"/>
   </g>
   <g id="line2d_15">
    <path clip-path="url(#p79f974fcad)" d="M 355.2 271.767447 
L 355.2 221.198479 
" style="fill:none;stroke:#3d3d3d;stroke-linecap:square;stroke-width:4.5;"/>
   </g>
   <g id="patch_3">
    <path d="M 57.6 307.584 
L 57.6 41.472 
" style="fill:none;stroke:#000000;stroke-linecap:square;stroke-linejoin:miter;stroke-width:0.8;"/>
   </g>
   <g id="patch_4">
    <path d="M 414.72 307.584 
L 414.72 41.472 
" style="fill:none;stroke:#000000;stroke-linecap:square;stroke-linejoin:miter;stroke-width:0.8;"/>
   </g>
   <g id="patch_5">
    <path d="M 57.6 307.584 
L 414.72 307.584 
" style="fill:none;stroke:#000000;stroke-linecap:square;stroke-linejoin:miter;stroke-width:0.8;"/>
   </g>
   <g id="patch_6">
    <path d="M 57.6 41.472 
L 414.72 41.472 
" style="fill:none;stroke:#000000;stroke-linecap:square;stroke-linejoin:miter;stroke-width:0.8;"/>
   </g>
   <g id="PathCollection_1">
    <defs>
     <path d="M 0 1.5 
C 0.397805 1.5 0.77937 1.341951 1.06066 1.06066 
C 1.341951 0.77937 1.5 0.397805 1.5 0 
C 1.5 -0.397805 1.341951 -0.77937 1.06066 -1.06066 
C 0.77937 -1.341951 0.397805 -1.5 0 -1.5 
C -0.397805 -1.5 -0.77937 -1.341951 -1.06066 -1.06066 
C -1.341951 -0.77937 -1.5 -0.397805 -1.5 0 
C -1.5 0.397805 -1.341951 0.77937 -1.06066 1.06066 
C -0.77937 1.341951 -0.397805 1.5 0 1.5 
z
" id="m0fd3ffa458" style="stroke:#3d3d3d;"/>
    </defs>
    <g clip-path="url(#p79f974fcad)">
     <use style="fill:#ffffff;stroke:#3d3d3d;" x="117.12" xlink:href="#m0fd3ffa458" y="263.302157"/>
    </g>
   </g>
   <g id="PathCollection_2">
    <g clip-path="url(#p79f974fcad)">
     <use style="fill:#ffffff;stroke:#3d3d3d;" x="236.16" xlink:href="#m0fd3ffa458" y="253.945785"/>
    </g>
   </g>
   <g id="PathCollection_3">
    <g clip-path="url(#p79f974fcad)">
     <use style="fill:#ffffff;stroke:#3d3d3d;" x="355.2" xlink:href="#m0fd3ffa458" y="253.945785"/>
    </g>
   </g>
   <g id="text_12">
    <!-- Distribution of words in review for each opinion -->
    <defs>
     <path d="M 30.40625 0 
C 51.734375 0 64.140625 13.421875 64.203125 36.640625 
C 64.234375 59.265625 52.3125 72.734375 32.25 72.734375 
L 11.328125 72.734375 
L 11.328125 0 
z
M 13.640625 2.265625 
L 13.640625 70.453125 
L 32.25 70.453125 
C 51.109375 70.453125 61.828125 57.84375 61.890625 36.640625 
C 61.96875 15.09375 50.5625 2.265625 30.40625 2.265625 
z
" id="Inter-ThinBETA-68"/>
     <path d="M 26.703125 54.546875 
L 15.34375 54.546875 
L 15.34375 67.609375 
L 13.03125 67.609375 
L 13.03125 54.546875 
L 5.078125 54.546875 
L 5.078125 52.265625 
L 13.03125 52.265625 
L 13.03125 11.5 
C 13.03125 3.828125 18.859375 -1 25.5625 -1 
C 27.28125 -1 28.546875 -0.671875 29.96875 -0.140625 
L 29.265625 1.984375 
C 28.015625 1.53125 26.953125 1.28125 25.5625 1.28125 
C 20.140625 1.28125 15.34375 5.15625 15.34375 11.5 
L 15.34375 52.265625 
L 26.703125 52.265625 
L 26.703125 54.546875 
z
" id="Inter-ThinBETA-116"/>
     <path d="M 11.359375 0 
L 13.640625 0 
L 13.640625 13.640625 
L 13.890625 13.640625 
C 16.828125 4.578125 23.609375 -1.140625 32.390625 -1.140625 
C 45.28125 -1.140625 53.40625 11.015625 53.40625 27.125 
C 53.40625 43.1875 45.171875 55.390625 32.390625 55.390625 
C 23.71875 55.390625 16.734375 49.71875 13.890625 40.625 
L 13.640625 40.625 
L 13.640625 72.734375 
L 11.328125 72.734375 
L 11.328125 0 
z
M 13.640625 27.125 
C 13.640625 41.90625 20.875 53.125 32.390625 53.125 
C 43.890625 53.125 51.109375 41.90625 51.109375 27.125 
C 51.109375 12.359375 43.96875 1.140625 32.390625 1.140625 
C 20.8125 1.140625 13.640625 12.359375 13.640625 27.125 
z
" id="Inter-ThinBETA-98"/>
     <path d="M 44.859375 17.890625 
C 44.859375 8.375 37.921875 1.5625 28.265625 1.5625 
C 18.609375 1.5625 11.9375 8.234375 11.9375 17.890625 
L 11.9375 54.546875 
L 9.625 54.546875 
L 9.625 17.890625 
C 9.625 6.953125 17.328125 -0.703125 28.265625 -0.703125 
C 35.796875 -0.703125 42.046875 2.984375 44.609375 8.671875 
L 44.859375 8.671875 
L 44.859375 0 
L 47.15625 0 
L 47.15625 54.546875 
L 44.859375 54.546875 
z
" id="Inter-ThinBETA-117"/>
     <path id="Inter-ThinBETA-32"/>
     <path d="M 28.40625 54.546875 
L 16.625 54.546875 
L 16.625 62.5 
C 16.625 68.859375 21.421875 72.734375 26.84375 72.734375 
C 28.234375 72.734375 29.296875 72.484375 30.46875 72.046875 
L 31.1875 74.1875 
C 29.828125 74.6875 28.546875 75 26.84375 75 
C 20.140625 75 14.3125 70.171875 14.3125 62.5 
L 14.3125 54.546875 
L 6.78125 54.546875 
L 6.78125 52.265625 
L 14.3125 52.265625 
L 14.3125 0 
L 16.625 0 
L 16.625 52.265625 
L 28.40625 52.265625 
L 28.40625 54.546875 
z
" id="Inter-ThinBETA-102"/>
     <path d="M 30.109375 -1.140625 
C 40.734375 -1.140625 46.59375 5.546875 49 9.65625 
L 47.125 10.9375 
C 45.140625 7.671875 40.171875 1.140625 30.109375 1.140625 
C 16.40625 1.140625 8.703125 13.03125 8.671875 27.265625 
L 51.28125 27.265625 
L 51.28125 29.546875 
C 51.28125 43.640625 41.65625 55.390625 28.984375 55.390625 
C 16.09375 55.390625 6.359375 43.1875 6.359375 27.125 
C 6.359375 11.078125 15.796875 -1.140625 30.109375 -1.140625 
z
M 8.734375 29.546875 
C 9.703125 43.109375 18.25 53.125 28.984375 53.125 
C 40.015625 53.125 48.96875 42.65625 48.96875 29.546875 
L 8.734375 29.546875 
z
" id="Inter-ThinBETA-101"/>
     <path d="M 47.15625 54.546875 
L 44.703125 54.546875 
L 26.25 2.84375 
L 26 2.84375 
L 7.53125 54.546875 
L 5.078125 54.546875 
L 24.546875 0 
L 27.703125 0 
L 47.15625 54.546875 
z
" id="Inter-ThinBETA-118"/>
     <path d="M 23.296875 -1.140625 
C 31.53125 -1.140625 38.21875 3.6875 41.625 11.078125 
L 41.875 11.078125 
L 41.875 0 
L 44.171875 0 
L 44.171875 39.203125 
C 44.171875 48.4375 37.5 55.390625 26.421875 55.390625 
C 17.90625 55.390625 10.765625 51.140625 8.203125 44.3125 
L 10.375 43.4375 
C 12.640625 49.578125 18.75 53.125 26.421875 53.125 
C 35.796875 53.125 41.875 47.578125 41.875 39.203125 
L 41.875 35.9375 
C 41.875 31.671875 34.796875 30.828125 27.28125 29.96875 
C 10.515625 27.984375 6.640625 22.15625 6.640625 14.765625 
C 6.640625 4.546875 14.34375 -1.140625 23.296875 -1.140625 
z
M 23.296875 1.140625 
C 15.203125 1.140625 8.953125 6.53125 8.953125 14.765625 
C 8.953125 21.734375 13.5 26.140625 28.125 27.84375 
C 34.375 28.546875 39.203125 29.546875 41.875 31.5 
L 41.875 23.296875 
C 41.875 10.078125 33.671875 1.140625 23.296875 1.140625 
z
" id="Inter-ThinBETA-97"/>
     <path d="M 29.265625 -1.140625 
C 39.203125 -1.140625 47.265625 5.609375 48.859375 15.90625 
L 46.421875 15.90625 
C 45.09375 7 37.96875 1.140625 29.265625 1.140625 
C 17.125 1.140625 8.671875 12.609375 8.671875 27.125 
C 8.671875 42.046875 17.515625 53.125 29.265625 53.125 
C 37.859375 53.125 44.8125 47.1875 46.265625 38.640625 
L 48.71875 38.640625 
C 47.046875 48.578125 39.03125 55.390625 29.265625 55.390625 
C 15.953125 55.390625 6.359375 43.109375 6.359375 27.125 
C 6.359375 11.015625 16.015625 -1.140625 29.265625 -1.140625 
z
" id="Inter-ThinBETA-99"/>
     <path d="M 11.9375 36.640625 
C 11.9375 46.171875 18.890625 52.984375 28.546875 52.984375 
C 38.21875 52.984375 44.859375 46.3125 44.859375 36.640625 
L 44.859375 0 
L 47.15625 0 
L 47.15625 36.640625 
C 47.15625 47.578125 39.484375 55.25 28.546875 55.25 
C 21.03125 55.25 14.734375 51.5625 12.1875 45.875 
L 11.9375 45.875 
L 11.9375 72.734375 
L 9.625 72.734375 
L 9.625 0 
L 11.9375 0 
z
" id="Inter-ThinBETA-104"/>
    </defs>
    <g transform="translate(106.48125 35.472)scale(0.12 -0.12)">
     <use xlink:href="#Inter-ThinBETA-68"/>
     <use x="71.448883" xlink:href="#Inter-ThinBETA-105"/>
     <use x="93.607971" xlink:href="#Inter-ThinBETA-115"/>
     <use x="142.897751" xlink:href="#Inter-ThinBETA-116"/>
     <use x="177.698898" xlink:href="#Inter-ThinBETA-114"/>
     <use x="213.920486" xlink:href="#Inter-ThinBETA-105"/>
     <use x="236.079575" xlink:href="#Inter-ThinBETA-98"/>
     <use x="295.880722" xlink:href="#Inter-ThinBETA-117"/>
     <use x="352.698914" xlink:href="#Inter-ThinBETA-116"/>
     <use x="387.500061" xlink:href="#Inter-ThinBETA-105"/>
     <use x="409.659149" xlink:href="#Inter-ThinBETA-111"/>
     <use x="467.613708" xlink:href="#Inter-ThinBETA-110"/>
     <use x="524.4319" xlink:href="#Inter-ThinBETA-32"/>
     <use x="552.5569" xlink:href="#Inter-ThinBETA-111"/>
     <use x="610.511459" xlink:href="#Inter-ThinBETA-102"/>
     <use x="643.608047" xlink:href="#Inter-ThinBETA-32"/>
     <use x="671.733047" xlink:href="#Inter-ThinBETA-119"/>
     <use x="750.710342" xlink:href="#Inter-ThinBETA-111"/>
     <use x="808.664902" xlink:href="#Inter-ThinBETA-114"/>
     <use x="844.88649" xlink:href="#Inter-ThinBETA-100"/>
     <use x="904.687637" xlink:href="#Inter-ThinBETA-115"/>
     <use x="953.977417" xlink:href="#Inter-ThinBETA-32"/>
     <use x="982.102417" xlink:href="#Inter-ThinBETA-105"/>
     <use x="1004.261505" xlink:href="#Inter-ThinBETA-110"/>
     <use x="1061.079697" xlink:href="#Inter-ThinBETA-32"/>
     <use x="1089.204697" xlink:href="#Inter-ThinBETA-114"/>
     <use x="1125.426285" xlink:href="#Inter-ThinBETA-101"/>
     <use x="1183.096756" xlink:href="#Inter-ThinBETA-118"/>
     <use x="1235.369492" xlink:href="#Inter-ThinBETA-105"/>
     <use x="1257.52858" xlink:href="#Inter-ThinBETA-101"/>
     <use x="1315.199051" xlink:href="#Inter-ThinBETA-119"/>
     <use x="1394.176346" xlink:href="#Inter-ThinBETA-32"/>
     <use x="1422.301346" xlink:href="#Inter-ThinBETA-102"/>
     <use x="1455.397934" xlink:href="#Inter-ThinBETA-111"/>
     <use x="1513.352493" xlink:href="#Inter-ThinBETA-114"/>
     <use x="1549.574081" xlink:href="#Inter-ThinBETA-32"/>
     <use x="1577.699081" xlink:href="#Inter-ThinBETA-101"/>
     <use x="1635.369553" xlink:href="#Inter-ThinBETA-97"/>
     <use x="1689.488876" xlink:href="#Inter-ThinBETA-99"/>
     <use x="1744.744568" xlink:href="#Inter-ThinBETA-104"/>
     <use x="1801.562759" xlink:href="#Inter-ThinBETA-32"/>
     <use x="1829.687759" xlink:href="#Inter-ThinBETA-111"/>
     <use x="1887.642319" xlink:href="#Inter-ThinBETA-112"/>
     <use x="1945.454834" xlink:href="#Inter-ThinBETA-105"/>
     <use x="1967.613922" xlink:href="#Inter-ThinBETA-110"/>
     <use x="2024.432114" xlink:href="#Inter-ThinBETA-105"/>
     <use x="2046.591202" xlink:href="#Inter-ThinBETA-111"/>
     <use x="2104.545761" xlink:href="#Inter-ThinBETA-110"/>
    </g>
   </g>
  </g>
 </g>
 <defs>
  <clipPath id="p79f974fcad">
   <rect height="266.112" width="357.12" x="57.6" y="41.472"/>
  </clipPath>
 </defs>
</svg>
