<?xml version="1.0" encoding="utf-8" standalone="no"?>
<!DOCTYPE svg PUBLIC "-//W3C//DTD SVG 1.1//EN"
  "http://www.w3.org/Graphics/SVG/1.1/DTD/svg11.dtd">
<!-- Created with matplotlib (https://matplotlib.org/) -->
<svg height="720pt" version="1.1" viewBox="0 0 720 720" width="720pt" xmlns="http://www.w3.org/2000/svg" xmlns:xlink="http://www.w3.org/1999/xlink">
 <defs>
  <style type="text/css">
*{stroke-linecap:butt;stroke-linejoin:round;}
  </style>
 </defs>
 <g id="figure_1">
  <g id="patch_1">
   <path d="M 0 720 
L 720 720 
L 720 0 
L 0 0 
z
" style="fill:#ffffff;"/>
  </g>
  <g id="axes_1">
   <g id="patch_2">
    <path d="M 90 640.8 
L 648 640.8 
L 648 86.4 
L 90 86.4 
z
" style="fill:#ffffff;"/>
   </g>
   <g id="patch_3">
    <path clip-path="url(#pd4b8786e9d)" d="M 158.52498 141.84 
L 158.52498 585.36 
L 378.393939 585.36 
L 378.393939 141.84 
L 158.52498 141.84 
z
" style="fill:#3274a1;stroke:#3f3f3f;stroke-linejoin:miter;stroke-width:1.5;"/>
   </g>
   <g id="matplotlib.axis_1">
    <g id="xtick_1">
     <g id="line2d_1">
      <defs>
       <path d="M 0 0 
L 0 3.5 
" id="mbf48182195" style="stroke:#000000;stroke-width:0.8;"/>
      </defs>
      <g>
       <use style="stroke:#000000;stroke-width:0.8;" x="114.855856" xlink:href="#mbf48182195" y="640.8"/>
      </g>
     </g>
     <g id="text_1">
      <!-- 0 -->
      <defs>
       <path d="M 32.3125 -1.203125 
C 49.109375 -1.203125 58.953125 12.5 58.953125 36.328125 
C 58.953125 59.984375 48.96875 73.71875 32.3125 73.71875 
C 15.625 73.71875 5.6875 60.015625 5.640625 36.328125 
C 5.640625 12.53125 15.484375 -1.171875 32.3125 -1.203125 
z
M 32.3125 8.28125 
C 22.484375 8.28125 16.546875 18.140625 16.546875 36.328125 
C 16.578125 54.4375 22.515625 64.421875 32.3125 64.421875 
C 42.078125 64.421875 48.046875 54.4375 48.046875 36.328125 
C 48.046875 18.140625 42.125 8.28125 32.3125 8.28125 
z
" id="Inter-Medium-48"/>
      </defs>
      <g transform="translate(109.365387 660.164844)scale(0.17 -0.17)">
       <use xlink:href="#Inter-Medium-48"/>
      </g>
     </g>
    </g>
    <g id="xtick_2">
     <g id="line2d_2">
      <g>
       <use style="stroke:#000000;stroke-width:0.8;" x="216.411957" xlink:href="#mbf48182195" y="640.8"/>
      </g>
     </g>
     <g id="text_2">
      <!-- 200 -->
      <defs>
       <path d="M 7 0 
L 54.859375 0 
L 54.859375 9.40625 
L 22.125 9.40625 
L 22.125 9.9375 
L 36.578125 25.078125 
C 49.890625 38.53125 53.6875 44.953125 53.6875 53.09375 
C 53.6875 64.765625 44.171875 73.71875 30.46875 73.71875 
C 16.875 73.71875 6.921875 64.921875 6.921875 51.640625 
L 17.40625 51.640625 
C 17.359375 59.453125 22.40625 64.5625 30.25 64.5625 
C 37.640625 64.5625 43.25 60.015625 43.25 52.765625 
C 43.25 46.34375 39.421875 41.71875 31.609375 33.453125 
L 7 7.953125 
z
" id="Inter-Medium-50"/>
      </defs>
      <g transform="translate(200.218129 660.164844)scale(0.17 -0.17)">
       <use xlink:href="#Inter-Medium-50"/>
       <use x="61.32814" xlink:href="#Inter-Medium-48"/>
       <use x="125.923325" xlink:href="#Inter-Medium-48"/>
      </g>
     </g>
    </g>
    <g id="xtick_3">
     <g id="line2d_3">
      <g>
       <use style="stroke:#000000;stroke-width:0.8;" x="317.968059" xlink:href="#mbf48182195" y="640.8"/>
      </g>
     </g>
     <g id="text_3">
      <!-- 400 -->
      <defs>
       <path d="M 5.46875 14.203125 
L 39.953125 14.203125 
L 39.953125 0 
L 50.421875 0 
L 50.421875 14.203125 
L 60.046875 14.203125 
L 60.046875 23.515625 
L 50.421875 23.515625 
L 50.421875 72.734375 
L 36.890625 72.734375 
L 5.46875 23.078125 
z
M 40.015625 23.515625 
L 16.96875 23.515625 
L 16.96875 24.078125 
L 39.453125 59.65625 
L 40.015625 59.65625 
z
" id="Inter-Medium-52"/>
      </defs>
      <g transform="translate(301.42759 660.164844)scale(0.17 -0.17)">
       <use xlink:href="#Inter-Medium-52"/>
       <use x="65.411942" xlink:href="#Inter-Medium-48"/>
       <use x="130.007126" xlink:href="#Inter-Medium-48"/>
      </g>
     </g>
    </g>
    <g id="xtick_4">
     <g id="line2d_4">
      <g>
       <use style="stroke:#000000;stroke-width:0.8;" x="419.524161" xlink:href="#mbf48182195" y="640.8"/>
      </g>
     </g>
     <g id="text_4">
      <!-- 600 -->
      <defs>
       <path d="M 32.390625 -1 
C 47.59375 -1.140625 57.671875 9.796875 57.640625 23.75 
C 57.671875 37.671875 47.546875 47.65625 34.9375 47.65625 
C 27.28125 47.65625 20.640625 43.96875 16.90625 37.8125 
L 16.375 37.8125 
C 16.40625 54.515625 22.65625 64.28125 33.3125 64.28125 
C 40.3125 64.28125 44.703125 60.046875 46.203125 53.828125 
L 57.03125 53.828125 
C 55.359375 65.515625 46.3125 73.90625 33.3125 73.90625 
C 16.40625 73.90625 5.859375 59.375 5.859375 33.90625 
C 5.859375 7.140625 19.46875 -0.890625 32.390625 -1 
z
M 32.359375 8.234375 
C 23.90625 8.234375 17.71875 15.34375 17.71875 23.515625 
C 17.75 31.640625 24.21875 38.75 32.59375 38.75 
C 40.90625 38.75 47.015625 32.03125 46.984375 23.609375 
C 47.015625 15.015625 40.65625 8.234375 32.359375 8.234375 
z
" id="Inter-Medium-54"/>
      </defs>
      <g transform="translate(403.140411 660.164844)scale(0.17 -0.17)">
       <use xlink:href="#Inter-Medium-54"/>
       <use x="63.565353" xlink:href="#Inter-Medium-48"/>
       <use x="128.160538" xlink:href="#Inter-Medium-48"/>
      </g>
     </g>
    </g>
    <g id="xtick_5">
     <g id="line2d_5">
      <g>
       <use style="stroke:#000000;stroke-width:0.8;" x="521.080262" xlink:href="#mbf48182195" y="640.8"/>
      </g>
     </g>
     <g id="text_5">
      <!-- 800 -->
      <defs>
       <path d="M 31.578125 -1 
C 46.703125 -1 57.390625 7.59375 57.453125 19.390625 
C 57.390625 28.546875 50.953125 36.25 42.828125 37.71875 
L 42.828125 38.140625 
C 49.890625 39.84375 54.6875 46.484375 54.765625 54.328125 
C 54.6875 65.453125 44.890625 73.71875 31.578125 73.71875 
C 18.109375 73.71875 8.3125 65.453125 8.375 54.328125 
C 8.3125 46.515625 13.109375 39.84375 20.3125 38.140625 
L 20.3125 37.71875 
C 12.046875 36.25 5.609375 28.546875 5.6875 19.390625 
C 5.609375 7.59375 16.296875 -1 31.578125 -1 
z
M 31.578125 7.984375 
C 22.484375 7.984375 16.734375 12.8125 16.796875 20.09375 
C 16.734375 27.65625 22.984375 33.0625 31.578125 33.0625 
C 40.015625 33.0625 46.265625 27.65625 46.34375 20.09375 
C 46.265625 12.8125 40.5625 7.984375 31.578125 7.984375 
z
M 31.578125 41.828125 
C 24.21875 41.828125 19 46.484375 19.078125 53.40625 
C 19 60.234375 24.046875 64.734375 31.578125 64.734375 
C 38.953125 64.734375 44 60.234375 44.078125 53.40625 
C 44 46.484375 38.8125 41.828125 31.578125 41.828125 
z
" id="Inter-Medium-56"/>
      </defs>
      <g transform="translate(504.732371 660.164844)scale(0.17 -0.17)">
       <use xlink:href="#Inter-Medium-56"/>
       <use x="63.139221" xlink:href="#Inter-Medium-48"/>
       <use x="127.734406" xlink:href="#Inter-Medium-48"/>
      </g>
     </g>
    </g>
    <g id="xtick_6">
     <g id="line2d_6">
      <g>
       <use style="stroke:#000000;stroke-width:0.8;" x="622.636364" xlink:href="#mbf48182195" y="640.8"/>
      </g>
     </g>
     <g id="text_6">
      <!-- 1000 -->
      <defs>
       <path d="M 32.5625 72.734375 
L 22.34375 72.734375 
C 21.953125 70.734375 16.40625 61.546875 5.796875 61.546875 
L 5.796875 52.515625 
C 14.03125 52.515625 19.75 55.78125 20.953125 57.921875 
L 21.5625 57.921875 
L 21.5625 0 
L 32.5625 0 
z
" id="Inter-Medium-49"/>
      </defs>
      <g transform="translate(602.318707 660.164844)scale(0.17 -0.17)">
       <use xlink:href="#Inter-Medium-49"/>
       <use x="45.241486" xlink:href="#Inter-Medium-48"/>
       <use x="109.83667" xlink:href="#Inter-Medium-48"/>
       <use x="174.431854" xlink:href="#Inter-Medium-48"/>
      </g>
     </g>
    </g>
    <g id="text_7">
     <!-- n_words -->
     <defs>
      <path d="M 11.9375 36.640625 
C 11.9375 46.171875 18.890625 52.984375 28.546875 52.984375 
C 38.21875 52.984375 44.859375 46.3125 44.859375 36.640625 
L 44.859375 0 
L 47.15625 0 
L 47.15625 36.640625 
C 47.15625 47.578125 39.484375 55.25 28.546875 55.25 
C 21.03125 55.25 14.734375 51.5625 12.1875 45.875 
L 11.9375 45.875 
L 11.9375 54.546875 
L 9.625 54.546875 
L 9.625 0 
L 11.9375 0 
z
" id="Inter-ThinBETA-110"/>
      <path d="M 42.90625 0 
L -0.328125 0 
L -0.328125 -4.125 
L 42.90625 -4.125 
L 42.90625 0 
z
" id="Inter-ThinBETA-95"/>
      <path d="M 21.3125 0 
L 24.4375 0 
L 39.34375 50.28125 
L 39.59375 50.28125 
L 54.515625 0 
L 57.671875 0 
L 73.859375 54.546875 
L 71.421875 54.546875 
L 56.21875 3.125 
L 55.96875 3.125 
L 40.625 54.546875 
L 38.3125 54.546875 
L 22.984375 3.125 
L 22.734375 3.125 
L 7.53125 54.546875 
L 5.078125 54.546875 
L 21.265625 0 
z
" id="Inter-ThinBETA-119"/>
      <path d="M 28.984375 -1.140625 
C 41.828125 -1.140625 51.5625 11.046875 51.5625 27.125 
C 51.5625 43.1875 41.796875 55.390625 28.984375 55.390625 
C 16.125 55.390625 6.359375 43.21875 6.359375 27.125 
C 6.359375 11.046875 16.125 -1.140625 28.984375 -1.140625 
z
M 28.984375 1.140625 
C 17.40625 1.140625 8.671875 12.328125 8.671875 27.125 
C 8.671875 41.875 17.46875 53.125 28.984375 53.125 
C 40.515625 53.125 49.25 41.90625 49.25 27.125 
C 49.25 12.328125 40.5625 1.140625 28.984375 1.140625 
z
" id="Inter-ThinBETA-111"/>
      <path d="M 9.65625 0 
L 11.9375 0 
L 11.9375 36.640625 
C 11.9375 46.171875 18.890625 52.984375 28.546875 52.984375 
C 30.640625 52.984375 32.5 52.65625 33.953125 52.09375 
L 34.796875 54.21875 
C 33.0625 54.859375 30.9375 55.25 28.546875 55.25 
C 21.03125 55.25 14.734375 51.5625 12.1875 45.875 
L 11.9375 45.875 
L 11.9375 54.546875 
L 9.625 54.546875 
L 9.625 0 
z
" id="Inter-ThinBETA-114"/>
      <path d="M 27.421875 -1.140625 
C 36.15625 -1.140625 42.90625 4.609375 45.875 13.640625 
L 46.125 13.640625 
L 46.125 0 
L 48.4375 0 
L 48.4375 72.734375 
L 46.125 72.734375 
L 46.125 40.625 
L 45.875 40.625 
C 43.046875 49.71875 36.078125 55.390625 27.421875 55.390625 
C 14.625 55.390625 6.359375 43.1875 6.359375 27.125 
C 6.359375 11.015625 14.484375 -1.140625 27.421875 -1.140625 
z
M 27.421875 1.140625 
C 15.84375 1.140625 8.671875 12.359375 8.671875 27.125 
C 8.671875 41.90625 15.90625 53.125 27.421875 53.125 
C 38.921875 53.125 46.125 41.90625 46.125 27.125 
C 46.125 12.359375 39 1.140625 27.421875 1.140625 
z
" id="Inter-ThinBETA-100"/>
      <path d="M 42.328125 43.046875 
C 39.671875 51.203125 33.984375 55.390625 25.5625 55.390625 
C 15.625 55.390625 8.625 49.609375 8.625 41.046875 
C 8.625 34.234375 13.0625 29.375 21.453125 27.265625 
L 29.96875 25.140625 
C 36.96875 23.40625 40.453125 19.421875 40.453125 13.78125 
C 40.453125 6.171875 34.0625 1.140625 24.578125 1.140625 
C 15.90625 1.140625 10.546875 5.328125 8.953125 13.0625 
L 6.640625 12.46875 
C 8.484375 3.796875 14.875 -1.140625 24.578125 -1.140625 
C 35.265625 -1.140625 42.75 4.859375 42.75 13.78125 
C 42.75 20.484375 38.53125 25.421875 30.546875 27.421875 
L 22.015625 29.546875 
C 14.59375 31.390625 10.9375 35.328125 10.9375 41.046875 
C 10.9375 48.296875 16.875 53.125 25.5625 53.125 
C 33.0625 53.125 37.78125 49.578125 40.015625 42.4375 
L 42.328125 43.046875 
z
" id="Inter-ThinBETA-115"/>
     </defs>
     <g transform="translate(349.9125 674.915313)scale(0.1 -0.1)">
      <use xlink:href="#Inter-ThinBETA-110"/>
      <use x="56.818192" xlink:href="#Inter-ThinBETA-95"/>
      <use x="99.502853" xlink:href="#Inter-ThinBETA-119"/>
      <use x="178.480148" xlink:href="#Inter-ThinBETA-111"/>
      <use x="236.434708" xlink:href="#Inter-ThinBETA-114"/>
      <use x="272.656296" xlink:href="#Inter-ThinBETA-100"/>
      <use x="332.457443" xlink:href="#Inter-ThinBETA-115"/>
     </g>
    </g>
   </g>
   <g id="matplotlib.axis_2">
    <g id="ytick_1">
     <g id="line2d_7">
      <defs>
       <path d="M 0 0 
L -3.5 0 
" id="mf01d2f24ea" style="stroke:#000000;stroke-width:0.8;"/>
      </defs>
      <g>
       <use style="stroke:#000000;stroke-width:0.8;" x="90" xlink:href="#mf01d2f24ea" y="363.6"/>
      </g>
     </g>
    </g>
   </g>
   <g id="line2d_8">
    <path clip-path="url(#pd4b8786e9d)" d="M 158.52498 363.6 
L 115.363636 363.6 
" style="fill:none;stroke:#3f3f3f;stroke-linecap:square;stroke-width:1.5;"/>
   </g>
   <g id="line2d_9">
    <path clip-path="url(#pd4b8786e9d)" d="M 378.393939 363.6 
L 622.636364 363.6 
" style="fill:none;stroke:#3f3f3f;stroke-linecap:square;stroke-width:1.5;"/>
   </g>
   <g id="line2d_10">
    <path clip-path="url(#pd4b8786e9d)" d="M 115.363636 252.72 
L 115.363636 474.48 
" style="fill:none;stroke:#3f3f3f;stroke-linecap:square;stroke-width:1.5;"/>
   </g>
   <g id="line2d_11">
    <path clip-path="url(#pd4b8786e9d)" d="M 622.636364 252.72 
L 622.636364 474.48 
" style="fill:none;stroke:#3f3f3f;stroke-linecap:square;stroke-width:1.5;"/>
   </g>
   <g id="line2d_12"/>
   <g id="line2d_13">
    <path clip-path="url(#pd4b8786e9d)" d="M 239.26208 141.84 
L 239.26208 585.36 
" style="fill:none;stroke:#3f3f3f;stroke-linecap:square;stroke-width:1.5;"/>
   </g>
   <g id="patch_4">
    <path d="M 90 640.8 
L 90 86.4 
" style="fill:none;stroke:#000000;stroke-linecap:square;stroke-linejoin:miter;stroke-width:0.8;"/>
   </g>
   <g id="patch_5">
    <path d="M 648 640.8 
L 648 86.4 
" style="fill:none;stroke:#000000;stroke-linecap:square;stroke-linejoin:miter;stroke-width:0.8;"/>
   </g>
   <g id="patch_6">
    <path d="M 90 640.8 
L 648 640.8 
" style="fill:none;stroke:#000000;stroke-linecap:square;stroke-linejoin:miter;stroke-width:0.8;"/>
   </g>
   <g id="patch_7">
    <path d="M 90 86.4 
L 648 86.4 
" style="fill:none;stroke:#000000;stroke-linecap:square;stroke-linejoin:miter;stroke-width:0.8;"/>
   </g>
   <g id="text_8">
    <!-- Distribution of words in unverified reviews -->
    <defs>
     <path d="M 30.40625 0 
C 51.734375 0 64.140625 13.421875 64.203125 36.640625 
C 64.234375 59.265625 52.3125 72.734375 32.25 72.734375 
L 11.328125 72.734375 
L 11.328125 0 
z
M 13.640625 2.265625 
L 13.640625 70.453125 
L 32.25 70.453125 
C 51.109375 70.453125 61.828125 57.84375 61.890625 36.640625 
C 61.96875 15.09375 50.5625 2.265625 30.40625 2.265625 
z
" id="Inter-ThinBETA-68"/>
     <path d="M 9.9375 0 
L 12.21875 0 
L 12.21875 54.546875 
L 9.90625 54.546875 
L 9.90625 0 
z
M 11.078125 64.484375 
C 12.328125 64.484375 13.359375 65.515625 13.359375 66.765625 
C 13.359375 68 12.328125 69.03125 11.078125 69.03125 
C 9.84375 69.03125 8.765625 68 8.765625 66.765625 
C 8.765625 65.515625 9.84375 64.484375 11.078125 64.484375 
z
" id="Inter-ThinBETA-105"/>
     <path d="M 26.703125 54.546875 
L 15.34375 54.546875 
L 15.34375 67.609375 
L 13.03125 67.609375 
L 13.03125 54.546875 
L 5.078125 54.546875 
L 5.078125 52.265625 
L 13.03125 52.265625 
L 13.03125 11.5 
C 13.03125 3.828125 18.859375 -1 25.5625 -1 
C 27.28125 -1 28.546875 -0.671875 29.96875 -0.140625 
L 29.265625 1.984375 
C 28.015625 1.53125 26.953125 1.28125 25.5625 1.28125 
C 20.140625 1.28125 15.34375 5.15625 15.34375 11.5 
L 15.34375 52.265625 
L 26.703125 52.265625 
L 26.703125 54.546875 
z
" id="Inter-ThinBETA-116"/>
     <path d="M 11.359375 0 
L 13.640625 0 
L 13.640625 13.640625 
L 13.890625 13.640625 
C 16.828125 4.578125 23.609375 -1.140625 32.390625 -1.140625 
C 45.28125 -1.140625 53.40625 11.015625 53.40625 27.125 
C 53.40625 43.1875 45.171875 55.390625 32.390625 55.390625 
C 23.71875 55.390625 16.734375 49.71875 13.890625 40.625 
L 13.640625 40.625 
L 13.640625 72.734375 
L 11.328125 72.734375 
L 11.328125 0 
z
M 13.640625 27.125 
C 13.640625 41.90625 20.875 53.125 32.390625 53.125 
C 43.890625 53.125 51.109375 41.90625 51.109375 27.125 
C 51.109375 12.359375 43.96875 1.140625 32.390625 1.140625 
C 20.8125 1.140625 13.640625 12.359375 13.640625 27.125 
z
" id="Inter-ThinBETA-98"/>
     <path d="M 44.859375 17.890625 
C 44.859375 8.375 37.921875 1.5625 28.265625 1.5625 
C 18.609375 1.5625 11.9375 8.234375 11.9375 17.890625 
L 11.9375 54.546875 
L 9.625 54.546875 
L 9.625 17.890625 
C 9.625 6.953125 17.328125 -0.703125 28.265625 -0.703125 
C 35.796875 -0.703125 42.046875 2.984375 44.609375 8.671875 
L 44.859375 8.671875 
L 44.859375 0 
L 47.15625 0 
L 47.15625 54.546875 
L 44.859375 54.546875 
z
" id="Inter-ThinBETA-117"/>
     <path id="Inter-ThinBETA-32"/>
     <path d="M 28.40625 54.546875 
L 16.625 54.546875 
L 16.625 62.5 
C 16.625 68.859375 21.421875 72.734375 26.84375 72.734375 
C 28.234375 72.734375 29.296875 72.484375 30.46875 72.046875 
L 31.1875 74.1875 
C 29.828125 74.6875 28.546875 75 26.84375 75 
C 20.140625 75 14.3125 70.171875 14.3125 62.5 
L 14.3125 54.546875 
L 6.78125 54.546875 
L 6.78125 52.265625 
L 14.3125 52.265625 
L 14.3125 0 
L 16.625 0 
L 16.625 52.265625 
L 28.40625 52.265625 
L 28.40625 54.546875 
z
" id="Inter-ThinBETA-102"/>
     <path d="M 47.15625 54.546875 
L 44.703125 54.546875 
L 26.25 2.84375 
L 26 2.84375 
L 7.53125 54.546875 
L 5.078125 54.546875 
L 24.546875 0 
L 27.703125 0 
L 47.15625 54.546875 
z
" id="Inter-ThinBETA-118"/>
     <path d="M 30.109375 -1.140625 
C 40.734375 -1.140625 46.59375 5.546875 49 9.65625 
L 47.125 10.9375 
C 45.140625 7.671875 40.171875 1.140625 30.109375 1.140625 
C 16.40625 1.140625 8.703125 13.03125 8.671875 27.265625 
L 51.28125 27.265625 
L 51.28125 29.546875 
C 51.28125 43.640625 41.65625 55.390625 28.984375 55.390625 
C 16.09375 55.390625 6.359375 43.1875 6.359375 27.125 
C 6.359375 11.078125 15.796875 -1.140625 30.109375 -1.140625 
z
M 8.734375 29.546875 
C 9.703125 43.109375 18.25 53.125 28.984375 53.125 
C 40.015625 53.125 48.96875 42.65625 48.96875 29.546875 
L 8.734375 29.546875 
z
" id="Inter-ThinBETA-101"/>
    </defs>
    <g transform="translate(253.425 80.4)scale(0.12 -0.12)">
     <use xlink:href="#Inter-ThinBETA-68"/>
     <use x="71.448883" xlink:href="#Inter-ThinBETA-105"/>
     <use x="93.607971" xlink:href="#Inter-ThinBETA-115"/>
     <use x="142.897751" xlink:href="#Inter-ThinBETA-116"/>
     <use x="177.698898" xlink:href="#Inter-ThinBETA-114"/>
     <use x="213.920486" xlink:href="#Inter-ThinBETA-105"/>
     <use x="236.079575" xlink:href="#Inter-ThinBETA-98"/>
     <use x="295.880722" xlink:href="#Inter-ThinBETA-117"/>
     <use x="352.698914" xlink:href="#Inter-ThinBETA-116"/>
     <use x="387.500061" xlink:href="#Inter-ThinBETA-105"/>
     <use x="409.659149" xlink:href="#Inter-ThinBETA-111"/>
     <use x="467.613708" xlink:href="#Inter-ThinBETA-110"/>
     <use x="524.4319" xlink:href="#Inter-ThinBETA-32"/>
     <use x="552.5569" xlink:href="#Inter-ThinBETA-111"/>
     <use x="610.511459" xlink:href="#Inter-ThinBETA-102"/>
     <use x="643.608047" xlink:href="#Inter-ThinBETA-32"/>
     <use x="671.733047" xlink:href="#Inter-ThinBETA-119"/>
     <use x="750.710342" xlink:href="#Inter-ThinBETA-111"/>
     <use x="808.664902" xlink:href="#Inter-ThinBETA-114"/>
     <use x="844.88649" xlink:href="#Inter-ThinBETA-100"/>
     <use x="904.687637" xlink:href="#Inter-ThinBETA-115"/>
     <use x="953.977417" xlink:href="#Inter-ThinBETA-32"/>
     <use x="982.102417" xlink:href="#Inter-ThinBETA-105"/>
     <use x="1004.261505" xlink:href="#Inter-ThinBETA-110"/>
     <use x="1061.079697" xlink:href="#Inter-ThinBETA-32"/>
     <use x="1089.204697" xlink:href="#Inter-ThinBETA-117"/>
     <use x="1146.022888" xlink:href="#Inter-ThinBETA-110"/>
     <use x="1202.84108" xlink:href="#Inter-ThinBETA-118"/>
     <use x="1255.113815" xlink:href="#Inter-ThinBETA-101"/>
     <use x="1312.784286" xlink:href="#Inter-ThinBETA-114"/>
     <use x="1349.005875" xlink:href="#Inter-ThinBETA-105"/>
     <use x="1371.164963" xlink:href="#Inter-ThinBETA-102"/>
     <use x="1404.261551" xlink:href="#Inter-ThinBETA-105"/>
     <use x="1426.420639" xlink:href="#Inter-ThinBETA-101"/>
     <use x="1484.09111" xlink:href="#Inter-ThinBETA-100"/>
     <use x="1543.892258" xlink:href="#Inter-ThinBETA-32"/>
     <use x="1572.017258" xlink:href="#Inter-ThinBETA-114"/>
     <use x="1608.238846" xlink:href="#Inter-ThinBETA-101"/>
     <use x="1665.909317" xlink:href="#Inter-ThinBETA-118"/>
     <use x="1718.182053" xlink:href="#Inter-ThinBETA-105"/>
     <use x="1740.341141" xlink:href="#Inter-ThinBETA-101"/>
     <use x="1798.011612" xlink:href="#Inter-ThinBETA-119"/>
     <use x="1876.988907" xlink:href="#Inter-ThinBETA-115"/>
    </g>
   </g>
  </g>
 </g>
 <defs>
  <clipPath id="pd4b8786e9d">
   <rect height="554.4" width="558" x="90" y="86.4"/>
  </clipPath>
 </defs>
</svg>
