<?xml version="1.0" encoding="utf-8" standalone="no"?>
<!DOCTYPE svg PUBLIC "-//W3C//DTD SVG 1.1//EN"
  "http://www.w3.org/Graphics/SVG/1.1/DTD/svg11.dtd">
<!-- Created with matplotlib (https://matplotlib.org/) -->
<svg height="1080pt" version="1.1" viewBox="0 0 1080 1080" width="1080pt" xmlns="http://www.w3.org/2000/svg" xmlns:xlink="http://www.w3.org/1999/xlink">
 <defs>
  <style type="text/css">
*{stroke-linecap:butt;stroke-linejoin:round;}
  </style>
 </defs>
 <g id="figure_1">
  <g id="patch_1">
   <path d="M 0 1080 
L 1080 1080 
L 1080 0 
L 0 0 
z
" style="fill:#ffffff;"/>
  </g>
  <g id="axes_1">
   <g id="patch_2">
    <path d="M 135 961.2 
L 972 961.2 
L 972 129.6 
L 135 129.6 
z
" style="fill:#eaeaf2;"/>
   </g>
   <g id="matplotlib.axis_1">
    <g id="text_1">
     <!-- Unique Reviewers -->
     <defs>
      <path d="M 54.796875 72.734375 
L 54.796875 24.78125 
C 54.796875 14.59375 46.65625 8.875 36.859375 8.875 
C 27.125 8.875 18.96875 14.59375 18.96875 24.78125 
L 18.96875 72.734375 
L 7.984375 72.734375 
L 7.984375 24.609375 
C 7.984375 8.203125 20.78125 -1.203125 36.859375 -1.203125 
C 52.953125 -1.203125 65.765625 8.203125 65.765625 24.609375 
L 65.765625 72.734375 
z
" id="Inter-Medium-85"/>
      <path d="M 17.75 32.390625 
C 17.75 41.09375 23.078125 46.0625 30.46875 46.0625 
C 37.671875 46.0625 42.046875 41.328125 42.046875 33.421875 
L 42.046875 0 
L 52.671875 0 
L 52.671875 34.6875 
C 52.671875 48.1875 45.25 55.25 34.09375 55.25 
C 25.890625 55.25 20.53125 51.453125 18 45.671875 
L 17.328125 45.671875 
L 17.328125 54.546875 
L 7.140625 54.546875 
L 7.140625 0 
L 17.75 0 
z
" id="Inter-Medium-110"/>
      <path d="M 7.140625 0 
L 17.75 0 
L 17.75 54.546875 
L 7.140625 54.546875 
z
M 12.5 62.96875 
C 16.15625 62.96875 19.21875 65.796875 19.21875 69.28125 
C 19.21875 72.765625 16.15625 75.640625 12.5 75.640625 
C 8.8125 75.640625 5.796875 72.765625 5.796875 69.28125 
C 5.796875 65.796875 8.8125 62.96875 12.5 62.96875 
z
" id="Inter-Medium-105"/>
      <path d="M 54.578125 -20.453125 
L 54.578125 54.546875 
L 44.21875 54.546875 
L 44.21875 45.703125 
L 43.328125 45.703125 
C 41.4375 49.078125 37.78125 55.25 27.671875 55.25 
C 14.484375 55.25 4.765625 44.84375 4.765625 27.171875 
C 4.765625 9.515625 14.34375 -1.0625 27.5625 -1.0625 
C 37.5 -1.0625 41.40625 5 43.328125 8.484375 
L 43.96875 8.484375 
L 43.96875 -20.453125 
z
M 44.171875 27.265625 
C 44.171875 15.796875 39.0625 7.984375 29.9375 7.984375 
C 20.453125 7.984375 15.484375 16.328125 15.484375 27.265625 
C 15.484375 38.109375 20.3125 46.234375 29.9375 46.234375 
C 39.203125 46.234375 44.171875 38.671875 44.171875 27.265625 
z
" id="Inter-Medium-113"/>
      <path d="M 41.6875 22.625 
C 41.734375 13.359375 34.84375 8.953125 28.875 8.953125 
C 22.296875 8.953125 17.75 13.703125 17.75 21.125 
L 17.75 54.546875 
L 7.140625 54.546875 
L 7.140625 19.84375 
C 7.140625 6.328125 14.5625 -0.703125 25.03125 -0.703125 
C 33.234375 -0.703125 38.8125 3.625 41.34375 9.453125 
L 41.90625 9.453125 
L 41.90625 0 
L 52.34375 0 
L 52.34375 54.546875 
L 41.6875 54.546875 
z
" id="Inter-Medium-117"/>
      <path d="M 30.640625 -1.09375 
C 42.546875 -1.09375 50.953125 4.765625 53.375 13.640625 
L 43.328125 15.453125 
C 41.40625 10.296875 36.796875 7.671875 30.75 7.671875 
C 21.65625 7.671875 15.5625 13.5625 15.265625 24.078125 
L 54.046875 24.078125 
L 54.046875 27.84375 
C 54.046875 47.546875 42.265625 55.25 29.90625 55.25 
C 14.703125 55.25 4.6875 43.671875 4.6875 26.921875 
C 4.6875 9.984375 14.5625 -1.09375 30.640625 -1.09375 
z
M 15.3125 32.03125 
C 15.734375 39.765625 21.34375 46.484375 29.96875 46.484375 
C 38.21875 46.484375 43.609375 40.375 43.640625 32.03125 
z
" id="Inter-Medium-101"/>
      <path id="Inter-Medium-32"/>
      <path d="M 7.984375 0 
L 18.96875 0 
L 18.96875 27.515625 
L 33.875 27.515625 
C 34.125 27.515625 34.34375 27.515625 34.59375 27.515625 
L 49.359375 0 
L 61.859375 0 
L 45.734375 29.4375 
C 54.65625 32.734375 59.09375 40.15625 59.09375 49.921875 
C 59.09375 63.3125 50.78125 72.734375 33.921875 72.734375 
L 7.984375 72.734375 
z
M 18.96875 36.96875 
L 18.96875 63.3125 
L 32.75 63.3125 
C 43.578125 63.3125 48.046875 58.171875 48.046875 49.921875 
C 48.046875 41.71875 43.578125 36.96875 32.890625 36.96875 
z
" id="Inter-Medium-82"/>
      <path d="M 53.796875 54.546875 
L 42.40625 54.546875 
L 28.625 12.578125 
L 28.0625 12.578125 
L 14.234375 54.546875 
L 2.84375 54.546875 
L 22.65625 0 
L 34.015625 0 
z
" id="Inter-Medium-118"/>
      <path d="M 18.96875 0 
L 29.765625 0 
L 40.84375 39.375 
L 41.65625 39.375 
L 52.734375 0 
L 63.5625 0 
L 79.578125 54.546875 
L 68.609375 54.546875 
L 57.984375 14.671875 
L 57.453125 14.671875 
L 46.8125 54.546875 
L 35.828125 54.546875 
L 25.109375 14.484375 
L 24.578125 14.484375 
L 13.890625 54.546875 
L 2.90625 54.546875 
z
" id="Inter-Medium-119"/>
      <path d="M 7.140625 0 
L 17.75 0 
L 17.75 33.3125 
C 17.75 40.40625 23.265625 45.5625 30.609375 45.5625 
C 32.671875 45.5625 34.265625 45.140625 35.546875 44.5 
L 38.953125 53.375 
C 37.140625 54.578125 34.796875 55.359375 31.8125 55.359375 
C 25.359375 55.359375 19.953125 51.734375 17.96875 45.875 
L 17.40625 45.875 
L 17.40625 54.546875 
L 7.140625 54.546875 
z
" id="Inter-Medium-114"/>
      <path d="M 48.015625 41.234375 
C 45.8125 49.71875 39.171875 55.25 27.375 55.25 
C 15.0625 55.25 6.328125 48.75 6.328125 39.09375 
C 6.328125 31.359375 11.015625 26.203125 21.234375 23.9375 
L 30.46875 21.90625 
C 35.71875 20.734375 38.171875 18.390625 38.171875 14.984375 
C 38.171875 10.765625 33.671875 7.453125 26.703125 7.453125 
C 20.34375 7.453125 16.265625 10.1875 14.984375 15.546875 
L 4.71875 13.984375 
C 6.5 4.328125 14.53125 -1.09375 26.78125 -1.09375 
C 39.953125 -1.09375 49.078125 5.890625 49.078125 15.765625 
C 49.078125 23.46875 44.171875 28.234375 34.15625 30.546875 
L 25.5 32.53125 
C 19.5 33.953125 16.90625 35.96875 16.9375 39.671875 
C 16.90625 43.859375 21.453125 46.84375 27.484375 46.84375 
C 34.09375 46.84375 37.140625 43.1875 38.390625 39.53125 
z
" id="Inter-Medium-115"/>
     </defs>
     <g style="fill:#262626;" transform="translate(488.778516 976.546094)scale(0.15 -0.15)">
      <use xlink:href="#Inter-Medium-85"/>
      <use x="73.757111" xlink:href="#Inter-Medium-110"/>
      <use x="133.487228" xlink:href="#Inter-Medium-105"/>
      <use x="158.380692" xlink:href="#Inter-Medium-113"/>
      <use x="220.099457" xlink:href="#Inter-Medium-117"/>
      <use x="279.545486" xlink:href="#Inter-Medium-101"/>
      <use x="338.281296" xlink:href="#Inter-Medium-32"/>
      <use x="364.772781" xlink:href="#Inter-Medium-82"/>
      <use x="429.261429" xlink:href="#Inter-Medium-101"/>
      <use x="487.997238" xlink:href="#Inter-Medium-118"/>
      <use x="544.637878" xlink:href="#Inter-Medium-105"/>
      <use x="569.531342" xlink:href="#Inter-Medium-101"/>
      <use x="628.267151" xlink:href="#Inter-Medium-119"/>
      <use x="710.760071" xlink:href="#Inter-Medium-101"/>
      <use x="769.49588" xlink:href="#Inter-Medium-114"/>
      <use x="809.33963" xlink:href="#Inter-Medium-115"/>
     </g>
    </g>
   </g>
   <g id="matplotlib.axis_2">
    <g id="ytick_1">
     <g id="line2d_1">
      <path clip-path="url(#pcdf37d5130)" d="M 135 961.2 
L 972 961.2 
" style="fill:none;stroke:#ffffff;stroke-linecap:round;stroke-width:0.8;"/>
     </g>
     <g id="text_2">
      <!-- 0 -->
      <defs>
       <path d="M 32.3125 -1.203125 
C 49.109375 -1.203125 58.953125 12.5 58.953125 36.328125 
C 58.953125 59.984375 48.96875 73.71875 32.3125 73.71875 
C 15.625 73.71875 5.6875 60.015625 5.640625 36.328125 
C 5.640625 12.53125 15.484375 -1.171875 32.3125 -1.203125 
z
M 32.3125 8.28125 
C 22.484375 8.28125 16.546875 18.140625 16.546875 36.328125 
C 16.578125 54.4375 22.515625 64.421875 32.3125 64.421875 
C 42.078125 64.421875 48.046875 54.4375 48.046875 36.328125 
C 48.046875 18.140625 42.125 8.28125 32.3125 8.28125 
z
" id="Inter-Medium-48"/>
      </defs>
      <g style="fill:#262626;" transform="translate(119.602812 965.927734)scale(0.13 -0.13)">
       <use xlink:href="#Inter-Medium-48"/>
      </g>
     </g>
    </g>
    <g id="ytick_2">
     <g id="line2d_2">
      <path clip-path="url(#pcdf37d5130)" d="M 135 794.88 
L 972 794.88 
" style="fill:none;stroke:#ffffff;stroke-linecap:round;stroke-width:0.8;"/>
     </g>
     <g id="text_3">
      <!-- 20 -->
      <defs>
       <path d="M 7 0 
L 54.859375 0 
L 54.859375 9.40625 
L 22.125 9.40625 
L 22.125 9.9375 
L 36.578125 25.078125 
C 49.890625 38.53125 53.6875 44.953125 53.6875 53.09375 
C 53.6875 64.765625 44.171875 73.71875 30.46875 73.71875 
C 16.875 73.71875 6.921875 64.921875 6.921875 51.640625 
L 17.40625 51.640625 
C 17.359375 59.453125 22.40625 64.5625 30.25 64.5625 
C 37.640625 64.5625 43.25 60.015625 43.25 52.765625 
C 43.25 46.34375 39.421875 41.71875 31.609375 33.453125 
L 7 7.953125 
z
" id="Inter-Medium-50"/>
      </defs>
      <g style="fill:#262626;" transform="translate(111.630156 799.607734)scale(0.13 -0.13)">
       <use xlink:href="#Inter-Medium-50"/>
       <use x="61.32814" xlink:href="#Inter-Medium-48"/>
      </g>
     </g>
    </g>
    <g id="ytick_3">
     <g id="line2d_3">
      <path clip-path="url(#pcdf37d5130)" d="M 135 628.56 
L 972 628.56 
" style="fill:none;stroke:#ffffff;stroke-linecap:round;stroke-width:0.8;"/>
     </g>
     <g id="text_4">
      <!-- 40 -->
      <defs>
       <path d="M 5.46875 14.203125 
L 39.953125 14.203125 
L 39.953125 0 
L 50.421875 0 
L 50.421875 14.203125 
L 60.046875 14.203125 
L 60.046875 23.515625 
L 50.421875 23.515625 
L 50.421875 72.734375 
L 36.890625 72.734375 
L 5.46875 23.078125 
z
M 40.015625 23.515625 
L 16.96875 23.515625 
L 16.96875 24.078125 
L 39.453125 59.65625 
L 40.015625 59.65625 
z
" id="Inter-Medium-52"/>
      </defs>
      <g style="fill:#262626;" transform="translate(111.1 633.287734)scale(0.13 -0.13)">
       <use xlink:href="#Inter-Medium-52"/>
       <use x="65.411942" xlink:href="#Inter-Medium-48"/>
      </g>
     </g>
    </g>
    <g id="ytick_4">
     <g id="line2d_4">
      <path clip-path="url(#pcdf37d5130)" d="M 135 462.24 
L 972 462.24 
" style="fill:none;stroke:#ffffff;stroke-linecap:round;stroke-width:0.8;"/>
     </g>
     <g id="text_5">
      <!-- 60 -->
      <defs>
       <path d="M 32.390625 -1 
C 47.59375 -1.140625 57.671875 9.796875 57.640625 23.75 
C 57.671875 37.671875 47.546875 47.65625 34.9375 47.65625 
C 27.28125 47.65625 20.640625 43.96875 16.90625 37.8125 
L 16.375 37.8125 
C 16.40625 54.515625 22.65625 64.28125 33.3125 64.28125 
C 40.3125 64.28125 44.703125 60.046875 46.203125 53.828125 
L 57.03125 53.828125 
C 55.359375 65.515625 46.3125 73.90625 33.3125 73.90625 
C 16.40625 73.90625 5.859375 59.375 5.859375 33.90625 
C 5.859375 7.140625 19.46875 -0.890625 32.390625 -1 
z
M 32.359375 8.234375 
C 23.90625 8.234375 17.71875 15.34375 17.71875 23.515625 
C 17.75 31.640625 24.21875 38.75 32.59375 38.75 
C 40.90625 38.75 47.015625 32.03125 46.984375 23.609375 
C 47.015625 15.015625 40.65625 8.234375 32.359375 8.234375 
z
" id="Inter-Medium-54"/>
      </defs>
      <g style="fill:#262626;" transform="translate(111.339687 466.967734)scale(0.13 -0.13)">
       <use xlink:href="#Inter-Medium-54"/>
       <use x="63.565353" xlink:href="#Inter-Medium-48"/>
      </g>
     </g>
    </g>
    <g id="ytick_5">
     <g id="line2d_5">
      <path clip-path="url(#pcdf37d5130)" d="M 135 295.92 
L 972 295.92 
" style="fill:none;stroke:#ffffff;stroke-linecap:round;stroke-width:0.8;"/>
     </g>
     <g id="text_6">
      <!-- 80 -->
      <defs>
       <path d="M 31.578125 -1 
C 46.703125 -1 57.390625 7.59375 57.453125 19.390625 
C 57.390625 28.546875 50.953125 36.25 42.828125 37.71875 
L 42.828125 38.140625 
C 49.890625 39.84375 54.6875 46.484375 54.765625 54.328125 
C 54.6875 65.453125 44.890625 73.71875 31.578125 73.71875 
C 18.109375 73.71875 8.3125 65.453125 8.375 54.328125 
C 8.3125 46.515625 13.109375 39.84375 20.3125 38.140625 
L 20.3125 37.71875 
C 12.046875 36.25 5.609375 28.546875 5.6875 19.390625 
C 5.609375 7.59375 16.296875 -1 31.578125 -1 
z
M 31.578125 7.984375 
C 22.484375 7.984375 16.734375 12.8125 16.796875 20.09375 
C 16.734375 27.65625 22.984375 33.0625 31.578125 33.0625 
C 40.015625 33.0625 46.265625 27.65625 46.34375 20.09375 
C 46.265625 12.8125 40.5625 7.984375 31.578125 7.984375 
z
M 31.578125 41.828125 
C 24.21875 41.828125 19 46.484375 19.078125 53.40625 
C 19 60.234375 24.046875 64.734375 31.578125 64.734375 
C 38.953125 64.734375 44 60.234375 44.078125 53.40625 
C 44 46.484375 38.8125 41.828125 31.578125 41.828125 
z
" id="Inter-Medium-56"/>
      </defs>
      <g style="fill:#262626;" transform="translate(111.394531 300.647734)scale(0.13 -0.13)">
       <use xlink:href="#Inter-Medium-56"/>
       <use x="63.139221" xlink:href="#Inter-Medium-48"/>
      </g>
     </g>
    </g>
    <g id="ytick_6">
     <g id="line2d_6">
      <path clip-path="url(#pcdf37d5130)" d="M 135 129.6 
L 972 129.6 
" style="fill:none;stroke:#ffffff;stroke-linecap:round;stroke-width:0.8;"/>
     </g>
     <g id="text_7">
      <!-- 100 -->
      <defs>
       <path d="M 32.5625 72.734375 
L 22.34375 72.734375 
C 21.953125 70.734375 16.40625 61.546875 5.796875 61.546875 
L 5.796875 52.515625 
C 14.03125 52.515625 19.75 55.78125 20.953125 57.921875 
L 21.5625 57.921875 
L 21.5625 0 
L 32.5625 0 
z
" id="Inter-Medium-49"/>
      </defs>
      <g style="fill:#262626;" transform="translate(105.323125 134.327734)scale(0.13 -0.13)">
       <use xlink:href="#Inter-Medium-49"/>
       <use x="45.241486" xlink:href="#Inter-Medium-48"/>
       <use x="109.83667" xlink:href="#Inter-Medium-48"/>
      </g>
     </g>
    </g>
    <g id="text_8">
     <!-- Percentage -->
     <defs>
      <path d="M 7.984375 0 
L 18.96875 0 
L 18.96875 25.5625 
L 33.875 25.5625 
C 50.75 25.5625 59.09375 35.765625 59.09375 49.1875 
C 59.09375 62.578125 50.8125 72.734375 33.921875 72.734375 
L 7.984375 72.734375 
z
M 18.96875 34.875 
L 18.96875 63.3125 
L 32.75 63.3125 
C 43.609375 63.3125 48.046875 57.421875 48.046875 49.1875 
C 48.046875 40.9375 43.609375 34.875 32.890625 34.875 
z
" id="Inter-Medium-80"/>
      <path d="M 30.109375 -1.09375 
C 43 -1.09375 51.34375 6.640625 52.515625 17.265625 
L 42.1875 17.265625 
C 40.84375 11.359375 36.265625 7.890625 30.1875 7.890625 
C 21.203125 7.890625 15.40625 15.375 15.40625 27.265625 
C 15.40625 38.953125 21.3125 46.3125 30.1875 46.3125 
C 36.9375 46.3125 41.046875 42.046875 42.1875 36.9375 
L 52.515625 36.9375 
C 51.390625 47.9375 42.40625 55.25 30.015625 55.25 
C 14.625 55.25 4.6875 43.671875 4.6875 27.03125 
C 4.6875 10.578125 14.28125 -1.09375 30.109375 -1.09375 
z
" id="Inter-Medium-99"/>
      <path d="M 32.59375 54.546875 
L 21.421875 54.546875 
L 21.421875 67.609375 
L 10.796875 67.609375 
L 10.796875 54.546875 
L 2.8125 54.546875 
L 2.8125 46.015625 
L 10.796875 46.015625 
L 10.796875 13.8125 
C 10.765625 3.90625 18.328125 -0.890625 26.703125 -0.703125 
C 30.078125 -0.671875 32.359375 -0.03125 33.59375 0.421875 
L 31.671875 9.203125 
C 30.96875 9.0625 29.65625 8.734375 27.953125 8.734375 
C 24.5 8.734375 21.421875 9.875 21.421875 16.015625 
L 21.421875 46.015625 
L 32.59375 46.015625 
z
" id="Inter-Medium-116"/>
      <path d="M 23.015625 -1.203125 
C 32.03125 -1.203125 37.109375 3.375 39.140625 7.453125 
L 39.5625 7.453125 
L 39.5625 0 
L 49.9375 0 
L 49.9375 36.21875 
C 49.9375 52.09375 37.4375 55.25 28.765625 55.25 
C 18.890625 55.25 9.796875 51.28125 6.25 41.328125 
L 16.234375 39.0625 
C 17.796875 42.9375 21.765625 46.65625 28.90625 46.65625 
C 35.765625 46.65625 39.28125 43.078125 39.28125 36.890625 
L 39.28125 36.640625 
C 39.28125 32.78125 35.296875 32.84375 25.5 31.71875 
C 15.171875 30.5 4.578125 27.8125 4.578125 15.40625 
C 4.578125 4.6875 12.640625 -1.203125 23.015625 -1.203125 
z
M 25.328125 7.3125 
C 19.3125 7.3125 14.984375 10.015625 14.984375 15.265625 
C 14.984375 20.953125 20.03125 22.96875 26.171875 23.796875 
C 29.625 24.25 37.78125 25.171875 39.3125 26.703125 
L 39.3125 19.671875 
C 39.3125 13.203125 34.15625 7.3125 25.328125 7.3125 
z
" id="Inter-Medium-97"/>
      <path d="M 30.015625 -21.484375 
C 43.890625 -21.484375 54.625 -15.125 54.625 -1.203125 
L 54.625 54.546875 
L 44.21875 54.546875 
L 44.21875 45.703125 
L 43.4375 45.703125 
C 41.546875 49.078125 37.78125 55.25 27.625 55.25 
C 14.453125 55.25 4.765625 44.84375 4.765625 27.484375 
C 4.765625 10.078125 14.671875 0.8125 27.5625 0.8125 
C 37.578125 0.8125 41.4375 6.46875 43.359375 9.9375 
L 44.03125 9.9375 
L 44.03125 -0.78125 
C 44.03125 -9.203125 38.171875 -12.921875 30.109375 -12.921875 
C 21.265625 -12.921875 17.828125 -8.484375 15.953125 -5.46875 
L 6.8125 -9.234375 
C 9.703125 -15.796875 16.96875 -21.484375 30.015625 -21.484375 
z
M 29.90625 9.625 
C 20.421875 9.625 15.484375 16.90625 15.484375 27.625 
C 15.484375 38.109375 20.3125 46.234375 29.90625 46.234375 
C 39.171875 46.234375 44.140625 38.671875 44.140625 27.625 
C 44.140625 16.375 39.0625 9.625 29.90625 9.625 
z
" id="Inter-Medium-103"/>
     </defs>
     <g style="fill:#262626;" transform="translate(98.100469 586.823437)rotate(-90)scale(0.15 -0.15)">
      <use xlink:href="#Inter-Medium-80"/>
      <use x="63.920471" xlink:href="#Inter-Medium-101"/>
      <use x="122.656281" xlink:href="#Inter-Medium-114"/>
      <use x="162.500031" xlink:href="#Inter-Medium-99"/>
      <use x="219.282715" xlink:href="#Inter-Medium-101"/>
      <use x="278.018524" xlink:href="#Inter-Medium-110"/>
      <use x="337.748642" xlink:href="#Inter-Medium-116"/>
      <use x="374.929047" xlink:href="#Inter-Medium-97"/>
      <use x="431.853775" xlink:href="#Inter-Medium-103"/>
      <use x="493.57254" xlink:href="#Inter-Medium-101"/>
     </g>
    </g>
   </g>
   <g id="patch_3">
    <path clip-path="url(#pcdf37d5130)" d="M 173.045455 961.2 
L 188.263636 961.2 
L 188.263636 229.392 
L 173.045455 229.392 
z
" style="fill:#b5ffb9;stroke:#ffffff;stroke-linejoin:miter;"/>
   </g>
   <g id="patch_4">
    <path clip-path="url(#pcdf37d5130)" d="M 188.263636 961.2 
L 203.481818 961.2 
L 203.481818 292.304348 
L 188.263636 292.304348 
z
" style="fill:#b5ffb9;stroke:#ffffff;stroke-linejoin:miter;"/>
   </g>
   <g id="patch_5">
    <path clip-path="url(#pcdf37d5130)" d="M 203.481818 961.2 
L 218.7 961.2 
L 218.7 156.425806 
L 203.481818 156.425806 
z
" style="fill:#b5ffb9;stroke:#ffffff;stroke-linejoin:miter;"/>
   </g>
   <g id="patch_6">
    <path clip-path="url(#pcdf37d5130)" d="M 218.7 961.2 
L 233.918182 961.2 
L 233.918182 129.6 
L 218.7 129.6 
z
" style="fill:#b5ffb9;stroke:#ffffff;stroke-linejoin:miter;"/>
   </g>
   <g id="patch_7">
    <path clip-path="url(#pcdf37d5130)" d="M 233.918182 961.2 
L 249.136364 961.2 
L 249.136364 129.6 
L 233.918182 129.6 
z
" style="fill:#b5ffb9;stroke:#ffffff;stroke-linejoin:miter;"/>
   </g>
   <g id="patch_8">
    <path clip-path="url(#pcdf37d5130)" d="M 249.136364 961.2 
L 264.354545 961.2 
L 264.354545 244.040367 
L 249.136364 244.040367 
z
" style="fill:#b5ffb9;stroke:#ffffff;stroke-linejoin:miter;"/>
   </g>
   <g id="patch_9">
    <path clip-path="url(#pcdf37d5130)" d="M 264.354545 961.2 
L 279.572727 961.2 
L 279.572727 205.2 
L 264.354545 205.2 
z
" style="fill:#b5ffb9;stroke:#ffffff;stroke-linejoin:miter;"/>
   </g>
   <g id="patch_10">
    <path clip-path="url(#pcdf37d5130)" d="M 279.572727 961.2 
L 294.790909 961.2 
L 294.790909 184.003738 
L 279.572727 184.003738 
z
" style="fill:#b5ffb9;stroke:#ffffff;stroke-linejoin:miter;"/>
   </g>
   <g id="patch_11">
    <path clip-path="url(#pcdf37d5130)" d="M 294.790909 961.2 
L 310.009091 961.2 
L 310.009091 198.9 
L 294.790909 198.9 
z
" style="fill:#b5ffb9;stroke:#ffffff;stroke-linejoin:miter;"/>
   </g>
   <g id="patch_12">
    <path clip-path="url(#pcdf37d5130)" d="M 310.009091 961.2 
L 325.227273 961.2 
L 325.227273 202.547368 
L 310.009091 202.547368 
z
" style="fill:#b5ffb9;stroke:#ffffff;stroke-linejoin:miter;"/>
   </g>
   <g id="patch_13">
    <path clip-path="url(#pcdf37d5130)" d="M 325.227273 961.2 
L 340.445455 961.2 
L 340.445455 271.580488 
L 325.227273 271.580488 
z
" style="fill:#b5ffb9;stroke:#ffffff;stroke-linejoin:miter;"/>
   </g>
   <g id="patch_14">
    <path clip-path="url(#pcdf37d5130)" d="M 340.445455 961.2 
L 355.663636 961.2 
L 355.663636 129.6 
L 340.445455 129.6 
z
" style="fill:#b5ffb9;stroke:#ffffff;stroke-linejoin:miter;"/>
   </g>
   <g id="patch_15">
    <path clip-path="url(#pcdf37d5130)" d="M 355.663636 961.2 
L 370.881818 961.2 
L 370.881818 212.010811 
L 355.663636 212.010811 
z
" style="fill:#b5ffb9;stroke:#ffffff;stroke-linejoin:miter;"/>
   </g>
   <g id="patch_16">
    <path clip-path="url(#pcdf37d5130)" d="M 370.881818 961.2 
L 386.1 961.2 
L 386.1 196.128 
L 370.881818 196.128 
z
" style="fill:#b5ffb9;stroke:#ffffff;stroke-linejoin:miter;"/>
   </g>
   <g id="patch_17">
    <path clip-path="url(#pcdf37d5130)" d="M 386.1 961.2 
L 401.318182 961.2 
L 401.318182 193.569231 
L 386.1 193.569231 
z
" style="fill:#b5ffb9;stroke:#ffffff;stroke-linejoin:miter;"/>
   </g>
   <g id="patch_18">
    <path clip-path="url(#pcdf37d5130)" d="M 401.318182 961.2 
L 416.536364 961.2 
L 416.536364 160.4 
L 401.318182 160.4 
z
" style="fill:#b5ffb9;stroke:#ffffff;stroke-linejoin:miter;"/>
   </g>
   <g id="patch_19">
    <path clip-path="url(#pcdf37d5130)" d="M 416.536364 961.2 
L 431.754545 961.2 
L 431.754545 252.45 
L 416.536364 252.45 
z
" style="fill:#b5ffb9;stroke:#ffffff;stroke-linejoin:miter;"/>
   </g>
   <g id="patch_20">
    <path clip-path="url(#pcdf37d5130)" d="M 431.754545 961.2 
L 446.972727 961.2 
L 446.972727 129.6 
L 431.754545 129.6 
z
" style="fill:#b5ffb9;stroke:#ffffff;stroke-linejoin:miter;"/>
   </g>
   <g id="patch_21">
    <path clip-path="url(#pcdf37d5130)" d="M 446.972727 961.2 
L 462.190909 961.2 
L 462.190909 276.972152 
L 446.972727 276.972152 
z
" style="fill:#b5ffb9;stroke:#ffffff;stroke-linejoin:miter;"/>
   </g>
   <g id="patch_22">
    <path clip-path="url(#pcdf37d5130)" d="M 462.190909 961.2 
L 477.409091 961.2 
L 477.409091 129.6 
L 462.190909 129.6 
z
" style="fill:#b5ffb9;stroke:#ffffff;stroke-linejoin:miter;"/>
   </g>
   <g id="patch_23">
    <path clip-path="url(#pcdf37d5130)" d="M 477.409091 961.2 
L 492.627273 961.2 
L 492.627273 161.584615 
L 477.409091 161.584615 
z
" style="fill:#b5ffb9;stroke:#ffffff;stroke-linejoin:miter;"/>
   </g>
   <g id="patch_24">
    <path clip-path="url(#pcdf37d5130)" d="M 492.627273 961.2 
L 507.845455 961.2 
L 507.845455 225.186207 
L 492.627273 225.186207 
z
" style="fill:#b5ffb9;stroke:#ffffff;stroke-linejoin:miter;"/>
   </g>
   <g id="patch_25">
    <path clip-path="url(#pcdf37d5130)" d="M 507.845455 961.2 
L 523.063636 961.2 
L 523.063636 246.129936 
L 507.845455 246.129936 
z
" style="fill:#b5ffb9;stroke:#ffffff;stroke-linejoin:miter;"/>
   </g>
   <g id="patch_26">
    <path clip-path="url(#pcdf37d5130)" d="M 523.063636 961.2 
L 538.281818 961.2 
L 538.281818 140.4 
L 523.063636 140.4 
z
" style="fill:#b5ffb9;stroke:#ffffff;stroke-linejoin:miter;"/>
   </g>
   <g id="patch_27">
    <path clip-path="url(#pcdf37d5130)" d="M 538.281818 961.2 
L 553.5 961.2 
L 553.5 149.090625 
L 538.281818 149.090625 
z
" style="fill:#b5ffb9;stroke:#ffffff;stroke-linejoin:miter;"/>
   </g>
   <g id="patch_28">
    <path clip-path="url(#pcdf37d5130)" d="M 553.5 961.2 
L 568.718182 961.2 
L 568.718182 185.873684 
L 553.5 185.873684 
z
" style="fill:#b5ffb9;stroke:#ffffff;stroke-linejoin:miter;"/>
   </g>
   <g id="patch_29">
    <path clip-path="url(#pcdf37d5130)" d="M 568.718182 961.2 
L 583.936364 961.2 
L 583.936364 129.6 
L 568.718182 129.6 
z
" style="fill:#b5ffb9;stroke:#ffffff;stroke-linejoin:miter;"/>
   </g>
   <g id="patch_30">
    <path clip-path="url(#pcdf37d5130)" d="M 583.936364 961.2 
L 599.154545 961.2 
L 599.154545 186.558904 
L 583.936364 186.558904 
z
" style="fill:#b5ffb9;stroke:#ffffff;stroke-linejoin:miter;"/>
   </g>
   <g id="patch_31">
    <path clip-path="url(#pcdf37d5130)" d="M 599.154545 961.2 
L 614.372727 961.2 
L 614.372727 136.046512 
L 599.154545 136.046512 
z
" style="fill:#b5ffb9;stroke:#ffffff;stroke-linejoin:miter;"/>
   </g>
   <g id="patch_32">
    <path clip-path="url(#pcdf37d5130)" d="M 614.372727 961.2 
L 629.590909 961.2 
L 629.590909 512.573684 
L 614.372727 512.573684 
z
" style="fill:#b5ffb9;stroke:#ffffff;stroke-linejoin:miter;"/>
   </g>
   <g id="patch_33">
    <path clip-path="url(#pcdf37d5130)" d="M 629.590909 961.2 
L 644.809091 961.2 
L 644.809091 129.6 
L 629.590909 129.6 
z
" style="fill:#b5ffb9;stroke:#ffffff;stroke-linejoin:miter;"/>
   </g>
   <g id="patch_34">
    <path clip-path="url(#pcdf37d5130)" d="M 644.809091 961.2 
L 660.027273 961.2 
L 660.027273 389.475 
L 644.809091 389.475 
z
" style="fill:#b5ffb9;stroke:#ffffff;stroke-linejoin:miter;"/>
   </g>
   <g id="patch_35">
    <path clip-path="url(#pcdf37d5130)" d="M 660.027273 961.2 
L 675.245455 961.2 
L 675.245455 270.815094 
L 660.027273 270.815094 
z
" style="fill:#b5ffb9;stroke:#ffffff;stroke-linejoin:miter;"/>
   </g>
   <g id="patch_36">
    <path clip-path="url(#pcdf37d5130)" d="M 675.245455 961.2 
L 690.463636 961.2 
L 690.463636 129.6 
L 675.245455 129.6 
z
" style="fill:#b5ffb9;stroke:#ffffff;stroke-linejoin:miter;"/>
   </g>
   <g id="patch_37">
    <path clip-path="url(#pcdf37d5130)" d="M 690.463636 961.2 
L 705.681818 961.2 
L 705.681818 325.95 
L 690.463636 325.95 
z
" style="fill:#b5ffb9;stroke:#ffffff;stroke-linejoin:miter;"/>
   </g>
   <g id="patch_38">
    <path clip-path="url(#pcdf37d5130)" d="M 705.681818 961.2 
L 720.9 961.2 
L 720.9 231.24 
L 705.681818 231.24 
z
" style="fill:#b5ffb9;stroke:#ffffff;stroke-linejoin:miter;"/>
   </g>
   <g id="patch_39">
    <path clip-path="url(#pcdf37d5130)" d="M 720.9 961.2 
L 736.118182 961.2 
L 736.118182 136.959292 
L 720.9 136.959292 
z
" style="fill:#b5ffb9;stroke:#ffffff;stroke-linejoin:miter;"/>
   </g>
   <g id="patch_40">
    <path clip-path="url(#pcdf37d5130)" d="M 736.118182 961.2 
L 751.336364 961.2 
L 751.336364 196.510345 
L 736.118182 196.510345 
z
" style="fill:#b5ffb9;stroke:#ffffff;stroke-linejoin:miter;"/>
   </g>
   <g id="patch_41">
    <path clip-path="url(#pcdf37d5130)" d="M 751.336364 961.2 
L 766.554545 961.2 
L 766.554545 172.028571 
L 751.336364 172.028571 
z
" style="fill:#b5ffb9;stroke:#ffffff;stroke-linejoin:miter;"/>
   </g>
   <g id="patch_42">
    <path clip-path="url(#pcdf37d5130)" d="M 766.554545 961.2 
L 781.772727 961.2 
L 781.772727 172.8 
L 766.554545 172.8 
z
" style="fill:#b5ffb9;stroke:#ffffff;stroke-linejoin:miter;"/>
   </g>
   <g id="patch_43">
    <path clip-path="url(#pcdf37d5130)" d="M 781.772727 961.2 
L 796.990909 961.2 
L 796.990909 139.269767 
L 781.772727 139.269767 
z
" style="fill:#b5ffb9;stroke:#ffffff;stroke-linejoin:miter;"/>
   </g>
   <g id="patch_44">
    <path clip-path="url(#pcdf37d5130)" d="M 796.990909 961.2 
L 812.209091 961.2 
L 812.209091 172.987826 
L 796.990909 172.987826 
z
" style="fill:#b5ffb9;stroke:#ffffff;stroke-linejoin:miter;"/>
   </g>
   <g id="patch_45">
    <path clip-path="url(#pcdf37d5130)" d="M 812.209091 961.2 
L 827.427273 961.2 
L 827.427273 129.6 
L 812.209091 129.6 
z
" style="fill:#b5ffb9;stroke:#ffffff;stroke-linejoin:miter;"/>
   </g>
   <g id="patch_46">
    <path clip-path="url(#pcdf37d5130)" d="M 827.427273 961.2 
L 842.645455 961.2 
L 842.645455 129.6 
L 827.427273 129.6 
z
" style="fill:#b5ffb9;stroke:#ffffff;stroke-linejoin:miter;"/>
   </g>
   <g id="patch_47">
    <path clip-path="url(#pcdf37d5130)" d="M 842.645455 961.2 
L 857.863636 961.2 
L 857.863636 174.96 
L 842.645455 174.96 
z
" style="fill:#b5ffb9;stroke:#ffffff;stroke-linejoin:miter;"/>
   </g>
   <g id="patch_48">
    <path clip-path="url(#pcdf37d5130)" d="M 857.863636 961.2 
L 873.081818 961.2 
L 873.081818 144.45 
L 857.863636 144.45 
z
" style="fill:#b5ffb9;stroke:#ffffff;stroke-linejoin:miter;"/>
   </g>
   <g id="patch_49">
    <path clip-path="url(#pcdf37d5130)" d="M 873.081818 961.2 
L 888.3 961.2 
L 888.3 132.112387 
L 873.081818 132.112387 
z
" style="fill:#b5ffb9;stroke:#ffffff;stroke-linejoin:miter;"/>
   </g>
   <g id="patch_50">
    <path clip-path="url(#pcdf37d5130)" d="M 888.3 961.2 
L 903.518182 961.2 
L 903.518182 139.158621 
L 888.3 139.158621 
z
" style="fill:#b5ffb9;stroke:#ffffff;stroke-linejoin:miter;"/>
   </g>
   <g id="patch_51">
    <path clip-path="url(#pcdf37d5130)" d="M 903.518182 961.2 
L 918.736364 961.2 
L 918.736364 137.833663 
L 903.518182 137.833663 
z
" style="fill:#b5ffb9;stroke:#ffffff;stroke-linejoin:miter;"/>
   </g>
   <g id="patch_52">
    <path clip-path="url(#pcdf37d5130)" d="M 918.736364 961.2 
L 933.954545 961.2 
L 933.954545 159.84 
L 918.736364 159.84 
z
" style="fill:#b5ffb9;stroke:#ffffff;stroke-linejoin:miter;"/>
   </g>
   <g id="patch_53">
    <path clip-path="url(#pcdf37d5130)" d="M 173.045455 229.392 
L 188.263636 229.392 
L 188.263636 137.916 
L 173.045455 137.916 
z
" style="fill:#f9bc86;stroke:#ffffff;stroke-linejoin:miter;"/>
   </g>
   <g id="patch_54">
    <path clip-path="url(#pcdf37d5130)" d="M 188.263636 292.304348 
L 203.481818 292.304348 
L 203.481818 174.795652 
L 188.263636 174.795652 
z
" style="fill:#f9bc86;stroke:#ffffff;stroke-linejoin:miter;"/>
   </g>
   <g id="patch_55">
    <path clip-path="url(#pcdf37d5130)" d="M 203.481818 156.425806 
L 218.7 156.425806 
L 218.7 136.306452 
L 203.481818 136.306452 
z
" style="fill:#f9bc86;stroke:#ffffff;stroke-linejoin:miter;"/>
   </g>
   <g id="patch_56">
    <path clip-path="url(#pcdf37d5130)" d="M 218.7 129.6 
L 233.918182 129.6 
L 233.918182 129.6 
L 218.7 129.6 
z
" style="fill:#f9bc86;stroke:#ffffff;stroke-linejoin:miter;"/>
   </g>
   <g id="patch_57">
    <path clip-path="url(#pcdf37d5130)" d="M 233.918182 129.6 
L 249.136364 129.6 
L 249.136364 129.6 
L 233.918182 129.6 
z
" style="fill:#f9bc86;stroke:#ffffff;stroke-linejoin:miter;"/>
   </g>
   <g id="patch_58">
    <path clip-path="url(#pcdf37d5130)" d="M 249.136364 244.040367 
L 264.354545 244.040367 
L 264.354545 175.376147 
L 249.136364 175.376147 
z
" style="fill:#f9bc86;stroke:#ffffff;stroke-linejoin:miter;"/>
   </g>
   <g id="patch_59">
    <path clip-path="url(#pcdf37d5130)" d="M 264.354545 205.2 
L 279.572727 205.2 
L 279.572727 196.8 
L 264.354545 196.8 
z
" style="fill:#f9bc86;stroke:#ffffff;stroke-linejoin:miter;"/>
   </g>
   <g id="patch_60">
    <path clip-path="url(#pcdf37d5130)" d="M 279.572727 184.003738 
L 294.790909 184.003738 
L 294.790909 145.143925 
L 279.572727 145.143925 
z
" style="fill:#f9bc86;stroke:#ffffff;stroke-linejoin:miter;"/>
   </g>
   <g id="patch_61">
    <path clip-path="url(#pcdf37d5130)" d="M 294.790909 198.9 
L 310.009091 198.9 
L 310.009091 160.4 
L 294.790909 160.4 
z
" style="fill:#f9bc86;stroke:#ffffff;stroke-linejoin:miter;"/>
   </g>
   <g id="patch_62">
    <path clip-path="url(#pcdf37d5130)" d="M 310.009091 202.547368 
L 325.227273 202.547368 
L 325.227273 136.894737 
L 310.009091 136.894737 
z
" style="fill:#f9bc86;stroke:#ffffff;stroke-linejoin:miter;"/>
   </g>
   <g id="patch_63">
    <path clip-path="url(#pcdf37d5130)" d="M 325.227273 271.580488 
L 340.445455 271.580488 
L 340.445455 163.404878 
L 325.227273 163.404878 
z
" style="fill:#f9bc86;stroke:#ffffff;stroke-linejoin:miter;"/>
   </g>
   <g id="patch_64">
    <path clip-path="url(#pcdf37d5130)" d="M 340.445455 129.6 
L 355.663636 129.6 
L 355.663636 129.6 
L 340.445455 129.6 
z
" style="fill:#f9bc86;stroke:#ffffff;stroke-linejoin:miter;"/>
   </g>
   <g id="patch_65">
    <path clip-path="url(#pcdf37d5130)" d="M 355.663636 212.010811 
L 370.881818 212.010811 
L 370.881818 144.583784 
L 355.663636 144.583784 
z
" style="fill:#f9bc86;stroke:#ffffff;stroke-linejoin:miter;"/>
   </g>
   <g id="patch_66">
    <path clip-path="url(#pcdf37d5130)" d="M 370.881818 196.128 
L 386.1 196.128 
L 386.1 185.04 
L 370.881818 185.04 
z
" style="fill:#f9bc86;stroke:#ffffff;stroke-linejoin:miter;"/>
   </g>
   <g id="patch_67">
    <path clip-path="url(#pcdf37d5130)" d="M 386.1 193.569231 
L 401.318182 193.569231 
L 401.318182 138.738462 
L 386.1 138.738462 
z
" style="fill:#f9bc86;stroke:#ffffff;stroke-linejoin:miter;"/>
   </g>
   <g id="patch_68">
    <path clip-path="url(#pcdf37d5130)" d="M 401.318182 160.4 
L 416.536364 160.4 
L 416.536364 137.3 
L 401.318182 137.3 
z
" style="fill:#f9bc86;stroke:#ffffff;stroke-linejoin:miter;"/>
   </g>
   <g id="patch_69">
    <path clip-path="url(#pcdf37d5130)" d="M 416.536364 252.45 
L 431.754545 252.45 
L 431.754545 157.95 
L 416.536364 157.95 
z
" style="fill:#f9bc86;stroke:#ffffff;stroke-linejoin:miter;"/>
   </g>
   <g id="patch_70">
    <path clip-path="url(#pcdf37d5130)" d="M 431.754545 129.6 
L 446.972727 129.6 
L 446.972727 129.6 
L 431.754545 129.6 
z
" style="fill:#f9bc86;stroke:#ffffff;stroke-linejoin:miter;"/>
   </g>
   <g id="patch_71">
    <path clip-path="url(#pcdf37d5130)" d="M 446.972727 276.972152 
L 462.190909 276.972152 
L 462.190909 192.759494 
L 446.972727 192.759494 
z
" style="fill:#f9bc86;stroke:#ffffff;stroke-linejoin:miter;"/>
   </g>
   <g id="patch_72">
    <path clip-path="url(#pcdf37d5130)" d="M 462.190909 129.6 
L 477.409091 129.6 
L 477.409091 129.6 
L 462.190909 129.6 
z
" style="fill:#f9bc86;stroke:#ffffff;stroke-linejoin:miter;"/>
   </g>
   <g id="patch_73">
    <path clip-path="url(#pcdf37d5130)" d="M 477.409091 161.584615 
L 492.627273 161.584615 
L 492.627273 129.6 
L 477.409091 129.6 
z
" style="fill:#f9bc86;stroke:#ffffff;stroke-linejoin:miter;"/>
   </g>
   <g id="patch_74">
    <path clip-path="url(#pcdf37d5130)" d="M 492.627273 225.186207 
L 507.845455 225.186207 
L 507.845455 148.717241 
L 492.627273 148.717241 
z
" style="fill:#f9bc86;stroke:#ffffff;stroke-linejoin:miter;"/>
   </g>
   <g id="patch_75">
    <path clip-path="url(#pcdf37d5130)" d="M 507.845455 246.129936 
L 523.063636 246.129936 
L 523.063636 156.084076 
L 507.845455 156.084076 
z
" style="fill:#f9bc86;stroke:#ffffff;stroke-linejoin:miter;"/>
   </g>
   <g id="patch_76">
    <path clip-path="url(#pcdf37d5130)" d="M 523.063636 140.4 
L 538.281818 140.4 
L 538.281818 129.6 
L 523.063636 129.6 
z
" style="fill:#f9bc86;stroke:#ffffff;stroke-linejoin:miter;"/>
   </g>
   <g id="patch_77">
    <path clip-path="url(#pcdf37d5130)" d="M 538.281818 149.090625 
L 553.5 149.090625 
L 553.5 129.6 
L 538.281818 129.6 
z
" style="fill:#f9bc86;stroke:#ffffff;stroke-linejoin:miter;"/>
   </g>
   <g id="patch_78">
    <path clip-path="url(#pcdf37d5130)" d="M 553.5 185.873684 
L 568.718182 185.873684 
L 568.718182 160.863158 
L 553.5 160.863158 
z
" style="fill:#f9bc86;stroke:#ffffff;stroke-linejoin:miter;"/>
   </g>
   <g id="patch_79">
    <path clip-path="url(#pcdf37d5130)" d="M 568.718182 129.6 
L 583.936364 129.6 
L 583.936364 129.6 
L 568.718182 129.6 
z
" style="fill:#f9bc86;stroke:#ffffff;stroke-linejoin:miter;"/>
   </g>
   <g id="patch_80">
    <path clip-path="url(#pcdf37d5130)" d="M 583.936364 186.558904 
L 599.154545 186.558904 
L 599.154545 163.775342 
L 583.936364 163.775342 
z
" style="fill:#f9bc86;stroke:#ffffff;stroke-linejoin:miter;"/>
   </g>
   <g id="patch_81">
    <path clip-path="url(#pcdf37d5130)" d="M 599.154545 136.046512 
L 614.372727 136.046512 
L 614.372727 136.046512 
L 599.154545 136.046512 
z
" style="fill:#f9bc86;stroke:#ffffff;stroke-linejoin:miter;"/>
   </g>
   <g id="patch_82">
    <path clip-path="url(#pcdf37d5130)" d="M 614.372727 512.573684 
L 629.590909 512.573684 
L 629.590909 392.210526 
L 614.372727 392.210526 
z
" style="fill:#f9bc86;stroke:#ffffff;stroke-linejoin:miter;"/>
   </g>
   <g id="patch_83">
    <path clip-path="url(#pcdf37d5130)" d="M 629.590909 129.6 
L 644.809091 129.6 
L 644.809091 129.6 
L 629.590909 129.6 
z
" style="fill:#f9bc86;stroke:#ffffff;stroke-linejoin:miter;"/>
   </g>
   <g id="patch_84">
    <path clip-path="url(#pcdf37d5130)" d="M 644.809091 389.475 
L 660.027273 389.475 
L 660.027273 306.315 
L 644.809091 306.315 
z
" style="fill:#f9bc86;stroke:#ffffff;stroke-linejoin:miter;"/>
   </g>
   <g id="patch_85">
    <path clip-path="url(#pcdf37d5130)" d="M 660.027273 270.815094 
L 675.245455 270.815094 
L 675.245455 168.826415 
L 660.027273 168.826415 
z
" style="fill:#f9bc86;stroke:#ffffff;stroke-linejoin:miter;"/>
   </g>
   <g id="patch_86">
    <path clip-path="url(#pcdf37d5130)" d="M 675.245455 129.6 
L 690.463636 129.6 
L 690.463636 129.6 
L 675.245455 129.6 
z
" style="fill:#f9bc86;stroke:#ffffff;stroke-linejoin:miter;"/>
   </g>
   <g id="patch_87">
    <path clip-path="url(#pcdf37d5130)" d="M 690.463636 325.95 
L 705.681818 325.95 
L 705.681818 245.1 
L 690.463636 245.1 
z
" style="fill:#f9bc86;stroke:#ffffff;stroke-linejoin:miter;"/>
   </g>
   <g id="patch_88">
    <path clip-path="url(#pcdf37d5130)" d="M 705.681818 231.24 
L 720.9 231.24 
L 720.9 148.08 
L 705.681818 148.08 
z
" style="fill:#f9bc86;stroke:#ffffff;stroke-linejoin:miter;"/>
   </g>
   <g id="patch_89">
    <path clip-path="url(#pcdf37d5130)" d="M 720.9 136.959292 
L 736.118182 136.959292 
L 736.118182 129.6 
L 720.9 129.6 
z
" style="fill:#f9bc86;stroke:#ffffff;stroke-linejoin:miter;"/>
   </g>
   <g id="patch_90">
    <path clip-path="url(#pcdf37d5130)" d="M 736.118182 196.510345 
L 751.336364 196.510345 
L 751.336364 148.717241 
L 736.118182 148.717241 
z
" style="fill:#f9bc86;stroke:#ffffff;stroke-linejoin:miter;"/>
   </g>
   <g id="patch_91">
    <path clip-path="url(#pcdf37d5130)" d="M 751.336364 172.028571 
L 766.554545 172.028571 
L 766.554545 138.085714 
L 751.336364 138.085714 
z
" style="fill:#f9bc86;stroke:#ffffff;stroke-linejoin:miter;"/>
   </g>
   <g id="patch_92">
    <path clip-path="url(#pcdf37d5130)" d="M 766.554545 172.8 
L 781.772727 172.8 
L 781.772727 151.2 
L 766.554545 151.2 
z
" style="fill:#f9bc86;stroke:#ffffff;stroke-linejoin:miter;"/>
   </g>
   <g id="patch_93">
    <path clip-path="url(#pcdf37d5130)" d="M 781.772727 139.269767 
L 796.990909 139.269767 
L 796.990909 129.6 
L 781.772727 129.6 
z
" style="fill:#f9bc86;stroke:#ffffff;stroke-linejoin:miter;"/>
   </g>
   <g id="patch_94">
    <path clip-path="url(#pcdf37d5130)" d="M 796.990909 172.987826 
L 812.209091 172.987826 
L 812.209091 144.062609 
L 796.990909 144.062609 
z
" style="fill:#f9bc86;stroke:#ffffff;stroke-linejoin:miter;"/>
   </g>
   <g id="patch_95">
    <path clip-path="url(#pcdf37d5130)" d="M 812.209091 129.6 
L 827.427273 129.6 
L 827.427273 129.6 
L 812.209091 129.6 
z
" style="fill:#f9bc86;stroke:#ffffff;stroke-linejoin:miter;"/>
   </g>
   <g id="patch_96">
    <path clip-path="url(#pcdf37d5130)" d="M 827.427273 129.6 
L 842.645455 129.6 
L 842.645455 129.6 
L 827.427273 129.6 
z
" style="fill:#f9bc86;stroke:#ffffff;stroke-linejoin:miter;"/>
   </g>
   <g id="patch_97">
    <path clip-path="url(#pcdf37d5130)" d="M 842.645455 174.96 
L 857.863636 174.96 
L 857.863636 144.72 
L 842.645455 144.72 
z
" style="fill:#f9bc86;stroke:#ffffff;stroke-linejoin:miter;"/>
   </g>
   <g id="patch_98">
    <path clip-path="url(#pcdf37d5130)" d="M 857.863636 144.45 
L 873.081818 144.45 
L 873.081818 137.025 
L 857.863636 137.025 
z
" style="fill:#f9bc86;stroke:#ffffff;stroke-linejoin:miter;"/>
   </g>
   <g id="patch_99">
    <path clip-path="url(#pcdf37d5130)" d="M 873.081818 132.112387 
L 888.3 132.112387 
L 888.3 129.6 
L 873.081818 129.6 
z
" style="fill:#f9bc86;stroke:#ffffff;stroke-linejoin:miter;"/>
   </g>
   <g id="patch_100">
    <path clip-path="url(#pcdf37d5130)" d="M 888.3 139.158621 
L 903.518182 139.158621 
L 903.518182 139.158621 
L 888.3 139.158621 
z
" style="fill:#f9bc86;stroke:#ffffff;stroke-linejoin:miter;"/>
   </g>
   <g id="patch_101">
    <path clip-path="url(#pcdf37d5130)" d="M 903.518182 137.833663 
L 918.736364 137.833663 
L 918.736364 129.6 
L 903.518182 129.6 
z
" style="fill:#f9bc86;stroke:#ffffff;stroke-linejoin:miter;"/>
   </g>
   <g id="patch_102">
    <path clip-path="url(#pcdf37d5130)" d="M 918.736364 159.84 
L 933.954545 159.84 
L 933.954545 129.6 
L 918.736364 129.6 
z
" style="fill:#f9bc86;stroke:#ffffff;stroke-linejoin:miter;"/>
   </g>
   <g id="patch_103">
    <path clip-path="url(#pcdf37d5130)" d="M 173.045455 137.916 
L 188.263636 137.916 
L 188.263636 129.6 
L 173.045455 129.6 
z
" style="fill:#a3acff;stroke:#ffffff;stroke-linejoin:miter;"/>
   </g>
   <g id="patch_104">
    <path clip-path="url(#pcdf37d5130)" d="M 188.263636 174.795652 
L 203.481818 174.795652 
L 203.481818 129.6 
L 188.263636 129.6 
z
" style="fill:#a3acff;stroke:#ffffff;stroke-linejoin:miter;"/>
   </g>
   <g id="patch_105">
    <path clip-path="url(#pcdf37d5130)" d="M 203.481818 136.306452 
L 218.7 136.306452 
L 218.7 129.6 
L 203.481818 129.6 
z
" style="fill:#a3acff;stroke:#ffffff;stroke-linejoin:miter;"/>
   </g>
   <g id="patch_106">
    <path clip-path="url(#pcdf37d5130)" d="M 218.7 129.6 
L 233.918182 129.6 
L 233.918182 129.6 
L 218.7 129.6 
z
" style="fill:#a3acff;stroke:#ffffff;stroke-linejoin:miter;"/>
   </g>
   <g id="patch_107">
    <path clip-path="url(#pcdf37d5130)" d="M 233.918182 129.6 
L 249.136364 129.6 
L 249.136364 129.6 
L 233.918182 129.6 
z
" style="fill:#a3acff;stroke:#ffffff;stroke-linejoin:miter;"/>
   </g>
   <g id="patch_108">
    <path clip-path="url(#pcdf37d5130)" d="M 249.136364 175.376147 
L 264.354545 175.376147 
L 264.354545 129.6 
L 249.136364 129.6 
z
" style="fill:#a3acff;stroke:#ffffff;stroke-linejoin:miter;"/>
   </g>
   <g id="patch_109">
    <path clip-path="url(#pcdf37d5130)" d="M 264.354545 196.8 
L 279.572727 196.8 
L 279.572727 129.6 
L 264.354545 129.6 
z
" style="fill:#a3acff;stroke:#ffffff;stroke-linejoin:miter;"/>
   </g>
   <g id="patch_110">
    <path clip-path="url(#pcdf37d5130)" d="M 279.572727 145.143925 
L 294.790909 145.143925 
L 294.790909 129.6 
L 279.572727 129.6 
z
" style="fill:#a3acff;stroke:#ffffff;stroke-linejoin:miter;"/>
   </g>
   <g id="patch_111">
    <path clip-path="url(#pcdf37d5130)" d="M 294.790909 160.4 
L 310.009091 160.4 
L 310.009091 129.6 
L 294.790909 129.6 
z
" style="fill:#a3acff;stroke:#ffffff;stroke-linejoin:miter;"/>
   </g>
   <g id="patch_112">
    <path clip-path="url(#pcdf37d5130)" d="M 310.009091 136.894737 
L 325.227273 136.894737 
L 325.227273 129.6 
L 310.009091 129.6 
z
" style="fill:#a3acff;stroke:#ffffff;stroke-linejoin:miter;"/>
   </g>
   <g id="patch_113">
    <path clip-path="url(#pcdf37d5130)" d="M 325.227273 163.404878 
L 340.445455 163.404878 
L 340.445455 129.6 
L 325.227273 129.6 
z
" style="fill:#a3acff;stroke:#ffffff;stroke-linejoin:miter;"/>
   </g>
   <g id="patch_114">
    <path clip-path="url(#pcdf37d5130)" d="M 340.445455 129.6 
L 355.663636 129.6 
L 355.663636 129.6 
L 340.445455 129.6 
z
" style="fill:#a3acff;stroke:#ffffff;stroke-linejoin:miter;"/>
   </g>
   <g id="patch_115">
    <path clip-path="url(#pcdf37d5130)" d="M 355.663636 144.583784 
L 370.881818 144.583784 
L 370.881818 129.6 
L 355.663636 129.6 
z
" style="fill:#a3acff;stroke:#ffffff;stroke-linejoin:miter;"/>
   </g>
   <g id="patch_116">
    <path clip-path="url(#pcdf37d5130)" d="M 370.881818 185.04 
L 386.1 185.04 
L 386.1 129.6 
L 370.881818 129.6 
z
" style="fill:#a3acff;stroke:#ffffff;stroke-linejoin:miter;"/>
   </g>
   <g id="patch_117">
    <path clip-path="url(#pcdf37d5130)" d="M 386.1 138.738462 
L 401.318182 138.738462 
L 401.318182 129.6 
L 386.1 129.6 
z
" style="fill:#a3acff;stroke:#ffffff;stroke-linejoin:miter;"/>
   </g>
   <g id="patch_118">
    <path clip-path="url(#pcdf37d5130)" d="M 401.318182 137.3 
L 416.536364 137.3 
L 416.536364 129.6 
L 401.318182 129.6 
z
" style="fill:#a3acff;stroke:#ffffff;stroke-linejoin:miter;"/>
   </g>
   <g id="patch_119">
    <path clip-path="url(#pcdf37d5130)" d="M 416.536364 157.95 
L 431.754545 157.95 
L 431.754545 129.6 
L 416.536364 129.6 
z
" style="fill:#a3acff;stroke:#ffffff;stroke-linejoin:miter;"/>
   </g>
   <g id="patch_120">
    <path clip-path="url(#pcdf37d5130)" d="M 431.754545 129.6 
L 446.972727 129.6 
L 446.972727 129.6 
L 431.754545 129.6 
z
" style="fill:#a3acff;stroke:#ffffff;stroke-linejoin:miter;"/>
   </g>
   <g id="patch_121">
    <path clip-path="url(#pcdf37d5130)" d="M 446.972727 192.759494 
L 462.190909 192.759494 
L 462.190909 129.6 
L 446.972727 129.6 
z
" style="fill:#a3acff;stroke:#ffffff;stroke-linejoin:miter;"/>
   </g>
   <g id="patch_122">
    <path clip-path="url(#pcdf37d5130)" d="M 462.190909 129.6 
L 477.409091 129.6 
L 477.409091 129.6 
L 462.190909 129.6 
z
" style="fill:#a3acff;stroke:#ffffff;stroke-linejoin:miter;"/>
   </g>
   <g id="patch_123">
    <path clip-path="url(#pcdf37d5130)" d="M 477.409091 129.6 
L 492.627273 129.6 
L 492.627273 129.6 
L 477.409091 129.6 
z
" style="fill:#a3acff;stroke:#ffffff;stroke-linejoin:miter;"/>
   </g>
   <g id="patch_124">
    <path clip-path="url(#pcdf37d5130)" d="M 492.627273 148.717241 
L 507.845455 148.717241 
L 507.845455 129.6 
L 492.627273 129.6 
z
" style="fill:#a3acff;stroke:#ffffff;stroke-linejoin:miter;"/>
   </g>
   <g id="patch_125">
    <path clip-path="url(#pcdf37d5130)" d="M 507.845455 156.084076 
L 523.063636 156.084076 
L 523.063636 129.6 
L 507.845455 129.6 
z
" style="fill:#a3acff;stroke:#ffffff;stroke-linejoin:miter;"/>
   </g>
   <g id="patch_126">
    <path clip-path="url(#pcdf37d5130)" d="M 523.063636 129.6 
L 538.281818 129.6 
L 538.281818 129.6 
L 523.063636 129.6 
z
" style="fill:#a3acff;stroke:#ffffff;stroke-linejoin:miter;"/>
   </g>
   <g id="patch_127">
    <path clip-path="url(#pcdf37d5130)" d="M 538.281818 129.6 
L 553.5 129.6 
L 553.5 129.6 
L 538.281818 129.6 
z
" style="fill:#a3acff;stroke:#ffffff;stroke-linejoin:miter;"/>
   </g>
   <g id="patch_128">
    <path clip-path="url(#pcdf37d5130)" d="M 553.5 160.863158 
L 568.718182 160.863158 
L 568.718182 129.6 
L 553.5 129.6 
z
" style="fill:#a3acff;stroke:#ffffff;stroke-linejoin:miter;"/>
   </g>
   <g id="patch_129">
    <path clip-path="url(#pcdf37d5130)" d="M 568.718182 129.6 
L 583.936364 129.6 
L 583.936364 129.6 
L 568.718182 129.6 
z
" style="fill:#a3acff;stroke:#ffffff;stroke-linejoin:miter;"/>
   </g>
   <g id="patch_130">
    <path clip-path="url(#pcdf37d5130)" d="M 583.936364 163.775342 
L 599.154545 163.775342 
L 599.154545 129.6 
L 583.936364 129.6 
z
" style="fill:#a3acff;stroke:#ffffff;stroke-linejoin:miter;"/>
   </g>
   <g id="patch_131">
    <path clip-path="url(#pcdf37d5130)" d="M 599.154545 136.046512 
L 614.372727 136.046512 
L 614.372727 129.6 
L 599.154545 129.6 
z
" style="fill:#a3acff;stroke:#ffffff;stroke-linejoin:miter;"/>
   </g>
   <g id="patch_132">
    <path clip-path="url(#pcdf37d5130)" d="M 614.372727 392.210526 
L 629.590909 392.210526 
L 629.590909 129.6 
L 614.372727 129.6 
z
" style="fill:#a3acff;stroke:#ffffff;stroke-linejoin:miter;"/>
   </g>
   <g id="patch_133">
    <path clip-path="url(#pcdf37d5130)" d="M 629.590909 129.6 
L 644.809091 129.6 
L 644.809091 129.6 
L 629.590909 129.6 
z
" style="fill:#a3acff;stroke:#ffffff;stroke-linejoin:miter;"/>
   </g>
   <g id="patch_134">
    <path clip-path="url(#pcdf37d5130)" d="M 644.809091 306.315 
L 660.027273 306.315 
L 660.027273 129.6 
L 644.809091 129.6 
z
" style="fill:#a3acff;stroke:#ffffff;stroke-linejoin:miter;"/>
   </g>
   <g id="patch_135">
    <path clip-path="url(#pcdf37d5130)" d="M 660.027273 168.826415 
L 675.245455 168.826415 
L 675.245455 129.6 
L 660.027273 129.6 
z
" style="fill:#a3acff;stroke:#ffffff;stroke-linejoin:miter;"/>
   </g>
   <g id="patch_136">
    <path clip-path="url(#pcdf37d5130)" d="M 675.245455 129.6 
L 690.463636 129.6 
L 690.463636 129.6 
L 675.245455 129.6 
z
" style="fill:#a3acff;stroke:#ffffff;stroke-linejoin:miter;"/>
   </g>
   <g id="patch_137">
    <path clip-path="url(#pcdf37d5130)" d="M 690.463636 245.1 
L 705.681818 245.1 
L 705.681818 129.6 
L 690.463636 129.6 
z
" style="fill:#a3acff;stroke:#ffffff;stroke-linejoin:miter;"/>
   </g>
   <g id="patch_138">
    <path clip-path="url(#pcdf37d5130)" d="M 705.681818 148.08 
L 720.9 148.08 
L 720.9 129.6 
L 705.681818 129.6 
z
" style="fill:#a3acff;stroke:#ffffff;stroke-linejoin:miter;"/>
   </g>
   <g id="patch_139">
    <path clip-path="url(#pcdf37d5130)" d="M 720.9 129.6 
L 736.118182 129.6 
L 736.118182 129.6 
L 720.9 129.6 
z
" style="fill:#a3acff;stroke:#ffffff;stroke-linejoin:miter;"/>
   </g>
   <g id="patch_140">
    <path clip-path="url(#pcdf37d5130)" d="M 736.118182 148.717241 
L 751.336364 148.717241 
L 751.336364 129.6 
L 736.118182 129.6 
z
" style="fill:#a3acff;stroke:#ffffff;stroke-linejoin:miter;"/>
   </g>
   <g id="patch_141">
    <path clip-path="url(#pcdf37d5130)" d="M 751.336364 138.085714 
L 766.554545 138.085714 
L 766.554545 129.6 
L 751.336364 129.6 
z
" style="fill:#a3acff;stroke:#ffffff;stroke-linejoin:miter;"/>
   </g>
   <g id="patch_142">
    <path clip-path="url(#pcdf37d5130)" d="M 766.554545 151.2 
L 781.772727 151.2 
L 781.772727 129.6 
L 766.554545 129.6 
z
" style="fill:#a3acff;stroke:#ffffff;stroke-linejoin:miter;"/>
   </g>
   <g id="patch_143">
    <path clip-path="url(#pcdf37d5130)" d="M 781.772727 129.6 
L 796.990909 129.6 
L 796.990909 129.6 
L 781.772727 129.6 
z
" style="fill:#a3acff;stroke:#ffffff;stroke-linejoin:miter;"/>
   </g>
   <g id="patch_144">
    <path clip-path="url(#pcdf37d5130)" d="M 796.990909 144.062609 
L 812.209091 144.062609 
L 812.209091 129.6 
L 796.990909 129.6 
z
" style="fill:#a3acff;stroke:#ffffff;stroke-linejoin:miter;"/>
   </g>
   <g id="patch_145">
    <path clip-path="url(#pcdf37d5130)" d="M 812.209091 129.6 
L 827.427273 129.6 
L 827.427273 129.6 
L 812.209091 129.6 
z
" style="fill:#a3acff;stroke:#ffffff;stroke-linejoin:miter;"/>
   </g>
   <g id="patch_146">
    <path clip-path="url(#pcdf37d5130)" d="M 827.427273 129.6 
L 842.645455 129.6 
L 842.645455 129.6 
L 827.427273 129.6 
z
" style="fill:#a3acff;stroke:#ffffff;stroke-linejoin:miter;"/>
   </g>
   <g id="patch_147">
    <path clip-path="url(#pcdf37d5130)" d="M 842.645455 144.72 
L 857.863636 144.72 
L 857.863636 129.6 
L 842.645455 129.6 
z
" style="fill:#a3acff;stroke:#ffffff;stroke-linejoin:miter;"/>
   </g>
   <g id="patch_148">
    <path clip-path="url(#pcdf37d5130)" d="M 857.863636 137.025 
L 873.081818 137.025 
L 873.081818 129.6 
L 857.863636 129.6 
z
" style="fill:#a3acff;stroke:#ffffff;stroke-linejoin:miter;"/>
   </g>
   <g id="patch_149">
    <path clip-path="url(#pcdf37d5130)" d="M 873.081818 129.6 
L 888.3 129.6 
L 888.3 129.6 
L 873.081818 129.6 
z
" style="fill:#a3acff;stroke:#ffffff;stroke-linejoin:miter;"/>
   </g>
   <g id="patch_150">
    <path clip-path="url(#pcdf37d5130)" d="M 888.3 139.158621 
L 903.518182 139.158621 
L 903.518182 129.6 
L 888.3 129.6 
z
" style="fill:#a3acff;stroke:#ffffff;stroke-linejoin:miter;"/>
   </g>
   <g id="patch_151">
    <path clip-path="url(#pcdf37d5130)" d="M 903.518182 129.6 
L 918.736364 129.6 
L 918.736364 129.6 
L 903.518182 129.6 
z
" style="fill:#a3acff;stroke:#ffffff;stroke-linejoin:miter;"/>
   </g>
   <g id="patch_152">
    <path clip-path="url(#pcdf37d5130)" d="M 918.736364 129.6 
L 933.954545 129.6 
L 933.954545 129.6 
L 918.736364 129.6 
z
" style="fill:#a3acff;stroke:#ffffff;stroke-linejoin:miter;"/>
   </g>
   <g id="patch_153">
    <path d="M 135 961.2 
L 135 129.6 
" style="fill:none;stroke:#ffffff;stroke-linecap:square;stroke-linejoin:miter;stroke-width:0.8;"/>
   </g>
   <g id="patch_154">
    <path d="M 972 961.2 
L 972 129.6 
" style="fill:none;stroke:#ffffff;stroke-linecap:square;stroke-linejoin:miter;stroke-width:0.8;"/>
   </g>
   <g id="patch_155">
    <path d="M 135 961.2 
L 972 961.2 
" style="fill:none;stroke:#ffffff;stroke-linecap:square;stroke-linejoin:miter;stroke-width:0.8;"/>
   </g>
   <g id="patch_156">
    <path d="M 135 129.6 
L 972 129.6 
" style="fill:none;stroke:#ffffff;stroke-linecap:square;stroke-linejoin:miter;stroke-width:0.8;"/>
   </g>
  </g>
 </g>
 <defs>
  <clipPath id="pcdf37d5130">
   <rect height="831.6" width="837" x="135" y="129.6"/>
  </clipPath>
 </defs>
</svg>
