<?xml version="1.0" encoding="utf-8" standalone="no"?>
<!DOCTYPE svg PUBLIC "-//W3C//DTD SVG 1.1//EN"
  "http://www.w3.org/Graphics/SVG/1.1/DTD/svg11.dtd">
<!-- Created with matplotlib (https://matplotlib.org/) -->
<svg height="1080pt" version="1.1" viewBox="0 0 1080 1080" width="1080pt" xmlns="http://www.w3.org/2000/svg" xmlns:xlink="http://www.w3.org/1999/xlink">
 <defs>
  <style type="text/css">
*{stroke-linecap:butt;stroke-linejoin:round;}
  </style>
 </defs>
 <g id="figure_1">
  <g id="patch_1">
   <path d="M 0 1080 
L 1080 1080 
L 1080 0 
L 0 0 
z
" style="fill:#ffffff;"/>
  </g>
  <g id="axes_1">
   <g id="patch_2">
    <path d="M 135 961.2 
L 972 961.2 
L 972 129.6 
L 135 129.6 
z
" style="fill:#eaeaf2;"/>
   </g>
   <g id="matplotlib.axis_1">
    <g id="text_1">
     <!-- Unique Reviewers -->
     <defs>
      <path d="M 54.796875 72.734375 
L 54.796875 24.78125 
C 54.796875 14.59375 46.65625 8.875 36.859375 8.875 
C 27.125 8.875 18.96875 14.59375 18.96875 24.78125 
L 18.96875 72.734375 
L 7.984375 72.734375 
L 7.984375 24.609375 
C 7.984375 8.203125 20.78125 -1.203125 36.859375 -1.203125 
C 52.953125 -1.203125 65.765625 8.203125 65.765625 24.609375 
L 65.765625 72.734375 
z
" id="Inter-Medium-85"/>
      <path d="M 17.75 32.390625 
C 17.75 41.09375 23.078125 46.0625 30.46875 46.0625 
C 37.671875 46.0625 42.046875 41.328125 42.046875 33.421875 
L 42.046875 0 
L 52.671875 0 
L 52.671875 34.6875 
C 52.671875 48.1875 45.25 55.25 34.09375 55.25 
C 25.890625 55.25 20.53125 51.453125 18 45.671875 
L 17.328125 45.671875 
L 17.328125 54.546875 
L 7.140625 54.546875 
L 7.140625 0 
L 17.75 0 
z
" id="Inter-Medium-110"/>
      <path d="M 7.140625 0 
L 17.75 0 
L 17.75 54.546875 
L 7.140625 54.546875 
z
M 12.5 62.96875 
C 16.15625 62.96875 19.21875 65.796875 19.21875 69.28125 
C 19.21875 72.765625 16.15625 75.640625 12.5 75.640625 
C 8.8125 75.640625 5.796875 72.765625 5.796875 69.28125 
C 5.796875 65.796875 8.8125 62.96875 12.5 62.96875 
z
" id="Inter-Medium-105"/>
      <path d="M 54.578125 -20.453125 
L 54.578125 54.546875 
L 44.21875 54.546875 
L 44.21875 45.703125 
L 43.328125 45.703125 
C 41.4375 49.078125 37.78125 55.25 27.671875 55.25 
C 14.484375 55.25 4.765625 44.84375 4.765625 27.171875 
C 4.765625 9.515625 14.34375 -1.0625 27.5625 -1.0625 
C 37.5 -1.0625 41.40625 5 43.328125 8.484375 
L 43.96875 8.484375 
L 43.96875 -20.453125 
z
M 44.171875 27.265625 
C 44.171875 15.796875 39.0625 7.984375 29.9375 7.984375 
C 20.453125 7.984375 15.484375 16.328125 15.484375 27.265625 
C 15.484375 38.109375 20.3125 46.234375 29.9375 46.234375 
C 39.203125 46.234375 44.171875 38.671875 44.171875 27.265625 
z
" id="Inter-Medium-113"/>
      <path d="M 41.6875 22.625 
C 41.734375 13.359375 34.84375 8.953125 28.875 8.953125 
C 22.296875 8.953125 17.75 13.703125 17.75 21.125 
L 17.75 54.546875 
L 7.140625 54.546875 
L 7.140625 19.84375 
C 7.140625 6.328125 14.5625 -0.703125 25.03125 -0.703125 
C 33.234375 -0.703125 38.8125 3.625 41.34375 9.453125 
L 41.90625 9.453125 
L 41.90625 0 
L 52.34375 0 
L 52.34375 54.546875 
L 41.6875 54.546875 
z
" id="Inter-Medium-117"/>
      <path d="M 30.640625 -1.09375 
C 42.546875 -1.09375 50.953125 4.765625 53.375 13.640625 
L 43.328125 15.453125 
C 41.40625 10.296875 36.796875 7.671875 30.75 7.671875 
C 21.65625 7.671875 15.5625 13.5625 15.265625 24.078125 
L 54.046875 24.078125 
L 54.046875 27.84375 
C 54.046875 47.546875 42.265625 55.25 29.90625 55.25 
C 14.703125 55.25 4.6875 43.671875 4.6875 26.921875 
C 4.6875 9.984375 14.5625 -1.09375 30.640625 -1.09375 
z
M 15.3125 32.03125 
C 15.734375 39.765625 21.34375 46.484375 29.96875 46.484375 
C 38.21875 46.484375 43.609375 40.375 43.640625 32.03125 
z
" id="Inter-Medium-101"/>
      <path id="Inter-Medium-32"/>
      <path d="M 7.984375 0 
L 18.96875 0 
L 18.96875 27.515625 
L 33.875 27.515625 
C 34.125 27.515625 34.34375 27.515625 34.59375 27.515625 
L 49.359375 0 
L 61.859375 0 
L 45.734375 29.4375 
C 54.65625 32.734375 59.09375 40.15625 59.09375 49.921875 
C 59.09375 63.3125 50.78125 72.734375 33.921875 72.734375 
L 7.984375 72.734375 
z
M 18.96875 36.96875 
L 18.96875 63.3125 
L 32.75 63.3125 
C 43.578125 63.3125 48.046875 58.171875 48.046875 49.921875 
C 48.046875 41.71875 43.578125 36.96875 32.890625 36.96875 
z
" id="Inter-Medium-82"/>
      <path d="M 53.796875 54.546875 
L 42.40625 54.546875 
L 28.625 12.578125 
L 28.0625 12.578125 
L 14.234375 54.546875 
L 2.84375 54.546875 
L 22.65625 0 
L 34.015625 0 
z
" id="Inter-Medium-118"/>
      <path d="M 18.96875 0 
L 29.765625 0 
L 40.84375 39.375 
L 41.65625 39.375 
L 52.734375 0 
L 63.5625 0 
L 79.578125 54.546875 
L 68.609375 54.546875 
L 57.984375 14.671875 
L 57.453125 14.671875 
L 46.8125 54.546875 
L 35.828125 54.546875 
L 25.109375 14.484375 
L 24.578125 14.484375 
L 13.890625 54.546875 
L 2.90625 54.546875 
z
" id="Inter-Medium-119"/>
      <path d="M 7.140625 0 
L 17.75 0 
L 17.75 33.3125 
C 17.75 40.40625 23.265625 45.5625 30.609375 45.5625 
C 32.671875 45.5625 34.265625 45.140625 35.546875 44.5 
L 38.953125 53.375 
C 37.140625 54.578125 34.796875 55.359375 31.8125 55.359375 
C 25.359375 55.359375 19.953125 51.734375 17.96875 45.875 
L 17.40625 45.875 
L 17.40625 54.546875 
L 7.140625 54.546875 
z
" id="Inter-Medium-114"/>
      <path d="M 48.015625 41.234375 
C 45.8125 49.71875 39.171875 55.25 27.375 55.25 
C 15.0625 55.25 6.328125 48.75 6.328125 39.09375 
C 6.328125 31.359375 11.015625 26.203125 21.234375 23.9375 
L 30.46875 21.90625 
C 35.71875 20.734375 38.171875 18.390625 38.171875 14.984375 
C 38.171875 10.765625 33.671875 7.453125 26.703125 7.453125 
C 20.34375 7.453125 16.265625 10.1875 14.984375 15.546875 
L 4.71875 13.984375 
C 6.5 4.328125 14.53125 -1.09375 26.78125 -1.09375 
C 39.953125 -1.09375 49.078125 5.890625 49.078125 15.765625 
C 49.078125 23.46875 44.171875 28.234375 34.15625 30.546875 
L 25.5 32.53125 
C 19.5 33.953125 16.90625 35.96875 16.9375 39.671875 
C 16.90625 43.859375 21.453125 46.84375 27.484375 46.84375 
C 34.09375 46.84375 37.140625 43.1875 38.390625 39.53125 
z
" id="Inter-Medium-115"/>
     </defs>
     <g style="fill:#262626;" transform="translate(488.778516 976.546094)scale(0.15 -0.15)">
      <use xlink:href="#Inter-Medium-85"/>
      <use x="73.757111" xlink:href="#Inter-Medium-110"/>
      <use x="133.487228" xlink:href="#Inter-Medium-105"/>
      <use x="158.380692" xlink:href="#Inter-Medium-113"/>
      <use x="220.099457" xlink:href="#Inter-Medium-117"/>
      <use x="279.545486" xlink:href="#Inter-Medium-101"/>
      <use x="338.281296" xlink:href="#Inter-Medium-32"/>
      <use x="364.772781" xlink:href="#Inter-Medium-82"/>
      <use x="429.261429" xlink:href="#Inter-Medium-101"/>
      <use x="487.997238" xlink:href="#Inter-Medium-118"/>
      <use x="544.637878" xlink:href="#Inter-Medium-105"/>
      <use x="569.531342" xlink:href="#Inter-Medium-101"/>
      <use x="628.267151" xlink:href="#Inter-Medium-119"/>
      <use x="710.760071" xlink:href="#Inter-Medium-101"/>
      <use x="769.49588" xlink:href="#Inter-Medium-114"/>
      <use x="809.33963" xlink:href="#Inter-Medium-115"/>
     </g>
    </g>
   </g>
   <g id="matplotlib.axis_2">
    <g id="ytick_1">
     <g id="line2d_1">
      <path clip-path="url(#p956b6ea166)" d="M 135 961.2 
L 972 961.2 
" style="fill:none;stroke:#ffffff;stroke-linecap:round;stroke-width:0.8;"/>
     </g>
     <g id="text_2">
      <!-- 0 -->
      <defs>
       <path d="M 32.3125 -1.203125 
C 49.109375 -1.203125 58.953125 12.5 58.953125 36.328125 
C 58.953125 59.984375 48.96875 73.71875 32.3125 73.71875 
C 15.625 73.71875 5.6875 60.015625 5.640625 36.328125 
C 5.640625 12.53125 15.484375 -1.171875 32.3125 -1.203125 
z
M 32.3125 8.28125 
C 22.484375 8.28125 16.546875 18.140625 16.546875 36.328125 
C 16.578125 54.4375 22.515625 64.421875 32.3125 64.421875 
C 42.078125 64.421875 48.046875 54.4375 48.046875 36.328125 
C 48.046875 18.140625 42.125 8.28125 32.3125 8.28125 
z
" id="Inter-Medium-48"/>
      </defs>
      <g style="fill:#262626;" transform="translate(119.602812 965.927734)scale(0.13 -0.13)">
       <use xlink:href="#Inter-Medium-48"/>
      </g>
     </g>
    </g>
    <g id="ytick_2">
     <g id="line2d_2">
      <path clip-path="url(#p956b6ea166)" d="M 135 841.562538 
L 972 841.562538 
" style="fill:none;stroke:#ffffff;stroke-linecap:round;stroke-width:0.8;"/>
     </g>
     <g id="text_3">
      <!-- 50 -->
      <defs>
       <path d="M 31 -1 
C 45.640625 -1 56.078125 9.34375 56.03125 23.515625 
C 56.078125 37.578125 46.265625 47.796875 33.03125 47.796875 
C 27.625 47.796875 22.625 45.734375 19.78125 42.96875 
L 19.359375 42.96875 
L 21.65625 63.3125 
L 52.515625 63.3125 
L 52.515625 72.734375 
L 12.53125 72.734375 
L 8.453125 36.078125 
L 18.5 34.59375 
C 21.234375 37.03125 26.140625 38.703125 30.546875 38.703125 
C 39.171875 38.640625 45.421875 32.171875 45.421875 23.296875 
C 45.421875 14.5625 39.34375 8.234375 31 8.234375 
C 23.96875 8.234375 18.390625 12.71875 17.828125 18.96875 
L 7.171875 18.96875 
C 7.59375 7.390625 17.65625 -1 31 -1 
z
" id="Inter-Medium-53"/>
      </defs>
      <g style="fill:#262626;" transform="translate(111.542812 846.290272)scale(0.13 -0.13)">
       <use xlink:href="#Inter-Medium-53"/>
       <use x="62.002853" xlink:href="#Inter-Medium-48"/>
      </g>
     </g>
    </g>
    <g id="ytick_3">
     <g id="line2d_3">
      <path clip-path="url(#p956b6ea166)" d="M 135 721.925076 
L 972 721.925076 
" style="fill:none;stroke:#ffffff;stroke-linecap:round;stroke-width:0.8;"/>
     </g>
     <g id="text_4">
      <!-- 100 -->
      <defs>
       <path d="M 32.5625 72.734375 
L 22.34375 72.734375 
C 21.953125 70.734375 16.40625 61.546875 5.796875 61.546875 
L 5.796875 52.515625 
C 14.03125 52.515625 19.75 55.78125 20.953125 57.921875 
L 21.5625 57.921875 
L 21.5625 0 
L 32.5625 0 
z
" id="Inter-Medium-49"/>
      </defs>
      <g style="fill:#262626;" transform="translate(105.323125 726.65281)scale(0.13 -0.13)">
       <use xlink:href="#Inter-Medium-49"/>
       <use x="45.241486" xlink:href="#Inter-Medium-48"/>
       <use x="109.83667" xlink:href="#Inter-Medium-48"/>
      </g>
     </g>
    </g>
    <g id="ytick_4">
     <g id="line2d_4">
      <path clip-path="url(#p956b6ea166)" d="M 135 602.287613 
L 972 602.287613 
" style="fill:none;stroke:#ffffff;stroke-linecap:round;stroke-width:0.8;"/>
     </g>
     <g id="text_5">
      <!-- 150 -->
      <g style="fill:#262626;" transform="translate(105.660313 607.015348)scale(0.13 -0.13)">
       <use xlink:href="#Inter-Medium-49"/>
       <use x="45.241486" xlink:href="#Inter-Medium-53"/>
       <use x="107.244339" xlink:href="#Inter-Medium-48"/>
      </g>
     </g>
    </g>
    <g id="ytick_5">
     <g id="line2d_5">
      <path clip-path="url(#p956b6ea166)" d="M 135 482.650151 
L 972 482.650151 
" style="fill:none;stroke:#ffffff;stroke-linecap:round;stroke-width:0.8;"/>
     </g>
     <g id="text_6">
      <!-- 200 -->
      <defs>
       <path d="M 7 0 
L 54.859375 0 
L 54.859375 9.40625 
L 22.125 9.40625 
L 22.125 9.9375 
L 36.578125 25.078125 
C 49.890625 38.53125 53.6875 44.953125 53.6875 53.09375 
C 53.6875 64.765625 44.171875 73.71875 30.46875 73.71875 
C 16.875 73.71875 6.921875 64.921875 6.921875 51.640625 
L 17.40625 51.640625 
C 17.359375 59.453125 22.40625 64.5625 30.25 64.5625 
C 37.640625 64.5625 43.25 60.015625 43.25 52.765625 
C 43.25 46.34375 39.421875 41.71875 31.609375 33.453125 
L 7 7.953125 
z
" id="Inter-Medium-50"/>
      </defs>
      <g style="fill:#262626;" transform="translate(103.232969 487.377885)scale(0.13 -0.13)">
       <use xlink:href="#Inter-Medium-50"/>
       <use x="61.32814" xlink:href="#Inter-Medium-48"/>
       <use x="125.923325" xlink:href="#Inter-Medium-48"/>
      </g>
     </g>
    </g>
    <g id="ytick_6">
     <g id="line2d_6">
      <path clip-path="url(#p956b6ea166)" d="M 135 363.012689 
L 972 363.012689 
" style="fill:none;stroke:#ffffff;stroke-linecap:round;stroke-width:0.8;"/>
     </g>
     <g id="text_7">
      <!-- 250 -->
      <g style="fill:#262626;" transform="translate(103.570156 367.740423)scale(0.13 -0.13)">
       <use xlink:href="#Inter-Medium-50"/>
       <use x="61.32814" xlink:href="#Inter-Medium-53"/>
       <use x="123.330994" xlink:href="#Inter-Medium-48"/>
      </g>
     </g>
    </g>
    <g id="ytick_7">
     <g id="line2d_7">
      <path clip-path="url(#p956b6ea166)" d="M 135 243.375227 
L 972 243.375227 
" style="fill:none;stroke:#ffffff;stroke-linecap:round;stroke-width:0.8;"/>
     </g>
     <g id="text_8">
      <!-- 300 -->
      <defs>
       <path d="M 32.3125 -1 
C 47.15625 -1 58.0625 7.890625 58.03125 19.953125 
C 58.0625 29.15625 52.484375 35.765625 42.828125 37.25 
L 42.828125 37.8125 
C 50.421875 39.765625 55.359375 45.734375 55.328125 53.90625 
C 55.359375 64.59375 46.59375 73.71875 32.59375 73.71875 
C 19.25 73.71875 8.53125 65.65625 8.171875 53.828125 
L 18.78125 53.828125 
C 19.03125 60.515625 25.328125 64.5625 32.453125 64.5625 
C 39.875 64.5625 44.75 60.046875 44.703125 53.34375 
C 44.75 46.3125 39.09375 41.6875 31.03125 41.6875 
L 24.890625 41.6875 
L 24.890625 32.734375 
L 31.03125 32.734375 
C 41.125 32.734375 46.953125 27.625 46.953125 20.3125 
C 46.953125 13.25 40.796875 8.453125 32.25 8.453125 
C 24.359375 8.453125 18.21875 12.5 17.796875 18.96875 
L 6.640625 18.96875 
C 7.109375 7.109375 17.609375 -1 32.3125 -1 
z
" id="Inter-Medium-51"/>
      </defs>
      <g style="fill:#262626;" transform="translate(102.830781 248.102961)scale(0.13 -0.13)">
       <use xlink:href="#Inter-Medium-51"/>
       <use x="64.417633" xlink:href="#Inter-Medium-48"/>
       <use x="129.012817" xlink:href="#Inter-Medium-48"/>
      </g>
     </g>
    </g>
    <g id="text_9">
     <!-- Review count -->
     <defs>
      <path d="M 30.109375 -1.09375 
C 43 -1.09375 51.34375 6.640625 52.515625 17.265625 
L 42.1875 17.265625 
C 40.84375 11.359375 36.265625 7.890625 30.1875 7.890625 
C 21.203125 7.890625 15.40625 15.375 15.40625 27.265625 
C 15.40625 38.953125 21.3125 46.3125 30.1875 46.3125 
C 36.9375 46.3125 41.046875 42.046875 42.1875 36.9375 
L 52.515625 36.9375 
C 51.390625 47.9375 42.40625 55.25 30.015625 55.25 
C 14.625 55.25 4.6875 43.671875 4.6875 27.03125 
C 4.6875 10.578125 14.28125 -1.09375 30.109375 -1.09375 
z
" id="Inter-Medium-99"/>
      <path d="M 30.109375 -1.09375 
C 45.484375 -1.09375 55.546875 10.15625 55.546875 27.03125 
C 55.546875 44 45.484375 55.25 30.109375 55.25 
C 14.734375 55.25 4.6875 44 4.6875 27.03125 
C 4.6875 10.15625 14.734375 -1.09375 30.109375 -1.09375 
z
M 30.15625 7.8125 
C 20.09375 7.8125 15.40625 16.578125 15.40625 27.0625 
C 15.40625 37.5 20.09375 46.375 30.15625 46.375 
C 40.125 46.375 44.8125 37.5 44.8125 27.0625 
C 44.8125 16.578125 40.125 7.8125 30.15625 7.8125 
z
" id="Inter-Medium-111"/>
      <path d="M 32.59375 54.546875 
L 21.421875 54.546875 
L 21.421875 67.609375 
L 10.796875 67.609375 
L 10.796875 54.546875 
L 2.8125 54.546875 
L 2.8125 46.015625 
L 10.796875 46.015625 
L 10.796875 13.8125 
C 10.765625 3.90625 18.328125 -0.890625 26.703125 -0.703125 
C 30.078125 -0.671875 32.359375 -0.03125 33.59375 0.421875 
L 31.671875 9.203125 
C 30.96875 9.0625 29.65625 8.734375 27.953125 8.734375 
C 24.5 8.734375 21.421875 9.875 21.421875 16.015625 
L 21.421875 46.015625 
L 32.59375 46.015625 
z
" id="Inter-Medium-116"/>
     </defs>
     <g style="fill:#262626;" transform="translate(95.762812 593.840625)rotate(-90)scale(0.15 -0.15)">
      <use xlink:href="#Inter-Medium-82"/>
      <use x="64.488647" xlink:href="#Inter-Medium-101"/>
      <use x="123.224457" xlink:href="#Inter-Medium-118"/>
      <use x="179.865097" xlink:href="#Inter-Medium-105"/>
      <use x="204.75856" xlink:href="#Inter-Medium-101"/>
      <use x="263.49437" xlink:href="#Inter-Medium-119"/>
      <use x="345.987289" xlink:href="#Inter-Medium-32"/>
      <use x="372.478775" xlink:href="#Inter-Medium-99"/>
      <use x="429.261459" xlink:href="#Inter-Medium-111"/>
      <use x="489.488739" xlink:href="#Inter-Medium-117"/>
      <use x="548.934769" xlink:href="#Inter-Medium-110"/>
      <use x="608.664886" xlink:href="#Inter-Medium-116"/>
     </g>
    </g>
   </g>
   <g id="patch_3">
    <path clip-path="url(#p956b6ea166)" d="M 136.674 961.2 
L 150.066 961.2 
L 150.066 169.2 
L 136.674 169.2 
z
" style="fill:#ea96a3;stroke:#ffffff;stroke-linejoin:miter;"/>
   </g>
   <g id="patch_4">
    <path clip-path="url(#p956b6ea166)" d="M 153.414 961.2 
L 166.806 961.2 
L 166.806 425.224169 
L 153.414 425.224169 
z
" style="fill:#ea9799;stroke:#ffffff;stroke-linejoin:miter;"/>
   </g>
   <g id="patch_5">
    <path clip-path="url(#p956b6ea166)" d="M 170.154 961.2 
L 183.546 961.2 
L 183.546 434.795166 
L 170.154 434.795166 
z
" style="fill:#e8968c;stroke:#ffffff;stroke-linejoin:miter;"/>
   </g>
   <g id="patch_6">
    <path clip-path="url(#p956b6ea166)" d="M 186.894 961.2 
L 200.286 961.2 
L 200.286 585.538369 
L 186.894 585.538369 
z
" style="fill:#e69579;stroke:#ffffff;stroke-linejoin:miter;"/>
   </g>
   <g id="patch_7">
    <path clip-path="url(#p956b6ea166)" d="M 203.634 961.2 
L 217.026 961.2 
L 217.026 585.538369 
L 203.634 585.538369 
z
" style="fill:#e2925a;stroke:#ffffff;stroke-linejoin:miter;"/>
   </g>
   <g id="patch_8">
    <path clip-path="url(#p956b6ea166)" d="M 220.374 961.2 
L 233.766 961.2 
L 233.766 616.644109 
L 220.374 616.644109 
z
" style="fill:#d7944e;stroke:#ffffff;stroke-linejoin:miter;"/>
   </g>
   <g id="patch_9">
    <path clip-path="url(#p956b6ea166)" d="M 237.114 961.2 
L 250.506 961.2 
L 250.506 642.96435 
L 237.114 642.96435 
z
" style="fill:#cd974c;stroke:#ffffff;stroke-linejoin:miter;"/>
   </g>
   <g id="patch_10">
    <path clip-path="url(#p956b6ea166)" d="M 253.854 961.2 
L 267.246 961.2 
L 267.246 652.535347 
L 253.854 652.535347 
z
" style="fill:#c4994b;stroke:#ffffff;stroke-linejoin:miter;"/>
   </g>
   <g id="patch_11">
    <path clip-path="url(#p956b6ea166)" d="M 270.594 961.2 
L 283.986 961.2 
L 283.986 654.928097 
L 270.594 654.928097 
z
" style="fill:#bb9b49;stroke:#ffffff;stroke-linejoin:miter;"/>
   </g>
   <g id="patch_12">
    <path clip-path="url(#p956b6ea166)" d="M 287.334 961.2 
L 300.726 961.2 
L 300.726 664.499094 
L 287.334 664.499094 
z
" style="fill:#b39d48;stroke:#ffffff;stroke-linejoin:miter;"/>
   </g>
   <g id="patch_13">
    <path clip-path="url(#p956b6ea166)" d="M 304.074 961.2 
L 317.466 961.2 
L 317.466 666.891843 
L 304.074 666.891843 
z
" style="fill:#ab9e47;stroke:#ffffff;stroke-linejoin:miter;"/>
   </g>
   <g id="patch_14">
    <path clip-path="url(#p956b6ea166)" d="M 320.814 961.2 
L 334.206 961.2 
L 334.206 686.033837 
L 320.814 686.033837 
z
" style="fill:#a39f46;stroke:#ffffff;stroke-linejoin:miter;"/>
   </g>
   <g id="patch_15">
    <path clip-path="url(#p956b6ea166)" d="M 337.554 961.2 
L 350.946 961.2 
L 350.946 688.426586 
L 337.554 688.426586 
z
" style="fill:#9ca146;stroke:#ffffff;stroke-linejoin:miter;"/>
   </g>
   <g id="patch_16">
    <path clip-path="url(#p956b6ea166)" d="M 354.294 961.2 
L 367.686 961.2 
L 367.686 690.819335 
L 354.294 690.819335 
z
" style="fill:#94a346;stroke:#ffffff;stroke-linejoin:miter;"/>
   </g>
   <g id="patch_17">
    <path clip-path="url(#p956b6ea166)" d="M 371.034 961.2 
L 384.426 961.2 
L 384.426 695.604834 
L 371.034 695.604834 
z
" style="fill:#8ba646;stroke:#ffffff;stroke-linejoin:miter;"/>
   </g>
   <g id="patch_18">
    <path clip-path="url(#p956b6ea166)" d="M 387.774 961.2 
L 401.166 961.2 
L 401.166 697.997583 
L 387.774 697.997583 
z
" style="fill:#7fa946;stroke:#ffffff;stroke-linejoin:miter;"/>
   </g>
   <g id="patch_19">
    <path clip-path="url(#p956b6ea166)" d="M 404.514 961.2 
L 417.906 961.2 
L 417.906 700.390332 
L 404.514 700.390332 
z
" style="fill:#6fac47;stroke:#ffffff;stroke-linejoin:miter;"/>
   </g>
   <g id="patch_20">
    <path clip-path="url(#p956b6ea166)" d="M 421.254 961.2 
L 434.646 961.2 
L 434.646 702.783082 
L 421.254 702.783082 
z
" style="fill:#55b047;stroke:#ffffff;stroke-linejoin:miter;"/>
   </g>
   <g id="patch_21">
    <path clip-path="url(#p956b6ea166)" d="M 437.994 961.2 
L 451.386 961.2 
L 451.386 702.783082 
L 437.994 702.783082 
z
" style="fill:#48b062;stroke:#ffffff;stroke-linejoin:miter;"/>
   </g>
   <g id="patch_22">
    <path clip-path="url(#p956b6ea166)" d="M 454.734 961.2 
L 468.126 961.2 
L 468.126 705.175831 
L 454.734 705.175831 
z
" style="fill:#49af76;stroke:#ffffff;stroke-linejoin:miter;"/>
   </g>
   <g id="patch_23">
    <path clip-path="url(#p956b6ea166)" d="M 471.474 961.2 
L 484.866 961.2 
L 484.866 707.56858 
L 471.474 707.56858 
z
" style="fill:#49ae83;stroke:#ffffff;stroke-linejoin:miter;"/>
   </g>
   <g id="patch_24">
    <path clip-path="url(#p956b6ea166)" d="M 488.214 961.2 
L 501.606 961.2 
L 501.606 712.354079 
L 488.214 712.354079 
z
" style="fill:#4aad8c;stroke:#ffffff;stroke-linejoin:miter;"/>
   </g>
   <g id="patch_25">
    <path clip-path="url(#p956b6ea166)" d="M 504.954 961.2 
L 518.346 961.2 
L 518.346 712.354079 
L 504.954 712.354079 
z
" style="fill:#4aad93;stroke:#ffffff;stroke-linejoin:miter;"/>
   </g>
   <g id="patch_26">
    <path clip-path="url(#p956b6ea166)" d="M 521.694 961.2 
L 535.086 961.2 
L 535.086 717.139577 
L 521.694 717.139577 
z
" style="fill:#4aac99;stroke:#ffffff;stroke-linejoin:miter;"/>
   </g>
   <g id="patch_27">
    <path clip-path="url(#p956b6ea166)" d="M 538.434 961.2 
L 551.826 961.2 
L 551.826 719.532326 
L 538.434 719.532326 
z
" style="fill:#4bac9f;stroke:#ffffff;stroke-linejoin:miter;"/>
   </g>
   <g id="patch_28">
    <path clip-path="url(#p956b6ea166)" d="M 555.174 961.2 
L 568.566 961.2 
L 568.566 721.925076 
L 555.174 721.925076 
z
" style="fill:#4baba4;stroke:#ffffff;stroke-linejoin:miter;"/>
   </g>
   <g id="patch_29">
    <path clip-path="url(#p956b6ea166)" d="M 571.914 961.2 
L 585.306 961.2 
L 585.306 724.317825 
L 571.914 724.317825 
z
" style="fill:#4baba9;stroke:#ffffff;stroke-linejoin:miter;"/>
   </g>
   <g id="patch_30">
    <path clip-path="url(#p956b6ea166)" d="M 588.654 961.2 
L 602.046 961.2 
L 602.046 726.710574 
L 588.654 726.710574 
z
" style="fill:#4cabaf;stroke:#ffffff;stroke-linejoin:miter;"/>
   </g>
   <g id="patch_31">
    <path clip-path="url(#p956b6ea166)" d="M 605.394 961.2 
L 618.786 961.2 
L 618.786 726.710574 
L 605.394 726.710574 
z
" style="fill:#4eabb5;stroke:#ffffff;stroke-linejoin:miter;"/>
   </g>
   <g id="patch_32">
    <path clip-path="url(#p956b6ea166)" d="M 622.134 961.2 
L 635.526 961.2 
L 635.526 738.67432 
L 622.134 738.67432 
z
" style="fill:#4fabbb;stroke:#ffffff;stroke-linejoin:miter;"/>
   </g>
   <g id="patch_33">
    <path clip-path="url(#p956b6ea166)" d="M 638.874 961.2 
L 652.266 961.2 
L 652.266 741.067069 
L 638.874 741.067069 
z
" style="fill:#50acc3;stroke:#ffffff;stroke-linejoin:miter;"/>
   </g>
   <g id="patch_34">
    <path clip-path="url(#p956b6ea166)" d="M 655.614 961.2 
L 669.006 961.2 
L 669.006 741.067069 
L 655.614 741.067069 
z
" style="fill:#52accb;stroke:#ffffff;stroke-linejoin:miter;"/>
   </g>
   <g id="patch_35">
    <path clip-path="url(#p956b6ea166)" d="M 672.354 961.2 
L 685.746 961.2 
L 685.746 743.459819 
L 672.354 743.459819 
z
" style="fill:#55acd5;stroke:#ffffff;stroke-linejoin:miter;"/>
   </g>
   <g id="patch_36">
    <path clip-path="url(#p956b6ea166)" d="M 689.094 961.2 
L 702.486 961.2 
L 702.486 745.852568 
L 689.094 745.852568 
z
" style="fill:#60ade1;stroke:#ffffff;stroke-linejoin:miter;"/>
   </g>
   <g id="patch_37">
    <path clip-path="url(#p956b6ea166)" d="M 705.834 961.2 
L 719.226 961.2 
L 719.226 745.852568 
L 705.834 745.852568 
z
" style="fill:#7faee5;stroke:#ffffff;stroke-linejoin:miter;"/>
   </g>
   <g id="patch_38">
    <path clip-path="url(#p956b6ea166)" d="M 722.574 961.2 
L 735.966 961.2 
L 735.966 750.638066 
L 722.574 750.638066 
z
" style="fill:#94aee8;stroke:#ffffff;stroke-linejoin:miter;"/>
   </g>
   <g id="patch_39">
    <path clip-path="url(#p956b6ea166)" d="M 739.314 961.2 
L 752.706 961.2 
L 752.706 753.030816 
L 739.314 753.030816 
z
" style="fill:#a4acea;stroke:#ffffff;stroke-linejoin:miter;"/>
   </g>
   <g id="patch_40">
    <path clip-path="url(#p956b6ea166)" d="M 756.054 961.2 
L 769.446 961.2 
L 769.446 753.030816 
L 756.054 753.030816 
z
" style="fill:#b1aaeb;stroke:#ffffff;stroke-linejoin:miter;"/>
   </g>
   <g id="patch_41">
    <path clip-path="url(#p956b6ea166)" d="M 772.794 961.2 
L 786.186 961.2 
L 786.186 753.030816 
L 772.794 753.030816 
z
" style="fill:#bba5ea;stroke:#ffffff;stroke-linejoin:miter;"/>
   </g>
   <g id="patch_42">
    <path clip-path="url(#p956b6ea166)" d="M 789.534 961.2 
L 802.926 961.2 
L 802.926 755.423565 
L 789.534 755.423565 
z
" style="fill:#c5a1ea;stroke:#ffffff;stroke-linejoin:miter;"/>
   </g>
   <g id="patch_43">
    <path clip-path="url(#p956b6ea166)" d="M 806.274 961.2 
L 819.666 961.2 
L 819.666 760.209063 
L 806.274 760.209063 
z
" style="fill:#ce9be9;stroke:#ffffff;stroke-linejoin:miter;"/>
   </g>
   <g id="patch_44">
    <path clip-path="url(#p956b6ea166)" d="M 823.014 961.2 
L 836.406 961.2 
L 836.406 769.78006 
L 823.014 769.78006 
z
" style="fill:#d894e8;stroke:#ffffff;stroke-linejoin:miter;"/>
   </g>
   <g id="patch_45">
    <path clip-path="url(#p956b6ea166)" d="M 839.754 961.2 
L 853.146 961.2 
L 853.146 772.17281 
L 839.754 772.17281 
z
" style="fill:#e28ce7;stroke:#ffffff;stroke-linejoin:miter;"/>
   </g>
   <g id="patch_46">
    <path clip-path="url(#p956b6ea166)" d="M 856.494 961.2 
L 869.886 961.2 
L 869.886 776.958308 
L 856.494 776.958308 
z
" style="fill:#e78adf;stroke:#ffffff;stroke-linejoin:miter;"/>
   </g>
   <g id="patch_47">
    <path clip-path="url(#p956b6ea166)" d="M 873.234 961.2 
L 886.626 961.2 
L 886.626 776.958308 
L 873.234 776.958308 
z
" style="fill:#e78dd5;stroke:#ffffff;stroke-linejoin:miter;"/>
   </g>
   <g id="patch_48">
    <path clip-path="url(#p956b6ea166)" d="M 889.974 961.2 
L 903.366 961.2 
L 903.366 779.351057 
L 889.974 779.351057 
z
" style="fill:#e88fcc;stroke:#ffffff;stroke-linejoin:miter;"/>
   </g>
   <g id="patch_49">
    <path clip-path="url(#p956b6ea166)" d="M 906.714 961.2 
L 920.106 961.2 
L 920.106 781.743807 
L 906.714 781.743807 
z
" style="fill:#e890c4;stroke:#ffffff;stroke-linejoin:miter;"/>
   </g>
   <g id="patch_50">
    <path clip-path="url(#p956b6ea166)" d="M 923.454 961.2 
L 936.846 961.2 
L 936.846 784.136556 
L 923.454 784.136556 
z
" style="fill:#e992bd;stroke:#ffffff;stroke-linejoin:miter;"/>
   </g>
   <g id="patch_51">
    <path clip-path="url(#p956b6ea166)" d="M 940.194 961.2 
L 953.586 961.2 
L 953.586 786.529305 
L 940.194 786.529305 
z
" style="fill:#e993b5;stroke:#ffffff;stroke-linejoin:miter;"/>
   </g>
   <g id="patch_52">
    <path clip-path="url(#p956b6ea166)" d="M 956.934 961.2 
L 970.326 961.2 
L 970.326 788.922054 
L 956.934 788.922054 
z
" style="fill:#e994ad;stroke:#ffffff;stroke-linejoin:miter;"/>
   </g>
   <g id="patch_53">
    <path d="M 135 961.2 
L 135 129.6 
" style="fill:none;stroke:#ffffff;stroke-linecap:square;stroke-linejoin:miter;stroke-width:0.8;"/>
   </g>
   <g id="patch_54">
    <path d="M 972 961.2 
L 972 129.6 
" style="fill:none;stroke:#ffffff;stroke-linecap:square;stroke-linejoin:miter;stroke-width:0.8;"/>
   </g>
   <g id="patch_55">
    <path d="M 135 961.2 
L 972 961.2 
" style="fill:none;stroke:#ffffff;stroke-linecap:square;stroke-linejoin:miter;stroke-width:0.8;"/>
   </g>
   <g id="patch_56">
    <path d="M 135 129.6 
L 972 129.6 
" style="fill:none;stroke:#ffffff;stroke-linecap:square;stroke-linejoin:miter;stroke-width:0.8;"/>
   </g>
  </g>
 </g>
 <defs>
  <clipPath id="p956b6ea166">
   <rect height="831.6" width="837" x="135" y="129.6"/>
  </clipPath>
 </defs>
</svg>
