<?xml version="1.0" encoding="utf-8" standalone="no"?>
<!DOCTYPE svg PUBLIC "-//W3C//DTD SVG 1.1//EN"
  "http://www.w3.org/Graphics/SVG/1.1/DTD/svg11.dtd">
<!-- Created with matplotlib (https://matplotlib.org/) -->
<svg height="1080pt" version="1.1" viewBox="0 0 1080 1080" width="1080pt" xmlns="http://www.w3.org/2000/svg" xmlns:xlink="http://www.w3.org/1999/xlink">
 <defs>
  <style type="text/css">
*{stroke-linecap:butt;stroke-linejoin:round;}
  </style>
 </defs>
 <g id="figure_1">
  <g id="patch_1">
   <path d="M 0 1080 
L 1080 1080 
L 1080 0 
L 0 0 
z
" style="fill:#ffffff;"/>
  </g>
  <g id="axes_1">
   <g id="patch_2">
    <path d="M 135 945 
L 972 945 
L 972 129.6 
L 135 129.6 
z
" style="fill:#eaeaf2;"/>
   </g>
   <g id="matplotlib.axis_1">
    <g id="xtick_1">
     <g id="line2d_1">
      <path clip-path="url(#pbf2160d1b4)" d="M 165.96723 945 
L 165.96723 129.6 
" style="fill:none;stroke:#ffffff;stroke-linecap:round;stroke-width:0.8;"/>
     </g>
     <g id="text_1">
      <!-- 2010 -->
      <defs>
       <path d="M 7 0 
L 54.859375 0 
L 54.859375 9.40625 
L 22.125 9.40625 
L 22.125 9.9375 
L 36.578125 25.078125 
C 49.890625 38.53125 53.6875 44.953125 53.6875 53.09375 
C 53.6875 64.765625 44.171875 73.71875 30.46875 73.71875 
C 16.875 73.71875 6.921875 64.921875 6.921875 51.640625 
L 17.40625 51.640625 
C 17.359375 59.453125 22.40625 64.5625 30.25 64.5625 
C 37.640625 64.5625 43.25 60.015625 43.25 52.765625 
C 43.25 46.34375 39.421875 41.71875 31.609375 33.453125 
L 7 7.953125 
z
" id="Inter-Medium-50"/>
       <path d="M 32.3125 -1.203125 
C 49.109375 -1.203125 58.953125 12.5 58.953125 36.328125 
C 58.953125 59.984375 48.96875 73.71875 32.3125 73.71875 
C 15.625 73.71875 5.6875 60.015625 5.640625 36.328125 
C 5.640625 12.53125 15.484375 -1.171875 32.3125 -1.203125 
z
M 32.3125 8.28125 
C 22.484375 8.28125 16.546875 18.140625 16.546875 36.328125 
C 16.578125 54.4375 22.515625 64.421875 32.3125 64.421875 
C 42.078125 64.421875 48.046875 54.4375 48.046875 36.328125 
C 48.046875 18.140625 42.125 8.28125 32.3125 8.28125 
z
" id="Inter-Medium-48"/>
       <path d="M 32.5625 72.734375 
L 22.34375 72.734375 
C 21.953125 70.734375 16.40625 61.546875 5.796875 61.546875 
L 5.796875 52.515625 
C 14.03125 52.515625 19.75 55.78125 20.953125 57.921875 
L 21.5625 57.921875 
L 21.5625 0 
L 32.5625 0 
z
" id="Inter-Medium-49"/>
      </defs>
      <g style="fill:#262626;" transform="translate(145.927152 964.364844)scale(0.17 -0.17)">
       <use xlink:href="#Inter-Medium-50"/>
       <use x="61.32814" xlink:href="#Inter-Medium-48"/>
       <use x="125.923325" xlink:href="#Inter-Medium-49"/>
       <use x="171.16481" xlink:href="#Inter-Medium-48"/>
      </g>
     </g>
    </g>
    <g id="xtick_2">
     <g id="line2d_2">
      <path clip-path="url(#pbf2160d1b4)" d="M 252.085624 945 
L 252.085624 129.6 
" style="fill:none;stroke:#ffffff;stroke-linecap:round;stroke-width:0.8;"/>
     </g>
     <g id="text_2">
      <!-- 2011 -->
      <g style="fill:#262626;" transform="translate(233.689764 964.364844)scale(0.17 -0.17)">
       <use xlink:href="#Inter-Medium-50"/>
       <use x="61.32814" xlink:href="#Inter-Medium-48"/>
       <use x="125.923325" xlink:href="#Inter-Medium-49"/>
       <use x="171.16481" xlink:href="#Inter-Medium-49"/>
      </g>
     </g>
    </g>
    <g id="xtick_3">
     <g id="line2d_3">
      <path clip-path="url(#pbf2160d1b4)" d="M 338.204017 945 
L 338.204017 129.6 
" style="fill:none;stroke:#ffffff;stroke-linecap:round;stroke-width:0.8;"/>
     </g>
     <g id="text_3">
      <!-- 2012 -->
      <g style="fill:#262626;" transform="translate(318.441517 964.364844)scale(0.17 -0.17)">
       <use xlink:href="#Inter-Medium-50"/>
       <use x="61.32814" xlink:href="#Inter-Medium-48"/>
       <use x="125.923325" xlink:href="#Inter-Medium-49"/>
       <use x="171.16481" xlink:href="#Inter-Medium-50"/>
      </g>
     </g>
    </g>
    <g id="xtick_4">
     <g id="line2d_4">
      <path clip-path="url(#pbf2160d1b4)" d="M 424.558351 945 
L 424.558351 129.6 
" style="fill:none;stroke:#ffffff;stroke-linecap:round;stroke-width:0.8;"/>
     </g>
     <g id="text_4">
      <!-- 2013 -->
      <defs>
       <path d="M 32.3125 -1 
C 47.15625 -1 58.0625 7.890625 58.03125 19.953125 
C 58.0625 29.15625 52.484375 35.765625 42.828125 37.25 
L 42.828125 37.8125 
C 50.421875 39.765625 55.359375 45.734375 55.328125 53.90625 
C 55.359375 64.59375 46.59375 73.71875 32.59375 73.71875 
C 19.25 73.71875 8.53125 65.65625 8.171875 53.828125 
L 18.78125 53.828125 
C 19.03125 60.515625 25.328125 64.5625 32.453125 64.5625 
C 39.875 64.5625 44.75 60.046875 44.703125 53.34375 
C 44.75 46.3125 39.09375 41.6875 31.03125 41.6875 
L 24.890625 41.6875 
L 24.890625 32.734375 
L 31.03125 32.734375 
C 41.125 32.734375 46.953125 27.625 46.953125 20.3125 
C 46.953125 13.25 40.796875 8.453125 32.25 8.453125 
C 24.359375 8.453125 18.21875 12.5 17.796875 18.96875 
L 6.640625 18.96875 
C 7.109375 7.109375 17.609375 -1 32.3125 -1 
z
" id="Inter-Medium-51"/>
      </defs>
      <g style="fill:#262626;" transform="translate(404.532882 964.364844)scale(0.17 -0.17)">
       <use xlink:href="#Inter-Medium-50"/>
       <use x="61.32814" xlink:href="#Inter-Medium-48"/>
       <use x="125.923325" xlink:href="#Inter-Medium-49"/>
       <use x="171.16481" xlink:href="#Inter-Medium-51"/>
      </g>
     </g>
    </g>
    <g id="xtick_5">
     <g id="line2d_5">
      <path clip-path="url(#pbf2160d1b4)" d="M 510.676744 945 
L 510.676744 129.6 
" style="fill:none;stroke:#ffffff;stroke-linecap:round;stroke-width:0.8;"/>
     </g>
     <g id="text_5">
      <!-- 2014 -->
      <defs>
       <path d="M 5.46875 14.203125 
L 39.953125 14.203125 
L 39.953125 0 
L 50.421875 0 
L 50.421875 14.203125 
L 60.046875 14.203125 
L 60.046875 23.515625 
L 50.421875 23.515625 
L 50.421875 72.734375 
L 36.890625 72.734375 
L 5.46875 23.078125 
z
M 40.015625 23.515625 
L 16.96875 23.515625 
L 16.96875 24.078125 
L 39.453125 59.65625 
L 40.015625 59.65625 
z
" id="Inter-Medium-52"/>
      </defs>
      <g style="fill:#262626;" transform="translate(490.567604 964.364844)scale(0.17 -0.17)">
       <use xlink:href="#Inter-Medium-50"/>
       <use x="61.32814" xlink:href="#Inter-Medium-48"/>
       <use x="125.923325" xlink:href="#Inter-Medium-49"/>
       <use x="171.16481" xlink:href="#Inter-Medium-52"/>
      </g>
     </g>
    </g>
    <g id="xtick_6">
     <g id="line2d_6">
      <path clip-path="url(#pbf2160d1b4)" d="M 596.795137 945 
L 596.795137 129.6 
" style="fill:none;stroke:#ffffff;stroke-linecap:round;stroke-width:0.8;"/>
     </g>
     <g id="text_6">
      <!-- 2015 -->
      <defs>
       <path d="M 31 -1 
C 45.640625 -1 56.078125 9.34375 56.03125 23.515625 
C 56.078125 37.578125 46.265625 47.796875 33.03125 47.796875 
C 27.625 47.796875 22.625 45.734375 19.78125 42.96875 
L 19.359375 42.96875 
L 21.65625 63.3125 
L 52.515625 63.3125 
L 52.515625 72.734375 
L 12.53125 72.734375 
L 8.453125 36.078125 
L 18.5 34.59375 
C 21.234375 37.03125 26.140625 38.703125 30.546875 38.703125 
C 39.171875 38.640625 45.421875 32.171875 45.421875 23.296875 
C 45.421875 14.5625 39.34375 8.234375 31 8.234375 
C 23.96875 8.234375 18.390625 12.71875 17.828125 18.96875 
L 7.171875 18.96875 
C 7.59375 7.390625 17.65625 -1 31 -1 
z
" id="Inter-Medium-53"/>
      </defs>
      <g style="fill:#262626;" transform="translate(576.975528 964.364844)scale(0.17 -0.17)">
       <use xlink:href="#Inter-Medium-50"/>
       <use x="61.32814" xlink:href="#Inter-Medium-48"/>
       <use x="125.923325" xlink:href="#Inter-Medium-49"/>
       <use x="171.16481" xlink:href="#Inter-Medium-53"/>
      </g>
     </g>
    </g>
    <g id="xtick_7">
     <g id="line2d_7">
      <path clip-path="url(#pbf2160d1b4)" d="M 682.913531 945 
L 682.913531 129.6 
" style="fill:none;stroke:#ffffff;stroke-linecap:round;stroke-width:0.8;"/>
     </g>
     <g id="text_7">
      <!-- 2016 -->
      <defs>
       <path d="M 32.390625 -1 
C 47.59375 -1.140625 57.671875 9.796875 57.640625 23.75 
C 57.671875 37.671875 47.546875 47.65625 34.9375 47.65625 
C 27.28125 47.65625 20.640625 43.96875 16.90625 37.8125 
L 16.375 37.8125 
C 16.40625 54.515625 22.65625 64.28125 33.3125 64.28125 
C 40.3125 64.28125 44.703125 60.046875 46.203125 53.828125 
L 57.03125 53.828125 
C 55.359375 65.515625 46.3125 73.90625 33.3125 73.90625 
C 16.40625 73.90625 5.859375 59.375 5.859375 33.90625 
C 5.859375 7.140625 19.46875 -0.890625 32.390625 -1 
z
M 32.359375 8.234375 
C 23.90625 8.234375 17.71875 15.34375 17.71875 23.515625 
C 17.75 31.640625 24.21875 38.75 32.59375 38.75 
C 40.90625 38.75 47.015625 32.03125 46.984375 23.609375 
C 47.015625 15.015625 40.65625 8.234375 32.359375 8.234375 
z
" id="Inter-Medium-54"/>
      </defs>
      <g style="fill:#262626;" transform="translate(662.961109 964.364844)scale(0.17 -0.17)">
       <use xlink:href="#Inter-Medium-50"/>
       <use x="61.32814" xlink:href="#Inter-Medium-48"/>
       <use x="125.923325" xlink:href="#Inter-Medium-49"/>
       <use x="171.16481" xlink:href="#Inter-Medium-54"/>
      </g>
     </g>
    </g>
    <g id="xtick_8">
     <g id="line2d_8">
      <path clip-path="url(#pbf2160d1b4)" d="M 769.267865 945 
L 769.267865 129.6 
" style="fill:none;stroke:#ffffff;stroke-linecap:round;stroke-width:0.8;"/>
     </g>
     <g id="text_8">
      <!-- 2017 -->
      <defs>
       <path d="M 9.453125 0 
L 20.921875 0 
L 52.5625 63 
L 52.5625 72.734375 
L 4.46875 72.734375 
L 4.46875 63.3125 
L 41.1875 63.3125 
L 41.1875 62.78125 
z
" id="Inter-Medium-55"/>
      </defs>
      <g style="fill:#262626;" transform="translate(749.797552 964.364844)scale(0.17 -0.17)">
       <use xlink:href="#Inter-Medium-50"/>
       <use x="61.32814" xlink:href="#Inter-Medium-48"/>
       <use x="125.923325" xlink:href="#Inter-Medium-49"/>
       <use x="171.16481" xlink:href="#Inter-Medium-55"/>
      </g>
     </g>
    </g>
    <g id="xtick_9">
     <g id="line2d_9">
      <path clip-path="url(#pbf2160d1b4)" d="M 855.386258 945 
L 855.386258 129.6 
" style="fill:none;stroke:#ffffff;stroke-linecap:round;stroke-width:0.8;"/>
     </g>
     <g id="text_9">
      <!-- 2018 -->
      <defs>
       <path d="M 31.578125 -1 
C 46.703125 -1 57.390625 7.59375 57.453125 19.390625 
C 57.390625 28.546875 50.953125 36.25 42.828125 37.71875 
L 42.828125 38.140625 
C 49.890625 39.84375 54.6875 46.484375 54.765625 54.328125 
C 54.6875 65.453125 44.890625 73.71875 31.578125 73.71875 
C 18.109375 73.71875 8.3125 65.453125 8.375 54.328125 
C 8.3125 46.515625 13.109375 39.84375 20.3125 38.140625 
L 20.3125 37.71875 
C 12.046875 36.25 5.609375 28.546875 5.6875 19.390625 
C 5.609375 7.59375 16.296875 -1 31.578125 -1 
z
M 31.578125 7.984375 
C 22.484375 7.984375 16.734375 12.8125 16.796875 20.09375 
C 16.734375 27.65625 22.984375 33.0625 31.578125 33.0625 
C 40.015625 33.0625 46.265625 27.65625 46.34375 20.09375 
C 46.265625 12.8125 40.5625 7.984375 31.578125 7.984375 
z
M 31.578125 41.828125 
C 24.21875 41.828125 19 46.484375 19.078125 53.40625 
C 19 60.234375 24.046875 64.734375 31.578125 64.734375 
C 38.953125 64.734375 44 60.234375 44.078125 53.40625 
C 44 46.484375 38.8125 41.828125 31.578125 41.828125 
z
" id="Inter-Medium-56"/>
      </defs>
      <g style="fill:#262626;" transform="translate(835.469695 964.364844)scale(0.17 -0.17)">
       <use xlink:href="#Inter-Medium-50"/>
       <use x="61.32814" xlink:href="#Inter-Medium-48"/>
       <use x="125.923325" xlink:href="#Inter-Medium-49"/>
       <use x="171.16481" xlink:href="#Inter-Medium-56"/>
      </g>
     </g>
    </g>
    <g id="xtick_10">
     <g id="line2d_10">
      <path clip-path="url(#pbf2160d1b4)" d="M 941.504651 945 
L 941.504651 129.6 
" style="fill:none;stroke:#ffffff;stroke-linecap:round;stroke-width:0.8;"/>
     </g>
     <g id="text_10">
      <!-- 2019 -->
      <defs>
       <path d="M 31.1875 73.90625 
C 15.90625 74 5.9375 63.0625 5.9375 49.140625 
C 5.9375 35.234375 16.015625 25.21875 28.625 25.21875 
C 36.328125 25.21875 42.9375 28.984375 46.65625 35.078125 
L 47.234375 35.078125 
C 47.203125 18.359375 40.90625 8.59375 30.25 8.59375 
C 23.296875 8.59375 18.828125 12.859375 17.40625 19.0625 
L 6.578125 19.0625 
C 8.171875 7.3125 17.265625 -1 30.25 -1 
C 47.15625 -1 57.703125 13.53125 57.75 38.984375 
C 57.703125 65.734375 44.140625 73.796875 31.1875 73.90625 
z
M 31.21875 64.671875 
C 39.625 64.671875 45.84375 57.53125 45.84375 49.390625 
C 45.84375 41.265625 39.3125 34.15625 31 34.15625 
C 22.65625 34.15625 16.578125 40.84375 16.578125 49.296875 
C 16.578125 57.890625 22.875 64.671875 31.21875 64.671875 
z
" id="Inter-Medium-57"/>
      </defs>
      <g style="fill:#262626;" transform="translate(921.552229 964.364844)scale(0.17 -0.17)">
       <use xlink:href="#Inter-Medium-50"/>
       <use x="61.32814" xlink:href="#Inter-Medium-48"/>
       <use x="125.923325" xlink:href="#Inter-Medium-49"/>
       <use x="171.16481" xlink:href="#Inter-Medium-57"/>
      </g>
     </g>
    </g>
   </g>
   <g id="matplotlib.axis_2">
    <g id="ytick_1">
     <g id="line2d_11">
      <path clip-path="url(#pbf2160d1b4)" d="M 135 885.145188 
L 972 885.145188 
" style="fill:none;stroke:#ffffff;stroke-linecap:round;stroke-width:0.8;"/>
     </g>
     <g id="line2d_12">
      <defs>
       <path d="M 0 0 
L -3.5 0 
" id="m4963dc2dfa" style="stroke:#262626;stroke-width:0.8;"/>
      </defs>
      <g>
       <use style="fill:#262626;stroke:#262626;stroke-width:0.8;" x="135" xlink:href="#m4963dc2dfa" y="885.145188"/>
      </g>
     </g>
     <g id="text_11">
      <!-- 3.7 -->
      <defs>
       <path d="M 14.140625 -0.671875 
C 18 -0.671875 21.234375 2.484375 21.234375 6.421875 
C 21.234375 10.296875 18 13.5 14.140625 13.5 
C 10.234375 13.5 7.03125 10.296875 7.03125 6.421875 
C 7.03125 2.484375 10.234375 -0.671875 14.140625 -0.671875 
z
" id="Inter-Medium-46"/>
      </defs>
      <g style="fill:#262626;" transform="translate(102.396406 891.32761)scale(0.17 -0.17)">
       <use xlink:href="#Inter-Medium-51"/>
       <use x="64.417633" xlink:href="#Inter-Medium-46"/>
       <use x="92.720184" xlink:href="#Inter-Medium-55"/>
      </g>
     </g>
    </g>
    <g id="ytick_2">
     <g id="line2d_13">
      <path clip-path="url(#pbf2160d1b4)" d="M 135 769.069202 
L 972 769.069202 
" style="fill:none;stroke:#ffffff;stroke-linecap:round;stroke-width:0.8;"/>
     </g>
     <g id="line2d_14">
      <g>
       <use style="fill:#262626;stroke:#262626;stroke-width:0.8;" x="135" xlink:href="#m4963dc2dfa" y="769.069202"/>
      </g>
     </g>
     <g id="text_12">
      <!-- 3.8 -->
      <g style="fill:#262626;" transform="translate(101.503906 775.251624)scale(0.17 -0.17)">
       <use xlink:href="#Inter-Medium-51"/>
       <use x="64.417633" xlink:href="#Inter-Medium-46"/>
       <use x="92.720184" xlink:href="#Inter-Medium-56"/>
      </g>
     </g>
    </g>
    <g id="ytick_3">
     <g id="line2d_15">
      <path clip-path="url(#pbf2160d1b4)" d="M 135 652.993216 
L 972 652.993216 
" style="fill:none;stroke:#ffffff;stroke-linecap:round;stroke-width:0.8;"/>
     </g>
     <g id="line2d_16">
      <g>
       <use style="fill:#262626;stroke:#262626;stroke-width:0.8;" x="135" xlink:href="#m4963dc2dfa" y="652.993216"/>
      </g>
     </g>
     <g id="text_13">
      <!-- 3.9 -->
      <g style="fill:#262626;" transform="translate(101.432187 659.175637)scale(0.17 -0.17)">
       <use xlink:href="#Inter-Medium-51"/>
       <use x="64.417633" xlink:href="#Inter-Medium-46"/>
       <use x="92.720184" xlink:href="#Inter-Medium-57"/>
      </g>
     </g>
    </g>
    <g id="ytick_4">
     <g id="line2d_17">
      <path clip-path="url(#pbf2160d1b4)" d="M 135 536.917229 
L 972 536.917229 
" style="fill:none;stroke:#ffffff;stroke-linecap:round;stroke-width:0.8;"/>
     </g>
     <g id="line2d_18">
      <g>
       <use style="fill:#262626;stroke:#262626;stroke-width:0.8;" x="135" xlink:href="#m4963dc2dfa" y="536.917229"/>
      </g>
     </g>
     <g id="text_14">
      <!-- 4.0 -->
      <g style="fill:#262626;" transform="translate(101.089531 543.099651)scale(0.17 -0.17)">
       <use xlink:href="#Inter-Medium-52"/>
       <use x="65.411942" xlink:href="#Inter-Medium-46"/>
       <use x="93.714493" xlink:href="#Inter-Medium-48"/>
      </g>
     </g>
    </g>
    <g id="ytick_5">
     <g id="line2d_19">
      <path clip-path="url(#pbf2160d1b4)" d="M 135 420.841243 
L 972 420.841243 
" style="fill:none;stroke:#ffffff;stroke-linecap:round;stroke-width:0.8;"/>
     </g>
     <g id="line2d_20">
      <g>
       <use style="fill:#262626;stroke:#262626;stroke-width:0.8;" x="135" xlink:href="#m4963dc2dfa" y="420.841243"/>
      </g>
     </g>
     <g id="text_15">
      <!-- 4.1 -->
      <g style="fill:#262626;" transform="translate(104.377969 427.023665)scale(0.17 -0.17)">
       <use xlink:href="#Inter-Medium-52"/>
       <use x="65.411942" xlink:href="#Inter-Medium-46"/>
       <use x="93.714493" xlink:href="#Inter-Medium-49"/>
      </g>
     </g>
    </g>
    <g id="ytick_6">
     <g id="line2d_21">
      <path clip-path="url(#pbf2160d1b4)" d="M 135 304.765257 
L 972 304.765257 
" style="fill:none;stroke:#ffffff;stroke-linecap:round;stroke-width:0.8;"/>
     </g>
     <g id="line2d_22">
      <g>
       <use style="fill:#262626;stroke:#262626;stroke-width:0.8;" x="135" xlink:href="#m4963dc2dfa" y="304.765257"/>
      </g>
     </g>
     <g id="text_16">
      <!-- 4.2 -->
      <g style="fill:#262626;" transform="translate(101.644688 310.947679)scale(0.17 -0.17)">
       <use xlink:href="#Inter-Medium-52"/>
       <use x="65.411942" xlink:href="#Inter-Medium-46"/>
       <use x="93.714493" xlink:href="#Inter-Medium-50"/>
      </g>
     </g>
    </g>
    <g id="ytick_7">
     <g id="line2d_23">
      <path clip-path="url(#pbf2160d1b4)" d="M 135 188.68927 
L 972 188.68927 
" style="fill:none;stroke:#ffffff;stroke-linecap:round;stroke-width:0.8;"/>
     </g>
     <g id="line2d_24">
      <g>
       <use style="fill:#262626;stroke:#262626;stroke-width:0.8;" x="135" xlink:href="#m4963dc2dfa" y="188.68927"/>
      </g>
     </g>
     <g id="text_17">
      <!-- 4.3 -->
      <g style="fill:#262626;" transform="translate(101.11875 194.871692)scale(0.17 -0.17)">
       <use xlink:href="#Inter-Medium-52"/>
       <use x="65.411942" xlink:href="#Inter-Medium-46"/>
       <use x="93.714493" xlink:href="#Inter-Medium-51"/>
      </g>
     </g>
    </g>
    <g id="text_18">
     <!-- Average review overall score -->
     <defs>
      <path d="M 14.140625 0 
L 20.8125 19.25 
L 49.21875 19.25 
L 55.859375 0 
L 67.515625 0 
L 41.34375 72.734375 
L 28.65625 72.734375 
L 2.484375 0 
z
M 24 28.484375 
L 34.734375 59.515625 
L 35.296875 59.515625 
L 46.03125 28.484375 
z
" id="Inter-Medium-65"/>
      <path d="M 53.796875 54.546875 
L 42.40625 54.546875 
L 28.625 12.578125 
L 28.0625 12.578125 
L 14.234375 54.546875 
L 2.84375 54.546875 
L 22.65625 0 
L 34.015625 0 
z
" id="Inter-Medium-118"/>
      <path d="M 30.640625 -1.09375 
C 42.546875 -1.09375 50.953125 4.765625 53.375 13.640625 
L 43.328125 15.453125 
C 41.40625 10.296875 36.796875 7.671875 30.75 7.671875 
C 21.65625 7.671875 15.5625 13.5625 15.265625 24.078125 
L 54.046875 24.078125 
L 54.046875 27.84375 
C 54.046875 47.546875 42.265625 55.25 29.90625 55.25 
C 14.703125 55.25 4.6875 43.671875 4.6875 26.921875 
C 4.6875 9.984375 14.5625 -1.09375 30.640625 -1.09375 
z
M 15.3125 32.03125 
C 15.734375 39.765625 21.34375 46.484375 29.96875 46.484375 
C 38.21875 46.484375 43.609375 40.375 43.640625 32.03125 
z
" id="Inter-Medium-101"/>
      <path d="M 7.140625 0 
L 17.75 0 
L 17.75 33.3125 
C 17.75 40.40625 23.265625 45.5625 30.609375 45.5625 
C 32.671875 45.5625 34.265625 45.140625 35.546875 44.5 
L 38.953125 53.375 
C 37.140625 54.578125 34.796875 55.359375 31.8125 55.359375 
C 25.359375 55.359375 19.953125 51.734375 17.96875 45.875 
L 17.40625 45.875 
L 17.40625 54.546875 
L 7.140625 54.546875 
z
" id="Inter-Medium-114"/>
      <path d="M 23.015625 -1.203125 
C 32.03125 -1.203125 37.109375 3.375 39.140625 7.453125 
L 39.5625 7.453125 
L 39.5625 0 
L 49.9375 0 
L 49.9375 36.21875 
C 49.9375 52.09375 37.4375 55.25 28.765625 55.25 
C 18.890625 55.25 9.796875 51.28125 6.25 41.328125 
L 16.234375 39.0625 
C 17.796875 42.9375 21.765625 46.65625 28.90625 46.65625 
C 35.765625 46.65625 39.28125 43.078125 39.28125 36.890625 
L 39.28125 36.640625 
C 39.28125 32.78125 35.296875 32.84375 25.5 31.71875 
C 15.171875 30.5 4.578125 27.8125 4.578125 15.40625 
C 4.578125 4.6875 12.640625 -1.203125 23.015625 -1.203125 
z
M 25.328125 7.3125 
C 19.3125 7.3125 14.984375 10.015625 14.984375 15.265625 
C 14.984375 20.953125 20.03125 22.96875 26.171875 23.796875 
C 29.625 24.25 37.78125 25.171875 39.3125 26.703125 
L 39.3125 19.671875 
C 39.3125 13.203125 34.15625 7.3125 25.328125 7.3125 
z
" id="Inter-Medium-97"/>
      <path d="M 30.015625 -21.484375 
C 43.890625 -21.484375 54.625 -15.125 54.625 -1.203125 
L 54.625 54.546875 
L 44.21875 54.546875 
L 44.21875 45.703125 
L 43.4375 45.703125 
C 41.546875 49.078125 37.78125 55.25 27.625 55.25 
C 14.453125 55.25 4.765625 44.84375 4.765625 27.484375 
C 4.765625 10.078125 14.671875 0.8125 27.5625 0.8125 
C 37.578125 0.8125 41.4375 6.46875 43.359375 9.9375 
L 44.03125 9.9375 
L 44.03125 -0.78125 
C 44.03125 -9.203125 38.171875 -12.921875 30.109375 -12.921875 
C 21.265625 -12.921875 17.828125 -8.484375 15.953125 -5.46875 
L 6.8125 -9.234375 
C 9.703125 -15.796875 16.96875 -21.484375 30.015625 -21.484375 
z
M 29.90625 9.625 
C 20.421875 9.625 15.484375 16.90625 15.484375 27.625 
C 15.484375 38.109375 20.3125 46.234375 29.90625 46.234375 
C 39.171875 46.234375 44.140625 38.671875 44.140625 27.625 
C 44.140625 16.375 39.0625 9.625 29.90625 9.625 
z
" id="Inter-Medium-103"/>
      <path id="Inter-Medium-32"/>
      <path d="M 7.140625 0 
L 17.75 0 
L 17.75 54.546875 
L 7.140625 54.546875 
z
M 12.5 62.96875 
C 16.15625 62.96875 19.21875 65.796875 19.21875 69.28125 
C 19.21875 72.765625 16.15625 75.640625 12.5 75.640625 
C 8.8125 75.640625 5.796875 72.765625 5.796875 69.28125 
C 5.796875 65.796875 8.8125 62.96875 12.5 62.96875 
z
" id="Inter-Medium-105"/>
      <path d="M 18.96875 0 
L 29.765625 0 
L 40.84375 39.375 
L 41.65625 39.375 
L 52.734375 0 
L 63.5625 0 
L 79.578125 54.546875 
L 68.609375 54.546875 
L 57.984375 14.671875 
L 57.453125 14.671875 
L 46.8125 54.546875 
L 35.828125 54.546875 
L 25.109375 14.484375 
L 24.578125 14.484375 
L 13.890625 54.546875 
L 2.90625 54.546875 
z
" id="Inter-Medium-119"/>
      <path d="M 30.109375 -1.09375 
C 45.484375 -1.09375 55.546875 10.15625 55.546875 27.03125 
C 55.546875 44 45.484375 55.25 30.109375 55.25 
C 14.734375 55.25 4.6875 44 4.6875 27.03125 
C 4.6875 10.15625 14.734375 -1.09375 30.109375 -1.09375 
z
M 30.15625 7.8125 
C 20.09375 7.8125 15.40625 16.578125 15.40625 27.0625 
C 15.40625 37.5 20.09375 46.375 30.15625 46.375 
C 40.125 46.375 44.8125 37.5 44.8125 27.0625 
C 44.8125 16.578125 40.125 7.8125 30.15625 7.8125 
z
" id="Inter-Medium-111"/>
      <path d="M 17.75 72.734375 
L 7.140625 72.734375 
L 7.140625 0 
L 17.75 0 
z
" id="Inter-Medium-108"/>
      <path d="M 48.015625 41.234375 
C 45.8125 49.71875 39.171875 55.25 27.375 55.25 
C 15.0625 55.25 6.328125 48.75 6.328125 39.09375 
C 6.328125 31.359375 11.015625 26.203125 21.234375 23.9375 
L 30.46875 21.90625 
C 35.71875 20.734375 38.171875 18.390625 38.171875 14.984375 
C 38.171875 10.765625 33.671875 7.453125 26.703125 7.453125 
C 20.34375 7.453125 16.265625 10.1875 14.984375 15.546875 
L 4.71875 13.984375 
C 6.5 4.328125 14.53125 -1.09375 26.78125 -1.09375 
C 39.953125 -1.09375 49.078125 5.890625 49.078125 15.765625 
C 49.078125 23.46875 44.171875 28.234375 34.15625 30.546875 
L 25.5 32.53125 
C 19.5 33.953125 16.90625 35.96875 16.9375 39.671875 
C 16.90625 43.859375 21.453125 46.84375 27.484375 46.84375 
C 34.09375 46.84375 37.140625 43.1875 38.390625 39.53125 
z
" id="Inter-Medium-115"/>
      <path d="M 30.109375 -1.09375 
C 43 -1.09375 51.34375 6.640625 52.515625 17.265625 
L 42.1875 17.265625 
C 40.84375 11.359375 36.265625 7.890625 30.1875 7.890625 
C 21.203125 7.890625 15.40625 15.375 15.40625 27.265625 
C 15.40625 38.953125 21.3125 46.3125 30.1875 46.3125 
C 36.9375 46.3125 41.046875 42.046875 42.1875 36.9375 
L 52.515625 36.9375 
C 51.390625 47.9375 42.40625 55.25 30.015625 55.25 
C 14.625 55.25 4.6875 43.671875 4.6875 27.03125 
C 4.6875 10.578125 14.28125 -1.09375 30.109375 -1.09375 
z
" id="Inter-Medium-99"/>
     </defs>
     <g style="fill:#1f77b4;" transform="translate(91.933281 704.67375)rotate(-90)scale(0.24 -0.24)">
      <use xlink:href="#Inter-Medium-65"/>
      <use x="69.99292" xlink:href="#Inter-Medium-118"/>
      <use x="126.63356" xlink:href="#Inter-Medium-101"/>
      <use x="185.36937" xlink:href="#Inter-Medium-114"/>
      <use x="225.21312" xlink:href="#Inter-Medium-97"/>
      <use x="282.137848" xlink:href="#Inter-Medium-103"/>
      <use x="343.856613" xlink:href="#Inter-Medium-101"/>
      <use x="402.592422" xlink:href="#Inter-Medium-32"/>
      <use x="429.083908" xlink:href="#Inter-Medium-114"/>
      <use x="468.927658" xlink:href="#Inter-Medium-101"/>
      <use x="527.663467" xlink:href="#Inter-Medium-118"/>
      <use x="584.304108" xlink:href="#Inter-Medium-105"/>
      <use x="609.197571" xlink:href="#Inter-Medium-101"/>
      <use x="667.93338" xlink:href="#Inter-Medium-119"/>
      <use x="750.4263" xlink:href="#Inter-Medium-32"/>
      <use x="776.917786" xlink:href="#Inter-Medium-111"/>
      <use x="837.145065" xlink:href="#Inter-Medium-118"/>
      <use x="893.785706" xlink:href="#Inter-Medium-101"/>
      <use x="952.521515" xlink:href="#Inter-Medium-114"/>
      <use x="992.365265" xlink:href="#Inter-Medium-97"/>
      <use x="1049.289993" xlink:href="#Inter-Medium-108"/>
      <use x="1074.183456" xlink:href="#Inter-Medium-108"/>
      <use x="1099.07692" xlink:href="#Inter-Medium-32"/>
      <use x="1125.568405" xlink:href="#Inter-Medium-115"/>
      <use x="1179.15506" xlink:href="#Inter-Medium-99"/>
      <use x="1235.937744" xlink:href="#Inter-Medium-111"/>
      <use x="1296.165024" xlink:href="#Inter-Medium-114"/>
      <use x="1336.008774" xlink:href="#Inter-Medium-101"/>
     </g>
    </g>
   </g>
   <g id="line2d_25">
    <path clip-path="url(#pbf2160d1b4)" d="M 173.045455 907.936364 
L 186.965962 686.270079 
L 201.358351 848.980811 
L 215.75074 736.97638 
L 230.143129 707.667937 
L 244.535518 670.470566 
L 259.163848 562.388449 
L 273.084355 538.061963 
L 287.476744 680.463155 
L 301.869133 599.515989 
L 316.261522 570.572821 
L 330.653911 558.960376 
L 345.282241 484.517864 
L 359.438689 536.130807 
L 373.831078 553.21557 
L 388.223467 482.044945 
L 402.615856 489.876236 
L 417.008245 423.210141 
L 431.636575 375.1584 
L 445.557082 382.813273 
L 459.949471 391.438797 
L 474.34186 415.043525 
L 488.734249 409.783326 
L 503.126638 438.032244 
L 517.754968 403.872855 
L 531.675476 375.741011 
L 546.067865 354.786037 
L 560.460254 303.146976 
L 574.852643 250.997122 
L 589.245032 262.243117 
L 603.873362 219.641488 
L 617.793869 166.663636 
L 632.186258 235.072491 
L 646.578647 278.229396 
L 660.971036 267.622358 
L 675.363425 243.954205 
L 689.991755 240.340765 
L 704.148203 247.549213 
L 718.540592 262.848643 
L 732.932981 251.894316 
L 747.32537 263.911622 
L 761.717759 278.692097 
L 776.346089 242.092407 
L 790.266596 214.406658 
L 804.658985 275.754716 
L 819.051374 280.875664 
L 833.443763 292.027854 
L 847.836152 330.457018 
L 862.464482 309.119707 
L 876.384989 252.202546 
L 890.777378 264.218012 
L 905.169767 242.330962 
L 919.562156 289.847861 
L 933.954545 304.765257 
" style="fill:none;stroke:#c73e31;stroke-linecap:round;stroke-width:2;"/>
   </g>
   <g id="patch_3">
    <path d="M 135 945 
L 135 129.6 
" style="fill:none;stroke:#ffffff;stroke-linecap:square;stroke-linejoin:miter;stroke-width:0.8;"/>
   </g>
   <g id="patch_4">
    <path d="M 972 945 
L 972 129.6 
" style="fill:none;stroke:#ffffff;stroke-linecap:square;stroke-linejoin:miter;stroke-width:0.8;"/>
   </g>
   <g id="patch_5">
    <path d="M 135 945 
L 972 945 
" style="fill:none;stroke:#ffffff;stroke-linecap:square;stroke-linejoin:miter;stroke-width:0.8;"/>
   </g>
   <g id="patch_6">
    <path d="M 135 129.6 
L 972 129.6 
" style="fill:none;stroke:#ffffff;stroke-linecap:square;stroke-linejoin:miter;stroke-width:0.8;"/>
   </g>
  </g>
  <g id="axes_2">
   <g id="matplotlib.axis_3">
    <g id="ytick_8">
     <g id="line2d_26">
      <path clip-path="url(#pbf2160d1b4)" d="M 135 863.976426 
L 972 863.976426 
" style="fill:none;stroke:#ffffff;stroke-linecap:round;stroke-width:0.8;"/>
     </g>
     <g id="line2d_27">
      <defs>
       <path d="M 0 0 
L 3.5 0 
" id="m8b0dd4c4da" style="stroke:#262626;stroke-width:0.8;"/>
      </defs>
      <g>
       <use style="fill:#262626;stroke:#262626;stroke-width:0.8;" x="972" xlink:href="#m8b0dd4c4da" y="863.976426"/>
      </g>
     </g>
     <g id="text_19">
      <!-- 200 -->
      <g style="fill:#262626;" transform="translate(979 870.158848)scale(0.17 -0.17)">
       <use xlink:href="#Inter-Medium-50"/>
       <use x="61.32814" xlink:href="#Inter-Medium-48"/>
       <use x="125.923325" xlink:href="#Inter-Medium-48"/>
      </g>
     </g>
    </g>
    <g id="ytick_9">
     <g id="line2d_28">
      <path clip-path="url(#pbf2160d1b4)" d="M 135 765.411543 
L 972 765.411543 
" style="fill:none;stroke:#ffffff;stroke-linecap:round;stroke-width:0.8;"/>
     </g>
     <g id="line2d_29">
      <g>
       <use style="fill:#262626;stroke:#262626;stroke-width:0.8;" x="972" xlink:href="#m8b0dd4c4da" y="765.411543"/>
      </g>
     </g>
     <g id="text_20">
      <!-- 300 -->
      <g style="fill:#262626;" transform="translate(979 771.593965)scale(0.17 -0.17)">
       <use xlink:href="#Inter-Medium-51"/>
       <use x="64.417633" xlink:href="#Inter-Medium-48"/>
       <use x="129.012817" xlink:href="#Inter-Medium-48"/>
      </g>
     </g>
    </g>
    <g id="ytick_10">
     <g id="line2d_30">
      <path clip-path="url(#pbf2160d1b4)" d="M 135 666.846661 
L 972 666.846661 
" style="fill:none;stroke:#ffffff;stroke-linecap:round;stroke-width:0.8;"/>
     </g>
     <g id="line2d_31">
      <g>
       <use style="fill:#262626;stroke:#262626;stroke-width:0.8;" x="972" xlink:href="#m8b0dd4c4da" y="666.846661"/>
      </g>
     </g>
     <g id="text_21">
      <!-- 400 -->
      <g style="fill:#262626;" transform="translate(979 673.029083)scale(0.17 -0.17)">
       <use xlink:href="#Inter-Medium-52"/>
       <use x="65.411942" xlink:href="#Inter-Medium-48"/>
       <use x="130.007126" xlink:href="#Inter-Medium-48"/>
      </g>
     </g>
    </g>
    <g id="ytick_11">
     <g id="line2d_32">
      <path clip-path="url(#pbf2160d1b4)" d="M 135 568.281778 
L 972 568.281778 
" style="fill:none;stroke:#ffffff;stroke-linecap:round;stroke-width:0.8;"/>
     </g>
     <g id="line2d_33">
      <g>
       <use style="fill:#262626;stroke:#262626;stroke-width:0.8;" x="972" xlink:href="#m8b0dd4c4da" y="568.281778"/>
      </g>
     </g>
     <g id="text_22">
      <!-- 500 -->
      <g style="fill:#262626;" transform="translate(979 574.4642)scale(0.17 -0.17)">
       <use xlink:href="#Inter-Medium-53"/>
       <use x="62.002853" xlink:href="#Inter-Medium-48"/>
       <use x="126.598038" xlink:href="#Inter-Medium-48"/>
      </g>
     </g>
    </g>
    <g id="ytick_12">
     <g id="line2d_34">
      <path clip-path="url(#pbf2160d1b4)" d="M 135 469.716895 
L 972 469.716895 
" style="fill:none;stroke:#ffffff;stroke-linecap:round;stroke-width:0.8;"/>
     </g>
     <g id="line2d_35">
      <g>
       <use style="fill:#262626;stroke:#262626;stroke-width:0.8;" x="972" xlink:href="#m8b0dd4c4da" y="469.716895"/>
      </g>
     </g>
     <g id="text_23">
      <!-- 600 -->
      <g style="fill:#262626;" transform="translate(979 475.899317)scale(0.17 -0.17)">
       <use xlink:href="#Inter-Medium-54"/>
       <use x="63.565353" xlink:href="#Inter-Medium-48"/>
       <use x="128.160538" xlink:href="#Inter-Medium-48"/>
      </g>
     </g>
    </g>
    <g id="ytick_13">
     <g id="line2d_36">
      <path clip-path="url(#pbf2160d1b4)" d="M 135 371.152013 
L 972 371.152013 
" style="fill:none;stroke:#ffffff;stroke-linecap:round;stroke-width:0.8;"/>
     </g>
     <g id="line2d_37">
      <g>
       <use style="fill:#262626;stroke:#262626;stroke-width:0.8;" x="972" xlink:href="#m8b0dd4c4da" y="371.152013"/>
      </g>
     </g>
     <g id="text_24">
      <!-- 700 -->
      <g style="fill:#262626;" transform="translate(979 377.334435)scale(0.17 -0.17)">
       <use xlink:href="#Inter-Medium-55"/>
       <use x="57.88353" xlink:href="#Inter-Medium-48"/>
       <use x="122.478714" xlink:href="#Inter-Medium-48"/>
      </g>
     </g>
    </g>
    <g id="ytick_14">
     <g id="line2d_38">
      <path clip-path="url(#pbf2160d1b4)" d="M 135 272.58713 
L 972 272.58713 
" style="fill:none;stroke:#ffffff;stroke-linecap:round;stroke-width:0.8;"/>
     </g>
     <g id="line2d_39">
      <g>
       <use style="fill:#262626;stroke:#262626;stroke-width:0.8;" x="972" xlink:href="#m8b0dd4c4da" y="272.58713"/>
      </g>
     </g>
     <g id="text_25">
      <!-- 800 -->
      <g style="fill:#262626;" transform="translate(979 278.769552)scale(0.17 -0.17)">
       <use xlink:href="#Inter-Medium-56"/>
       <use x="63.139221" xlink:href="#Inter-Medium-48"/>
       <use x="127.734406" xlink:href="#Inter-Medium-48"/>
      </g>
     </g>
    </g>
    <g id="ytick_15">
     <g id="line2d_40">
      <path clip-path="url(#pbf2160d1b4)" d="M 135 174.022247 
L 972 174.022247 
" style="fill:none;stroke:#ffffff;stroke-linecap:round;stroke-width:0.8;"/>
     </g>
     <g id="line2d_41">
      <g>
       <use style="fill:#262626;stroke:#262626;stroke-width:0.8;" x="972" xlink:href="#m8b0dd4c4da" y="174.022247"/>
      </g>
     </g>
     <g id="text_26">
      <!-- 900 -->
      <g style="fill:#262626;" transform="translate(979 180.204669)scale(0.17 -0.17)">
       <use xlink:href="#Inter-Medium-57"/>
       <use x="63.565353" xlink:href="#Inter-Medium-48"/>
       <use x="128.160538" xlink:href="#Inter-Medium-48"/>
      </g>
     </g>
    </g>
    <g id="text_27">
     <!-- Average review length -->
     <defs>
      <path d="M 17.75 32.390625 
C 17.75 41.09375 23.078125 46.0625 30.46875 46.0625 
C 37.671875 46.0625 42.046875 41.328125 42.046875 33.421875 
L 42.046875 0 
L 52.671875 0 
L 52.671875 34.6875 
C 52.671875 48.1875 45.25 55.25 34.09375 55.25 
C 25.890625 55.25 20.53125 51.453125 18 45.671875 
L 17.328125 45.671875 
L 17.328125 54.546875 
L 7.140625 54.546875 
L 7.140625 0 
L 17.75 0 
z
" id="Inter-Medium-110"/>
      <path d="M 32.59375 54.546875 
L 21.421875 54.546875 
L 21.421875 67.609375 
L 10.796875 67.609375 
L 10.796875 54.546875 
L 2.8125 54.546875 
L 2.8125 46.015625 
L 10.796875 46.015625 
L 10.796875 13.8125 
C 10.765625 3.90625 18.328125 -0.890625 26.703125 -0.703125 
C 30.078125 -0.671875 32.359375 -0.03125 33.59375 0.421875 
L 31.671875 9.203125 
C 30.96875 9.0625 29.65625 8.734375 27.953125 8.734375 
C 24.5 8.734375 21.421875 9.875 21.421875 16.015625 
L 21.421875 46.015625 
L 32.59375 46.015625 
z
" id="Inter-Medium-116"/>
      <path d="M 17.75 32.390625 
C 17.75 41.09375 23.265625 46.0625 30.828125 46.0625 
C 38.140625 46.0625 42.515625 41.40625 42.515625 33.421875 
L 42.515625 0 
L 53.125 0 
L 53.125 34.6875 
C 53.125 48.296875 45.671875 55.25 34.453125 55.25 
C 25.953125 55.25 20.84375 51.5625 18.296875 45.671875 
L 17.609375 45.671875 
L 17.609375 72.734375 
L 7.140625 72.734375 
L 7.140625 0 
L 17.75 0 
z
" id="Inter-Medium-104"/>
     </defs>
     <g style="fill:#c73e31;" transform="translate(1034.234688 666.826875)rotate(-90)scale(0.24 -0.24)">
      <use xlink:href="#Inter-Medium-65"/>
      <use x="69.99292" xlink:href="#Inter-Medium-118"/>
      <use x="126.63356" xlink:href="#Inter-Medium-101"/>
      <use x="185.36937" xlink:href="#Inter-Medium-114"/>
      <use x="225.21312" xlink:href="#Inter-Medium-97"/>
      <use x="282.137848" xlink:href="#Inter-Medium-103"/>
      <use x="343.856613" xlink:href="#Inter-Medium-101"/>
      <use x="402.592422" xlink:href="#Inter-Medium-32"/>
      <use x="429.083908" xlink:href="#Inter-Medium-114"/>
      <use x="468.927658" xlink:href="#Inter-Medium-101"/>
      <use x="527.663467" xlink:href="#Inter-Medium-118"/>
      <use x="584.304108" xlink:href="#Inter-Medium-105"/>
      <use x="609.197571" xlink:href="#Inter-Medium-101"/>
      <use x="667.93338" xlink:href="#Inter-Medium-119"/>
      <use x="750.4263" xlink:href="#Inter-Medium-32"/>
      <use x="776.917786" xlink:href="#Inter-Medium-108"/>
      <use x="801.811249" xlink:href="#Inter-Medium-101"/>
      <use x="860.547058" xlink:href="#Inter-Medium-110"/>
      <use x="920.277176" xlink:href="#Inter-Medium-103"/>
      <use x="981.995941" xlink:href="#Inter-Medium-116"/>
      <use x="1019.176346" xlink:href="#Inter-Medium-104"/>
     </g>
    </g>
   </g>
   <g id="line2d_42">
    <path clip-path="url(#pbf2160d1b4)" d="M 173.045455 166.663636 
L 186.965962 261.384553 
L 201.358351 247.78246 
L 215.75074 306.035486 
L 230.143129 272.90494 
L 244.535518 364.876902 
L 259.163848 313.434395 
L 273.084355 293.009696 
L 287.476744 352.95434 
L 301.869133 387.347635 
L 316.261522 436.269289 
L 330.653911 412.374869 
L 345.282241 381.593055 
L 359.438689 382.089977 
L 373.831078 420.892173 
L 388.223467 454.49958 
L 402.615856 497.582241 
L 417.008245 545.667095 
L 431.636575 699.001935 
L 445.557082 695.149695 
L 459.949471 651.919531 
L 474.34186 673.943677 
L 488.734249 683.801131 
L 503.126638 656.372021 
L 517.754968 689.790639 
L 531.675476 680.87304 
L 546.067865 667.420329 
L 560.460254 783.135707 
L 574.852643 847.997012 
L 589.245032 827.195495 
L 603.873362 844.913093 
L 617.793869 855.813007 
L 632.186258 821.174023 
L 646.578647 831.683213 
L 660.971036 824.308643 
L 675.363425 807.132438 
L 689.991755 798.536171 
L 704.148203 787.657041 
L 718.540592 758.589059 
L 732.932981 715.094206 
L 747.32537 833.055793 
L 761.717759 871.517079 
L 776.346089 894.120196 
L 790.266596 896.900745 
L 804.658985 891.709703 
L 819.051374 885.28595 
L 833.443763 893.392248 
L 847.836152 901.63358 
L 862.464482 897.018028 
L 876.384989 906.987406 
L 890.777378 906.438094 
L 905.169767 900.597302 
L 919.562156 892.254387 
L 933.954545 907.936364 
" style="fill:none;stroke:#1f77b4;stroke-linecap:round;stroke-width:2;"/>
   </g>
   <g id="patch_7">
    <path d="M 135 945 
L 135 129.6 
" style="fill:none;stroke:#ffffff;stroke-linecap:square;stroke-linejoin:miter;stroke-width:0.8;"/>
   </g>
   <g id="patch_8">
    <path d="M 972 945 
L 972 129.6 
" style="fill:none;stroke:#ffffff;stroke-linecap:square;stroke-linejoin:miter;stroke-width:0.8;"/>
   </g>
   <g id="patch_9">
    <path d="M 135 945 
L 972 945 
" style="fill:none;stroke:#ffffff;stroke-linecap:square;stroke-linejoin:miter;stroke-width:0.8;"/>
   </g>
   <g id="patch_10">
    <path d="M 135 129.6 
L 972 129.6 
" style="fill:none;stroke:#ffffff;stroke-linecap:square;stroke-linejoin:miter;stroke-width:0.8;"/>
   </g>
  </g>
 </g>
 <defs>
  <clipPath id="pbf2160d1b4">
   <rect height="815.4" width="837" x="135" y="129.6"/>
  </clipPath>
 </defs>
</svg>
