<?xml version="1.0" encoding="utf-8" standalone="no"?>
<!DOCTYPE svg PUBLIC "-//W3C//DTD SVG 1.1//EN"
  "http://www.w3.org/Graphics/SVG/1.1/DTD/svg11.dtd">
<!-- Created with matplotlib (https://matplotlib.org/) -->
<svg height="288pt" version="1.1" viewBox="0 0 432 288" width="432pt" xmlns="http://www.w3.org/2000/svg" xmlns:xlink="http://www.w3.org/1999/xlink">
 <defs>
  <style type="text/css">
*{stroke-linecap:butt;stroke-linejoin:round;white-space:pre;}
  </style>
 </defs>
 <g id="figure_1">
  <g id="patch_1">
   <path d="M 0 288 
L 432 288 
L 432 0 
L 0 0 
z
" style="fill:#ffffff;"/>
  </g>
  <g id="axes_1">
   <g id="patch_2">
    <path d="M 54 252 
L 388.8 252 
L 388.8 34.56 
L 54 34.56 
z
" style="fill:#eaeaf2;"/>
   </g>
   <g id="matplotlib.axis_1">
    <g id="xtick_1">
     <g id="text_1">
      <!-- A3V6Z4RCDGRC44 -->
      <defs>
       <path d="M -0.140625 0 
L 27.34375 71.578125 
L 37.546875 71.578125 
L 66.84375 0 
L 56.0625 0 
L 47.703125 21.6875 
L 17.78125 21.6875 
L 9.90625 0 
z
M 20.515625 29.390625 
L 44.78125 29.390625 
L 37.3125 49.21875 
Q 33.890625 58.25 32.234375 64.0625 
Q 30.859375 57.171875 28.375 50.390625 
z
" id="ArialMT-65"/>
       <path d="M 4.203125 18.890625 
L 12.984375 20.0625 
Q 14.5 12.59375 18.140625 9.296875 
Q 21.78125 6 27 6 
Q 33.203125 6 37.46875 10.296875 
Q 41.75 14.59375 41.75 20.953125 
Q 41.75 27 37.796875 30.921875 
Q 33.84375 34.859375 27.734375 34.859375 
Q 25.25 34.859375 21.53125 33.890625 
L 22.515625 41.609375 
Q 23.390625 41.5 23.921875 41.5 
Q 29.546875 41.5 34.03125 44.421875 
Q 38.53125 47.359375 38.53125 53.46875 
Q 38.53125 58.296875 35.25 61.46875 
Q 31.984375 64.65625 26.8125 64.65625 
Q 21.6875 64.65625 18.265625 61.421875 
Q 14.84375 58.203125 13.875 51.765625 
L 5.078125 53.328125 
Q 6.6875 62.15625 12.390625 67.015625 
Q 18.109375 71.875 26.609375 71.875 
Q 32.46875 71.875 37.390625 69.359375 
Q 42.328125 66.84375 44.9375 62.5 
Q 47.5625 58.15625 47.5625 53.265625 
Q 47.5625 48.640625 45.0625 44.828125 
Q 42.578125 41.015625 37.703125 38.765625 
Q 44.046875 37.3125 47.5625 32.6875 
Q 51.078125 28.078125 51.078125 21.140625 
Q 51.078125 11.765625 44.234375 5.25 
Q 37.40625 -1.265625 26.953125 -1.265625 
Q 17.53125 -1.265625 11.296875 4.34375 
Q 5.078125 9.96875 4.203125 18.890625 
z
" id="ArialMT-51"/>
       <path d="M 28.171875 0 
L 0.4375 71.578125 
L 10.6875 71.578125 
L 29.296875 19.578125 
Q 31.546875 13.328125 33.0625 7.859375 
Q 34.71875 13.71875 36.921875 19.578125 
L 56.25 71.578125 
L 65.921875 71.578125 
L 37.890625 0 
z
" id="ArialMT-86"/>
       <path d="M 49.75 54.046875 
L 41.015625 53.375 
Q 39.84375 58.546875 37.703125 60.890625 
Q 34.125 64.65625 28.90625 64.65625 
Q 24.703125 64.65625 21.53125 62.3125 
Q 17.390625 59.28125 14.984375 53.46875 
Q 12.59375 47.65625 12.5 36.921875 
Q 15.671875 41.75 20.265625 44.09375 
Q 24.859375 46.4375 29.890625 46.4375 
Q 38.671875 46.4375 44.84375 39.96875 
Q 51.03125 33.5 51.03125 23.25 
Q 51.03125 16.5 48.125 10.71875 
Q 45.21875 4.9375 40.140625 1.859375 
Q 35.0625 -1.21875 28.609375 -1.21875 
Q 17.625 -1.21875 10.6875 6.859375 
Q 3.765625 14.9375 3.765625 33.5 
Q 3.765625 54.25 11.421875 63.671875 
Q 18.109375 71.875 29.4375 71.875 
Q 37.890625 71.875 43.28125 67.140625 
Q 48.6875 62.40625 49.75 54.046875 
z
M 13.875 23.1875 
Q 13.875 18.65625 15.796875 14.5 
Q 17.71875 10.359375 21.1875 8.171875 
Q 24.65625 6 28.46875 6 
Q 34.03125 6 38.03125 10.484375 
Q 42.046875 14.984375 42.046875 22.703125 
Q 42.046875 30.125 38.078125 34.390625 
Q 34.125 38.671875 28.125 38.671875 
Q 22.171875 38.671875 18.015625 34.390625 
Q 13.875 30.125 13.875 23.1875 
z
" id="ArialMT-54"/>
       <path d="M 2 0 
L 2 8.796875 
L 38.671875 54.640625 
Q 42.578125 59.515625 46.09375 63.140625 
L 6.15625 63.140625 
L 6.15625 71.578125 
L 57.421875 71.578125 
L 57.421875 63.140625 
L 17.234375 13.484375 
L 12.890625 8.453125 
L 58.59375 8.453125 
L 58.59375 0 
z
" id="ArialMT-90"/>
       <path d="M 32.328125 0 
L 32.328125 17.140625 
L 1.265625 17.140625 
L 1.265625 25.203125 
L 33.9375 71.578125 
L 41.109375 71.578125 
L 41.109375 25.203125 
L 50.78125 25.203125 
L 50.78125 17.140625 
L 41.109375 17.140625 
L 41.109375 0 
z
M 32.328125 25.203125 
L 32.328125 57.46875 
L 9.90625 25.203125 
z
" id="ArialMT-52"/>
       <path d="M 7.859375 0 
L 7.859375 71.578125 
L 39.59375 71.578125 
Q 49.171875 71.578125 54.140625 69.640625 
Q 59.125 67.71875 62.109375 62.828125 
Q 65.09375 57.953125 65.09375 52.046875 
Q 65.09375 44.4375 60.15625 39.203125 
Q 55.21875 33.984375 44.921875 32.5625 
Q 48.6875 30.765625 50.640625 29 
Q 54.78125 25.203125 58.5 19.484375 
L 70.953125 0 
L 59.03125 0 
L 49.5625 14.890625 
Q 45.40625 21.34375 42.71875 24.75 
Q 40.046875 28.171875 37.921875 29.53125 
Q 35.796875 30.90625 33.59375 31.453125 
Q 31.984375 31.78125 28.328125 31.78125 
L 17.328125 31.78125 
L 17.328125 0 
z
M 17.328125 39.984375 
L 37.703125 39.984375 
Q 44.1875 39.984375 47.84375 41.328125 
Q 51.515625 42.671875 53.421875 45.625 
Q 55.328125 48.578125 55.328125 52.046875 
Q 55.328125 57.125 51.640625 60.390625 
Q 47.953125 63.671875 39.984375 63.671875 
L 17.328125 63.671875 
z
" id="ArialMT-82"/>
       <path d="M 58.796875 25.09375 
L 68.265625 22.703125 
Q 65.28125 11.03125 57.546875 4.90625 
Q 49.8125 -1.21875 38.625 -1.21875 
Q 27.046875 -1.21875 19.796875 3.484375 
Q 12.546875 8.203125 8.765625 17.140625 
Q 4.984375 26.078125 4.984375 36.328125 
Q 4.984375 47.515625 9.25 55.828125 
Q 13.53125 64.15625 21.40625 68.46875 
Q 29.296875 72.796875 38.765625 72.796875 
Q 49.515625 72.796875 56.828125 67.328125 
Q 64.15625 61.859375 67.046875 51.953125 
L 57.71875 49.75 
Q 55.21875 57.5625 50.484375 61.125 
Q 45.75 64.703125 38.578125 64.703125 
Q 30.328125 64.703125 24.78125 60.734375 
Q 19.234375 56.78125 16.984375 50.109375 
Q 14.75 43.453125 14.75 36.375 
Q 14.75 27.25 17.40625 20.4375 
Q 20.0625 13.625 25.671875 10.25 
Q 31.296875 6.890625 37.84375 6.890625 
Q 45.796875 6.890625 51.3125 11.46875 
Q 56.84375 16.0625 58.796875 25.09375 
z
" id="ArialMT-67"/>
       <path d="M 7.71875 0 
L 7.71875 71.578125 
L 32.375 71.578125 
Q 40.71875 71.578125 45.125 70.5625 
Q 51.265625 69.140625 55.609375 65.4375 
Q 61.28125 60.640625 64.078125 53.1875 
Q 66.890625 45.75 66.890625 36.1875 
Q 66.890625 28.03125 64.984375 21.734375 
Q 63.09375 15.4375 60.109375 11.296875 
Q 57.125 7.171875 53.578125 4.796875 
Q 50.046875 2.4375 45.046875 1.21875 
Q 40.046875 0 33.546875 0 
z
M 17.1875 8.453125 
L 32.46875 8.453125 
Q 39.546875 8.453125 43.578125 9.765625 
Q 47.609375 11.078125 50 13.484375 
Q 53.375 16.84375 55.25 22.53125 
Q 57.125 28.21875 57.125 36.328125 
Q 57.125 47.5625 53.4375 53.59375 
Q 49.75 59.625 44.484375 61.671875 
Q 40.671875 63.140625 32.234375 63.140625 
L 17.1875 63.140625 
z
" id="ArialMT-68"/>
       <path d="M 41.21875 28.078125 
L 41.21875 36.46875 
L 71.53125 36.53125 
L 71.53125 9.96875 
Q 64.546875 4.390625 57.125 1.578125 
Q 49.703125 -1.21875 41.890625 -1.21875 
Q 31.34375 -1.21875 22.71875 3.296875 
Q 14.109375 7.8125 9.71875 16.359375 
Q 5.328125 24.90625 5.328125 35.453125 
Q 5.328125 45.90625 9.6875 54.953125 
Q 14.0625 64.015625 22.265625 68.40625 
Q 30.46875 72.796875 41.15625 72.796875 
Q 48.921875 72.796875 55.1875 70.28125 
Q 61.46875 67.78125 65.03125 63.28125 
Q 68.609375 58.796875 70.453125 51.5625 
L 61.921875 49.21875 
Q 60.296875 54.6875 57.90625 57.8125 
Q 55.515625 60.9375 51.0625 62.8125 
Q 46.625 64.703125 41.21875 64.703125 
Q 34.71875 64.703125 29.984375 62.71875 
Q 25.25 60.75 22.34375 57.515625 
Q 19.4375 54.296875 17.828125 50.4375 
Q 15.09375 43.796875 15.09375 36.03125 
Q 15.09375 26.46875 18.390625 20.015625 
Q 21.6875 13.578125 27.984375 10.453125 
Q 34.28125 7.328125 41.359375 7.328125 
Q 47.515625 7.328125 53.375 9.6875 
Q 59.234375 12.0625 62.25 14.75 
L 62.25 28.078125 
z
" id="ArialMT-71"/>
      </defs>
      <g style="fill:#262626;" transform="translate(74.398214 350.140625)rotate(-90)scale(0.1 -0.1)">
       <use xlink:href="#ArialMT-65"/>
       <use x="66.699219" xlink:href="#ArialMT-51"/>
       <use x="122.314453" xlink:href="#ArialMT-86"/>
       <use x="189.013672" xlink:href="#ArialMT-54"/>
       <use x="244.628906" xlink:href="#ArialMT-90"/>
       <use x="305.712891" xlink:href="#ArialMT-52"/>
       <use x="361.328125" xlink:href="#ArialMT-82"/>
       <use x="433.544922" xlink:href="#ArialMT-67"/>
       <use x="505.761719" xlink:href="#ArialMT-68"/>
       <use x="577.978516" xlink:href="#ArialMT-71"/>
       <use x="655.761719" xlink:href="#ArialMT-82"/>
       <use x="727.978516" xlink:href="#ArialMT-67"/>
       <use x="800.195312" xlink:href="#ArialMT-52"/>
       <use x="855.810547" xlink:href="#ArialMT-52"/>
      </g>
     </g>
    </g>
    <g id="xtick_2">
     <g id="text_2">
      <!-- AJKWF4W7QD4NS -->
      <defs>
       <path d="M 2.875 20.3125 
L 11.421875 21.484375 
Q 11.765625 13.28125 14.5 10.25 
Q 17.234375 7.234375 22.078125 7.234375 
Q 25.640625 7.234375 28.21875 8.859375 
Q 30.8125 10.5 31.78125 13.296875 
Q 32.765625 16.109375 32.765625 22.265625 
L 32.765625 71.578125 
L 42.234375 71.578125 
L 42.234375 22.796875 
Q 42.234375 13.8125 40.0625 8.875 
Q 37.890625 3.953125 33.171875 1.359375 
Q 28.46875 -1.21875 22.125 -1.21875 
Q 12.703125 -1.21875 7.6875 4.203125 
Q 2.6875 9.625 2.875 20.3125 
z
" id="ArialMT-74"/>
       <path d="M 7.328125 0 
L 7.328125 71.578125 
L 16.796875 71.578125 
L 16.796875 36.078125 
L 52.34375 71.578125 
L 65.1875 71.578125 
L 35.15625 42.578125 
L 66.5 0 
L 54 0 
L 28.515625 36.234375 
L 16.796875 24.8125 
L 16.796875 0 
z
" id="ArialMT-75"/>
       <path d="M 20.21875 0 
L 1.21875 71.578125 
L 10.9375 71.578125 
L 21.828125 24.65625 
Q 23.578125 17.28125 24.859375 10.015625 
Q 27.59375 21.484375 28.078125 23.25 
L 41.703125 71.578125 
L 53.125 71.578125 
L 63.375 35.359375 
Q 67.234375 21.875 68.953125 10.015625 
Q 70.3125 16.796875 72.515625 25.59375 
L 83.734375 71.578125 
L 93.265625 71.578125 
L 73.640625 0 
L 64.5 0 
L 49.421875 54.546875 
Q 47.515625 61.375 47.171875 62.9375 
Q 46.046875 58.015625 45.0625 54.546875 
L 29.890625 0 
z
" id="ArialMT-87"/>
       <path d="M 8.203125 0 
L 8.203125 71.578125 
L 56.5 71.578125 
L 56.5 63.140625 
L 17.671875 63.140625 
L 17.671875 40.96875 
L 51.265625 40.96875 
L 51.265625 32.515625 
L 17.671875 32.515625 
L 17.671875 0 
z
" id="ArialMT-70"/>
       <path d="M 4.734375 62.203125 
L 4.734375 70.65625 
L 51.078125 70.65625 
L 51.078125 63.8125 
Q 44.234375 56.546875 37.515625 44.484375 
Q 30.8125 32.421875 27.15625 19.671875 
Q 24.515625 10.6875 23.78125 0 
L 14.75 0 
Q 14.890625 8.453125 18.0625 20.40625 
Q 21.234375 32.375 27.171875 43.484375 
Q 33.109375 54.59375 39.796875 62.203125 
z
" id="ArialMT-55"/>
       <path d="M 61.96875 7.671875 
Q 68.5625 3.125 74.125 1.03125 
L 71.34375 -5.5625 
Q 63.625 -2.78125 55.953125 3.21875 
Q 48 -1.21875 38.375 -1.21875 
Q 28.65625 -1.21875 20.75 3.46875 
Q 12.84375 8.15625 8.5625 16.640625 
Q 4.296875 25.140625 4.296875 35.796875 
Q 4.296875 46.390625 8.59375 55.078125 
Q 12.890625 63.765625 20.828125 68.3125 
Q 28.765625 72.859375 38.578125 72.859375 
Q 48.484375 72.859375 56.4375 68.140625 
Q 64.40625 63.421875 68.578125 54.953125 
Q 72.75 46.484375 72.75 35.84375 
Q 72.75 27 70.0625 19.9375 
Q 67.390625 12.890625 61.96875 7.671875 
z
M 41.109375 19.78125 
Q 49.3125 17.484375 54.640625 12.9375 
Q 62.984375 20.5625 62.984375 35.84375 
Q 62.984375 44.53125 60.03125 51.015625 
Q 57.078125 57.515625 51.390625 61.109375 
Q 45.703125 64.703125 38.625 64.703125 
Q 28.03125 64.703125 21.046875 57.453125 
Q 14.0625 50.203125 14.0625 35.796875 
Q 14.0625 21.828125 20.96875 14.359375 
Q 27.875 6.890625 38.625 6.890625 
Q 43.703125 6.890625 48.1875 8.796875 
Q 43.75 11.671875 38.8125 12.890625 
z
" id="ArialMT-81"/>
       <path d="M 7.625 0 
L 7.625 71.578125 
L 17.328125 71.578125 
L 54.9375 15.375 
L 54.9375 71.578125 
L 64.015625 71.578125 
L 64.015625 0 
L 54.296875 0 
L 16.703125 56.25 
L 16.703125 0 
z
" id="ArialMT-78"/>
       <path d="M 4.5 23 
L 13.421875 23.78125 
Q 14.0625 18.40625 16.375 14.96875 
Q 18.703125 11.53125 23.578125 9.40625 
Q 28.46875 7.28125 34.578125 7.28125 
Q 39.984375 7.28125 44.140625 8.890625 
Q 48.296875 10.5 50.3125 13.296875 
Q 52.34375 16.109375 52.34375 19.4375 
Q 52.34375 22.796875 50.390625 25.3125 
Q 48.4375 27.828125 43.953125 29.546875 
Q 41.0625 30.671875 31.203125 33.03125 
Q 21.34375 35.40625 17.390625 37.5 
Q 12.25 40.1875 9.734375 44.15625 
Q 7.234375 48.140625 7.234375 53.078125 
Q 7.234375 58.5 10.296875 63.203125 
Q 13.375 67.921875 19.28125 70.359375 
Q 25.203125 72.796875 32.421875 72.796875 
Q 40.375 72.796875 46.453125 70.234375 
Q 52.546875 67.671875 55.8125 62.6875 
Q 59.078125 57.71875 59.328125 51.421875 
L 50.25 50.734375 
Q 49.515625 57.515625 45.28125 60.984375 
Q 41.0625 64.453125 32.8125 64.453125 
Q 24.21875 64.453125 20.28125 61.296875 
Q 16.359375 58.15625 16.359375 53.71875 
Q 16.359375 49.859375 19.140625 47.359375 
Q 21.875 44.875 33.421875 42.265625 
Q 44.96875 39.65625 49.265625 37.703125 
Q 55.515625 34.8125 58.484375 30.390625 
Q 61.46875 25.984375 61.46875 20.21875 
Q 61.46875 14.5 58.203125 9.4375 
Q 54.9375 4.390625 48.796875 1.578125 
Q 42.671875 -1.21875 35.015625 -1.21875 
Q 25.296875 -1.21875 18.71875 1.609375 
Q 12.15625 4.4375 8.421875 10.125 
Q 4.6875 15.828125 4.5 23 
z
" id="ArialMT-83"/>
      </defs>
      <g style="fill:#262626;" transform="translate(80.503803 347.901563)rotate(-90)scale(0.1 -0.1)">
       <use xlink:href="#ArialMT-65"/>
       <use x="66.699219" xlink:href="#ArialMT-74"/>
       <use x="116.699219" xlink:href="#ArialMT-75"/>
       <use x="183.398438" xlink:href="#ArialMT-87"/>
       <use x="277.783203" xlink:href="#ArialMT-70"/>
       <use x="338.867188" xlink:href="#ArialMT-52"/>
       <use x="394.482422" xlink:href="#ArialMT-87"/>
       <use x="488.867188" xlink:href="#ArialMT-55"/>
       <use x="544.482422" xlink:href="#ArialMT-81"/>
       <use x="622.265625" xlink:href="#ArialMT-68"/>
       <use x="694.482422" xlink:href="#ArialMT-52"/>
       <use x="750.097656" xlink:href="#ArialMT-78"/>
       <use x="822.314453" xlink:href="#ArialMT-83"/>
      </g>
     </g>
    </g>
    <g id="xtick_3">
     <g id="text_3">
      <!-- A3W4D8XOGLWUN5 -->
      <defs>
       <path d="M 17.671875 38.8125 
Q 12.203125 40.828125 9.5625 44.53125 
Q 6.9375 48.25 6.9375 53.421875 
Q 6.9375 61.234375 12.546875 66.546875 
Q 18.171875 71.875 27.484375 71.875 
Q 36.859375 71.875 42.578125 66.421875 
Q 48.296875 60.984375 48.296875 53.171875 
Q 48.296875 48.1875 45.671875 44.5 
Q 43.0625 40.828125 37.75 38.8125 
Q 44.34375 36.671875 47.78125 31.875 
Q 51.21875 27.09375 51.21875 20.453125 
Q 51.21875 11.28125 44.71875 5.03125 
Q 38.234375 -1.21875 27.640625 -1.21875 
Q 17.046875 -1.21875 10.546875 5.046875 
Q 4.046875 11.328125 4.046875 20.703125 
Q 4.046875 27.6875 7.59375 32.390625 
Q 11.140625 37.109375 17.671875 38.8125 
z
M 15.921875 53.71875 
Q 15.921875 48.640625 19.1875 45.40625 
Q 22.46875 42.1875 27.6875 42.1875 
Q 32.765625 42.1875 36.015625 45.375 
Q 39.265625 48.578125 39.265625 53.21875 
Q 39.265625 58.0625 35.90625 61.359375 
Q 32.5625 64.65625 27.59375 64.65625 
Q 22.5625 64.65625 19.234375 61.421875 
Q 15.921875 58.203125 15.921875 53.71875 
z
M 13.09375 20.65625 
Q 13.09375 16.890625 14.875 13.375 
Q 16.65625 9.859375 20.171875 7.921875 
Q 23.6875 6 27.734375 6 
Q 34.03125 6 38.125 10.046875 
Q 42.234375 14.109375 42.234375 20.359375 
Q 42.234375 26.703125 38.015625 30.859375 
Q 33.796875 35.015625 27.4375 35.015625 
Q 21.234375 35.015625 17.15625 30.90625 
Q 13.09375 26.8125 13.09375 20.65625 
z
" id="ArialMT-56"/>
       <path d="M 0.4375 0 
L 28.125 37.3125 
L 3.71875 71.578125 
L 14.984375 71.578125 
L 27.984375 53.21875 
Q 32.03125 47.515625 33.734375 44.4375 
Q 36.140625 48.34375 39.40625 52.59375 
L 53.8125 71.578125 
L 64.109375 71.578125 
L 38.96875 37.84375 
L 66.0625 0 
L 54.34375 0 
L 36.328125 25.53125 
Q 34.8125 27.734375 33.203125 30.328125 
Q 30.8125 26.421875 29.78125 24.953125 
L 11.8125 0 
z
" id="ArialMT-88"/>
       <path d="M 4.828125 34.859375 
Q 4.828125 52.6875 14.390625 62.765625 
Q 23.96875 72.859375 39.109375 72.859375 
Q 49.03125 72.859375 56.984375 68.109375 
Q 64.9375 63.375 69.109375 54.90625 
Q 73.296875 46.4375 73.296875 35.6875 
Q 73.296875 24.8125 68.890625 16.21875 
Q 64.5 7.625 56.4375 3.203125 
Q 48.390625 -1.21875 39.0625 -1.21875 
Q 28.953125 -1.21875 20.984375 3.65625 
Q 13.03125 8.546875 8.921875 16.984375 
Q 4.828125 25.4375 4.828125 34.859375 
z
M 14.59375 34.71875 
Q 14.59375 21.78125 21.546875 14.328125 
Q 28.515625 6.890625 39.015625 6.890625 
Q 49.703125 6.890625 56.609375 14.40625 
Q 63.53125 21.921875 63.53125 35.75 
Q 63.53125 44.484375 60.578125 51 
Q 57.625 57.515625 51.921875 61.109375 
Q 46.234375 64.703125 39.15625 64.703125 
Q 29.109375 64.703125 21.84375 57.78125 
Q 14.59375 50.875 14.59375 34.71875 
z
" id="ArialMT-79"/>
       <path d="M 7.328125 0 
L 7.328125 71.578125 
L 16.796875 71.578125 
L 16.796875 8.453125 
L 52.046875 8.453125 
L 52.046875 0 
z
" id="ArialMT-76"/>
       <path d="M 54.6875 71.578125 
L 64.15625 71.578125 
L 64.15625 30.21875 
Q 64.15625 19.4375 61.71875 13.078125 
Q 59.28125 6.734375 52.90625 2.75 
Q 46.53125 -1.21875 36.1875 -1.21875 
Q 26.125 -1.21875 19.71875 2.25 
Q 13.328125 5.71875 10.59375 12.28125 
Q 7.859375 18.84375 7.859375 30.21875 
L 7.859375 71.578125 
L 17.328125 71.578125 
L 17.328125 30.28125 
Q 17.328125 20.953125 19.0625 16.53125 
Q 20.796875 12.109375 25.015625 9.71875 
Q 29.25 7.328125 35.359375 7.328125 
Q 45.796875 7.328125 50.234375 12.0625 
Q 54.6875 16.796875 54.6875 30.28125 
z
" id="ArialMT-85"/>
       <path d="M 4.15625 18.75 
L 13.375 19.53125 
Q 14.40625 12.796875 18.140625 9.390625 
Q 21.875 6 27.15625 6 
Q 33.5 6 37.890625 10.78125 
Q 42.28125 15.578125 42.28125 23.484375 
Q 42.28125 31 38.0625 35.34375 
Q 33.84375 39.703125 27 39.703125 
Q 22.75 39.703125 19.328125 37.765625 
Q 15.921875 35.84375 13.96875 32.765625 
L 5.71875 33.84375 
L 12.640625 70.609375 
L 48.25 70.609375 
L 48.25 62.203125 
L 19.671875 62.203125 
L 15.828125 42.96875 
Q 22.265625 47.46875 29.34375 47.46875 
Q 38.71875 47.46875 45.15625 40.96875 
Q 51.609375 34.46875 51.609375 24.265625 
Q 51.609375 14.546875 45.953125 7.46875 
Q 39.0625 -1.21875 27.15625 -1.21875 
Q 17.390625 -1.21875 11.203125 4.25 
Q 5.03125 9.71875 4.15625 18.75 
z
" id="ArialMT-53"/>
      </defs>
      <g style="fill:#262626;" transform="translate(86.609393 356.234375)rotate(-90)scale(0.1 -0.1)">
       <use xlink:href="#ArialMT-65"/>
       <use x="66.699219" xlink:href="#ArialMT-51"/>
       <use x="122.314453" xlink:href="#ArialMT-87"/>
       <use x="216.699219" xlink:href="#ArialMT-52"/>
       <use x="272.314453" xlink:href="#ArialMT-68"/>
       <use x="344.53125" xlink:href="#ArialMT-56"/>
       <use x="400.146484" xlink:href="#ArialMT-88"/>
       <use x="466.845703" xlink:href="#ArialMT-79"/>
       <use x="544.628906" xlink:href="#ArialMT-71"/>
       <use x="622.412109" xlink:href="#ArialMT-76"/>
       <use x="677.917969" xlink:href="#ArialMT-87"/>
       <use x="772.302734" xlink:href="#ArialMT-85"/>
       <use x="844.519531" xlink:href="#ArialMT-78"/>
       <use x="916.736328" xlink:href="#ArialMT-53"/>
      </g>
     </g>
    </g>
    <g id="xtick_4">
     <g id="text_4">
      <!-- A2QHS1ZCIQOL7E -->
      <defs>
       <path d="M 50.34375 8.453125 
L 50.34375 0 
L 3.03125 0 
Q 2.9375 3.171875 4.046875 6.109375 
Q 5.859375 10.9375 9.828125 15.625 
Q 13.8125 20.3125 21.34375 26.46875 
Q 33.015625 36.03125 37.109375 41.625 
Q 41.21875 47.21875 41.21875 52.203125 
Q 41.21875 57.421875 37.46875 61 
Q 33.734375 64.59375 27.734375 64.59375 
Q 21.390625 64.59375 17.578125 60.78125 
Q 13.765625 56.984375 13.71875 50.25 
L 4.6875 51.171875 
Q 5.609375 61.28125 11.65625 66.578125 
Q 17.71875 71.875 27.9375 71.875 
Q 38.234375 71.875 44.234375 66.15625 
Q 50.25 60.453125 50.25 52 
Q 50.25 47.703125 48.484375 43.546875 
Q 46.734375 39.40625 42.65625 34.8125 
Q 38.578125 30.21875 29.109375 22.21875 
Q 21.1875 15.578125 18.9375 13.203125 
Q 16.703125 10.84375 15.234375 8.453125 
z
" id="ArialMT-50"/>
       <path d="M 8.015625 0 
L 8.015625 71.578125 
L 17.484375 71.578125 
L 17.484375 42.1875 
L 54.6875 42.1875 
L 54.6875 71.578125 
L 64.15625 71.578125 
L 64.15625 0 
L 54.6875 0 
L 54.6875 33.734375 
L 17.484375 33.734375 
L 17.484375 0 
z
" id="ArialMT-72"/>
       <path d="M 37.25 0 
L 28.46875 0 
L 28.46875 56 
Q 25.296875 52.984375 20.140625 49.953125 
Q 14.984375 46.921875 10.890625 45.40625 
L 10.890625 53.90625 
Q 18.265625 57.375 23.78125 62.296875 
Q 29.296875 67.234375 31.59375 71.875 
L 37.25 71.875 
z
" id="ArialMT-49"/>
       <path d="M 9.328125 0 
L 9.328125 71.578125 
L 18.796875 71.578125 
L 18.796875 0 
z
" id="ArialMT-73"/>
       <path d="M 7.90625 0 
L 7.90625 71.578125 
L 59.671875 71.578125 
L 59.671875 63.140625 
L 17.390625 63.140625 
L 17.390625 41.21875 
L 56.984375 41.21875 
L 56.984375 32.8125 
L 17.390625 32.8125 
L 17.390625 8.453125 
L 61.328125 8.453125 
L 61.328125 0 
z
" id="ArialMT-69"/>
      </defs>
      <g style="fill:#262626;" transform="translate(92.714982 347.91875)rotate(-90)scale(0.1 -0.1)">
       <use xlink:href="#ArialMT-65"/>
       <use x="66.699219" xlink:href="#ArialMT-50"/>
       <use x="122.314453" xlink:href="#ArialMT-81"/>
       <use x="200.097656" xlink:href="#ArialMT-72"/>
       <use x="272.314453" xlink:href="#ArialMT-83"/>
       <use x="339.013672" xlink:href="#ArialMT-49"/>
       <use x="394.628906" xlink:href="#ArialMT-90"/>
       <use x="455.712891" xlink:href="#ArialMT-67"/>
       <use x="527.929688" xlink:href="#ArialMT-73"/>
       <use x="555.712891" xlink:href="#ArialMT-81"/>
       <use x="633.496094" xlink:href="#ArialMT-79"/>
       <use x="711.279297" xlink:href="#ArialMT-76"/>
       <use x="766.894531" xlink:href="#ArialMT-55"/>
       <use x="822.509766" xlink:href="#ArialMT-69"/>
      </g>
     </g>
    </g>
    <g id="xtick_5">
     <g id="text_5">
      <!-- A2TCG2HV1VJP6V -->
      <defs>
       <path d="M 25.921875 0 
L 25.921875 63.140625 
L 2.34375 63.140625 
L 2.34375 71.578125 
L 59.078125 71.578125 
L 59.078125 63.140625 
L 35.40625 63.140625 
L 35.40625 0 
z
" id="ArialMT-84"/>
       <path d="M 7.71875 0 
L 7.71875 71.578125 
L 34.71875 71.578125 
Q 41.84375 71.578125 45.609375 70.90625 
Q 50.875 70.015625 54.4375 67.546875 
Q 58.015625 65.09375 60.1875 60.640625 
Q 62.359375 56.203125 62.359375 50.875 
Q 62.359375 41.75 56.546875 35.421875 
Q 50.734375 29.109375 35.546875 29.109375 
L 17.1875 29.109375 
L 17.1875 0 
z
M 17.1875 37.546875 
L 35.6875 37.546875 
Q 44.875 37.546875 48.734375 40.96875 
Q 52.59375 44.390625 52.59375 50.59375 
Q 52.59375 55.078125 50.3125 58.265625 
Q 48.046875 61.46875 44.34375 62.5 
Q 41.9375 63.140625 35.5 63.140625 
L 17.1875 63.140625 
z
" id="ArialMT-80"/>
      </defs>
      <g style="fill:#262626;" transform="translate(98.820572 347.925)rotate(-90)scale(0.1 -0.1)">
       <use xlink:href="#ArialMT-65"/>
       <use x="66.699219" xlink:href="#ArialMT-50"/>
       <use x="122.314453" xlink:href="#ArialMT-84"/>
       <use x="183.398438" xlink:href="#ArialMT-67"/>
       <use x="255.615234" xlink:href="#ArialMT-71"/>
       <use x="333.398438" xlink:href="#ArialMT-50"/>
       <use x="389.013672" xlink:href="#ArialMT-72"/>
       <use x="461.230469" xlink:href="#ArialMT-86"/>
       <use x="527.929688" xlink:href="#ArialMT-49"/>
       <use x="583.544922" xlink:href="#ArialMT-86"/>
       <use x="650.244141" xlink:href="#ArialMT-74"/>
       <use x="700.244141" xlink:href="#ArialMT-80"/>
       <use x="766.943359" xlink:href="#ArialMT-54"/>
       <use x="822.558594" xlink:href="#ArialMT-86"/>
      </g>
     </g>
    </g>
    <g id="xtick_6">
     <g id="text_6">
      <!-- A29BQ6B90Y1R5F -->
      <defs>
       <path d="M 5.46875 16.546875 
L 13.921875 17.328125 
Q 14.984375 11.375 18.015625 8.6875 
Q 21.046875 6 25.78125 6 
Q 29.828125 6 32.875 7.859375 
Q 35.9375 9.71875 37.890625 12.8125 
Q 39.84375 15.921875 41.15625 21.1875 
Q 42.484375 26.46875 42.484375 31.9375 
Q 42.484375 32.515625 42.4375 33.6875 
Q 39.796875 29.5 35.234375 26.875 
Q 30.671875 24.265625 25.34375 24.265625 
Q 16.453125 24.265625 10.296875 30.703125 
Q 4.15625 37.15625 4.15625 47.703125 
Q 4.15625 58.59375 10.578125 65.234375 
Q 17 71.875 26.65625 71.875 
Q 33.640625 71.875 39.421875 68.109375 
Q 45.21875 64.359375 48.21875 57.390625 
Q 51.21875 50.4375 51.21875 37.25 
Q 51.21875 23.53125 48.234375 15.40625 
Q 45.265625 7.28125 39.375 3.03125 
Q 33.5 -1.21875 25.59375 -1.21875 
Q 17.1875 -1.21875 11.859375 3.4375 
Q 6.546875 8.109375 5.46875 16.546875 
z
M 41.453125 48.140625 
Q 41.453125 55.71875 37.421875 60.15625 
Q 33.40625 64.59375 27.734375 64.59375 
Q 21.875 64.59375 17.53125 59.8125 
Q 13.1875 55.03125 13.1875 47.40625 
Q 13.1875 40.578125 17.3125 36.296875 
Q 21.4375 32.03125 27.484375 32.03125 
Q 33.59375 32.03125 37.515625 36.296875 
Q 41.453125 40.578125 41.453125 48.140625 
z
" id="ArialMT-57"/>
       <path d="M 7.328125 0 
L 7.328125 71.578125 
L 34.1875 71.578125 
Q 42.390625 71.578125 47.34375 69.40625 
Q 52.296875 67.234375 55.09375 62.71875 
Q 57.90625 58.203125 57.90625 53.265625 
Q 57.90625 48.6875 55.421875 44.625 
Q 52.9375 40.578125 47.90625 38.09375 
Q 54.390625 36.1875 57.875 31.59375 
Q 61.375 27 61.375 20.75 
Q 61.375 15.71875 59.25 11.390625 
Q 57.125 7.078125 54 4.734375 
Q 50.875 2.390625 46.15625 1.1875 
Q 41.453125 0 34.625 0 
z
M 16.796875 41.5 
L 32.28125 41.5 
Q 38.578125 41.5 41.3125 42.328125 
Q 44.921875 43.40625 46.75 45.890625 
Q 48.578125 48.390625 48.578125 52.15625 
Q 48.578125 55.71875 46.875 58.421875 
Q 45.171875 61.140625 41.984375 62.140625 
Q 38.8125 63.140625 31.109375 63.140625 
L 16.796875 63.140625 
z
M 16.796875 8.453125 
L 34.625 8.453125 
Q 39.203125 8.453125 41.0625 8.796875 
Q 44.34375 9.375 46.53125 10.734375 
Q 48.734375 12.109375 50.140625 14.71875 
Q 51.5625 17.328125 51.5625 20.75 
Q 51.5625 24.75 49.515625 27.703125 
Q 47.46875 30.671875 43.828125 31.859375 
Q 40.1875 33.0625 33.34375 33.0625 
L 16.796875 33.0625 
z
" id="ArialMT-66"/>
       <path d="M 4.15625 35.296875 
Q 4.15625 48 6.765625 55.734375 
Q 9.375 63.484375 14.515625 67.671875 
Q 19.671875 71.875 27.484375 71.875 
Q 33.25 71.875 37.59375 69.546875 
Q 41.9375 67.234375 44.765625 62.859375 
Q 47.609375 58.5 49.21875 52.21875 
Q 50.828125 45.953125 50.828125 35.296875 
Q 50.828125 22.703125 48.234375 14.96875 
Q 45.65625 7.234375 40.5 3 
Q 35.359375 -1.21875 27.484375 -1.21875 
Q 17.140625 -1.21875 11.234375 6.203125 
Q 4.15625 15.140625 4.15625 35.296875 
z
M 13.1875 35.296875 
Q 13.1875 17.671875 17.3125 11.828125 
Q 21.4375 6 27.484375 6 
Q 33.546875 6 37.671875 11.859375 
Q 41.796875 17.71875 41.796875 35.296875 
Q 41.796875 52.984375 37.671875 58.78125 
Q 33.546875 64.59375 27.390625 64.59375 
Q 21.34375 64.59375 17.71875 59.46875 
Q 13.1875 52.9375 13.1875 35.296875 
z
" id="ArialMT-48"/>
       <path d="M 27.875 0 
L 27.875 30.328125 
L 0.296875 71.578125 
L 11.8125 71.578125 
L 25.921875 50 
Q 29.828125 43.953125 33.203125 37.890625 
Q 36.421875 43.5 41.015625 50.53125 
L 54.890625 71.578125 
L 65.921875 71.578125 
L 37.359375 30.328125 
L 37.359375 0 
z
" id="ArialMT-89"/>
      </defs>
      <g style="fill:#262626;" transform="translate(104.926161 345.715625)rotate(-90)scale(0.1 -0.1)">
       <use xlink:href="#ArialMT-65"/>
       <use x="66.699219" xlink:href="#ArialMT-50"/>
       <use x="122.314453" xlink:href="#ArialMT-57"/>
       <use x="177.929688" xlink:href="#ArialMT-66"/>
       <use x="244.628906" xlink:href="#ArialMT-81"/>
       <use x="322.412109" xlink:href="#ArialMT-54"/>
       <use x="378.027344" xlink:href="#ArialMT-66"/>
       <use x="444.726562" xlink:href="#ArialMT-57"/>
       <use x="500.341797" xlink:href="#ArialMT-48"/>
       <use x="555.957031" xlink:href="#ArialMT-89"/>
       <use x="622.65625" xlink:href="#ArialMT-49"/>
       <use x="678.271484" xlink:href="#ArialMT-82"/>
       <use x="750.488281" xlink:href="#ArialMT-53"/>
       <use x="806.103516" xlink:href="#ArialMT-70"/>
      </g>
     </g>
    </g>
    <g id="xtick_7">
     <g id="text_7">
      <!-- A119Q9NFGVOEJZ -->
      <g style="fill:#262626;" transform="translate(111.031751 349.015625)rotate(-90)scale(0.1 -0.1)">
       <use xlink:href="#ArialMT-65"/>
       <use x="66.699219" xlink:href="#ArialMT-49"/>
       <use x="122.205078" xlink:href="#ArialMT-49"/>
       <use x="177.820312" xlink:href="#ArialMT-57"/>
       <use x="233.435547" xlink:href="#ArialMT-81"/>
       <use x="311.21875" xlink:href="#ArialMT-57"/>
       <use x="366.833984" xlink:href="#ArialMT-78"/>
       <use x="439.050781" xlink:href="#ArialMT-70"/>
       <use x="500.134766" xlink:href="#ArialMT-71"/>
       <use x="577.917969" xlink:href="#ArialMT-86"/>
       <use x="644.617188" xlink:href="#ArialMT-79"/>
       <use x="722.400391" xlink:href="#ArialMT-69"/>
       <use x="789.099609" xlink:href="#ArialMT-74"/>
       <use x="839.099609" xlink:href="#ArialMT-90"/>
      </g>
     </g>
    </g>
    <g id="xtick_8">
     <g id="text_8">
      <!-- A2582KMXLK2P06 -->
      <defs>
       <path d="M 7.421875 0 
L 7.421875 71.578125 
L 21.6875 71.578125 
L 38.625 20.90625 
Q 40.96875 13.8125 42.046875 10.296875 
Q 43.265625 14.203125 45.84375 21.78125 
L 62.984375 71.578125 
L 75.734375 71.578125 
L 75.734375 0 
L 66.609375 0 
L 66.609375 59.90625 
L 45.796875 0 
L 37.25 0 
L 16.546875 60.9375 
L 16.546875 0 
z
" id="ArialMT-77"/>
      </defs>
      <g style="fill:#262626;" transform="translate(117.13734 345.16875)rotate(-90)scale(0.1 -0.1)">
       <use xlink:href="#ArialMT-65"/>
       <use x="66.699219" xlink:href="#ArialMT-50"/>
       <use x="122.314453" xlink:href="#ArialMT-53"/>
       <use x="177.929688" xlink:href="#ArialMT-56"/>
       <use x="233.544922" xlink:href="#ArialMT-50"/>
       <use x="289.160156" xlink:href="#ArialMT-75"/>
       <use x="355.859375" xlink:href="#ArialMT-77"/>
       <use x="439.160156" xlink:href="#ArialMT-88"/>
       <use x="505.859375" xlink:href="#ArialMT-76"/>
       <use x="561.474609" xlink:href="#ArialMT-75"/>
       <use x="628.173828" xlink:href="#ArialMT-50"/>
       <use x="683.789062" xlink:href="#ArialMT-80"/>
       <use x="750.488281" xlink:href="#ArialMT-48"/>
       <use x="806.103516" xlink:href="#ArialMT-54"/>
      </g>
     </g>
    </g>
    <g id="xtick_9">
     <g id="text_9">
      <!-- A20DZX38KRBIT8 -->
      <g style="fill:#262626;" transform="translate(123.24293 342.923437)rotate(-90)scale(0.1 -0.1)">
       <use xlink:href="#ArialMT-65"/>
       <use x="66.699219" xlink:href="#ArialMT-50"/>
       <use x="122.314453" xlink:href="#ArialMT-48"/>
       <use x="177.929688" xlink:href="#ArialMT-68"/>
       <use x="250.146484" xlink:href="#ArialMT-90"/>
       <use x="311.230469" xlink:href="#ArialMT-88"/>
       <use x="377.929688" xlink:href="#ArialMT-51"/>
       <use x="433.544922" xlink:href="#ArialMT-56"/>
       <use x="489.160156" xlink:href="#ArialMT-75"/>
       <use x="555.859375" xlink:href="#ArialMT-82"/>
       <use x="628.076172" xlink:href="#ArialMT-66"/>
       <use x="694.775391" xlink:href="#ArialMT-73"/>
       <use x="722.558594" xlink:href="#ArialMT-84"/>
       <use x="783.642578" xlink:href="#ArialMT-56"/>
      </g>
     </g>
    </g>
    <g id="xtick_10">
     <g id="text_10">
      <!-- A74TA8X5YQ7NE -->
      <g style="fill:#262626;" transform="translate(129.348519 341.253125)rotate(-90)scale(0.1 -0.1)">
       <use xlink:href="#ArialMT-65"/>
       <use x="66.699219" xlink:href="#ArialMT-55"/>
       <use x="122.314453" xlink:href="#ArialMT-52"/>
       <use x="177.929688" xlink:href="#ArialMT-84"/>
       <use x="238.904297" xlink:href="#ArialMT-65"/>
       <use x="305.603516" xlink:href="#ArialMT-56"/>
       <use x="361.21875" xlink:href="#ArialMT-88"/>
       <use x="427.917969" xlink:href="#ArialMT-53"/>
       <use x="483.533203" xlink:href="#ArialMT-89"/>
       <use x="550.232422" xlink:href="#ArialMT-81"/>
       <use x="628.015625" xlink:href="#ArialMT-55"/>
       <use x="683.630859" xlink:href="#ArialMT-78"/>
       <use x="755.847656" xlink:href="#ArialMT-69"/>
      </g>
     </g>
    </g>
    <g id="xtick_11">
     <g id="text_11">
      <!-- A3GKMQFL05Z79K -->
      <g style="fill:#262626;" transform="translate(135.454109 348.478125)rotate(-90)scale(0.1 -0.1)">
       <use xlink:href="#ArialMT-65"/>
       <use x="66.699219" xlink:href="#ArialMT-51"/>
       <use x="122.314453" xlink:href="#ArialMT-71"/>
       <use x="200.097656" xlink:href="#ArialMT-75"/>
       <use x="266.796875" xlink:href="#ArialMT-77"/>
       <use x="350.097656" xlink:href="#ArialMT-81"/>
       <use x="427.880859" xlink:href="#ArialMT-70"/>
       <use x="488.964844" xlink:href="#ArialMT-76"/>
       <use x="544.580078" xlink:href="#ArialMT-48"/>
       <use x="600.195312" xlink:href="#ArialMT-53"/>
       <use x="655.810547" xlink:href="#ArialMT-90"/>
       <use x="716.894531" xlink:href="#ArialMT-55"/>
       <use x="772.509766" xlink:href="#ArialMT-57"/>
       <use x="828.125" xlink:href="#ArialMT-75"/>
      </g>
     </g>
    </g>
    <g id="xtick_12">
     <g id="text_12">
      <!-- A1AISPOIIHTHXX -->
      <g style="fill:#262626;" transform="translate(141.559698 341.246875)rotate(-90)scale(0.1 -0.1)">
       <use xlink:href="#ArialMT-65"/>
       <use x="66.699219" xlink:href="#ArialMT-49"/>
       <use x="122.314453" xlink:href="#ArialMT-65"/>
       <use x="189.013672" xlink:href="#ArialMT-73"/>
       <use x="216.796875" xlink:href="#ArialMT-83"/>
       <use x="283.496094" xlink:href="#ArialMT-80"/>
       <use x="350.195312" xlink:href="#ArialMT-79"/>
       <use x="427.978516" xlink:href="#ArialMT-73"/>
       <use x="455.761719" xlink:href="#ArialMT-73"/>
       <use x="483.544922" xlink:href="#ArialMT-72"/>
       <use x="555.761719" xlink:href="#ArialMT-84"/>
       <use x="616.845703" xlink:href="#ArialMT-72"/>
       <use x="689.0625" xlink:href="#ArialMT-88"/>
       <use x="755.761719" xlink:href="#ArialMT-88"/>
      </g>
     </g>
    </g>
    <g id="xtick_13">
     <g id="text_13">
      <!-- A8NHN9UPML858 -->
      <g style="fill:#262626;" transform="translate(147.665288 342.923437)rotate(-90)scale(0.1 -0.1)">
       <use xlink:href="#ArialMT-65"/>
       <use x="66.699219" xlink:href="#ArialMT-56"/>
       <use x="122.314453" xlink:href="#ArialMT-78"/>
       <use x="194.53125" xlink:href="#ArialMT-72"/>
       <use x="266.748047" xlink:href="#ArialMT-78"/>
       <use x="338.964844" xlink:href="#ArialMT-57"/>
       <use x="394.580078" xlink:href="#ArialMT-85"/>
       <use x="466.796875" xlink:href="#ArialMT-80"/>
       <use x="533.496094" xlink:href="#ArialMT-77"/>
       <use x="616.796875" xlink:href="#ArialMT-76"/>
       <use x="672.412109" xlink:href="#ArialMT-56"/>
       <use x="728.027344" xlink:href="#ArialMT-53"/>
       <use x="783.642578" xlink:href="#ArialMT-56"/>
      </g>
     </g>
    </g>
    <g id="xtick_14">
     <g id="text_14">
      <!-- A3J8ABVGK7ZL6H -->
      <g style="fill:#262626;" transform="translate(153.770877 346.264063)rotate(-90)scale(0.1 -0.1)">
       <use xlink:href="#ArialMT-65"/>
       <use x="66.699219" xlink:href="#ArialMT-51"/>
       <use x="122.314453" xlink:href="#ArialMT-74"/>
       <use x="172.314453" xlink:href="#ArialMT-56"/>
       <use x="227.929688" xlink:href="#ArialMT-65"/>
       <use x="294.628906" xlink:href="#ArialMT-66"/>
       <use x="361.328125" xlink:href="#ArialMT-86"/>
       <use x="428.027344" xlink:href="#ArialMT-71"/>
       <use x="505.810547" xlink:href="#ArialMT-75"/>
       <use x="572.509766" xlink:href="#ArialMT-55"/>
       <use x="628.125" xlink:href="#ArialMT-90"/>
       <use x="689.208984" xlink:href="#ArialMT-76"/>
       <use x="744.824219" xlink:href="#ArialMT-54"/>
       <use x="800.439453" xlink:href="#ArialMT-72"/>
      </g>
     </g>
    </g>
    <g id="xtick_15">
     <g id="text_15">
      <!-- AQMWZIH22R6LE -->
      <g style="fill:#262626;" transform="translate(159.876467 343.460938)rotate(-90)scale(0.1 -0.1)">
       <use xlink:href="#ArialMT-65"/>
       <use x="66.699219" xlink:href="#ArialMT-81"/>
       <use x="144.482422" xlink:href="#ArialMT-77"/>
       <use x="227.783203" xlink:href="#ArialMT-87"/>
       <use x="322.167969" xlink:href="#ArialMT-90"/>
       <use x="383.251953" xlink:href="#ArialMT-73"/>
       <use x="411.035156" xlink:href="#ArialMT-72"/>
       <use x="483.251953" xlink:href="#ArialMT-50"/>
       <use x="538.867188" xlink:href="#ArialMT-50"/>
       <use x="594.482422" xlink:href="#ArialMT-82"/>
       <use x="666.699219" xlink:href="#ArialMT-54"/>
       <use x="722.314453" xlink:href="#ArialMT-76"/>
       <use x="777.929688" xlink:href="#ArialMT-69"/>
      </g>
     </g>
    </g>
    <g id="xtick_16">
     <g id="text_16">
      <!-- AWG2O9C42XW5G -->
      <g style="fill:#262626;" transform="translate(165.982056 349.575)rotate(-90)scale(0.1 -0.1)">
       <use xlink:href="#ArialMT-65"/>
       <use x="66.652344" xlink:href="#ArialMT-87"/>
       <use x="161.037109" xlink:href="#ArialMT-71"/>
       <use x="238.820312" xlink:href="#ArialMT-50"/>
       <use x="294.435547" xlink:href="#ArialMT-79"/>
       <use x="372.21875" xlink:href="#ArialMT-57"/>
       <use x="427.833984" xlink:href="#ArialMT-67"/>
       <use x="500.050781" xlink:href="#ArialMT-52"/>
       <use x="555.666016" xlink:href="#ArialMT-50"/>
       <use x="611.28125" xlink:href="#ArialMT-88"/>
       <use x="677.980469" xlink:href="#ArialMT-87"/>
       <use x="772.365234" xlink:href="#ArialMT-53"/>
       <use x="827.980469" xlink:href="#ArialMT-71"/>
      </g>
     </g>
    </g>
    <g id="xtick_17">
     <g id="text_17">
      <!-- A2IGEPJJYKMOWK -->
      <g style="fill:#262626;" transform="translate(172.087646 350.685938)rotate(-90)scale(0.1 -0.1)">
       <use xlink:href="#ArialMT-65"/>
       <use x="66.699219" xlink:href="#ArialMT-50"/>
       <use x="122.314453" xlink:href="#ArialMT-73"/>
       <use x="150.097656" xlink:href="#ArialMT-71"/>
       <use x="227.880859" xlink:href="#ArialMT-69"/>
       <use x="294.580078" xlink:href="#ArialMT-80"/>
       <use x="361.279297" xlink:href="#ArialMT-74"/>
       <use x="411.279297" xlink:href="#ArialMT-74"/>
       <use x="461.279297" xlink:href="#ArialMT-89"/>
       <use x="527.978516" xlink:href="#ArialMT-75"/>
       <use x="594.677734" xlink:href="#ArialMT-77"/>
       <use x="677.978516" xlink:href="#ArialMT-79"/>
       <use x="755.761719" xlink:href="#ArialMT-87"/>
       <use x="850.146484" xlink:href="#ArialMT-75"/>
      </g>
     </g>
    </g>
    <g id="xtick_18">
     <g id="text_18">
      <!-- A25S4PI8ECOWD8 -->
      <g style="fill:#262626;" transform="translate(178.193235 347.925)rotate(-90)scale(0.1 -0.1)">
       <use xlink:href="#ArialMT-65"/>
       <use x="66.699219" xlink:href="#ArialMT-50"/>
       <use x="122.314453" xlink:href="#ArialMT-53"/>
       <use x="177.929688" xlink:href="#ArialMT-83"/>
       <use x="244.628906" xlink:href="#ArialMT-52"/>
       <use x="300.244141" xlink:href="#ArialMT-80"/>
       <use x="366.943359" xlink:href="#ArialMT-73"/>
       <use x="394.726562" xlink:href="#ArialMT-56"/>
       <use x="450.341797" xlink:href="#ArialMT-69"/>
       <use x="517.041016" xlink:href="#ArialMT-67"/>
       <use x="589.257812" xlink:href="#ArialMT-79"/>
       <use x="667.041016" xlink:href="#ArialMT-87"/>
       <use x="761.425781" xlink:href="#ArialMT-68"/>
       <use x="833.642578" xlink:href="#ArialMT-56"/>
      </g>
     </g>
    </g>
    <g id="xtick_19">
     <g id="text_19">
      <!-- A2GBBDNZLYC4A9 -->
      <g style="fill:#262626;" transform="translate(184.298825 350.135938)rotate(-90)scale(0.1 -0.1)">
       <use xlink:href="#ArialMT-65"/>
       <use x="66.699219" xlink:href="#ArialMT-50"/>
       <use x="122.314453" xlink:href="#ArialMT-71"/>
       <use x="200.097656" xlink:href="#ArialMT-66"/>
       <use x="266.796875" xlink:href="#ArialMT-66"/>
       <use x="333.496094" xlink:href="#ArialMT-68"/>
       <use x="405.712891" xlink:href="#ArialMT-78"/>
       <use x="477.929688" xlink:href="#ArialMT-90"/>
       <use x="539.013672" xlink:href="#ArialMT-76"/>
       <use x="594.519531" xlink:href="#ArialMT-89"/>
       <use x="661.21875" xlink:href="#ArialMT-67"/>
       <use x="733.435547" xlink:href="#ArialMT-52"/>
       <use x="789.050781" xlink:href="#ArialMT-65"/>
       <use x="855.75" xlink:href="#ArialMT-57"/>
      </g>
     </g>
    </g>
    <g id="xtick_20">
     <g id="text_20">
      <!-- A15JPYV0L19RF -->
      <g style="fill:#262626;" transform="translate(190.404414 337.376562)rotate(-90)scale(0.1 -0.1)">
       <use xlink:href="#ArialMT-65"/>
       <use x="66.699219" xlink:href="#ArialMT-49"/>
       <use x="122.314453" xlink:href="#ArialMT-53"/>
       <use x="177.929688" xlink:href="#ArialMT-74"/>
       <use x="227.929688" xlink:href="#ArialMT-80"/>
       <use x="294.628906" xlink:href="#ArialMT-89"/>
       <use x="361.328125" xlink:href="#ArialMT-86"/>
       <use x="428.027344" xlink:href="#ArialMT-48"/>
       <use x="483.642578" xlink:href="#ArialMT-76"/>
       <use x="539.257812" xlink:href="#ArialMT-49"/>
       <use x="594.873047" xlink:href="#ArialMT-57"/>
       <use x="650.488281" xlink:href="#ArialMT-82"/>
       <use x="722.705078" xlink:href="#ArialMT-70"/>
      </g>
     </g>
    </g>
    <g id="xtick_21">
     <g id="text_21">
      <!-- A36UKFV79879MD -->
      <g style="fill:#262626;" transform="translate(196.510004 346.81875)rotate(-90)scale(0.1 -0.1)">
       <use xlink:href="#ArialMT-65"/>
       <use x="66.699219" xlink:href="#ArialMT-51"/>
       <use x="122.314453" xlink:href="#ArialMT-54"/>
       <use x="177.929688" xlink:href="#ArialMT-85"/>
       <use x="250.146484" xlink:href="#ArialMT-75"/>
       <use x="316.845703" xlink:href="#ArialMT-70"/>
       <use x="377.929688" xlink:href="#ArialMT-86"/>
       <use x="444.628906" xlink:href="#ArialMT-55"/>
       <use x="500.244141" xlink:href="#ArialMT-57"/>
       <use x="555.859375" xlink:href="#ArialMT-56"/>
       <use x="611.474609" xlink:href="#ArialMT-55"/>
       <use x="667.089844" xlink:href="#ArialMT-57"/>
       <use x="722.705078" xlink:href="#ArialMT-77"/>
       <use x="806.005859" xlink:href="#ArialMT-68"/>
      </g>
     </g>
    </g>
    <g id="xtick_22">
     <g id="text_22">
      <!-- ANAYSRE3LX8GZ -->
      <g style="fill:#262626;" transform="translate(202.615593 344.023438)rotate(-90)scale(0.1 -0.1)">
       <use xlink:href="#ArialMT-65"/>
       <use x="66.699219" xlink:href="#ArialMT-78"/>
       <use x="138.916016" xlink:href="#ArialMT-65"/>
       <use x="205.505859" xlink:href="#ArialMT-89"/>
       <use x="272.205078" xlink:href="#ArialMT-83"/>
       <use x="338.904297" xlink:href="#ArialMT-82"/>
       <use x="411.121094" xlink:href="#ArialMT-69"/>
       <use x="477.820312" xlink:href="#ArialMT-51"/>
       <use x="533.435547" xlink:href="#ArialMT-76"/>
       <use x="589.050781" xlink:href="#ArialMT-88"/>
       <use x="655.75" xlink:href="#ArialMT-56"/>
       <use x="711.365234" xlink:href="#ArialMT-71"/>
       <use x="789.148438" xlink:href="#ArialMT-90"/>
      </g>
     </g>
    </g>
    <g id="xtick_23">
     <g id="text_23">
      <!-- A11V6ZJ2FVQY1D -->
      <g style="fill:#262626;" transform="translate(208.721183 345.690625)rotate(-90)scale(0.1 -0.1)">
       <use xlink:href="#ArialMT-65"/>
       <use x="66.699219" xlink:href="#ArialMT-49"/>
       <use x="122.205078" xlink:href="#ArialMT-49"/>
       <use x="177.820312" xlink:href="#ArialMT-86"/>
       <use x="244.519531" xlink:href="#ArialMT-54"/>
       <use x="300.134766" xlink:href="#ArialMT-90"/>
       <use x="361.21875" xlink:href="#ArialMT-74"/>
       <use x="411.21875" xlink:href="#ArialMT-50"/>
       <use x="466.833984" xlink:href="#ArialMT-70"/>
       <use x="527.917969" xlink:href="#ArialMT-86"/>
       <use x="594.617188" xlink:href="#ArialMT-81"/>
       <use x="672.400391" xlink:href="#ArialMT-89"/>
       <use x="739.099609" xlink:href="#ArialMT-49"/>
       <use x="794.714844" xlink:href="#ArialMT-68"/>
      </g>
     </g>
    </g>
    <g id="xtick_24">
     <g id="text_24">
      <!-- A1TY4TRLA4QK5Y -->
      <g style="fill:#262626;" transform="translate(214.826772 347.371875)rotate(-90)scale(0.1 -0.1)">
       <use xlink:href="#ArialMT-65"/>
       <use x="66.699219" xlink:href="#ArialMT-49"/>
       <use x="122.314453" xlink:href="#ArialMT-84"/>
       <use x="183.398438" xlink:href="#ArialMT-89"/>
       <use x="250.097656" xlink:href="#ArialMT-52"/>
       <use x="305.712891" xlink:href="#ArialMT-84"/>
       <use x="366.796875" xlink:href="#ArialMT-82"/>
       <use x="439.013672" xlink:href="#ArialMT-76"/>
       <use x="494.628906" xlink:href="#ArialMT-65"/>
       <use x="561.328125" xlink:href="#ArialMT-52"/>
       <use x="616.943359" xlink:href="#ArialMT-81"/>
       <use x="694.726562" xlink:href="#ArialMT-75"/>
       <use x="761.425781" xlink:href="#ArialMT-53"/>
       <use x="817.041016" xlink:href="#ArialMT-89"/>
      </g>
     </g>
    </g>
    <g id="xtick_25">
     <g id="text_25">
      <!-- A1RS06313BL6WN -->
      <g style="fill:#262626;" transform="translate(220.932362 347.38125)rotate(-90)scale(0.1 -0.1)">
       <use xlink:href="#ArialMT-65"/>
       <use x="66.699219" xlink:href="#ArialMT-49"/>
       <use x="122.314453" xlink:href="#ArialMT-82"/>
       <use x="194.53125" xlink:href="#ArialMT-83"/>
       <use x="261.230469" xlink:href="#ArialMT-48"/>
       <use x="316.845703" xlink:href="#ArialMT-54"/>
       <use x="372.460938" xlink:href="#ArialMT-51"/>
       <use x="428.076172" xlink:href="#ArialMT-49"/>
       <use x="483.691406" xlink:href="#ArialMT-51"/>
       <use x="539.306641" xlink:href="#ArialMT-66"/>
       <use x="606.005859" xlink:href="#ArialMT-76"/>
       <use x="661.621094" xlink:href="#ArialMT-54"/>
       <use x="717.236328" xlink:href="#ArialMT-87"/>
       <use x="811.621094" xlink:href="#ArialMT-78"/>
      </g>
     </g>
    </g>
    <g id="xtick_26">
     <g id="text_26">
      <!-- A3PASG15BRR40D -->
      <g style="fill:#262626;" transform="translate(227.037951 349.589063)rotate(-90)scale(0.1 -0.1)">
       <use xlink:href="#ArialMT-65"/>
       <use x="66.699219" xlink:href="#ArialMT-51"/>
       <use x="122.314453" xlink:href="#ArialMT-80"/>
       <use x="188.904297" xlink:href="#ArialMT-65"/>
       <use x="255.603516" xlink:href="#ArialMT-83"/>
       <use x="322.302734" xlink:href="#ArialMT-71"/>
       <use x="400.085938" xlink:href="#ArialMT-49"/>
       <use x="455.701172" xlink:href="#ArialMT-53"/>
       <use x="511.316406" xlink:href="#ArialMT-66"/>
       <use x="578.015625" xlink:href="#ArialMT-82"/>
       <use x="650.232422" xlink:href="#ArialMT-82"/>
       <use x="722.449219" xlink:href="#ArialMT-52"/>
       <use x="778.064453" xlink:href="#ArialMT-48"/>
       <use x="833.679688" xlink:href="#ArialMT-68"/>
      </g>
     </g>
    </g>
    <g id="xtick_27">
     <g id="text_27">
      <!-- APS7IH14C8AZ9 -->
      <g style="fill:#262626;" transform="translate(233.14354 336.815625)rotate(-90)scale(0.1 -0.1)">
       <use xlink:href="#ArialMT-65"/>
       <use x="66.699219" xlink:href="#ArialMT-80"/>
       <use x="133.398438" xlink:href="#ArialMT-83"/>
       <use x="200.097656" xlink:href="#ArialMT-55"/>
       <use x="255.712891" xlink:href="#ArialMT-73"/>
       <use x="283.496094" xlink:href="#ArialMT-72"/>
       <use x="355.712891" xlink:href="#ArialMT-49"/>
       <use x="411.328125" xlink:href="#ArialMT-52"/>
       <use x="466.943359" xlink:href="#ArialMT-67"/>
       <use x="539.160156" xlink:href="#ArialMT-56"/>
       <use x="594.775391" xlink:href="#ArialMT-65"/>
       <use x="661.474609" xlink:href="#ArialMT-90"/>
       <use x="722.558594" xlink:href="#ArialMT-57"/>
      </g>
     </g>
    </g>
    <g id="xtick_28">
     <g id="text_28">
      <!-- A319SKSB556033 -->
      <g style="fill:#262626;" transform="translate(239.24913 342.4)rotate(-90)scale(0.1 -0.1)">
       <use xlink:href="#ArialMT-65"/>
       <use x="66.699219" xlink:href="#ArialMT-51"/>
       <use x="122.314453" xlink:href="#ArialMT-49"/>
       <use x="177.929688" xlink:href="#ArialMT-57"/>
       <use x="233.544922" xlink:href="#ArialMT-83"/>
       <use x="300.244141" xlink:href="#ArialMT-75"/>
       <use x="366.943359" xlink:href="#ArialMT-83"/>
       <use x="433.642578" xlink:href="#ArialMT-66"/>
       <use x="500.341797" xlink:href="#ArialMT-53"/>
       <use x="555.957031" xlink:href="#ArialMT-53"/>
       <use x="611.572266" xlink:href="#ArialMT-54"/>
       <use x="667.1875" xlink:href="#ArialMT-48"/>
       <use x="722.802734" xlink:href="#ArialMT-51"/>
       <use x="778.417969" xlink:href="#ArialMT-51"/>
      </g>
     </g>
    </g>
    <g id="xtick_29">
     <g id="text_29">
      <!-- A114TMHW9GRMPB -->
      <g style="fill:#262626;" transform="translate(245.354719 355.671875)rotate(-90)scale(0.1 -0.1)">
       <use xlink:href="#ArialMT-65"/>
       <use x="66.699219" xlink:href="#ArialMT-49"/>
       <use x="122.205078" xlink:href="#ArialMT-49"/>
       <use x="177.820312" xlink:href="#ArialMT-52"/>
       <use x="233.435547" xlink:href="#ArialMT-84"/>
       <use x="294.519531" xlink:href="#ArialMT-77"/>
       <use x="377.820312" xlink:href="#ArialMT-72"/>
       <use x="450.037109" xlink:href="#ArialMT-87"/>
       <use x="544.421875" xlink:href="#ArialMT-57"/>
       <use x="600.037109" xlink:href="#ArialMT-71"/>
       <use x="677.820312" xlink:href="#ArialMT-82"/>
       <use x="750.037109" xlink:href="#ArialMT-77"/>
       <use x="833.337891" xlink:href="#ArialMT-80"/>
       <use x="900.037109" xlink:href="#ArialMT-66"/>
      </g>
     </g>
    </g>
    <g id="xtick_30">
     <g id="text_30">
      <!-- A3DE438TF1A958 -->
      <g style="fill:#262626;" transform="translate(251.460309 342.935938)rotate(-90)scale(0.1 -0.1)">
       <use xlink:href="#ArialMT-65"/>
       <use x="66.699219" xlink:href="#ArialMT-51"/>
       <use x="122.314453" xlink:href="#ArialMT-68"/>
       <use x="194.53125" xlink:href="#ArialMT-69"/>
       <use x="261.230469" xlink:href="#ArialMT-52"/>
       <use x="316.845703" xlink:href="#ArialMT-51"/>
       <use x="372.460938" xlink:href="#ArialMT-56"/>
       <use x="428.076172" xlink:href="#ArialMT-84"/>
       <use x="489.160156" xlink:href="#ArialMT-70"/>
       <use x="550.244141" xlink:href="#ArialMT-49"/>
       <use x="605.859375" xlink:href="#ArialMT-65"/>
       <use x="672.558594" xlink:href="#ArialMT-57"/>
       <use x="728.173828" xlink:href="#ArialMT-53"/>
       <use x="783.789062" xlink:href="#ArialMT-56"/>
      </g>
     </g>
    </g>
    <g id="xtick_31">
     <g id="text_31">
      <!-- A37AO20OXS51QA -->
      <g style="fill:#262626;" transform="translate(257.565898 349.051562)rotate(-90)scale(0.1 -0.1)">
       <use xlink:href="#ArialMT-65"/>
       <use x="66.699219" xlink:href="#ArialMT-51"/>
       <use x="122.314453" xlink:href="#ArialMT-55"/>
       <use x="177.929688" xlink:href="#ArialMT-65"/>
       <use x="244.628906" xlink:href="#ArialMT-79"/>
       <use x="322.412109" xlink:href="#ArialMT-50"/>
       <use x="378.027344" xlink:href="#ArialMT-48"/>
       <use x="433.642578" xlink:href="#ArialMT-79"/>
       <use x="511.425781" xlink:href="#ArialMT-88"/>
       <use x="578.125" xlink:href="#ArialMT-83"/>
       <use x="644.824219" xlink:href="#ArialMT-53"/>
       <use x="700.439453" xlink:href="#ArialMT-49"/>
       <use x="756.054688" xlink:href="#ArialMT-81"/>
       <use x="833.837891" xlink:href="#ArialMT-65"/>
      </g>
     </g>
    </g>
    <g id="xtick_32">
     <g id="text_32">
      <!-- A3Q4NULWZU3RI -->
      <g style="fill:#262626;" transform="translate(263.671488 342.89375)rotate(-90)scale(0.1 -0.1)">
       <use xlink:href="#ArialMT-65"/>
       <use x="66.699219" xlink:href="#ArialMT-51"/>
       <use x="122.314453" xlink:href="#ArialMT-81"/>
       <use x="200.097656" xlink:href="#ArialMT-52"/>
       <use x="255.712891" xlink:href="#ArialMT-78"/>
       <use x="327.929688" xlink:href="#ArialMT-85"/>
       <use x="400.146484" xlink:href="#ArialMT-76"/>
       <use x="455.652344" xlink:href="#ArialMT-87"/>
       <use x="550.037109" xlink:href="#ArialMT-90"/>
       <use x="611.121094" xlink:href="#ArialMT-85"/>
       <use x="683.337891" xlink:href="#ArialMT-51"/>
       <use x="738.953125" xlink:href="#ArialMT-82"/>
       <use x="811.169922" xlink:href="#ArialMT-73"/>
      </g>
     </g>
    </g>
    <g id="xtick_33">
     <g id="text_33">
      <!-- A128WX1VPYJTUU -->
      <g style="fill:#262626;" transform="translate(269.777077 349.585938)rotate(-90)scale(0.1 -0.1)">
       <use xlink:href="#ArialMT-65"/>
       <use x="66.699219" xlink:href="#ArialMT-49"/>
       <use x="122.314453" xlink:href="#ArialMT-50"/>
       <use x="177.929688" xlink:href="#ArialMT-56"/>
       <use x="233.544922" xlink:href="#ArialMT-87"/>
       <use x="327.929688" xlink:href="#ArialMT-88"/>
       <use x="394.628906" xlink:href="#ArialMT-49"/>
       <use x="450.244141" xlink:href="#ArialMT-86"/>
       <use x="516.943359" xlink:href="#ArialMT-80"/>
       <use x="583.642578" xlink:href="#ArialMT-89"/>
       <use x="650.341797" xlink:href="#ArialMT-74"/>
       <use x="700.341797" xlink:href="#ArialMT-84"/>
       <use x="761.425781" xlink:href="#ArialMT-85"/>
       <use x="833.642578" xlink:href="#ArialMT-85"/>
      </g>
     </g>
    </g>
    <g id="xtick_34">
     <g id="text_34">
      <!-- A1MRPX3RM48T2I -->
      <g style="fill:#262626;" transform="translate(275.882667 346.804688)rotate(-90)scale(0.1 -0.1)">
       <use xlink:href="#ArialMT-65"/>
       <use x="66.699219" xlink:href="#ArialMT-49"/>
       <use x="122.314453" xlink:href="#ArialMT-77"/>
       <use x="205.615234" xlink:href="#ArialMT-82"/>
       <use x="277.832031" xlink:href="#ArialMT-80"/>
       <use x="344.53125" xlink:href="#ArialMT-88"/>
       <use x="411.230469" xlink:href="#ArialMT-51"/>
       <use x="466.845703" xlink:href="#ArialMT-82"/>
       <use x="539.0625" xlink:href="#ArialMT-77"/>
       <use x="622.363281" xlink:href="#ArialMT-52"/>
       <use x="677.978516" xlink:href="#ArialMT-56"/>
       <use x="733.59375" xlink:href="#ArialMT-84"/>
       <use x="794.677734" xlink:href="#ArialMT-50"/>
       <use x="850.292969" xlink:href="#ArialMT-73"/>
      </g>
     </g>
    </g>
    <g id="xtick_35">
     <g id="text_35">
      <!-- A2SJA970FO024V -->
      <g style="fill:#262626;" transform="translate(281.988256 343.49375)rotate(-90)scale(0.1 -0.1)">
       <use xlink:href="#ArialMT-65"/>
       <use x="66.699219" xlink:href="#ArialMT-50"/>
       <use x="122.314453" xlink:href="#ArialMT-83"/>
       <use x="189.013672" xlink:href="#ArialMT-74"/>
       <use x="239.013672" xlink:href="#ArialMT-65"/>
       <use x="305.712891" xlink:href="#ArialMT-57"/>
       <use x="361.328125" xlink:href="#ArialMT-55"/>
       <use x="416.943359" xlink:href="#ArialMT-48"/>
       <use x="472.558594" xlink:href="#ArialMT-70"/>
       <use x="533.642578" xlink:href="#ArialMT-79"/>
       <use x="611.425781" xlink:href="#ArialMT-48"/>
       <use x="667.041016" xlink:href="#ArialMT-50"/>
       <use x="722.65625" xlink:href="#ArialMT-52"/>
       <use x="778.271484" xlink:href="#ArialMT-86"/>
      </g>
     </g>
    </g>
    <g id="xtick_36">
     <g id="text_36">
      <!-- A1G0VFQ9198IUF -->
      <g style="fill:#262626;" transform="translate(288.093846 343.478125)rotate(-90)scale(0.1 -0.1)">
       <use xlink:href="#ArialMT-65"/>
       <use x="66.699219" xlink:href="#ArialMT-49"/>
       <use x="122.314453" xlink:href="#ArialMT-71"/>
       <use x="200.097656" xlink:href="#ArialMT-48"/>
       <use x="255.712891" xlink:href="#ArialMT-86"/>
       <use x="322.412109" xlink:href="#ArialMT-70"/>
       <use x="383.496094" xlink:href="#ArialMT-81"/>
       <use x="461.279297" xlink:href="#ArialMT-57"/>
       <use x="516.894531" xlink:href="#ArialMT-49"/>
       <use x="572.509766" xlink:href="#ArialMT-57"/>
       <use x="628.125" xlink:href="#ArialMT-56"/>
       <use x="683.740234" xlink:href="#ArialMT-73"/>
       <use x="711.523438" xlink:href="#ArialMT-85"/>
       <use x="783.740234" xlink:href="#ArialMT-70"/>
      </g>
     </g>
    </g>
    <g id="xtick_37">
     <g id="text_37">
      <!-- AH8G4CRM6FTU3 -->
      <g style="fill:#262626;" transform="translate(294.199435 345.125)rotate(-90)scale(0.1 -0.1)">
       <use xlink:href="#ArialMT-65"/>
       <use x="66.699219" xlink:href="#ArialMT-72"/>
       <use x="138.916016" xlink:href="#ArialMT-56"/>
       <use x="194.53125" xlink:href="#ArialMT-71"/>
       <use x="272.314453" xlink:href="#ArialMT-52"/>
       <use x="327.929688" xlink:href="#ArialMT-67"/>
       <use x="400.146484" xlink:href="#ArialMT-82"/>
       <use x="472.363281" xlink:href="#ArialMT-77"/>
       <use x="555.664062" xlink:href="#ArialMT-54"/>
       <use x="611.279297" xlink:href="#ArialMT-70"/>
       <use x="672.363281" xlink:href="#ArialMT-84"/>
       <use x="733.447266" xlink:href="#ArialMT-85"/>
       <use x="805.664062" xlink:href="#ArialMT-51"/>
      </g>
     </g>
    </g>
    <g id="xtick_38">
     <g id="text_38">
      <!-- A2LPJD19MGBNXJ -->
      <g style="fill:#262626;" transform="translate(300.305025 348.476562)rotate(-90)scale(0.1 -0.1)">
       <use xlink:href="#ArialMT-65"/>
       <use x="66.699219" xlink:href="#ArialMT-50"/>
       <use x="122.314453" xlink:href="#ArialMT-76"/>
       <use x="177.929688" xlink:href="#ArialMT-80"/>
       <use x="244.628906" xlink:href="#ArialMT-74"/>
       <use x="294.628906" xlink:href="#ArialMT-68"/>
       <use x="366.845703" xlink:href="#ArialMT-49"/>
       <use x="422.460938" xlink:href="#ArialMT-57"/>
       <use x="478.076172" xlink:href="#ArialMT-77"/>
       <use x="561.376953" xlink:href="#ArialMT-71"/>
       <use x="639.160156" xlink:href="#ArialMT-66"/>
       <use x="705.859375" xlink:href="#ArialMT-78"/>
       <use x="778.076172" xlink:href="#ArialMT-88"/>
       <use x="844.775391" xlink:href="#ArialMT-74"/>
      </g>
     </g>
    </g>
    <g id="xtick_39">
     <g id="text_39">
      <!-- A1MRL66BXLXD1A -->
      <g style="fill:#262626;" transform="translate(306.410614 348.490625)rotate(-90)scale(0.1 -0.1)">
       <use xlink:href="#ArialMT-65"/>
       <use x="66.699219" xlink:href="#ArialMT-49"/>
       <use x="122.314453" xlink:href="#ArialMT-77"/>
       <use x="205.615234" xlink:href="#ArialMT-82"/>
       <use x="277.832031" xlink:href="#ArialMT-76"/>
       <use x="333.447266" xlink:href="#ArialMT-54"/>
       <use x="389.0625" xlink:href="#ArialMT-54"/>
       <use x="444.677734" xlink:href="#ArialMT-66"/>
       <use x="511.376953" xlink:href="#ArialMT-88"/>
       <use x="578.076172" xlink:href="#ArialMT-76"/>
       <use x="633.691406" xlink:href="#ArialMT-88"/>
       <use x="700.390625" xlink:href="#ArialMT-68"/>
       <use x="772.607422" xlink:href="#ArialMT-49"/>
       <use x="828.222656" xlink:href="#ArialMT-65"/>
      </g>
     </g>
    </g>
    <g id="xtick_40">
     <g id="text_40">
      <!-- AV62333WQDAXR -->
      <g style="fill:#262626;" transform="translate(312.516204 345.135938)rotate(-90)scale(0.1 -0.1)">
       <use xlink:href="#ArialMT-65"/>
       <use x="66.589844" xlink:href="#ArialMT-86"/>
       <use x="133.289062" xlink:href="#ArialMT-54"/>
       <use x="188.904297" xlink:href="#ArialMT-50"/>
       <use x="244.519531" xlink:href="#ArialMT-51"/>
       <use x="300.134766" xlink:href="#ArialMT-51"/>
       <use x="355.75" xlink:href="#ArialMT-51"/>
       <use x="411.365234" xlink:href="#ArialMT-87"/>
       <use x="505.75" xlink:href="#ArialMT-81"/>
       <use x="583.533203" xlink:href="#ArialMT-68"/>
       <use x="655.75" xlink:href="#ArialMT-65"/>
       <use x="722.449219" xlink:href="#ArialMT-88"/>
       <use x="789.148438" xlink:href="#ArialMT-82"/>
      </g>
     </g>
    </g>
    <g id="xtick_41">
     <g id="text_41">
      <!-- ADLVFFE4VBT8 -->
      <g style="fill:#262626;" transform="translate(318.621793 334.56875)rotate(-90)scale(0.1 -0.1)">
       <use xlink:href="#ArialMT-65"/>
       <use x="66.699219" xlink:href="#ArialMT-68"/>
       <use x="138.916016" xlink:href="#ArialMT-76"/>
       <use x="194.421875" xlink:href="#ArialMT-86"/>
       <use x="261.121094" xlink:href="#ArialMT-70"/>
       <use x="322.205078" xlink:href="#ArialMT-70"/>
       <use x="383.289062" xlink:href="#ArialMT-69"/>
       <use x="449.988281" xlink:href="#ArialMT-52"/>
       <use x="505.603516" xlink:href="#ArialMT-86"/>
       <use x="572.302734" xlink:href="#ArialMT-66"/>
       <use x="639.001953" xlink:href="#ArialMT-84"/>
       <use x="700.085938" xlink:href="#ArialMT-56"/>
      </g>
     </g>
    </g>
    <g id="xtick_42">
     <g id="text_42">
      <!-- A21GTH20R33D6B -->
      <g style="fill:#262626;" transform="translate(324.727383 346.81875)rotate(-90)scale(0.1 -0.1)">
       <use xlink:href="#ArialMT-65"/>
       <use x="66.699219" xlink:href="#ArialMT-50"/>
       <use x="122.314453" xlink:href="#ArialMT-49"/>
       <use x="177.929688" xlink:href="#ArialMT-71"/>
       <use x="255.712891" xlink:href="#ArialMT-84"/>
       <use x="316.796875" xlink:href="#ArialMT-72"/>
       <use x="389.013672" xlink:href="#ArialMT-50"/>
       <use x="444.628906" xlink:href="#ArialMT-48"/>
       <use x="500.244141" xlink:href="#ArialMT-82"/>
       <use x="572.460938" xlink:href="#ArialMT-51"/>
       <use x="628.076172" xlink:href="#ArialMT-51"/>
       <use x="683.691406" xlink:href="#ArialMT-68"/>
       <use x="755.908203" xlink:href="#ArialMT-54"/>
       <use x="811.523438" xlink:href="#ArialMT-66"/>
      </g>
     </g>
    </g>
    <g id="xtick_43">
     <g id="text_43">
      <!-- A2A0FBLKJN4ZY5 -->
      <g style="fill:#262626;" transform="translate(330.832972 344.59375)rotate(-90)scale(0.1 -0.1)">
       <use xlink:href="#ArialMT-65"/>
       <use x="66.699219" xlink:href="#ArialMT-50"/>
       <use x="122.314453" xlink:href="#ArialMT-65"/>
       <use x="189.013672" xlink:href="#ArialMT-48"/>
       <use x="244.628906" xlink:href="#ArialMT-70"/>
       <use x="305.712891" xlink:href="#ArialMT-66"/>
       <use x="372.412109" xlink:href="#ArialMT-76"/>
       <use x="428.027344" xlink:href="#ArialMT-75"/>
       <use x="494.726562" xlink:href="#ArialMT-74"/>
       <use x="544.726562" xlink:href="#ArialMT-78"/>
       <use x="616.943359" xlink:href="#ArialMT-52"/>
       <use x="672.558594" xlink:href="#ArialMT-90"/>
       <use x="733.642578" xlink:href="#ArialMT-89"/>
       <use x="800.341797" xlink:href="#ArialMT-53"/>
      </g>
     </g>
    </g>
    <g id="xtick_44">
     <g id="text_44">
      <!-- ADPEAVHFCNLLC -->
      <g style="fill:#262626;" transform="translate(336.938562 345.679688)rotate(-90)scale(0.1 -0.1)">
       <use xlink:href="#ArialMT-65"/>
       <use x="66.699219" xlink:href="#ArialMT-68"/>
       <use x="138.916016" xlink:href="#ArialMT-80"/>
       <use x="205.615234" xlink:href="#ArialMT-69"/>
       <use x="272.314453" xlink:href="#ArialMT-65"/>
       <use x="338.904297" xlink:href="#ArialMT-86"/>
       <use x="405.603516" xlink:href="#ArialMT-72"/>
       <use x="477.820312" xlink:href="#ArialMT-70"/>
       <use x="538.904297" xlink:href="#ArialMT-67"/>
       <use x="611.121094" xlink:href="#ArialMT-78"/>
       <use x="683.337891" xlink:href="#ArialMT-76"/>
       <use x="738.953125" xlink:href="#ArialMT-76"/>
       <use x="794.568359" xlink:href="#ArialMT-67"/>
      </g>
     </g>
    </g>
    <g id="xtick_45">
     <g id="text_45">
      <!-- A1RS0N9O7WCWUN -->
      <g style="fill:#262626;" transform="translate(343.044151 357.35)rotate(-90)scale(0.1 -0.1)">
       <use xlink:href="#ArialMT-65"/>
       <use x="66.699219" xlink:href="#ArialMT-49"/>
       <use x="122.314453" xlink:href="#ArialMT-82"/>
       <use x="194.53125" xlink:href="#ArialMT-83"/>
       <use x="261.230469" xlink:href="#ArialMT-48"/>
       <use x="316.845703" xlink:href="#ArialMT-78"/>
       <use x="389.0625" xlink:href="#ArialMT-57"/>
       <use x="444.677734" xlink:href="#ArialMT-79"/>
       <use x="522.460938" xlink:href="#ArialMT-55"/>
       <use x="578.076172" xlink:href="#ArialMT-87"/>
       <use x="672.460938" xlink:href="#ArialMT-67"/>
       <use x="744.677734" xlink:href="#ArialMT-87"/>
       <use x="839.0625" xlink:href="#ArialMT-85"/>
       <use x="911.279297" xlink:href="#ArialMT-78"/>
      </g>
     </g>
    </g>
    <g id="xtick_46">
     <g id="text_46">
      <!-- A2PSEMWT9TR272 -->
      <g style="fill:#262626;" transform="translate(349.149741 350.692187)rotate(-90)scale(0.1 -0.1)">
       <use xlink:href="#ArialMT-65"/>
       <use x="66.699219" xlink:href="#ArialMT-50"/>
       <use x="122.314453" xlink:href="#ArialMT-80"/>
       <use x="189.013672" xlink:href="#ArialMT-83"/>
       <use x="255.712891" xlink:href="#ArialMT-69"/>
       <use x="322.412109" xlink:href="#ArialMT-77"/>
       <use x="405.712891" xlink:href="#ArialMT-87"/>
       <use x="500.097656" xlink:href="#ArialMT-84"/>
       <use x="561.181641" xlink:href="#ArialMT-57"/>
       <use x="616.796875" xlink:href="#ArialMT-84"/>
       <use x="677.880859" xlink:href="#ArialMT-82"/>
       <use x="750.097656" xlink:href="#ArialMT-50"/>
       <use x="805.712891" xlink:href="#ArialMT-55"/>
       <use x="861.328125" xlink:href="#ArialMT-50"/>
      </g>
     </g>
    </g>
    <g id="xtick_47">
     <g id="text_47">
      <!-- AD0J5KK4WQXNS -->
      <g style="fill:#262626;" transform="translate(355.25533 345.695312)rotate(-90)scale(0.1 -0.1)">
       <use xlink:href="#ArialMT-65"/>
       <use x="66.699219" xlink:href="#ArialMT-68"/>
       <use x="138.916016" xlink:href="#ArialMT-48"/>
       <use x="194.53125" xlink:href="#ArialMT-74"/>
       <use x="244.53125" xlink:href="#ArialMT-53"/>
       <use x="300.146484" xlink:href="#ArialMT-75"/>
       <use x="366.845703" xlink:href="#ArialMT-75"/>
       <use x="433.544922" xlink:href="#ArialMT-52"/>
       <use x="489.160156" xlink:href="#ArialMT-87"/>
       <use x="583.544922" xlink:href="#ArialMT-81"/>
       <use x="661.328125" xlink:href="#ArialMT-88"/>
       <use x="728.027344" xlink:href="#ArialMT-78"/>
       <use x="800.244141" xlink:href="#ArialMT-83"/>
      </g>
     </g>
    </g>
    <g id="xtick_48">
     <g id="text_48">
      <!-- A30JPZ9TZ7I61U -->
      <g style="fill:#262626;" transform="translate(361.36092 339.029688)rotate(-90)scale(0.1 -0.1)">
       <use xlink:href="#ArialMT-65"/>
       <use x="66.699219" xlink:href="#ArialMT-51"/>
       <use x="122.314453" xlink:href="#ArialMT-48"/>
       <use x="177.929688" xlink:href="#ArialMT-74"/>
       <use x="227.929688" xlink:href="#ArialMT-80"/>
       <use x="294.628906" xlink:href="#ArialMT-90"/>
       <use x="355.712891" xlink:href="#ArialMT-57"/>
       <use x="411.328125" xlink:href="#ArialMT-84"/>
       <use x="472.412109" xlink:href="#ArialMT-90"/>
       <use x="533.496094" xlink:href="#ArialMT-55"/>
       <use x="589.111328" xlink:href="#ArialMT-73"/>
       <use x="616.894531" xlink:href="#ArialMT-54"/>
       <use x="672.509766" xlink:href="#ArialMT-49"/>
       <use x="728.125" xlink:href="#ArialMT-85"/>
      </g>
     </g>
    </g>
    <g id="xtick_49">
     <g id="text_49">
      <!-- AMXE382DCAMQO -->
      <g style="fill:#262626;" transform="translate(367.466509 349.023438)rotate(-90)scale(0.1 -0.1)">
       <use xlink:href="#ArialMT-65"/>
       <use x="66.699219" xlink:href="#ArialMT-77"/>
       <use x="150" xlink:href="#ArialMT-88"/>
       <use x="216.699219" xlink:href="#ArialMT-69"/>
       <use x="283.398438" xlink:href="#ArialMT-51"/>
       <use x="339.013672" xlink:href="#ArialMT-56"/>
       <use x="394.628906" xlink:href="#ArialMT-50"/>
       <use x="450.244141" xlink:href="#ArialMT-68"/>
       <use x="522.460938" xlink:href="#ArialMT-67"/>
       <use x="594.677734" xlink:href="#ArialMT-65"/>
       <use x="661.376953" xlink:href="#ArialMT-77"/>
       <use x="744.677734" xlink:href="#ArialMT-81"/>
       <use x="822.460938" xlink:href="#ArialMT-79"/>
      </g>
     </g>
    </g>
    <g id="xtick_50">
     <g id="text_50">
      <!-- AOYGPHW4YMYEO -->
      <g style="fill:#262626;" transform="translate(373.572099 352.907812)rotate(-90)scale(0.1 -0.1)">
       <use xlink:href="#ArialMT-65"/>
       <use x="66.699219" xlink:href="#ArialMT-79"/>
       <use x="144.482422" xlink:href="#ArialMT-89"/>
       <use x="211.181641" xlink:href="#ArialMT-71"/>
       <use x="288.964844" xlink:href="#ArialMT-80"/>
       <use x="355.664062" xlink:href="#ArialMT-72"/>
       <use x="427.880859" xlink:href="#ArialMT-87"/>
       <use x="522.265625" xlink:href="#ArialMT-52"/>
       <use x="577.880859" xlink:href="#ArialMT-89"/>
       <use x="644.580078" xlink:href="#ArialMT-77"/>
       <use x="727.880859" xlink:href="#ArialMT-89"/>
       <use x="794.580078" xlink:href="#ArialMT-69"/>
       <use x="861.279297" xlink:href="#ArialMT-79"/>
      </g>
     </g>
    </g>
    <g id="text_51">
     <!-- Reviewer ID -->
     <defs>
      <path d="M 42.09375 16.703125 
L 51.171875 15.578125 
Q 49.03125 7.625 43.21875 3.21875 
Q 37.40625 -1.171875 28.375 -1.171875 
Q 17 -1.171875 10.328125 5.828125 
Q 3.65625 12.84375 3.65625 25.484375 
Q 3.65625 38.578125 10.390625 45.796875 
Q 17.140625 53.03125 27.875 53.03125 
Q 38.28125 53.03125 44.875 45.953125 
Q 51.46875 38.875 51.46875 26.03125 
Q 51.46875 25.25 51.421875 23.6875 
L 12.75 23.6875 
Q 13.234375 15.140625 17.578125 10.59375 
Q 21.921875 6.0625 28.421875 6.0625 
Q 33.25 6.0625 36.671875 8.59375 
Q 40.09375 11.140625 42.09375 16.703125 
z
M 13.234375 30.90625 
L 42.1875 30.90625 
Q 41.609375 37.453125 38.875 40.71875 
Q 34.671875 45.796875 27.984375 45.796875 
Q 21.921875 45.796875 17.796875 41.75 
Q 13.671875 37.703125 13.234375 30.90625 
z
" id="ArialMT-101"/>
      <path d="M 21 0 
L 1.265625 51.859375 
L 10.546875 51.859375 
L 21.6875 20.796875 
Q 23.484375 15.765625 25 10.359375 
Q 26.171875 14.453125 28.265625 20.21875 
L 39.796875 51.859375 
L 48.828125 51.859375 
L 29.203125 0 
z
" id="ArialMT-118"/>
      <path d="M 6.640625 61.46875 
L 6.640625 71.578125 
L 15.4375 71.578125 
L 15.4375 61.46875 
z
M 6.640625 0 
L 6.640625 51.859375 
L 15.4375 51.859375 
L 15.4375 0 
z
" id="ArialMT-105"/>
      <path d="M 16.15625 0 
L 0.296875 51.859375 
L 9.375 51.859375 
L 17.625 21.921875 
L 20.703125 10.796875 
Q 20.90625 11.625 23.390625 21.484375 
L 31.640625 51.859375 
L 40.671875 51.859375 
L 48.4375 21.78125 
L 51.03125 11.859375 
L 54 21.875 
L 62.890625 51.859375 
L 71.4375 51.859375 
L 55.21875 0 
L 46.09375 0 
L 37.84375 31.0625 
L 35.84375 39.890625 
L 25.34375 0 
z
" id="ArialMT-119"/>
      <path d="M 6.5 0 
L 6.5 51.859375 
L 14.40625 51.859375 
L 14.40625 44 
Q 17.4375 49.515625 20 51.265625 
Q 22.5625 53.03125 25.640625 53.03125 
Q 30.078125 53.03125 34.671875 50.203125 
L 31.640625 42.046875 
Q 28.421875 43.953125 25.203125 43.953125 
Q 22.3125 43.953125 20.015625 42.21875 
Q 17.71875 40.484375 16.75 37.40625 
Q 15.28125 32.71875 15.28125 27.15625 
L 15.28125 0 
z
" id="ArialMT-114"/>
      <path id="ArialMT-32"/>
     </defs>
     <g style="fill:#262626;" transform="translate(194.171875 368.507812)scale(0.1 -0.1)">
      <use xlink:href="#ArialMT-82"/>
      <use x="72.216797" xlink:href="#ArialMT-101"/>
      <use x="127.832031" xlink:href="#ArialMT-118"/>
      <use x="177.832031" xlink:href="#ArialMT-105"/>
      <use x="200.048828" xlink:href="#ArialMT-101"/>
      <use x="255.664062" xlink:href="#ArialMT-119"/>
      <use x="327.880859" xlink:href="#ArialMT-101"/>
      <use x="383.496094" xlink:href="#ArialMT-114"/>
      <use x="416.796875" xlink:href="#ArialMT-32"/>
      <use x="444.580078" xlink:href="#ArialMT-73"/>
      <use x="472.363281" xlink:href="#ArialMT-68"/>
     </g>
    </g>
   </g>
   <g id="matplotlib.axis_2">
    <g id="ytick_1">
     <g id="text_52">
      <!-- 0 -->
      <g style="fill:#262626;" transform="translate(41.439062 255.578906)scale(0.1 -0.1)">
       <use xlink:href="#ArialMT-48"/>
      </g>
     </g>
    </g>
    <g id="ytick_2">
     <g id="text_53">
      <!-- 100 -->
      <g style="fill:#262626;" transform="translate(30.317187 230.169616)scale(0.1 -0.1)">
       <use xlink:href="#ArialMT-49"/>
       <use x="55.615234" xlink:href="#ArialMT-48"/>
       <use x="111.230469" xlink:href="#ArialMT-48"/>
      </g>
     </g>
    </g>
    <g id="ytick_3">
     <g id="text_54">
      <!-- 200 -->
      <g style="fill:#262626;" transform="translate(30.317187 204.760326)scale(0.1 -0.1)">
       <use xlink:href="#ArialMT-50"/>
       <use x="55.615234" xlink:href="#ArialMT-48"/>
       <use x="111.230469" xlink:href="#ArialMT-48"/>
      </g>
     </g>
    </g>
    <g id="ytick_4">
     <g id="text_55">
      <!-- 300 -->
      <g style="fill:#262626;" transform="translate(30.317187 179.351036)scale(0.1 -0.1)">
       <use xlink:href="#ArialMT-51"/>
       <use x="55.615234" xlink:href="#ArialMT-48"/>
       <use x="111.230469" xlink:href="#ArialMT-48"/>
      </g>
     </g>
    </g>
    <g id="ytick_5">
     <g id="text_56">
      <!-- 400 -->
      <g style="fill:#262626;" transform="translate(30.317187 153.941746)scale(0.1 -0.1)">
       <use xlink:href="#ArialMT-52"/>
       <use x="55.615234" xlink:href="#ArialMT-48"/>
       <use x="111.230469" xlink:href="#ArialMT-48"/>
      </g>
     </g>
    </g>
    <g id="ytick_6">
     <g id="text_57">
      <!-- 500 -->
      <g style="fill:#262626;" transform="translate(30.317187 128.532456)scale(0.1 -0.1)">
       <use xlink:href="#ArialMT-53"/>
       <use x="55.615234" xlink:href="#ArialMT-48"/>
       <use x="111.230469" xlink:href="#ArialMT-48"/>
      </g>
     </g>
    </g>
    <g id="ytick_7">
     <g id="text_58">
      <!-- 600 -->
      <g style="fill:#262626;" transform="translate(30.317187 103.123166)scale(0.1 -0.1)">
       <use xlink:href="#ArialMT-54"/>
       <use x="55.615234" xlink:href="#ArialMT-48"/>
       <use x="111.230469" xlink:href="#ArialMT-48"/>
      </g>
     </g>
    </g>
    <g id="ytick_8">
     <g id="text_59">
      <!-- 700 -->
      <g style="fill:#262626;" transform="translate(30.317187 77.713876)scale(0.1 -0.1)">
       <use xlink:href="#ArialMT-55"/>
       <use x="55.615234" xlink:href="#ArialMT-48"/>
       <use x="111.230469" xlink:href="#ArialMT-48"/>
      </g>
     </g>
    </g>
    <g id="ytick_9">
     <g id="text_60">
      <!-- 800 -->
      <g style="fill:#262626;" transform="translate(30.317187 52.304585)scale(0.1 -0.1)">
       <use xlink:href="#ArialMT-56"/>
       <use x="55.615234" xlink:href="#ArialMT-48"/>
       <use x="111.230469" xlink:href="#ArialMT-48"/>
      </g>
     </g>
    </g>
   </g>
   <g id="patch_3">
    <path clip-path="url(#pca73056cd4)" d="M 69.218182 252 
L 74.407933 252 
L 74.407933 44.914286 
L 69.218182 44.914286 
z
" style="fill:#f9bc86;stroke:#ffffff;stroke-linejoin:miter;"/>
   </g>
   <g id="patch_4">
    <path clip-path="url(#pca73056cd4)" d="M 75.323771 252 
L 80.513522 252 
L 80.513522 49.996144 
L 75.323771 49.996144 
z
" style="fill:#f9bc86;stroke:#ffffff;stroke-linejoin:miter;"/>
   </g>
   <g id="patch_5">
    <path clip-path="url(#pca73056cd4)" d="M 81.429361 252 
L 86.619112 252 
L 86.619112 119.617599 
L 81.429361 119.617599 
z
" style="fill:#f9bc86;stroke:#ffffff;stroke-linejoin:miter;"/>
   </g>
   <g id="patch_6">
    <path clip-path="url(#pca73056cd4)" d="M 87.53495 252 
L 92.724701 252 
L 92.724701 132.068151 
L 87.53495 132.068151 
z
" style="fill:#f9bc86;stroke:#ffffff;stroke-linejoin:miter;"/>
   </g>
   <g id="patch_7">
    <path clip-path="url(#pca73056cd4)" d="M 93.64054 252 
L 98.830291 252 
L 98.830291 136.895916 
L 93.64054 136.895916 
z
" style="fill:#f9bc86;stroke:#ffffff;stroke-linejoin:miter;"/>
   </g>
   <g id="patch_8">
    <path clip-path="url(#pca73056cd4)" d="M 99.746129 252 
L 104.93588 252 
L 104.93588 147.567818 
L 99.746129 147.567818 
z
" style="fill:#f9bc86;stroke:#ffffff;stroke-linejoin:miter;"/>
   </g>
   <g id="patch_9">
    <path clip-path="url(#pca73056cd4)" d="M 105.851719 252 
L 111.04147 252 
L 111.04147 162.305206 
L 105.851719 162.305206 
z
" style="fill:#f9bc86;stroke:#ffffff;stroke-linejoin:miter;"/>
   </g>
   <g id="patch_10">
    <path clip-path="url(#pca73056cd4)" d="M 111.957308 252 
L 117.147059 252 
L 117.147059 172.214829 
L 111.957308 172.214829 
z
" style="fill:#f9bc86;stroke:#ffffff;stroke-linejoin:miter;"/>
   </g>
   <g id="patch_11">
    <path clip-path="url(#pca73056cd4)" d="M 118.062898 252 
L 123.252649 252 
L 123.252649 180.345802 
L 118.062898 180.345802 
z
" style="fill:#f9bc86;stroke:#ffffff;stroke-linejoin:miter;"/>
   </g>
   <g id="patch_12">
    <path clip-path="url(#pca73056cd4)" d="M 124.168487 252 
L 129.358238 252 
L 129.358238 185.42766 
L 124.168487 185.42766 
z
" style="fill:#f9bc86;stroke:#ffffff;stroke-linejoin:miter;"/>
   </g>
   <g id="patch_13">
    <path clip-path="url(#pca73056cd4)" d="M 130.274077 252 
L 135.463828 252 
L 135.463828 189.747239 
L 130.274077 189.747239 
z
" style="fill:#f9bc86;stroke:#ffffff;stroke-linejoin:miter;"/>
   </g>
   <g id="patch_14">
    <path clip-path="url(#pca73056cd4)" d="M 136.379666 252 
L 141.569417 252 
L 141.569417 191.271797 
L 136.379666 191.271797 
z
" style="fill:#f9bc86;stroke:#ffffff;stroke-linejoin:miter;"/>
   </g>
   <g id="patch_15">
    <path clip-path="url(#pca73056cd4)" d="M 142.485256 252 
L 147.675007 252 
L 147.675007 194.575004 
L 142.485256 194.575004 
z
" style="fill:#f9bc86;stroke:#ffffff;stroke-linejoin:miter;"/>
   </g>
   <g id="patch_16">
    <path clip-path="url(#pca73056cd4)" d="M 148.590845 252 
L 153.780596 252 
L 153.780596 197.115933 
L 148.590845 197.115933 
z
" style="fill:#f9bc86;stroke:#ffffff;stroke-linejoin:miter;"/>
   </g>
   <g id="patch_17">
    <path clip-path="url(#pca73056cd4)" d="M 154.696435 252 
L 159.886186 252 
L 159.886186 200.165048 
L 154.696435 200.165048 
z
" style="fill:#f9bc86;stroke:#ffffff;stroke-linejoin:miter;"/>
   </g>
   <g id="patch_18">
    <path clip-path="url(#pca73056cd4)" d="M 160.802024 252 
L 165.991775 252 
L 165.991775 202.451884 
L 160.802024 202.451884 
z
" style="fill:#f9bc86;stroke:#ffffff;stroke-linejoin:miter;"/>
   </g>
   <g id="patch_19">
    <path clip-path="url(#pca73056cd4)" d="M 166.907614 252 
L 172.097365 252 
L 172.097365 205.755092 
L 166.907614 205.755092 
z
" style="fill:#f9bc86;stroke:#ffffff;stroke-linejoin:miter;"/>
   </g>
   <g id="patch_20">
    <path clip-path="url(#pca73056cd4)" d="M 173.013203 252 
L 178.202954 252 
L 178.202954 206.771464 
L 173.013203 206.771464 
z
" style="fill:#f9bc86;stroke:#ffffff;stroke-linejoin:miter;"/>
   </g>
   <g id="patch_21">
    <path clip-path="url(#pca73056cd4)" d="M 179.118793 252 
L 184.308544 252 
L 184.308544 207.787835 
L 179.118793 207.787835 
z
" style="fill:#f9bc86;stroke:#ffffff;stroke-linejoin:miter;"/>
   </g>
   <g id="patch_22">
    <path clip-path="url(#pca73056cd4)" d="M 185.224382 252 
L 190.414133 252 
L 190.414133 210.074671 
L 185.224382 210.074671 
z
" style="fill:#f9bc86;stroke:#ffffff;stroke-linejoin:miter;"/>
   </g>
   <g id="patch_23">
    <path clip-path="url(#pca73056cd4)" d="M 191.329972 252 
L 196.519723 252 
L 196.519723 211.853322 
L 191.329972 211.853322 
z
" style="fill:#f9bc86;stroke:#ffffff;stroke-linejoin:miter;"/>
   </g>
   <g id="patch_24">
    <path clip-path="url(#pca73056cd4)" d="M 197.435561 252 
L 202.625312 252 
L 202.625312 212.6156 
L 197.435561 212.6156 
z
" style="fill:#f9bc86;stroke:#ffffff;stroke-linejoin:miter;"/>
   </g>
   <g id="patch_25">
    <path clip-path="url(#pca73056cd4)" d="M 203.541151 252 
L 208.730902 252 
L 208.730902 212.6156 
L 203.541151 212.6156 
z
" style="fill:#f9bc86;stroke:#ffffff;stroke-linejoin:miter;"/>
   </g>
   <g id="patch_26">
    <path clip-path="url(#pca73056cd4)" d="M 209.64674 252 
L 214.836491 252 
L 214.836491 212.869693 
L 209.64674 212.869693 
z
" style="fill:#f9bc86;stroke:#ffffff;stroke-linejoin:miter;"/>
   </g>
   <g id="patch_27">
    <path clip-path="url(#pca73056cd4)" d="M 215.75233 252 
L 220.942081 252 
L 220.942081 213.123786 
L 215.75233 213.123786 
z
" style="fill:#f9bc86;stroke:#ffffff;stroke-linejoin:miter;"/>
   </g>
   <g id="patch_28">
    <path clip-path="url(#pca73056cd4)" d="M 221.857919 252 
L 227.04767 252 
L 227.04767 213.123786 
L 221.857919 213.123786 
z
" style="fill:#f9bc86;stroke:#ffffff;stroke-linejoin:miter;"/>
   </g>
   <g id="patch_29">
    <path clip-path="url(#pca73056cd4)" d="M 227.963509 252 
L 233.15326 252 
L 233.15326 213.123786 
L 227.963509 213.123786 
z
" style="fill:#f9bc86;stroke:#ffffff;stroke-linejoin:miter;"/>
   </g>
   <g id="patch_30">
    <path clip-path="url(#pca73056cd4)" d="M 234.069098 252 
L 239.258849 252 
L 239.258849 213.377879 
L 234.069098 213.377879 
z
" style="fill:#f9bc86;stroke:#ffffff;stroke-linejoin:miter;"/>
   </g>
   <g id="patch_31">
    <path clip-path="url(#pca73056cd4)" d="M 240.174688 252 
L 245.364439 252 
L 245.364439 213.631972 
L 240.174688 213.631972 
z
" style="fill:#f9bc86;stroke:#ffffff;stroke-linejoin:miter;"/>
   </g>
   <g id="patch_32">
    <path clip-path="url(#pca73056cd4)" d="M 246.280277 252 
L 251.470028 252 
L 251.470028 214.902436 
L 246.280277 214.902436 
z
" style="fill:#f9bc86;stroke:#ffffff;stroke-linejoin:miter;"/>
   </g>
   <g id="patch_33">
    <path clip-path="url(#pca73056cd4)" d="M 252.385867 252 
L 257.575618 252 
L 257.575618 215.918808 
L 252.385867 215.918808 
z
" style="fill:#f9bc86;stroke:#ffffff;stroke-linejoin:miter;"/>
   </g>
   <g id="patch_34">
    <path clip-path="url(#pca73056cd4)" d="M 258.491456 252 
L 263.681207 252 
L 263.681207 216.172901 
L 258.491456 216.172901 
z
" style="fill:#f9bc86;stroke:#ffffff;stroke-linejoin:miter;"/>
   </g>
   <g id="patch_35">
    <path clip-path="url(#pca73056cd4)" d="M 264.597046 252 
L 269.786797 252 
L 269.786797 218.71383 
L 264.597046 218.71383 
z
" style="fill:#f9bc86;stroke:#ffffff;stroke-linejoin:miter;"/>
   </g>
   <g id="patch_36">
    <path clip-path="url(#pca73056cd4)" d="M 270.702635 252 
L 275.892386 252 
L 275.892386 218.71383 
L 270.702635 218.71383 
z
" style="fill:#f9bc86;stroke:#ffffff;stroke-linejoin:miter;"/>
   </g>
   <g id="patch_37">
    <path clip-path="url(#pca73056cd4)" d="M 276.808225 252 
L 281.997976 252 
L 281.997976 218.967923 
L 276.808225 218.967923 
z
" style="fill:#f9bc86;stroke:#ffffff;stroke-linejoin:miter;"/>
   </g>
   <g id="patch_38">
    <path clip-path="url(#pca73056cd4)" d="M 282.913814 252 
L 288.103565 252 
L 288.103565 218.967923 
L 282.913814 218.967923 
z
" style="fill:#f9bc86;stroke:#ffffff;stroke-linejoin:miter;"/>
   </g>
   <g id="patch_39">
    <path clip-path="url(#pca73056cd4)" d="M 289.019404 252 
L 294.209155 252 
L 294.209155 219.476109 
L 289.019404 219.476109 
z
" style="fill:#f9bc86;stroke:#ffffff;stroke-linejoin:miter;"/>
   </g>
   <g id="patch_40">
    <path clip-path="url(#pca73056cd4)" d="M 295.124993 252 
L 300.314744 252 
L 300.314744 219.476109 
L 295.124993 219.476109 
z
" style="fill:#f9bc86;stroke:#ffffff;stroke-linejoin:miter;"/>
   </g>
   <g id="patch_41">
    <path clip-path="url(#pca73056cd4)" d="M 301.230583 252 
L 306.420334 252 
L 306.420334 219.984294 
L 301.230583 219.984294 
z
" style="fill:#f9bc86;stroke:#ffffff;stroke-linejoin:miter;"/>
   </g>
   <g id="patch_42">
    <path clip-path="url(#pca73056cd4)" d="M 307.336172 252 
L 312.525923 252 
L 312.525923 220.238387 
L 307.336172 220.238387 
z
" style="fill:#f9bc86;stroke:#ffffff;stroke-linejoin:miter;"/>
   </g>
   <g id="patch_43">
    <path clip-path="url(#pca73056cd4)" d="M 313.441762 252 
L 318.631513 252 
L 318.631513 220.49248 
L 313.441762 220.49248 
z
" style="fill:#f9bc86;stroke:#ffffff;stroke-linejoin:miter;"/>
   </g>
   <g id="patch_44">
    <path clip-path="url(#pca73056cd4)" d="M 319.547351 252 
L 324.737102 252 
L 324.737102 220.746573 
L 319.547351 220.746573 
z
" style="fill:#f9bc86;stroke:#ffffff;stroke-linejoin:miter;"/>
   </g>
   <g id="patch_45">
    <path clip-path="url(#pca73056cd4)" d="M 325.652941 252 
L 330.842692 252 
L 330.842692 221.508852 
L 325.652941 221.508852 
z
" style="fill:#f9bc86;stroke:#ffffff;stroke-linejoin:miter;"/>
   </g>
   <g id="patch_46">
    <path clip-path="url(#pca73056cd4)" d="M 331.75853 252 
L 336.948281 252 
L 336.948281 221.762945 
L 331.75853 221.762945 
z
" style="fill:#f9bc86;stroke:#ffffff;stroke-linejoin:miter;"/>
   </g>
   <g id="patch_47">
    <path clip-path="url(#pca73056cd4)" d="M 337.86412 252 
L 343.053871 252 
L 343.053871 222.017038 
L 337.86412 222.017038 
z
" style="fill:#f9bc86;stroke:#ffffff;stroke-linejoin:miter;"/>
   </g>
   <g id="patch_48">
    <path clip-path="url(#pca73056cd4)" d="M 343.969709 252 
L 349.15946 252 
L 349.15946 222.017038 
L 343.969709 222.017038 
z
" style="fill:#f9bc86;stroke:#ffffff;stroke-linejoin:miter;"/>
   </g>
   <g id="patch_49">
    <path clip-path="url(#pca73056cd4)" d="M 350.075299 252 
L 355.26505 252 
L 355.26505 222.525223 
L 350.075299 222.525223 
z
" style="fill:#f9bc86;stroke:#ffffff;stroke-linejoin:miter;"/>
   </g>
   <g id="patch_50">
    <path clip-path="url(#pca73056cd4)" d="M 356.180888 252 
L 361.370639 252 
L 361.370639 222.525223 
L 356.180888 222.525223 
z
" style="fill:#f9bc86;stroke:#ffffff;stroke-linejoin:miter;"/>
   </g>
   <g id="patch_51">
    <path clip-path="url(#pca73056cd4)" d="M 362.286478 252 
L 367.476229 252 
L 367.476229 222.779316 
L 362.286478 222.779316 
z
" style="fill:#f9bc86;stroke:#ffffff;stroke-linejoin:miter;"/>
   </g>
   <g id="patch_52">
    <path clip-path="url(#pca73056cd4)" d="M 368.392067 252 
L 373.581818 252 
L 373.581818 223.287502 
L 368.392067 223.287502 
z
" style="fill:#f9bc86;stroke:#ffffff;stroke-linejoin:miter;"/>
   </g>
   <g id="patch_53">
    <path clip-path="url(#pca73056cd4)" d="M 69.218182 252 
L 74.407933 252 
L 74.407933 250.908803 
L 69.218182 250.908803 
z
" style="fill:#b5ffb9;stroke:#ffffff;stroke-linejoin:miter;"/>
   </g>
   <g id="patch_54">
    <path clip-path="url(#pca73056cd4)" d="M 75.323771 252 
L 80.513522 252 
L 80.513522 251.065769 
L 75.323771 251.065769 
z
" style="fill:#b5ffb9;stroke:#ffffff;stroke-linejoin:miter;"/>
   </g>
   <g id="patch_55">
    <path clip-path="url(#pca73056cd4)" d="M 81.429361 252 
L 86.619112 252 
L 86.619112 251.045079 
L 81.429361 251.045079 
z
" style="fill:#b5ffb9;stroke:#ffffff;stroke-linejoin:miter;"/>
   </g>
   <g id="patch_56">
    <path clip-path="url(#pca73056cd4)" d="M 87.53495 252 
L 92.724701 252 
L 92.724701 251.067608 
L 87.53495 251.067608 
z
" style="fill:#b5ffb9;stroke:#ffffff;stroke-linejoin:miter;"/>
   </g>
   <g id="patch_57">
    <path clip-path="url(#pca73056cd4)" d="M 93.64054 252 
L 98.830291 252 
L 98.830291 250.963436 
L 93.64054 250.963436 
z
" style="fill:#b5ffb9;stroke:#ffffff;stroke-linejoin:miter;"/>
   </g>
   <g id="patch_58">
    <path clip-path="url(#pca73056cd4)" d="M 99.746129 252 
L 104.93588 252 
L 104.93588 250.930461 
L 99.746129 250.930461 
z
" style="fill:#b5ffb9;stroke:#ffffff;stroke-linejoin:miter;"/>
   </g>
   <g id="patch_59">
    <path clip-path="url(#pca73056cd4)" d="M 105.851719 252 
L 111.04147 252 
L 111.04147 250.729535 
L 105.851719 250.729535 
z
" style="fill:#b5ffb9;stroke:#ffffff;stroke-linejoin:miter;"/>
   </g>
   <g id="patch_60">
    <path clip-path="url(#pca73056cd4)" d="M 111.957308 252 
L 117.147059 252 
L 117.147059 251.096918 
L 111.957308 251.096918 
z
" style="fill:#b5ffb9;stroke:#ffffff;stroke-linejoin:miter;"/>
   </g>
   <g id="patch_61">
    <path clip-path="url(#pca73056cd4)" d="M 118.062898 252 
L 123.252649 252 
L 123.252649 251.162935 
L 118.062898 251.162935 
z
" style="fill:#b5ffb9;stroke:#ffffff;stroke-linejoin:miter;"/>
   </g>
   <g id="patch_62">
    <path clip-path="url(#pca73056cd4)" d="M 124.168487 252 
L 129.358238 252 
L 129.358238 251.058305 
L 124.168487 251.058305 
z
" style="fill:#b5ffb9;stroke:#ffffff;stroke-linejoin:miter;"/>
   </g>
   <g id="patch_63">
    <path clip-path="url(#pca73056cd4)" d="M 130.274077 252 
L 135.463828 252 
L 135.463828 250.837395 
L 130.274077 250.837395 
z
" style="fill:#b5ffb9;stroke:#ffffff;stroke-linejoin:miter;"/>
   </g>
   <g id="patch_64">
    <path clip-path="url(#pca73056cd4)" d="M 136.379666 252 
L 141.569417 252 
L 141.569417 250.864556 
L 136.379666 250.864556 
z
" style="fill:#b5ffb9;stroke:#ffffff;stroke-linejoin:miter;"/>
   </g>
   <g id="patch_65">
    <path clip-path="url(#pca73056cd4)" d="M 142.485256 252 
L 147.675007 252 
L 147.675007 250.786875 
L 142.485256 250.786875 
z
" style="fill:#b5ffb9;stroke:#ffffff;stroke-linejoin:miter;"/>
   </g>
   <g id="patch_66">
    <path clip-path="url(#pca73056cd4)" d="M 148.590845 252 
L 153.780596 252 
L 153.780596 251.10244 
L 148.590845 251.10244 
z
" style="fill:#b5ffb9;stroke:#ffffff;stroke-linejoin:miter;"/>
   </g>
   <g id="patch_67">
    <path clip-path="url(#pca73056cd4)" d="M 154.696435 252 
L 159.886186 252 
L 159.886186 250.954981 
L 154.696435 250.954981 
z
" style="fill:#b5ffb9;stroke:#ffffff;stroke-linejoin:miter;"/>
   </g>
   <g id="patch_68">
    <path clip-path="url(#pca73056cd4)" d="M 160.802024 252 
L 165.991775 252 
L 165.991775 250.85984 
L 160.802024 250.85984 
z
" style="fill:#b5ffb9;stroke:#ffffff;stroke-linejoin:miter;"/>
   </g>
   <g id="patch_69">
    <path clip-path="url(#pca73056cd4)" d="M 166.907614 252 
L 172.097365 252 
L 172.097365 250.864959 
L 166.907614 250.864959 
z
" style="fill:#b5ffb9;stroke:#ffffff;stroke-linejoin:miter;"/>
   </g>
   <g id="patch_70">
    <path clip-path="url(#pca73056cd4)" d="M 173.013203 252 
L 178.202954 252 
L 178.202954 251.042155 
L 173.013203 251.042155 
z
" style="fill:#b5ffb9;stroke:#ffffff;stroke-linejoin:miter;"/>
   </g>
   <g id="patch_71">
    <path clip-path="url(#pca73056cd4)" d="M 179.118793 252 
L 184.308544 252 
L 184.308544 251.042041 
L 179.118793 251.042041 
z
" style="fill:#b5ffb9;stroke:#ffffff;stroke-linejoin:miter;"/>
   </g>
   <g id="patch_72">
    <path clip-path="url(#pca73056cd4)" d="M 185.224382 252 
L 190.414133 252 
L 190.414133 250.868132 
L 185.224382 250.868132 
z
" style="fill:#b5ffb9;stroke:#ffffff;stroke-linejoin:miter;"/>
   </g>
   <g id="patch_73">
    <path clip-path="url(#pca73056cd4)" d="M 191.329972 252 
L 196.519723 252 
L 196.519723 250.94664 
L 191.329972 250.94664 
z
" style="fill:#b5ffb9;stroke:#ffffff;stroke-linejoin:miter;"/>
   </g>
   <g id="patch_74">
    <path clip-path="url(#pca73056cd4)" d="M 197.435561 252 
L 202.625312 252 
L 202.625312 251.208214 
L 197.435561 251.208214 
z
" style="fill:#b5ffb9;stroke:#ffffff;stroke-linejoin:miter;"/>
   </g>
   <g id="patch_75">
    <path clip-path="url(#pca73056cd4)" d="M 203.541151 252 
L 208.730902 252 
L 208.730902 250.901663 
L 203.541151 250.901663 
z
" style="fill:#b5ffb9;stroke:#ffffff;stroke-linejoin:miter;"/>
   </g>
   <g id="patch_76">
    <path clip-path="url(#pca73056cd4)" d="M 209.64674 252 
L 214.836491 252 
L 214.836491 251.062826 
L 209.64674 251.062826 
z
" style="fill:#b5ffb9;stroke:#ffffff;stroke-linejoin:miter;"/>
   </g>
   <g id="patch_77">
    <path clip-path="url(#pca73056cd4)" d="M 215.75233 252 
L 220.942081 252 
L 220.942081 250.960378 
L 215.75233 250.960378 
z
" style="fill:#b5ffb9;stroke:#ffffff;stroke-linejoin:miter;"/>
   </g>
   <g id="patch_78">
    <path clip-path="url(#pca73056cd4)" d="M 221.857919 252 
L 227.04767 252 
L 227.04767 251.108184 
L 221.857919 251.108184 
z
" style="fill:#b5ffb9;stroke:#ffffff;stroke-linejoin:miter;"/>
   </g>
   <g id="patch_79">
    <path clip-path="url(#pca73056cd4)" d="M 227.963509 252 
L 233.15326 252 
L 233.15326 250.910556 
L 227.963509 250.910556 
z
" style="fill:#b5ffb9;stroke:#ffffff;stroke-linejoin:miter;"/>
   </g>
   <g id="patch_80">
    <path clip-path="url(#pca73056cd4)" d="M 234.069098 252 
L 239.258849 252 
L 239.258849 251.217661 
L 234.069098 251.217661 
z
" style="fill:#b5ffb9;stroke:#ffffff;stroke-linejoin:miter;"/>
   </g>
   <g id="patch_81">
    <path clip-path="url(#pca73056cd4)" d="M 240.174688 252 
L 245.364439 252 
L 245.364439 251.003821 
L 240.174688 251.003821 
z
" style="fill:#b5ffb9;stroke:#ffffff;stroke-linejoin:miter;"/>
   </g>
   <g id="patch_82">
    <path clip-path="url(#pca73056cd4)" d="M 246.280277 252 
L 251.470028 252 
L 251.470028 250.860063 
L 246.280277 250.860063 
z
" style="fill:#b5ffb9;stroke:#ffffff;stroke-linejoin:miter;"/>
   </g>
   <g id="patch_83">
    <path clip-path="url(#pca73056cd4)" d="M 252.385867 252 
L 257.575618 252 
L 257.575618 250.89058 
L 252.385867 250.89058 
z
" style="fill:#b5ffb9;stroke:#ffffff;stroke-linejoin:miter;"/>
   </g>
   <g id="patch_84">
    <path clip-path="url(#pca73056cd4)" d="M 258.491456 252 
L 263.681207 252 
L 263.681207 250.915149 
L 258.491456 250.915149 
z
" style="fill:#b5ffb9;stroke:#ffffff;stroke-linejoin:miter;"/>
   </g>
   <g id="patch_85">
    <path clip-path="url(#pca73056cd4)" d="M 264.597046 252 
L 269.786797 252 
L 269.786797 251.280393 
L 264.597046 251.280393 
z
" style="fill:#b5ffb9;stroke:#ffffff;stroke-linejoin:miter;"/>
   </g>
   <g id="patch_86">
    <path clip-path="url(#pca73056cd4)" d="M 270.702635 252 
L 275.892386 252 
L 275.892386 250.960353 
L 270.702635 250.960353 
z
" style="fill:#b5ffb9;stroke:#ffffff;stroke-linejoin:miter;"/>
   </g>
   <g id="patch_87">
    <path clip-path="url(#pca73056cd4)" d="M 276.808225 252 
L 281.997976 252 
L 281.997976 251.609088 
L 276.808225 251.609088 
z
" style="fill:#b5ffb9;stroke:#ffffff;stroke-linejoin:miter;"/>
   </g>
   <g id="patch_88">
    <path clip-path="url(#pca73056cd4)" d="M 282.913814 252 
L 288.103565 252 
L 288.103565 250.784263 
L 282.913814 250.784263 
z
" style="fill:#b5ffb9;stroke:#ffffff;stroke-linejoin:miter;"/>
   </g>
   <g id="patch_89">
    <path clip-path="url(#pca73056cd4)" d="M 289.019404 252 
L 294.209155 252 
L 294.209155 251.136481 
L 289.019404 251.136481 
z
" style="fill:#b5ffb9;stroke:#ffffff;stroke-linejoin:miter;"/>
   </g>
   <g id="patch_90">
    <path clip-path="url(#pca73056cd4)" d="M 295.124993 252 
L 300.314744 252 
L 300.314744 251.11663 
L 295.124993 251.11663 
z
" style="fill:#b5ffb9;stroke:#ffffff;stroke-linejoin:miter;"/>
   </g>
   <g id="patch_91">
    <path clip-path="url(#pca73056cd4)" d="M 301.230583 252 
L 306.420334 252 
L 306.420334 250.915064 
L 301.230583 250.915064 
z
" style="fill:#b5ffb9;stroke:#ffffff;stroke-linejoin:miter;"/>
   </g>
   <g id="patch_92">
    <path clip-path="url(#pca73056cd4)" d="M 307.336172 252 
L 312.525923 252 
L 312.525923 250.930777 
L 307.336172 250.930777 
z
" style="fill:#b5ffb9;stroke:#ffffff;stroke-linejoin:miter;"/>
   </g>
   <g id="patch_93">
    <path clip-path="url(#pca73056cd4)" d="M 313.441762 252 
L 318.631513 252 
L 318.631513 250.905761 
L 313.441762 250.905761 
z
" style="fill:#b5ffb9;stroke:#ffffff;stroke-linejoin:miter;"/>
   </g>
   <g id="patch_94">
    <path clip-path="url(#pca73056cd4)" d="M 319.547351 252 
L 324.737102 252 
L 324.737102 251.303827 
L 319.547351 251.303827 
z
" style="fill:#b5ffb9;stroke:#ffffff;stroke-linejoin:miter;"/>
   </g>
   <g id="patch_95">
    <path clip-path="url(#pca73056cd4)" d="M 325.652941 252 
L 330.842692 252 
L 330.842692 251.11491 
L 325.652941 251.11491 
z
" style="fill:#b5ffb9;stroke:#ffffff;stroke-linejoin:miter;"/>
   </g>
   <g id="patch_96">
    <path clip-path="url(#pca73056cd4)" d="M 331.75853 252 
L 336.948281 252 
L 336.948281 251.043415 
L 331.75853 251.043415 
z
" style="fill:#b5ffb9;stroke:#ffffff;stroke-linejoin:miter;"/>
   </g>
   <g id="patch_97">
    <path clip-path="url(#pca73056cd4)" d="M 337.86412 252 
L 343.053871 252 
L 343.053871 250.746762 
L 337.86412 250.746762 
z
" style="fill:#b5ffb9;stroke:#ffffff;stroke-linejoin:miter;"/>
   </g>
   <g id="patch_98">
    <path clip-path="url(#pca73056cd4)" d="M 343.969709 252 
L 349.15946 252 
L 349.15946 250.873809 
L 343.969709 250.873809 
z
" style="fill:#b5ffb9;stroke:#ffffff;stroke-linejoin:miter;"/>
   </g>
   <g id="patch_99">
    <path clip-path="url(#pca73056cd4)" d="M 350.075299 252 
L 355.26505 252 
L 355.26505 250.865344 
L 350.075299 250.865344 
z
" style="fill:#b5ffb9;stroke:#ffffff;stroke-linejoin:miter;"/>
   </g>
   <g id="patch_100">
    <path clip-path="url(#pca73056cd4)" d="M 356.180888 252 
L 361.370639 252 
L 361.370639 250.832487 
L 356.180888 250.832487 
z
" style="fill:#b5ffb9;stroke:#ffffff;stroke-linejoin:miter;"/>
   </g>
   <g id="patch_101">
    <path clip-path="url(#pca73056cd4)" d="M 362.286478 252 
L 367.476229 252 
L 367.476229 251.184693 
L 362.286478 251.184693 
z
" style="fill:#b5ffb9;stroke:#ffffff;stroke-linejoin:miter;"/>
   </g>
   <g id="patch_102">
    <path clip-path="url(#pca73056cd4)" d="M 368.392067 252 
L 373.581818 252 
L 373.581818 251.080319 
L 368.392067 251.080319 
z
" style="fill:#b5ffb9;stroke:#ffffff;stroke-linejoin:miter;"/>
   </g>
   <g id="patch_103">
    <path d="M 54 252 
L 54 34.56 
" style="fill:none;stroke:#ffffff;stroke-linecap:square;stroke-linejoin:miter;stroke-width:0.8;"/>
   </g>
   <g id="patch_104">
    <path d="M 388.8 252 
L 388.8 34.56 
" style="fill:none;stroke:#ffffff;stroke-linecap:square;stroke-linejoin:miter;stroke-width:0.8;"/>
   </g>
   <g id="patch_105">
    <path d="M 54 252 
L 388.8 252 
" style="fill:none;stroke:#ffffff;stroke-linecap:square;stroke-linejoin:miter;stroke-width:0.8;"/>
   </g>
   <g id="patch_106">
    <path d="M 54 34.56 
L 388.8 34.56 
" style="fill:none;stroke:#ffffff;stroke-linecap:square;stroke-linejoin:miter;stroke-width:0.8;"/>
   </g>
  </g>
 </g>
 <defs>
  <clipPath id="pca73056cd4">
   <rect height="217.44" width="334.8" x="54" y="34.56"/>
  </clipPath>
 </defs>
</svg>
