<?xml version="1.0" encoding="utf-8" standalone="no"?>
<!DOCTYPE svg PUBLIC "-//W3C//DTD SVG 1.1//EN"
  "http://www.w3.org/Graphics/SVG/1.1/DTD/svg11.dtd">
<!-- Created with matplotlib (https://matplotlib.org/) -->
<svg height="720pt" version="1.1" viewBox="0 0 720 720" width="720pt" xmlns="http://www.w3.org/2000/svg" xmlns:xlink="http://www.w3.org/1999/xlink">
 <defs>
  <style type="text/css">
*{stroke-linecap:butt;stroke-linejoin:round;}
  </style>
 </defs>
 <g id="figure_1">
  <g id="patch_1">
   <path d="M 0 720 
L 720 720 
L 720 0 
L 0 0 
z
" style="fill:#ffffff;"/>
  </g>
  <g id="axes_1">
   <g id="patch_2">
    <path d="M 90 640.8 
L 648 640.8 
L 648 86.4 
L 90 86.4 
z
" style="fill:#eaeaf2;"/>
   </g>
   <g id="matplotlib.axis_1">
    <g id="xtick_1">
     <g id="text_1">
      <!-- Sunday -->
      <defs>
       <path d="M 47.65625 53.625 
L 58.234375 53.625 
C 57.921875 65.265625 47.625 73.71875 32.84375 73.71875 
C 18.25 73.71875 7.0625 65.375 7.0625 52.84375 
C 7.0625 42.71875 14.3125 36.796875 26 33.625 
L 34.59375 31.28125 
C 42.359375 29.21875 48.375 26.671875 48.375 20.203125 
C 48.375 13.109375 41.578125 8.421875 32.25 8.421875 
C 23.796875 8.421875 16.765625 12.1875 16.125 20.09375 
L 5.109375 20.09375 
C 5.828125 6.921875 16.015625 -1.203125 32.3125 -1.203125 
C 49.390625 -1.203125 59.234375 7.78125 59.234375 20.09375 
C 59.234375 33.203125 47.546875 38.28125 38.3125 40.546875 
L 31.21875 42.40625 
C 25.53125 43.859375 17.96875 46.515625 18 53.484375 
C 18 59.65625 23.65625 64.234375 32.59375 64.234375 
C 40.953125 64.234375 46.875 60.328125 47.65625 53.625 
z
" id="Inter-Medium-83"/>
       <path d="M 41.6875 22.625 
C 41.734375 13.359375 34.84375 8.953125 28.875 8.953125 
C 22.296875 8.953125 17.75 13.703125 17.75 21.125 
L 17.75 54.546875 
L 7.140625 54.546875 
L 7.140625 19.84375 
C 7.140625 6.328125 14.5625 -0.703125 25.03125 -0.703125 
C 33.234375 -0.703125 38.8125 3.625 41.34375 9.453125 
L 41.90625 9.453125 
L 41.90625 0 
L 52.34375 0 
L 52.34375 54.546875 
L 41.6875 54.546875 
z
" id="Inter-Medium-117"/>
       <path d="M 17.75 32.390625 
C 17.75 41.09375 23.078125 46.0625 30.46875 46.0625 
C 37.671875 46.0625 42.046875 41.328125 42.046875 33.421875 
L 42.046875 0 
L 52.671875 0 
L 52.671875 34.6875 
C 52.671875 48.1875 45.25 55.25 34.09375 55.25 
C 25.890625 55.25 20.53125 51.453125 18 45.671875 
L 17.328125 45.671875 
L 17.328125 54.546875 
L 7.140625 54.546875 
L 7.140625 0 
L 17.75 0 
z
" id="Inter-Medium-110"/>
       <path d="M 27.5625 -1.0625 
C 37.5 -1.0625 41.40625 5 43.328125 8.484375 
L 44.21875 8.484375 
L 44.21875 0 
L 54.578125 0 
L 54.578125 72.734375 
L 43.96875 72.734375 
L 43.96875 45.703125 
L 43.328125 45.703125 
C 41.40625 49.078125 37.78125 55.25 27.625 55.25 
C 14.453125 55.25 4.765625 44.84375 4.765625 27.171875 
C 4.765625 9.515625 14.3125 -1.0625 27.5625 -1.0625 
z
M 29.90625 7.984375 
C 20.421875 7.984375 15.484375 16.328125 15.484375 27.265625 
C 15.484375 38.109375 20.3125 46.234375 29.90625 46.234375 
C 39.171875 46.234375 44.140625 38.671875 44.140625 27.265625 
C 44.140625 15.796875 39.0625 7.984375 29.90625 7.984375 
z
" id="Inter-Medium-100"/>
       <path d="M 23.015625 -1.203125 
C 32.03125 -1.203125 37.109375 3.375 39.140625 7.453125 
L 39.5625 7.453125 
L 39.5625 0 
L 49.9375 0 
L 49.9375 36.21875 
C 49.9375 52.09375 37.4375 55.25 28.765625 55.25 
C 18.890625 55.25 9.796875 51.28125 6.25 41.328125 
L 16.234375 39.0625 
C 17.796875 42.9375 21.765625 46.65625 28.90625 46.65625 
C 35.765625 46.65625 39.28125 43.078125 39.28125 36.890625 
L 39.28125 36.640625 
C 39.28125 32.78125 35.296875 32.84375 25.5 31.71875 
C 15.171875 30.5 4.578125 27.8125 4.578125 15.40625 
C 4.578125 4.6875 12.640625 -1.203125 23.015625 -1.203125 
z
M 25.328125 7.3125 
C 19.3125 7.3125 14.984375 10.015625 14.984375 15.265625 
C 14.984375 20.953125 20.03125 22.96875 26.171875 23.796875 
C 29.625 24.25 37.78125 25.171875 39.3125 26.703125 
L 39.3125 19.671875 
C 39.3125 13.203125 34.15625 7.3125 25.328125 7.3125 
z
" id="Inter-Medium-97"/>
       <path d="M 13.453125 -21.203125 
C 22.265625 -21.203125 27.984375 -16.4375 31.078125 -7.953125 
L 53.796875 54.546875 
L 42.40625 54.546875 
L 28.59375 12.21875 
L 28.015625 12.21875 
L 14.203125 54.546875 
L 2.84375 54.546875 
L 22.796875 -0.703125 
L 21.234375 -5 
C 18.578125 -12.109375 14.78125 -12.71875 8.921875 -11.15625 
L 6.359375 -19.953125 
C 7.5 -20.484375 10.15625 -21.203125 13.453125 -21.203125 
z
" id="Inter-Medium-121"/>
      </defs>
      <g style="fill:#262626;" transform="translate(106.478471 657.383438)scale(0.13 -0.13)">
       <use xlink:href="#Inter-Medium-83"/>
       <use x="64.346603" xlink:href="#Inter-Medium-117"/>
       <use x="123.792633" xlink:href="#Inter-Medium-110"/>
       <use x="183.522751" xlink:href="#Inter-Medium-100"/>
       <use x="246.093781" xlink:href="#Inter-Medium-97"/>
       <use x="303.018509" xlink:href="#Inter-Medium-121"/>
      </g>
     </g>
    </g>
    <g id="xtick_2">
     <g id="text_2">
      <!-- Monday -->
      <defs>
       <path d="M 7.984375 72.734375 
L 7.984375 0 
L 18.4375 0 
L 18.4375 52.65625 
L 19.109375 52.65625 
L 40.5625 0.109375 
L 49.21875 0.109375 
L 70.671875 52.625 
L 71.34375 52.625 
L 71.34375 0 
L 81.78125 0 
L 81.78125 72.734375 
L 68.46875 72.734375 
L 45.3125 16.1875 
L 44.46875 16.1875 
L 21.3125 72.734375 
z
" id="Inter-Medium-77"/>
       <path d="M 30.109375 -1.09375 
C 45.484375 -1.09375 55.546875 10.15625 55.546875 27.03125 
C 55.546875 44 45.484375 55.25 30.109375 55.25 
C 14.734375 55.25 4.6875 44 4.6875 27.03125 
C 4.6875 10.15625 14.734375 -1.09375 30.109375 -1.09375 
z
M 30.15625 7.8125 
C 20.09375 7.8125 15.40625 16.578125 15.40625 27.0625 
C 15.40625 37.5 20.09375 46.375 30.15625 46.375 
C 40.125 46.375 44.8125 37.5 44.8125 27.0625 
C 44.8125 16.578125 40.125 7.8125 30.15625 7.8125 
z
" id="Inter-Medium-111"/>
      </defs>
      <g style="fill:#262626;" transform="translate(184.371741 657.255469)scale(0.13 -0.13)">
       <use xlink:href="#Inter-Medium-77"/>
       <use x="91.583832" xlink:href="#Inter-Medium-111"/>
       <use x="151.811111" xlink:href="#Inter-Medium-110"/>
       <use x="211.541229" xlink:href="#Inter-Medium-100"/>
       <use x="274.112259" xlink:href="#Inter-Medium-97"/>
       <use x="331.036987" xlink:href="#Inter-Medium-121"/>
      </g>
     </g>
    </g>
    <g id="xtick_3">
     <g id="text_3">
      <!-- Thuesday -->
      <defs>
       <path d="M 4.40625 63.28125 
L 27.0625 63.28125 
L 27.0625 0 
L 38 0 
L 38 63.28125 
L 60.6875 63.28125 
L 60.6875 72.734375 
L 4.40625 72.734375 
z
" id="Inter-Medium-84"/>
       <path d="M 17.75 32.390625 
C 17.75 41.09375 23.265625 46.0625 30.828125 46.0625 
C 38.140625 46.0625 42.515625 41.40625 42.515625 33.421875 
L 42.515625 0 
L 53.125 0 
L 53.125 34.6875 
C 53.125 48.296875 45.671875 55.25 34.453125 55.25 
C 25.953125 55.25 20.84375 51.5625 18.296875 45.671875 
L 17.609375 45.671875 
L 17.609375 72.734375 
L 7.140625 72.734375 
L 7.140625 0 
L 17.75 0 
z
" id="Inter-Medium-104"/>
       <path d="M 30.640625 -1.09375 
C 42.546875 -1.09375 50.953125 4.765625 53.375 13.640625 
L 43.328125 15.453125 
C 41.40625 10.296875 36.796875 7.671875 30.75 7.671875 
C 21.65625 7.671875 15.5625 13.5625 15.265625 24.078125 
L 54.046875 24.078125 
L 54.046875 27.84375 
C 54.046875 47.546875 42.265625 55.25 29.90625 55.25 
C 14.703125 55.25 4.6875 43.671875 4.6875 26.921875 
C 4.6875 9.984375 14.5625 -1.09375 30.640625 -1.09375 
z
M 15.3125 32.03125 
C 15.734375 39.765625 21.34375 46.484375 29.96875 46.484375 
C 38.21875 46.484375 43.609375 40.375 43.640625 32.03125 
z
" id="Inter-Medium-101"/>
       <path d="M 48.015625 41.234375 
C 45.8125 49.71875 39.171875 55.25 27.375 55.25 
C 15.0625 55.25 6.328125 48.75 6.328125 39.09375 
C 6.328125 31.359375 11.015625 26.203125 21.234375 23.9375 
L 30.46875 21.90625 
C 35.71875 20.734375 38.171875 18.390625 38.171875 14.984375 
C 38.171875 10.765625 33.671875 7.453125 26.703125 7.453125 
C 20.34375 7.453125 16.265625 10.1875 14.984375 15.546875 
L 4.71875 13.984375 
C 6.5 4.328125 14.53125 -1.09375 26.78125 -1.09375 
C 39.953125 -1.09375 49.078125 5.890625 49.078125 15.765625 
C 49.078125 23.46875 44.171875 28.234375 34.15625 30.546875 
L 25.5 32.53125 
C 19.5 33.953125 16.90625 35.96875 16.9375 39.671875 
C 16.90625 43.859375 21.453125 46.84375 27.484375 46.84375 
C 34.09375 46.84375 37.140625 43.1875 38.390625 39.53125 
z
" id="Inter-Medium-115"/>
      </defs>
      <g style="fill:#262626;" transform="translate(258.527511 657.255469)scale(0.13 -0.13)">
       <use xlink:href="#Inter-Medium-84"/>
       <use x="65.092346" xlink:href="#Inter-Medium-104"/>
       <use x="125.284119" xlink:href="#Inter-Medium-117"/>
       <use x="184.730148" xlink:href="#Inter-Medium-101"/>
       <use x="243.465958" xlink:href="#Inter-Medium-115"/>
       <use x="297.052612" xlink:href="#Inter-Medium-100"/>
       <use x="359.623642" xlink:href="#Inter-Medium-97"/>
       <use x="416.54837" xlink:href="#Inter-Medium-121"/>
      </g>
     </g>
    </g>
    <g id="xtick_4">
     <g id="text_4">
      <!-- Wednesday -->
      <defs>
       <path d="M 22.234375 0 
L 33.3125 0 
L 48.609375 54.46875 
L 49.1875 54.46875 
L 64.484375 0 
L 75.53125 0 
L 95.734375 72.734375 
L 84.15625 72.734375 
L 70.03125 16.375 
L 69.359375 16.375 
L 54.625 72.734375 
L 43.1875 72.734375 
L 28.453125 16.40625 
L 27.765625 16.40625 
L 13.609375 72.734375 
L 2.0625 72.734375 
z
" id="Inter-Medium-87"/>
      </defs>
      <g style="fill:#262626;" transform="translate(332.124687 657.255469)scale(0.13 -0.13)">
       <use xlink:href="#Inter-Medium-87"/>
       <use x="97.798325" xlink:href="#Inter-Medium-101"/>
       <use x="156.534134" xlink:href="#Inter-Medium-100"/>
       <use x="219.105164" xlink:href="#Inter-Medium-110"/>
       <use x="278.835281" xlink:href="#Inter-Medium-101"/>
       <use x="337.571091" xlink:href="#Inter-Medium-115"/>
       <use x="391.157745" xlink:href="#Inter-Medium-100"/>
       <use x="453.728775" xlink:href="#Inter-Medium-97"/>
       <use x="510.653503" xlink:href="#Inter-Medium-121"/>
      </g>
     </g>
    </g>
    <g id="xtick_5">
     <g id="text_5">
      <!-- Thursday -->
      <defs>
       <path d="M 7.140625 0 
L 17.75 0 
L 17.75 33.3125 
C 17.75 40.40625 23.265625 45.5625 30.609375 45.5625 
C 32.671875 45.5625 34.265625 45.140625 35.546875 44.5 
L 38.953125 53.375 
C 37.140625 54.578125 34.796875 55.359375 31.8125 55.359375 
C 25.359375 55.359375 19.953125 51.734375 17.96875 45.875 
L 17.40625 45.875 
L 17.40625 54.546875 
L 7.140625 54.546875 
z
" id="Inter-Medium-114"/>
      </defs>
      <g style="fill:#262626;" transform="translate(419.183973 657.255469)scale(0.13 -0.13)">
       <use xlink:href="#Inter-Medium-84"/>
       <use x="65.092346" xlink:href="#Inter-Medium-104"/>
       <use x="125.284119" xlink:href="#Inter-Medium-117"/>
       <use x="184.730148" xlink:href="#Inter-Medium-114"/>
       <use x="224.573898" xlink:href="#Inter-Medium-115"/>
       <use x="278.160553" xlink:href="#Inter-Medium-100"/>
       <use x="340.731583" xlink:href="#Inter-Medium-97"/>
       <use x="397.656311" xlink:href="#Inter-Medium-121"/>
      </g>
     </g>
    </g>
    <g id="xtick_6">
     <g id="text_6">
      <!-- Friday -->
      <defs>
       <path d="M 7.984375 0 
L 18.96875 0 
L 18.96875 31.71875 
L 49.859375 31.71875 
L 49.859375 41.125 
L 18.96875 41.125 
L 18.96875 63.28125 
L 53.09375 63.28125 
L 53.09375 72.734375 
L 7.984375 72.734375 
z
" id="Inter-Medium-70"/>
       <path d="M 7.140625 0 
L 17.75 0 
L 17.75 54.546875 
L 7.140625 54.546875 
z
M 12.5 62.96875 
C 16.15625 62.96875 19.21875 65.796875 19.21875 69.28125 
C 19.21875 72.765625 16.15625 75.640625 12.5 75.640625 
C 8.8125 75.640625 5.796875 72.765625 5.796875 69.28125 
C 5.796875 65.796875 8.8125 62.96875 12.5 62.96875 
z
" id="Inter-Medium-105"/>
      </defs>
      <g style="fill:#262626;" transform="translate(508.963103 657.633281)scale(0.13 -0.13)">
       <use xlink:href="#Inter-Medium-70"/>
       <use x="58.593765" xlink:href="#Inter-Medium-114"/>
       <use x="98.437515" xlink:href="#Inter-Medium-105"/>
       <use x="123.330978" xlink:href="#Inter-Medium-100"/>
       <use x="185.902008" xlink:href="#Inter-Medium-97"/>
       <use x="242.826736" xlink:href="#Inter-Medium-121"/>
      </g>
     </g>
    </g>
    <g id="xtick_7">
     <g id="text_7">
      <!-- Saturday -->
      <defs>
       <path d="M 32.59375 54.546875 
L 21.421875 54.546875 
L 21.421875 67.609375 
L 10.796875 67.609375 
L 10.796875 54.546875 
L 2.8125 54.546875 
L 2.8125 46.015625 
L 10.796875 46.015625 
L 10.796875 13.8125 
C 10.765625 3.90625 18.328125 -0.890625 26.703125 -0.703125 
C 30.078125 -0.671875 32.359375 -0.03125 33.59375 0.421875 
L 31.671875 9.203125 
C 30.96875 9.0625 29.65625 8.734375 27.953125 8.734375 
C 24.5 8.734375 21.421875 9.875 21.421875 16.015625 
L 21.421875 46.015625 
L 32.59375 46.015625 
z
" id="Inter-Medium-116"/>
      </defs>
      <g style="fill:#262626;" transform="translate(579.939967 657.383438)scale(0.13 -0.13)">
       <use xlink:href="#Inter-Medium-83"/>
       <use x="64.346603" xlink:href="#Inter-Medium-97"/>
       <use x="121.271332" xlink:href="#Inter-Medium-116"/>
       <use x="158.451736" xlink:href="#Inter-Medium-117"/>
       <use x="217.897766" xlink:href="#Inter-Medium-114"/>
       <use x="257.741516" xlink:href="#Inter-Medium-100"/>
       <use x="320.312546" xlink:href="#Inter-Medium-97"/>
       <use x="377.237274" xlink:href="#Inter-Medium-121"/>
      </g>
     </g>
    </g>
    <g id="text_8">
     <!-- Day -->
     <defs>
      <path d="M 31.53125 0 
C 53.6875 0 66.515625 13.75 66.515625 36.46875 
C 66.515625 59.09375 53.6875 72.734375 32.28125 72.734375 
L 7.984375 72.734375 
L 7.984375 0 
z
M 18.96875 9.59375 
L 18.96875 63.140625 
L 31.609375 63.140625 
C 47.515625 63.140625 55.71875 53.625 55.71875 36.46875 
C 55.71875 19.25 47.515625 9.59375 30.9375 9.59375 
z
" id="Inter-Medium-68"/>
     </defs>
     <g style="fill:#262626;" transform="translate(356.928281 673.845156)scale(0.13 -0.13)">
      <use xlink:href="#Inter-Medium-68"/>
      <use x="72.159103" xlink:href="#Inter-Medium-97"/>
      <use x="129.083832" xlink:href="#Inter-Medium-121"/>
     </g>
    </g>
   </g>
   <g id="matplotlib.axis_2">
    <g id="ytick_1">
     <g id="line2d_1">
      <path clip-path="url(#p750d34e2d9)" d="M 90 640.8 
L 648 640.8 
" style="fill:none;stroke:#ffffff;stroke-linecap:round;stroke-width:0.8;"/>
     </g>
     <g id="text_9">
      <!-- 0 -->
      <defs>
       <path d="M 32.3125 -1.203125 
C 49.109375 -1.203125 58.953125 12.5 58.953125 36.328125 
C 58.953125 59.984375 48.96875 73.71875 32.3125 73.71875 
C 15.625 73.71875 5.6875 60.015625 5.640625 36.328125 
C 5.640625 12.53125 15.484375 -1.171875 32.3125 -1.203125 
z
M 32.3125 8.28125 
C 22.484375 8.28125 16.546875 18.140625 16.546875 36.328125 
C 16.578125 54.4375 22.515625 64.421875 32.3125 64.421875 
C 42.078125 64.421875 48.046875 54.4375 48.046875 36.328125 
C 48.046875 18.140625 42.125 8.28125 32.3125 8.28125 
z
" id="Inter-Medium-48"/>
      </defs>
      <g style="fill:#262626;" transform="translate(74.602812 645.527734)scale(0.13 -0.13)">
       <use xlink:href="#Inter-Medium-48"/>
      </g>
     </g>
    </g>
    <g id="ytick_2">
     <g id="line2d_2">
      <path clip-path="url(#p750d34e2d9)" d="M 90 363.6 
L 648 363.6 
" style="fill:none;stroke:#ffffff;stroke-linecap:round;stroke-width:0.8;"/>
     </g>
     <g id="text_10">
      <!-- 100K -->
      <defs>
       <path d="M 32.5625 72.734375 
L 22.34375 72.734375 
C 21.953125 70.734375 16.40625 61.546875 5.796875 61.546875 
L 5.796875 52.515625 
C 14.03125 52.515625 19.75 55.78125 20.953125 57.921875 
L 21.5625 57.921875 
L 21.5625 0 
L 32.5625 0 
z
" id="Inter-Medium-49"/>
       <path d="M 7.984375 0 
L 18.96875 0 
L 18.96875 22.625 
L 27.5625 32.5 
L 51.0625 0 
L 64.28125 0 
L 34.84375 39.984375 
L 64.171875 72.734375 
L 50.359375 72.734375 
L 19.859375 38 
L 18.96875 38 
L 18.96875 72.734375 
L 7.984375 72.734375 
z
" id="Inter-Medium-75"/>
      </defs>
      <g style="fill:#262626;" transform="translate(51.68625 368.327734)scale(0.13 -0.13)">
       <use xlink:href="#Inter-Medium-49"/>
       <use x="45.241486" xlink:href="#Inter-Medium-48"/>
       <use x="109.83667" xlink:href="#Inter-Medium-48"/>
       <use x="174.431854" xlink:href="#Inter-Medium-75"/>
      </g>
     </g>
    </g>
    <g id="ytick_3">
     <g id="line2d_3">
      <path clip-path="url(#p750d34e2d9)" d="M 90 86.4 
L 648 86.4 
" style="fill:none;stroke:#ffffff;stroke-linecap:round;stroke-width:0.8;"/>
     </g>
     <g id="text_11">
      <!-- 200K -->
      <defs>
       <path d="M 7 0 
L 54.859375 0 
L 54.859375 9.40625 
L 22.125 9.40625 
L 22.125 9.9375 
L 36.578125 25.078125 
C 49.890625 38.53125 53.6875 44.953125 53.6875 53.09375 
C 53.6875 64.765625 44.171875 73.71875 30.46875 73.71875 
C 16.875 73.71875 6.921875 64.921875 6.921875 51.640625 
L 17.40625 51.640625 
C 17.359375 59.453125 22.40625 64.5625 30.25 64.5625 
C 37.640625 64.5625 43.25 60.015625 43.25 52.765625 
C 43.25 46.34375 39.421875 41.71875 31.609375 33.453125 
L 7 7.953125 
z
" id="Inter-Medium-50"/>
      </defs>
      <g style="fill:#262626;" transform="translate(49.596094 91.127734)scale(0.13 -0.13)">
       <use xlink:href="#Inter-Medium-50"/>
       <use x="61.32814" xlink:href="#Inter-Medium-48"/>
       <use x="125.923325" xlink:href="#Inter-Medium-48"/>
       <use x="190.518509" xlink:href="#Inter-Medium-75"/>
      </g>
     </g>
    </g>
    <g id="text_12">
     <!-- Review count -->
     <defs>
      <path d="M 7.984375 0 
L 18.96875 0 
L 18.96875 27.515625 
L 33.875 27.515625 
C 34.125 27.515625 34.34375 27.515625 34.59375 27.515625 
L 49.359375 0 
L 61.859375 0 
L 45.734375 29.4375 
C 54.65625 32.734375 59.09375 40.15625 59.09375 49.921875 
C 59.09375 63.3125 50.78125 72.734375 33.921875 72.734375 
L 7.984375 72.734375 
z
M 18.96875 36.96875 
L 18.96875 63.3125 
L 32.75 63.3125 
C 43.578125 63.3125 48.046875 58.171875 48.046875 49.921875 
C 48.046875 41.71875 43.578125 36.96875 32.890625 36.96875 
z
" id="Inter-Medium-82"/>
      <path d="M 53.796875 54.546875 
L 42.40625 54.546875 
L 28.625 12.578125 
L 28.0625 12.578125 
L 14.234375 54.546875 
L 2.84375 54.546875 
L 22.65625 0 
L 34.015625 0 
z
" id="Inter-Medium-118"/>
      <path d="M 18.96875 0 
L 29.765625 0 
L 40.84375 39.375 
L 41.65625 39.375 
L 52.734375 0 
L 63.5625 0 
L 79.578125 54.546875 
L 68.609375 54.546875 
L 57.984375 14.671875 
L 57.453125 14.671875 
L 46.8125 54.546875 
L 35.828125 54.546875 
L 25.109375 14.484375 
L 24.578125 14.484375 
L 13.890625 54.546875 
L 2.90625 54.546875 
z
" id="Inter-Medium-119"/>
      <path id="Inter-Medium-32"/>
      <path d="M 30.109375 -1.09375 
C 43 -1.09375 51.34375 6.640625 52.515625 17.265625 
L 42.1875 17.265625 
C 40.84375 11.359375 36.265625 7.890625 30.1875 7.890625 
C 21.203125 7.890625 15.40625 15.375 15.40625 27.265625 
C 15.40625 38.953125 21.3125 46.3125 30.1875 46.3125 
C 36.9375 46.3125 41.046875 42.046875 42.1875 36.9375 
L 52.515625 36.9375 
C 51.390625 47.9375 42.40625 55.25 30.015625 55.25 
C 14.625 55.25 4.6875 43.671875 4.6875 27.03125 
C 4.6875 10.578125 14.28125 -1.09375 30.109375 -1.09375 
z
" id="Inter-Medium-99"/>
     </defs>
     <g style="fill:#262626;" transform="translate(42.528125 412.040625)rotate(-90)scale(0.15 -0.15)">
      <use xlink:href="#Inter-Medium-82"/>
      <use x="64.488647" xlink:href="#Inter-Medium-101"/>
      <use x="123.224457" xlink:href="#Inter-Medium-118"/>
      <use x="179.865097" xlink:href="#Inter-Medium-105"/>
      <use x="204.75856" xlink:href="#Inter-Medium-101"/>
      <use x="263.49437" xlink:href="#Inter-Medium-119"/>
      <use x="345.987289" xlink:href="#Inter-Medium-32"/>
      <use x="372.478775" xlink:href="#Inter-Medium-99"/>
      <use x="429.261459" xlink:href="#Inter-Medium-111"/>
      <use x="489.488739" xlink:href="#Inter-Medium-117"/>
      <use x="548.934769" xlink:href="#Inter-Medium-110"/>
      <use x="608.664886" xlink:href="#Inter-Medium-116"/>
     </g>
    </g>
   </g>
   <g id="patch_3">
    <path clip-path="url(#p750d34e2d9)" d="M 97.971429 640.8 
L 161.742857 640.8 
L 161.742857 137.482416 
L 97.971429 137.482416 
z
" style="fill:#3274a1;stroke:#ffffff;stroke-linejoin:miter;"/>
   </g>
   <g id="patch_4">
    <path clip-path="url(#p750d34e2d9)" d="M 177.685714 640.8 
L 241.457143 640.8 
L 241.457143 149.10264 
L 177.685714 149.10264 
z
" style="fill:#e1812c;stroke:#ffffff;stroke-linejoin:miter;"/>
   </g>
   <g id="patch_5">
    <path clip-path="url(#p750d34e2d9)" d="M 257.4 640.8 
L 321.171429 640.8 
L 321.171429 160.930764 
L 257.4 160.930764 
z
" style="fill:#3a923a;stroke:#ffffff;stroke-linejoin:miter;"/>
   </g>
   <g id="patch_6">
    <path clip-path="url(#p750d34e2d9)" d="M 337.114286 640.8 
L 400.885714 640.8 
L 400.885714 178.344468 
L 337.114286 178.344468 
z
" style="fill:#c03d3e;stroke:#ffffff;stroke-linejoin:miter;"/>
   </g>
   <g id="patch_7">
    <path clip-path="url(#p750d34e2d9)" d="M 416.828571 640.8 
L 480.6 640.8 
L 480.6 211.101192 
L 416.828571 211.101192 
z
" style="fill:#9372b2;stroke:#ffffff;stroke-linejoin:miter;"/>
   </g>
   <g id="patch_8">
    <path clip-path="url(#p750d34e2d9)" d="M 496.542857 640.8 
L 560.314286 640.8 
L 560.314286 265.812156 
L 496.542857 265.812156 
z
" style="fill:#845b53;stroke:#ffffff;stroke-linejoin:miter;"/>
   </g>
   <g id="patch_9">
    <path clip-path="url(#p750d34e2d9)" d="M 576.257143 640.8 
L 640.028571 640.8 
L 640.028571 256.969476 
L 576.257143 256.969476 
z
" style="fill:#d684bd;stroke:#ffffff;stroke-linejoin:miter;"/>
   </g>
   <g id="patch_10">
    <path d="M 90 640.8 
L 90 86.4 
" style="fill:none;stroke:#ffffff;stroke-linecap:square;stroke-linejoin:miter;stroke-width:0.8;"/>
   </g>
   <g id="patch_11">
    <path d="M 648 640.8 
L 648 86.4 
" style="fill:none;stroke:#ffffff;stroke-linecap:square;stroke-linejoin:miter;stroke-width:0.8;"/>
   </g>
   <g id="patch_12">
    <path d="M 90 640.8 
L 648 640.8 
" style="fill:none;stroke:#ffffff;stroke-linecap:square;stroke-linejoin:miter;stroke-width:0.8;"/>
   </g>
   <g id="patch_13">
    <path d="M 90 86.4 
L 648 86.4 
" style="fill:none;stroke:#ffffff;stroke-linecap:square;stroke-linejoin:miter;stroke-width:0.8;"/>
   </g>
  </g>
 </g>
 <defs>
  <clipPath id="p750d34e2d9">
   <rect height="554.4" width="558" x="90" y="86.4"/>
  </clipPath>
 </defs>
</svg>
