<?xml version="1.0" encoding="utf-8" standalone="no"?>
<!DOCTYPE svg PUBLIC "-//W3C//DTD SVG 1.1//EN"
  "http://www.w3.org/Graphics/SVG/1.1/DTD/svg11.dtd">
<!-- Created with matplotlib (https://matplotlib.org/) -->
<svg height="1080pt" version="1.1" viewBox="0 0 1080 1080" width="1080pt" xmlns="http://www.w3.org/2000/svg" xmlns:xlink="http://www.w3.org/1999/xlink">
 <defs>
  <style type="text/css">
*{stroke-linecap:butt;stroke-linejoin:round;}
  </style>
 </defs>
 <g id="figure_1">
  <g id="patch_1">
   <path d="M 0 1080 
L 1080 1080 
L 1080 0 
L 0 0 
z
" style="fill:#ffffff;"/>
  </g>
  <g id="axes_1">
   <g id="patch_2">
    <path d="M 135 961.2 
L 972 961.2 
L 972 129.6 
L 135 129.6 
z
" style="fill:#ffffff;"/>
   </g>
   <g id="patch_3">
    <path clip-path="url(#p8e34c62768)" d="M 173.045455 961.2 
L 205.628463 961.2 
L 205.628463 251.599021 
L 173.045455 251.599021 
z
" style="fill:#b5ffb9;stroke:#ffffff;stroke-linejoin:miter;"/>
   </g>
   <g id="patch_4">
    <path clip-path="url(#p8e34c62768)" d="M 211.378406 961.2 
L 243.961415 961.2 
L 243.961415 362.733835 
L 211.378406 362.733835 
z
" style="fill:#b5ffb9;stroke:#ffffff;stroke-linejoin:miter;"/>
   </g>
   <g id="patch_5">
    <path clip-path="url(#p8e34c62768)" d="M 249.711358 961.2 
L 282.294367 961.2 
L 282.294367 231.909677 
L 249.711358 231.909677 
z
" style="fill:#b5ffb9;stroke:#ffffff;stroke-linejoin:miter;"/>
   </g>
   <g id="patch_6">
    <path clip-path="url(#p8e34c62768)" d="M 288.04431 961.2 
L 320.627319 961.2 
L 320.627319 252.406226 
L 288.04431 252.406226 
z
" style="fill:#b5ffb9;stroke:#ffffff;stroke-linejoin:miter;"/>
   </g>
   <g id="patch_7">
    <path clip-path="url(#p8e34c62768)" d="M 326.377261 961.2 
L 358.96027 961.2 
L 358.96027 220.174063 
L 326.377261 220.174063 
z
" style="fill:#b5ffb9;stroke:#ffffff;stroke-linejoin:miter;"/>
   </g>
   <g id="patch_8">
    <path clip-path="url(#p8e34c62768)" d="M 364.710213 961.2 
L 397.293222 961.2 
L 397.293222 303.213072 
L 364.710213 303.213072 
z
" style="fill:#b5ffb9;stroke:#ffffff;stroke-linejoin:miter;"/>
   </g>
   <g id="patch_9">
    <path clip-path="url(#p8e34c62768)" d="M 403.043165 961.2 
L 435.626174 961.2 
L 435.626174 242.808579 
L 403.043165 242.808579 
z
" style="fill:#b5ffb9;stroke:#ffffff;stroke-linejoin:miter;"/>
   </g>
   <g id="patch_10">
    <path clip-path="url(#p8e34c62768)" d="M 441.376116 961.2 
L 473.959125 961.2 
L 473.959125 241.711444 
L 441.376116 241.711444 
z
" style="fill:#b5ffb9;stroke:#ffffff;stroke-linejoin:miter;"/>
   </g>
   <g id="patch_11">
    <path clip-path="url(#p8e34c62768)" d="M 479.709068 961.2 
L 512.292077 961.2 
L 512.292077 261.613511 
L 479.709068 261.613511 
z
" style="fill:#b5ffb9;stroke:#ffffff;stroke-linejoin:miter;"/>
   </g>
   <g id="patch_12">
    <path clip-path="url(#p8e34c62768)" d="M 518.04202 961.2 
L 550.625029 961.2 
L 550.625029 231.850746 
L 518.04202 231.850746 
z
" style="fill:#b5ffb9;stroke:#ffffff;stroke-linejoin:miter;"/>
   </g>
   <g id="patch_13">
    <path clip-path="url(#p8e34c62768)" d="M 556.374971 961.2 
L 588.95798 961.2 
L 588.95798 381.371779 
L 556.374971 381.371779 
z
" style="fill:#b5ffb9;stroke:#ffffff;stroke-linejoin:miter;"/>
   </g>
   <g id="patch_14">
    <path clip-path="url(#p8e34c62768)" d="M 594.707923 961.2 
L 627.290932 961.2 
L 627.290932 215.264772 
L 594.707923 215.264772 
z
" style="fill:#b5ffb9;stroke:#ffffff;stroke-linejoin:miter;"/>
   </g>
   <g id="patch_15">
    <path clip-path="url(#p8e34c62768)" d="M 633.040875 961.2 
L 665.623884 961.2 
L 665.623884 289.904156 
L 633.040875 289.904156 
z
" style="fill:#b5ffb9;stroke:#ffffff;stroke-linejoin:miter;"/>
   </g>
   <g id="patch_16">
    <path clip-path="url(#p8e34c62768)" d="M 671.373826 961.2 
L 703.956835 961.2 
L 703.956835 331.842857 
L 671.373826 331.842857 
z
" style="fill:#b5ffb9;stroke:#ffffff;stroke-linejoin:miter;"/>
   </g>
   <g id="patch_17">
    <path clip-path="url(#p8e34c62768)" d="M 709.706778 961.2 
L 742.289787 961.2 
L 742.289787 457.343141 
L 709.706778 457.343141 
z
" style="fill:#b5ffb9;stroke:#ffffff;stroke-linejoin:miter;"/>
   </g>
   <g id="patch_18">
    <path clip-path="url(#p8e34c62768)" d="M 748.03973 961.2 
L 780.622739 961.2 
L 780.622739 207.340309 
L 748.03973 207.340309 
z
" style="fill:#b5ffb9;stroke:#ffffff;stroke-linejoin:miter;"/>
   </g>
   <g id="patch_19">
    <path clip-path="url(#p8e34c62768)" d="M 786.372681 961.2 
L 818.95569 961.2 
L 818.95569 203.225116 
L 786.372681 203.225116 
z
" style="fill:#b5ffb9;stroke:#ffffff;stroke-linejoin:miter;"/>
   </g>
   <g id="patch_20">
    <path clip-path="url(#p8e34c62768)" d="M 824.705633 961.2 
L 857.288642 961.2 
L 857.288642 319.52967 
L 824.705633 319.52967 
z
" style="fill:#b5ffb9;stroke:#ffffff;stroke-linejoin:miter;"/>
   </g>
   <g id="patch_21">
    <path clip-path="url(#p8e34c62768)" d="M 863.038585 961.2 
L 895.621594 961.2 
L 895.621594 214.427092 
L 863.038585 214.427092 
z
" style="fill:#b5ffb9;stroke:#ffffff;stroke-linejoin:miter;"/>
   </g>
   <g id="patch_22">
    <path clip-path="url(#p8e34c62768)" d="M 901.371537 961.2 
L 933.954545 961.2 
L 933.954545 232.223873 
L 901.371537 232.223873 
z
" style="fill:#b5ffb9;stroke:#ffffff;stroke-linejoin:miter;"/>
   </g>
   <g id="patch_23">
    <path clip-path="url(#p8e34c62768)" d="M 173.045455 251.599021 
L 205.628463 251.599021 
L 205.628463 210.884211 
L 173.045455 210.884211 
z
" style="fill:#f9bc86;stroke:#ffffff;stroke-linejoin:miter;"/>
   </g>
   <g id="patch_24">
    <path clip-path="url(#p8e34c62768)" d="M 211.378406 362.733835 
L 243.961415 362.733835 
L 243.961415 283.087218 
L 211.378406 283.087218 
z
" style="fill:#f9bc86;stroke:#ffffff;stroke-linejoin:miter;"/>
   </g>
   <g id="patch_25">
    <path clip-path="url(#p8e34c62768)" d="M 249.711358 231.909677 
L 282.294367 231.909677 
L 282.294367 200.167742 
L 249.711358 200.167742 
z
" style="fill:#f9bc86;stroke:#ffffff;stroke-linejoin:miter;"/>
   </g>
   <g id="patch_26">
    <path clip-path="url(#p8e34c62768)" d="M 288.04431 252.406226 
L 320.627319 252.406226 
L 320.627319 224.670817 
L 288.04431 224.670817 
z
" style="fill:#f9bc86;stroke:#ffffff;stroke-linejoin:miter;"/>
   </g>
   <g id="patch_27">
    <path clip-path="url(#p8e34c62768)" d="M 326.377261 220.174063 
L 358.96027 220.174063 
L 358.96027 190.502594 
L 326.377261 190.502594 
z
" style="fill:#f9bc86;stroke:#ffffff;stroke-linejoin:miter;"/>
   </g>
   <g id="patch_28">
    <path clip-path="url(#p8e34c62768)" d="M 364.710213 303.213072 
L 397.293222 303.213072 
L 397.293222 275.030065 
L 364.710213 275.030065 
z
" style="fill:#f9bc86;stroke:#ffffff;stroke-linejoin:miter;"/>
   </g>
   <g id="patch_29">
    <path clip-path="url(#p8e34c62768)" d="M 403.043165 242.808579 
L 435.626174 242.808579 
L 435.626174 217.328686 
L 403.043165 217.328686 
z
" style="fill:#f9bc86;stroke:#ffffff;stroke-linejoin:miter;"/>
   </g>
   <g id="patch_30">
    <path clip-path="url(#p8e34c62768)" d="M 441.376116 241.711444 
L 473.959125 241.711444 
L 473.959125 214.207103 
L 441.376116 214.207103 
z
" style="fill:#f9bc86;stroke:#ffffff;stroke-linejoin:miter;"/>
   </g>
   <g id="patch_31">
    <path clip-path="url(#p8e34c62768)" d="M 479.709068 261.613511 
L 512.292077 261.613511 
L 512.292077 226.755783 
L 479.709068 226.755783 
z
" style="fill:#f9bc86;stroke:#ffffff;stroke-linejoin:miter;"/>
   </g>
   <g id="patch_32">
    <path clip-path="url(#p8e34c62768)" d="M 518.04202 231.850746 
L 550.625029 231.850746 
L 550.625029 206.435821 
L 518.04202 206.435821 
z
" style="fill:#f9bc86;stroke:#ffffff;stroke-linejoin:miter;"/>
   </g>
   <g id="patch_33">
    <path clip-path="url(#p8e34c62768)" d="M 556.374971 381.371779 
L 588.95798 381.371779 
L 588.95798 312.537423 
L 556.374971 312.537423 
z
" style="fill:#f9bc86;stroke:#ffffff;stroke-linejoin:miter;"/>
   </g>
   <g id="patch_34">
    <path clip-path="url(#p8e34c62768)" d="M 594.707923 215.264772 
L 627.290932 215.264772 
L 627.290932 193.279313 
L 594.707923 193.279313 
z
" style="fill:#f9bc86;stroke:#ffffff;stroke-linejoin:miter;"/>
   </g>
   <g id="patch_35">
    <path clip-path="url(#p8e34c62768)" d="M 633.040875 289.904156 
L 665.623884 289.904156 
L 665.623884 242.784352 
L 633.040875 242.784352 
z
" style="fill:#f9bc86;stroke:#ffffff;stroke-linejoin:miter;"/>
   </g>
   <g id="patch_36">
    <path clip-path="url(#p8e34c62768)" d="M 671.373826 331.842857 
L 703.956835 331.842857 
L 703.956835 274.485714 
L 671.373826 274.485714 
z
" style="fill:#f9bc86;stroke:#ffffff;stroke-linejoin:miter;"/>
   </g>
   <g id="patch_37">
    <path clip-path="url(#p8e34c62768)" d="M 709.706778 457.343141 
L 742.289787 457.343141 
L 742.289787 358.933598 
L 709.706778 358.933598 
z
" style="fill:#f9bc86;stroke:#ffffff;stroke-linejoin:miter;"/>
   </g>
   <g id="patch_38">
    <path clip-path="url(#p8e34c62768)" d="M 748.03973 207.340309 
L 780.622739 207.340309 
L 780.622739 191.801665 
L 748.03973 191.801665 
z
" style="fill:#f9bc86;stroke:#ffffff;stroke-linejoin:miter;"/>
   </g>
   <g id="patch_39">
    <path clip-path="url(#p8e34c62768)" d="M 786.372681 203.225116 
L 818.95569 203.225116 
L 818.95569 185.427363 
L 786.372681 185.427363 
z
" style="fill:#f9bc86;stroke:#ffffff;stroke-linejoin:miter;"/>
   </g>
   <g id="patch_40">
    <path clip-path="url(#p8e34c62768)" d="M 824.705633 319.52967 
L 857.288642 319.52967 
L 857.288642 272.057143 
L 824.705633 272.057143 
z
" style="fill:#f9bc86;stroke:#ffffff;stroke-linejoin:miter;"/>
   </g>
   <g id="patch_41">
    <path clip-path="url(#p8e34c62768)" d="M 863.038585 214.427092 
L 895.621594 214.427092 
L 895.621594 192.339442 
L 863.038585 192.339442 
z
" style="fill:#f9bc86;stroke:#ffffff;stroke-linejoin:miter;"/>
   </g>
   <g id="patch_42">
    <path clip-path="url(#p8e34c62768)" d="M 901.371537 232.223873 
L 933.954545 232.223873 
L 933.954545 213.316711 
L 901.371537 213.316711 
z
" style="fill:#f9bc86;stroke:#ffffff;stroke-linejoin:miter;"/>
   </g>
   <g id="patch_43">
    <path clip-path="url(#p8e34c62768)" d="M 173.045455 210.884211 
L 205.628463 210.884211 
L 205.628463 169.2 
L 173.045455 169.2 
z
" style="fill:#a3acff;stroke:#ffffff;stroke-linejoin:miter;"/>
   </g>
   <g id="patch_44">
    <path clip-path="url(#p8e34c62768)" d="M 211.378406 283.087218 
L 243.961415 283.087218 
L 243.961415 169.2 
L 211.378406 169.2 
z
" style="fill:#a3acff;stroke:#ffffff;stroke-linejoin:miter;"/>
   </g>
   <g id="patch_45">
    <path clip-path="url(#p8e34c62768)" d="M 249.711358 200.167742 
L 282.294367 200.167742 
L 282.294367 169.2 
L 249.711358 169.2 
z
" style="fill:#a3acff;stroke:#ffffff;stroke-linejoin:miter;"/>
   </g>
   <g id="patch_46">
    <path clip-path="url(#p8e34c62768)" d="M 288.04431 224.670817 
L 320.627319 224.670817 
L 320.627319 169.2 
L 288.04431 169.2 
z
" style="fill:#a3acff;stroke:#ffffff;stroke-linejoin:miter;"/>
   </g>
   <g id="patch_47">
    <path clip-path="url(#p8e34c62768)" d="M 326.377261 190.502594 
L 358.96027 190.502594 
L 358.96027 169.2 
L 326.377261 169.2 
z
" style="fill:#a3acff;stroke:#ffffff;stroke-linejoin:miter;"/>
   </g>
   <g id="patch_48">
    <path clip-path="url(#p8e34c62768)" d="M 364.710213 275.030065 
L 397.293222 275.030065 
L 397.293222 169.2 
L 364.710213 169.2 
z
" style="fill:#a3acff;stroke:#ffffff;stroke-linejoin:miter;"/>
   </g>
   <g id="patch_49">
    <path clip-path="url(#p8e34c62768)" d="M 403.043165 217.328686 
L 435.626174 217.328686 
L 435.626174 169.2 
L 403.043165 169.2 
z
" style="fill:#a3acff;stroke:#ffffff;stroke-linejoin:miter;"/>
   </g>
   <g id="patch_50">
    <path clip-path="url(#p8e34c62768)" d="M 441.376116 214.207103 
L 473.959125 214.207103 
L 473.959125 169.2 
L 441.376116 169.2 
z
" style="fill:#a3acff;stroke:#ffffff;stroke-linejoin:miter;"/>
   </g>
   <g id="patch_51">
    <path clip-path="url(#p8e34c62768)" d="M 479.709068 226.755783 
L 512.292077 226.755783 
L 512.292077 169.2 
L 479.709068 169.2 
z
" style="fill:#a3acff;stroke:#ffffff;stroke-linejoin:miter;"/>
   </g>
   <g id="patch_52">
    <path clip-path="url(#p8e34c62768)" d="M 518.04202 206.435821 
L 550.625029 206.435821 
L 550.625029 169.2 
L 518.04202 169.2 
z
" style="fill:#a3acff;stroke:#ffffff;stroke-linejoin:miter;"/>
   </g>
   <g id="patch_53">
    <path clip-path="url(#p8e34c62768)" d="M 556.374971 312.537423 
L 588.95798 312.537423 
L 588.95798 169.2 
L 556.374971 169.2 
z
" style="fill:#a3acff;stroke:#ffffff;stroke-linejoin:miter;"/>
   </g>
   <g id="patch_54">
    <path clip-path="url(#p8e34c62768)" d="M 594.707923 193.279313 
L 627.290932 193.279313 
L 627.290932 169.2 
L 594.707923 169.2 
z
" style="fill:#a3acff;stroke:#ffffff;stroke-linejoin:miter;"/>
   </g>
   <g id="patch_55">
    <path clip-path="url(#p8e34c62768)" d="M 633.040875 242.784352 
L 665.623884 242.784352 
L 665.623884 169.2 
L 633.040875 169.2 
z
" style="fill:#a3acff;stroke:#ffffff;stroke-linejoin:miter;"/>
   </g>
   <g id="patch_56">
    <path clip-path="url(#p8e34c62768)" d="M 671.373826 274.485714 
L 703.956835 274.485714 
L 703.956835 169.2 
L 671.373826 169.2 
z
" style="fill:#a3acff;stroke:#ffffff;stroke-linejoin:miter;"/>
   </g>
   <g id="patch_57">
    <path clip-path="url(#p8e34c62768)" d="M 709.706778 358.933598 
L 742.289787 358.933598 
L 742.289787 169.2 
L 709.706778 169.2 
z
" style="fill:#a3acff;stroke:#ffffff;stroke-linejoin:miter;"/>
   </g>
   <g id="patch_58">
    <path clip-path="url(#p8e34c62768)" d="M 748.03973 191.801665 
L 780.622739 191.801665 
L 780.622739 169.2 
L 748.03973 169.2 
z
" style="fill:#a3acff;stroke:#ffffff;stroke-linejoin:miter;"/>
   </g>
   <g id="patch_59">
    <path clip-path="url(#p8e34c62768)" d="M 786.372681 185.427363 
L 818.95569 185.427363 
L 818.95569 169.2 
L 786.372681 169.2 
z
" style="fill:#a3acff;stroke:#ffffff;stroke-linejoin:miter;"/>
   </g>
   <g id="patch_60">
    <path clip-path="url(#p8e34c62768)" d="M 824.705633 272.057143 
L 857.288642 272.057143 
L 857.288642 169.2 
L 824.705633 169.2 
z
" style="fill:#a3acff;stroke:#ffffff;stroke-linejoin:miter;"/>
   </g>
   <g id="patch_61">
    <path clip-path="url(#p8e34c62768)" d="M 863.038585 192.339442 
L 895.621594 192.339442 
L 895.621594 169.2 
L 863.038585 169.2 
z
" style="fill:#a3acff;stroke:#ffffff;stroke-linejoin:miter;"/>
   </g>
   <g id="patch_62">
    <path clip-path="url(#p8e34c62768)" d="M 901.371537 213.316711 
L 933.954545 213.316711 
L 933.954545 169.2 
L 901.371537 169.2 
z
" style="fill:#a3acff;stroke:#ffffff;stroke-linejoin:miter;"/>
   </g>
   <g id="matplotlib.axis_1">
    <g id="xtick_1">
     <g id="line2d_1">
      <defs>
       <path d="M 0 0 
L 0 3.5 
" id="m50f609457d" style="stroke:#000000;stroke-width:0.8;"/>
      </defs>
      <g>
       <use style="stroke:#000000;stroke-width:0.8;" x="189.336959" xlink:href="#m50f609457d" y="961.2"/>
      </g>
     </g>
     <g id="text_1">
      <!-- B005NF5NTK -->
      <defs>
       <path d="M 7.984375 0 
L 35.875 0 
C 52.765625 0 60.40625 8.421875 60.40625 19.5625 
C 60.40625 30.828125 52.515625 37.1875 45.3125 37.578125 
L 45.3125 38.28125 
C 51.984375 39.984375 57.5625 44.53125 57.5625 53.625 
C 57.5625 64.375 50.109375 72.734375 34.625 72.734375 
L 7.984375 72.734375 
z
M 18.96875 9.40625 
L 18.96875 32.703125 
L 35.1875 32.703125 
C 44 32.703125 49.5 27.03125 49.5 20.09375 
C 49.5 13.984375 45.34375 9.40625 34.796875 9.40625 
z
M 18.96875 41.265625 
L 18.96875 63.390625 
L 33.953125 63.390625 
C 42.65625 63.390625 46.8125 58.8125 46.8125 52.765625 
C 46.8125 45.734375 41.046875 41.265625 33.671875 41.265625 
z
" id="Inter-Medium-66"/>
       <path d="M 32.3125 -1.203125 
C 49.109375 -1.203125 58.953125 12.5 58.953125 36.328125 
C 58.953125 59.984375 48.96875 73.71875 32.3125 73.71875 
C 15.625 73.71875 5.6875 60.015625 5.640625 36.328125 
C 5.640625 12.53125 15.484375 -1.171875 32.3125 -1.203125 
z
M 32.3125 8.28125 
C 22.484375 8.28125 16.546875 18.140625 16.546875 36.328125 
C 16.578125 54.4375 22.515625 64.421875 32.3125 64.421875 
C 42.078125 64.421875 48.046875 54.4375 48.046875 36.328125 
C 48.046875 18.140625 42.125 8.28125 32.3125 8.28125 
z
" id="Inter-Medium-48"/>
       <path d="M 31 -1 
C 45.640625 -1 56.078125 9.34375 56.03125 23.515625 
C 56.078125 37.578125 46.265625 47.796875 33.03125 47.796875 
C 27.625 47.796875 22.625 45.734375 19.78125 42.96875 
L 19.359375 42.96875 
L 21.65625 63.3125 
L 52.515625 63.3125 
L 52.515625 72.734375 
L 12.53125 72.734375 
L 8.453125 36.078125 
L 18.5 34.59375 
C 21.234375 37.03125 26.140625 38.703125 30.546875 38.703125 
C 39.171875 38.640625 45.421875 32.171875 45.421875 23.296875 
C 45.421875 14.5625 39.34375 8.234375 31 8.234375 
C 23.96875 8.234375 18.390625 12.71875 17.828125 18.96875 
L 7.171875 18.96875 
C 7.59375 7.390625 17.65625 -1 31 -1 
z
" id="Inter-Medium-53"/>
       <path d="M 66.6875 72.734375 
L 55.828125 72.734375 
L 55.828125 19.3125 
L 55.15625 19.3125 
L 18.140625 72.734375 
L 7.984375 72.734375 
L 7.984375 0 
L 18.96875 0 
L 18.96875 53.34375 
L 19.640625 53.34375 
L 56.609375 0 
L 66.6875 0 
z
" id="Inter-Medium-78"/>
       <path d="M 7.984375 0 
L 18.96875 0 
L 18.96875 31.71875 
L 49.859375 31.71875 
L 49.859375 41.125 
L 18.96875 41.125 
L 18.96875 63.28125 
L 53.09375 63.28125 
L 53.09375 72.734375 
L 7.984375 72.734375 
z
" id="Inter-Medium-70"/>
       <path d="M 4.40625 63.28125 
L 27.0625 63.28125 
L 27.0625 0 
L 38 0 
L 38 63.28125 
L 60.6875 63.28125 
L 60.6875 72.734375 
L 4.40625 72.734375 
z
" id="Inter-Medium-84"/>
       <path d="M 7.984375 0 
L 18.96875 0 
L 18.96875 22.625 
L 27.5625 32.5 
L 51.0625 0 
L 64.28125 0 
L 34.84375 39.984375 
L 64.171875 72.734375 
L 50.359375 72.734375 
L 19.859375 38 
L 18.96875 38 
L 18.96875 72.734375 
L 7.984375 72.734375 
z
" id="Inter-Medium-75"/>
      </defs>
      <g transform="translate(193.780865 1080.075938)rotate(-90)scale(0.17 -0.17)">
       <use xlink:href="#Inter-Medium-66"/>
       <use x="65.411942" xlink:href="#Inter-Medium-48"/>
       <use x="130.007126" xlink:href="#Inter-Medium-48"/>
       <use x="194.60231" xlink:href="#Inter-Medium-53"/>
       <use x="256.605164" xlink:href="#Inter-Medium-78"/>
       <use x="331.285583" xlink:href="#Inter-Medium-70"/>
       <use x="389.879349" xlink:href="#Inter-Medium-53"/>
       <use x="451.882202" xlink:href="#Inter-Medium-78"/>
       <use x="526.562622" xlink:href="#Inter-Medium-84"/>
       <use x="591.654968" xlink:href="#Inter-Medium-75"/>
      </g>
     </g>
    </g>
    <g id="xtick_2">
     <g id="line2d_2">
      <g>
       <use style="stroke:#000000;stroke-width:0.8;" x="227.669911" xlink:href="#m50f609457d" y="961.2"/>
      </g>
     </g>
     <g id="text_2">
      <!-- B0092KJ9BU -->
      <defs>
       <path d="M 31.1875 73.90625 
C 15.90625 74 5.9375 63.0625 5.9375 49.140625 
C 5.9375 35.234375 16.015625 25.21875 28.625 25.21875 
C 36.328125 25.21875 42.9375 28.984375 46.65625 35.078125 
L 47.234375 35.078125 
C 47.203125 18.359375 40.90625 8.59375 30.25 8.59375 
C 23.296875 8.59375 18.828125 12.859375 17.40625 19.0625 
L 6.578125 19.0625 
C 8.171875 7.3125 17.265625 -1 30.25 -1 
C 47.15625 -1 57.703125 13.53125 57.75 38.984375 
C 57.703125 65.734375 44.140625 73.796875 31.1875 73.90625 
z
M 31.21875 64.671875 
C 39.625 64.671875 45.84375 57.53125 45.84375 49.390625 
C 45.84375 41.265625 39.3125 34.15625 31 34.15625 
C 22.65625 34.15625 16.578125 40.84375 16.578125 49.296875 
C 16.578125 57.890625 22.875 64.671875 31.21875 64.671875 
z
" id="Inter-Medium-57"/>
       <path d="M 7 0 
L 54.859375 0 
L 54.859375 9.40625 
L 22.125 9.40625 
L 22.125 9.9375 
L 36.578125 25.078125 
C 49.890625 38.53125 53.6875 44.953125 53.6875 53.09375 
C 53.6875 64.765625 44.171875 73.71875 30.46875 73.71875 
C 16.875 73.71875 6.921875 64.921875 6.921875 51.640625 
L 17.40625 51.640625 
C 17.359375 59.453125 22.40625 64.5625 30.25 64.5625 
C 37.640625 64.5625 43.25 60.015625 43.25 52.765625 
C 43.25 46.34375 39.421875 41.71875 31.609375 33.453125 
L 7 7.953125 
z
" id="Inter-Medium-50"/>
       <path d="M 36.265625 72.734375 
L 36.265625 21.171875 
C 36.21875 12.78125 32.3125 8.3125 25.359375 8.3125 
C 18.921875 8.3125 14.453125 12.140625 14.421875 18.1875 
L 3.515625 18.1875 
C 3.515625 5.890625 12.75 -1 25.078125 -1 
C 38.421875 -1 47.15625 7.171875 47.203125 21.171875 
L 47.203125 72.734375 
z
" id="Inter-Medium-74"/>
       <path d="M 54.796875 72.734375 
L 54.796875 24.78125 
C 54.796875 14.59375 46.65625 8.875 36.859375 8.875 
C 27.125 8.875 18.96875 14.59375 18.96875 24.78125 
L 18.96875 72.734375 
L 7.984375 72.734375 
L 7.984375 24.609375 
C 7.984375 8.203125 20.78125 -1.203125 36.859375 -1.203125 
C 52.953125 -1.203125 65.765625 8.203125 65.765625 24.609375 
L 65.765625 72.734375 
z
" id="Inter-Medium-85"/>
      </defs>
      <g transform="translate(232.113817 1077.653438)rotate(-90)scale(0.17 -0.17)">
       <use xlink:href="#Inter-Medium-66"/>
       <use x="65.411942" xlink:href="#Inter-Medium-48"/>
       <use x="130.007126" xlink:href="#Inter-Medium-48"/>
       <use x="194.60231" xlink:href="#Inter-Medium-57"/>
       <use x="258.167664" xlink:href="#Inter-Medium-50"/>
       <use x="319.495804" xlink:href="#Inter-Medium-75"/>
       <use x="385.937576" xlink:href="#Inter-Medium-74"/>
       <use x="441.122238" xlink:href="#Inter-Medium-57"/>
       <use x="504.687592" xlink:href="#Inter-Medium-66"/>
       <use x="570.099533" xlink:href="#Inter-Medium-85"/>
      </g>
     </g>
    </g>
    <g id="xtick_3">
     <g id="line2d_3">
      <g>
       <use style="stroke:#000000;stroke-width:0.8;" x="266.002862" xlink:href="#m50f609457d" y="961.2"/>
      </g>
     </g>
     <g id="text_3">
      <!-- B00AANQLRI -->
      <defs>
       <path d="M 14.140625 0 
L 20.8125 19.25 
L 49.21875 19.25 
L 55.859375 0 
L 67.515625 0 
L 41.34375 72.734375 
L 28.65625 72.734375 
L 2.484375 0 
z
M 24 28.484375 
L 34.734375 59.515625 
L 35.296875 59.515625 
L 46.03125 28.484375 
z
" id="Inter-Medium-65"/>
       <path d="M 71.171875 36.359375 
C 71.171875 59.625 57.25 73.71875 38.421875 73.71875 
C 19.53125 73.71875 5.640625 59.625 5.640625 36.359375 
C 5.640625 13.140625 19.53125 -1 38.421875 -1 
C 43.109375 -1 47.484375 -0.140625 51.390625 1.53125 
L 57.59375 -6.53125 
L 68.828125 -6.53125 
L 59.015625 6.25 
C 66.546875 12.609375 71.171875 22.96875 71.171875 36.359375 
z
M 34.734375 23.578125 
L 45.0625 10.015625 
C 43 9.34375 40.765625 9.015625 38.421875 9.015625 
C 25.890625 9.015625 16.546875 18.640625 16.546875 36.359375 
C 16.546875 54.078125 25.890625 63.703125 38.421875 63.703125 
C 50.921875 63.703125 60.296875 54.078125 60.296875 36.359375 
C 60.296875 26.421875 57.359375 19 52.515625 14.453125 
L 45.53125 23.578125 
z
" id="Inter-Medium-81"/>
       <path d="M 7.984375 0 
L 51.921875 0 
L 51.921875 9.453125 
L 18.96875 9.453125 
L 18.96875 72.734375 
L 7.984375 72.734375 
z
" id="Inter-Medium-76"/>
       <path d="M 7.984375 0 
L 18.96875 0 
L 18.96875 27.515625 
L 33.875 27.515625 
C 34.125 27.515625 34.34375 27.515625 34.59375 27.515625 
L 49.359375 0 
L 61.859375 0 
L 45.734375 29.4375 
C 54.65625 32.734375 59.09375 40.15625 59.09375 49.921875 
C 59.09375 63.3125 50.78125 72.734375 33.921875 72.734375 
L 7.984375 72.734375 
z
M 18.96875 36.96875 
L 18.96875 63.3125 
L 32.75 63.3125 
C 43.578125 63.3125 48.046875 58.171875 48.046875 49.921875 
C 48.046875 41.71875 43.578125 36.96875 32.890625 36.96875 
z
" id="Inter-Medium-82"/>
       <path d="M 18.96875 72.734375 
L 7.984375 72.734375 
L 7.984375 0 
L 18.96875 0 
z
" id="Inter-Medium-73"/>
      </defs>
      <g transform="translate(270.446769 1075.977344)rotate(-90)scale(0.17 -0.17)">
       <use xlink:href="#Inter-Medium-66"/>
       <use x="65.411942" xlink:href="#Inter-Medium-48"/>
       <use x="130.007126" xlink:href="#Inter-Medium-48"/>
       <use x="194.60231" xlink:href="#Inter-Medium-65"/>
       <use x="264.59523" xlink:href="#Inter-Medium-65"/>
       <use x="334.58815" xlink:href="#Inter-Medium-78"/>
       <use x="409.26857" xlink:href="#Inter-Medium-81"/>
       <use x="486.115173" xlink:href="#Inter-Medium-76"/>
       <use x="542.54274" xlink:href="#Inter-Medium-82"/>
       <use x="607.031387" xlink:href="#Inter-Medium-73"/>
      </g>
     </g>
    </g>
    <g id="xtick_4">
     <g id="line2d_4">
      <g>
       <use style="stroke:#000000;stroke-width:0.8;" x="304.335814" xlink:href="#m50f609457d" y="961.2"/>
      </g>
     </g>
     <g id="text_4">
      <!-- B00BT8L2MW -->
      <defs>
       <path d="M 31.578125 -1 
C 46.703125 -1 57.390625 7.59375 57.453125 19.390625 
C 57.390625 28.546875 50.953125 36.25 42.828125 37.71875 
L 42.828125 38.140625 
C 49.890625 39.84375 54.6875 46.484375 54.765625 54.328125 
C 54.6875 65.453125 44.890625 73.71875 31.578125 73.71875 
C 18.109375 73.71875 8.3125 65.453125 8.375 54.328125 
C 8.3125 46.515625 13.109375 39.84375 20.3125 38.140625 
L 20.3125 37.71875 
C 12.046875 36.25 5.609375 28.546875 5.6875 19.390625 
C 5.609375 7.59375 16.296875 -1 31.578125 -1 
z
M 31.578125 7.984375 
C 22.484375 7.984375 16.734375 12.8125 16.796875 20.09375 
C 16.734375 27.65625 22.984375 33.0625 31.578125 33.0625 
C 40.015625 33.0625 46.265625 27.65625 46.34375 20.09375 
C 46.265625 12.8125 40.5625 7.984375 31.578125 7.984375 
z
M 31.578125 41.828125 
C 24.21875 41.828125 19 46.484375 19.078125 53.40625 
C 19 60.234375 24.046875 64.734375 31.578125 64.734375 
C 38.953125 64.734375 44 60.234375 44.078125 53.40625 
C 44 46.484375 38.8125 41.828125 31.578125 41.828125 
z
" id="Inter-Medium-56"/>
       <path d="M 7.984375 72.734375 
L 7.984375 0 
L 18.4375 0 
L 18.4375 52.65625 
L 19.109375 52.65625 
L 40.5625 0.109375 
L 49.21875 0.109375 
L 70.671875 52.625 
L 71.34375 52.625 
L 71.34375 0 
L 81.78125 0 
L 81.78125 72.734375 
L 68.46875 72.734375 
L 45.3125 16.1875 
L 44.46875 16.1875 
L 21.3125 72.734375 
z
" id="Inter-Medium-77"/>
       <path d="M 22.234375 0 
L 33.3125 0 
L 48.609375 54.46875 
L 49.1875 54.46875 
L 64.484375 0 
L 75.53125 0 
L 95.734375 72.734375 
L 84.15625 72.734375 
L 70.03125 16.375 
L 69.359375 16.375 
L 54.625 72.734375 
L 43.1875 72.734375 
L 28.453125 16.40625 
L 27.765625 16.40625 
L 13.609375 72.734375 
L 2.0625 72.734375 
z
" id="Inter-Medium-87"/>
      </defs>
      <g transform="translate(308.77972 1086.411094)rotate(-90)scale(0.17 -0.17)">
       <use xlink:href="#Inter-Medium-66"/>
       <use x="65.411942" xlink:href="#Inter-Medium-48"/>
       <use x="130.007126" xlink:href="#Inter-Medium-48"/>
       <use x="194.60231" xlink:href="#Inter-Medium-66"/>
       <use x="260.014252" xlink:href="#Inter-Medium-84"/>
       <use x="325.106598" xlink:href="#Inter-Medium-56"/>
       <use x="388.245819" xlink:href="#Inter-Medium-76"/>
       <use x="444.673386" xlink:href="#Inter-Medium-50"/>
       <use x="506.001526" xlink:href="#Inter-Medium-77"/>
       <use x="597.585358" xlink:href="#Inter-Medium-87"/>
      </g>
     </g>
    </g>
    <g id="xtick_5">
     <g id="line2d_5">
      <g>
       <use style="stroke:#000000;stroke-width:0.8;" x="342.668766" xlink:href="#m50f609457d" y="961.2"/>
      </g>
     </g>
     <g id="text_5">
      <!-- B00D856NOG -->
      <defs>
       <path d="M 31.53125 0 
C 53.6875 0 66.515625 13.75 66.515625 36.46875 
C 66.515625 59.09375 53.6875 72.734375 32.28125 72.734375 
L 7.984375 72.734375 
L 7.984375 0 
z
M 18.96875 9.59375 
L 18.96875 63.140625 
L 31.609375 63.140625 
C 47.515625 63.140625 55.71875 53.625 55.71875 36.46875 
C 55.71875 19.25 47.515625 9.59375 30.9375 9.59375 
z
" id="Inter-Medium-68"/>
       <path d="M 32.390625 -1 
C 47.59375 -1.140625 57.671875 9.796875 57.640625 23.75 
C 57.671875 37.671875 47.546875 47.65625 34.9375 47.65625 
C 27.28125 47.65625 20.640625 43.96875 16.90625 37.8125 
L 16.375 37.8125 
C 16.40625 54.515625 22.65625 64.28125 33.3125 64.28125 
C 40.3125 64.28125 44.703125 60.046875 46.203125 53.828125 
L 57.03125 53.828125 
C 55.359375 65.515625 46.3125 73.90625 33.3125 73.90625 
C 16.40625 73.90625 5.859375 59.375 5.859375 33.90625 
C 5.859375 7.140625 19.46875 -0.890625 32.390625 -1 
z
M 32.359375 8.234375 
C 23.90625 8.234375 17.71875 15.34375 17.71875 23.515625 
C 17.75 31.640625 24.21875 38.75 32.59375 38.75 
C 40.90625 38.75 47.015625 32.03125 46.984375 23.609375 
C 47.015625 15.015625 40.65625 8.234375 32.359375 8.234375 
z
" id="Inter-Medium-54"/>
       <path d="M 71.171875 36.359375 
C 71.171875 59.625 57.25 73.71875 38.421875 73.71875 
C 19.53125 73.71875 5.640625 59.625 5.640625 36.359375 
C 5.640625 13.140625 19.53125 -1 38.421875 -1 
C 57.25 -1 71.171875 13.109375 71.171875 36.359375 
z
M 60.296875 36.359375 
C 60.296875 18.640625 50.921875 9.015625 38.421875 9.015625 
C 25.890625 9.015625 16.546875 18.640625 16.546875 36.359375 
C 16.546875 54.078125 25.890625 63.703125 38.421875 63.703125 
C 50.921875 63.703125 60.296875 54.078125 60.296875 36.359375 
z
" id="Inter-Medium-79"/>
       <path d="M 57.203125 49.75 
L 68.46875 49.75 
C 66.015625 63.921875 53.90625 73.71875 38.21875 73.71875 
C 19.390625 73.71875 5.640625 59.546875 5.640625 36.328125 
C 5.640625 13.3125 19 -1 38.703125 -1 
C 56.359375 -1 68.96875 10.578125 68.96875 28.9375 
L 68.96875 37.21875 
L 40.375 37.21875 
L 40.375 28.15625 
L 58.34375 28.15625 
C 58.09375 16.4375 50.359375 9.015625 38.703125 9.015625 
C 25.890625 9.015625 16.546875 18.71875 16.546875 36.40625 
C 16.546875 54.015625 25.953125 63.703125 38.28125 63.703125 
C 47.9375 63.703125 54.46875 58.375 57.203125 49.75 
z
" id="Inter-Medium-71"/>
      </defs>
      <g transform="translate(347.112672 1084.113438)rotate(-90)scale(0.17 -0.17)">
       <use xlink:href="#Inter-Medium-66"/>
       <use x="65.411942" xlink:href="#Inter-Medium-48"/>
       <use x="130.007126" xlink:href="#Inter-Medium-48"/>
       <use x="194.60231" xlink:href="#Inter-Medium-68"/>
       <use x="266.761414" xlink:href="#Inter-Medium-56"/>
       <use x="329.900635" xlink:href="#Inter-Medium-53"/>
       <use x="391.903488" xlink:href="#Inter-Medium-54"/>
       <use x="455.468842" xlink:href="#Inter-Medium-78"/>
       <use x="530.149261" xlink:href="#Inter-Medium-79"/>
       <use x="606.960358" xlink:href="#Inter-Medium-71"/>
      </g>
     </g>
    </g>
    <g id="xtick_6">
     <g id="line2d_6">
      <g>
       <use style="stroke:#000000;stroke-width:0.8;" x="381.001717" xlink:href="#m50f609457d" y="961.2"/>
      </g>
     </g>
     <g id="text_6">
      <!-- B00G7UY3EG -->
      <defs>
       <path d="M 9.453125 0 
L 20.921875 0 
L 52.5625 63 
L 52.5625 72.734375 
L 4.46875 72.734375 
L 4.46875 63.3125 
L 41.1875 63.3125 
L 41.1875 62.78125 
z
" id="Inter-Medium-55"/>
       <path d="M 2.375 72.734375 
L 28.765625 28.546875 
L 28.765625 0 
L 39.703125 0 
L 39.703125 28.546875 
L 66.09375 72.734375 
L 53.625 72.734375 
L 34.625 39.671875 
L 33.84375 39.671875 
L 14.84375 72.734375 
z
" id="Inter-Medium-89"/>
       <path d="M 32.3125 -1 
C 47.15625 -1 58.0625 7.890625 58.03125 19.953125 
C 58.0625 29.15625 52.484375 35.765625 42.828125 37.25 
L 42.828125 37.8125 
C 50.421875 39.765625 55.359375 45.734375 55.328125 53.90625 
C 55.359375 64.59375 46.59375 73.71875 32.59375 73.71875 
C 19.25 73.71875 8.53125 65.65625 8.171875 53.828125 
L 18.78125 53.828125 
C 19.03125 60.515625 25.328125 64.5625 32.453125 64.5625 
C 39.875 64.5625 44.75 60.046875 44.703125 53.34375 
C 44.75 46.3125 39.09375 41.6875 31.03125 41.6875 
L 24.890625 41.6875 
L 24.890625 32.734375 
L 31.03125 32.734375 
C 41.125 32.734375 46.953125 27.625 46.953125 20.3125 
C 46.953125 13.25 40.796875 8.453125 32.25 8.453125 
C 24.359375 8.453125 18.21875 12.5 17.796875 18.96875 
L 6.640625 18.96875 
C 7.109375 7.109375 17.609375 -1 32.3125 -1 
z
" id="Inter-Medium-51"/>
       <path d="M 7.984375 0 
L 54.015625 0 
L 54.015625 9.453125 
L 18.96875 9.453125 
L 18.96875 31.71875 
L 51.203125 31.71875 
L 51.203125 41.125 
L 18.96875 41.125 
L 18.96875 63.28125 
L 53.59375 63.28125 
L 53.59375 72.734375 
L 7.984375 72.734375 
z
" id="Inter-Medium-69"/>
      </defs>
      <g transform="translate(385.445624 1081.967187)rotate(-90)scale(0.17 -0.17)">
       <use xlink:href="#Inter-Medium-66"/>
       <use x="65.411942" xlink:href="#Inter-Medium-48"/>
       <use x="130.007126" xlink:href="#Inter-Medium-48"/>
       <use x="194.60231" xlink:href="#Inter-Medium-71"/>
       <use x="269.495789" xlink:href="#Inter-Medium-55"/>
       <use x="327.379318" xlink:href="#Inter-Medium-85"/>
       <use x="401.136429" xlink:href="#Inter-Medium-89"/>
       <use x="469.602356" xlink:href="#Inter-Medium-51"/>
       <use x="534.019989" xlink:href="#Inter-Medium-69"/>
       <use x="594.318298" xlink:href="#Inter-Medium-71"/>
      </g>
     </g>
    </g>
    <g id="xtick_7">
     <g id="line2d_7">
      <g>
       <use style="stroke:#000000;stroke-width:0.8;" x="419.334669" xlink:href="#m50f609457d" y="961.2"/>
      </g>
     </g>
     <g id="text_7">
      <!-- B00IGISUTG -->
      <defs>
       <path d="M 47.65625 53.625 
L 58.234375 53.625 
C 57.921875 65.265625 47.625 73.71875 32.84375 73.71875 
C 18.25 73.71875 7.0625 65.375 7.0625 52.84375 
C 7.0625 42.71875 14.3125 36.796875 26 33.625 
L 34.59375 31.28125 
C 42.359375 29.21875 48.375 26.671875 48.375 20.203125 
C 48.375 13.109375 41.578125 8.421875 32.25 8.421875 
C 23.796875 8.421875 16.765625 12.1875 16.125 20.09375 
L 5.109375 20.09375 
C 5.828125 6.921875 16.015625 -1.203125 32.3125 -1.203125 
C 49.390625 -1.203125 59.234375 7.78125 59.234375 20.09375 
C 59.234375 33.203125 47.546875 38.28125 38.3125 40.546875 
L 31.21875 42.40625 
C 25.53125 43.859375 17.96875 46.515625 18 53.484375 
C 18 59.65625 23.65625 64.234375 32.59375 64.234375 
C 40.953125 64.234375 46.875 60.328125 47.65625 53.625 
z
" id="Inter-Medium-83"/>
      </defs>
      <g transform="translate(423.778575 1070.452344)rotate(-90)scale(0.17 -0.17)">
       <use xlink:href="#Inter-Medium-66"/>
       <use x="65.411942" xlink:href="#Inter-Medium-48"/>
       <use x="130.007126" xlink:href="#Inter-Medium-48"/>
       <use x="194.60231" xlink:href="#Inter-Medium-73"/>
       <use x="221.555435" xlink:href="#Inter-Medium-71"/>
       <use x="296.448914" xlink:href="#Inter-Medium-73"/>
       <use x="323.402039" xlink:href="#Inter-Medium-83"/>
       <use x="387.748642" xlink:href="#Inter-Medium-85"/>
       <use x="461.505753" xlink:href="#Inter-Medium-84"/>
       <use x="526.598099" xlink:href="#Inter-Medium-71"/>
      </g>
     </g>
    </g>
    <g id="xtick_8">
     <g id="line2d_8">
      <g>
       <use style="stroke:#000000;stroke-width:0.8;" x="457.667621" xlink:href="#m50f609457d" y="961.2"/>
      </g>
     </g>
     <g id="text_8">
      <!-- B00M51DDT2 -->
      <defs>
       <path d="M 32.5625 72.734375 
L 22.34375 72.734375 
C 21.953125 70.734375 16.40625 61.546875 5.796875 61.546875 
L 5.796875 52.515625 
C 14.03125 52.515625 19.75 55.78125 20.953125 57.921875 
L 21.5625 57.921875 
L 21.5625 0 
L 32.5625 0 
z
" id="Inter-Medium-49"/>
      </defs>
      <g transform="translate(462.111527 1081.106563)rotate(-90)scale(0.17 -0.17)">
       <use xlink:href="#Inter-Medium-66"/>
       <use x="65.411942" xlink:href="#Inter-Medium-48"/>
       <use x="130.007126" xlink:href="#Inter-Medium-48"/>
       <use x="194.60231" xlink:href="#Inter-Medium-77"/>
       <use x="286.186142" xlink:href="#Inter-Medium-53"/>
       <use x="348.188995" xlink:href="#Inter-Medium-49"/>
       <use x="393.430481" xlink:href="#Inter-Medium-68"/>
       <use x="465.589584" xlink:href="#Inter-Medium-68"/>
       <use x="537.748688" xlink:href="#Inter-Medium-84"/>
       <use x="602.841034" xlink:href="#Inter-Medium-50"/>
      </g>
     </g>
    </g>
    <g id="xtick_9">
     <g id="line2d_9">
      <g>
       <use style="stroke:#000000;stroke-width:0.8;" x="496.000572" xlink:href="#m50f609457d" y="961.2"/>
      </g>
     </g>
     <g id="text_9">
      <!-- B00M6QODH2 -->
      <defs>
       <path d="M 7.984375 0 
L 18.96875 0 
L 18.96875 31.71875 
L 55.21875 31.71875 
L 55.21875 0 
L 66.234375 0 
L 66.234375 72.734375 
L 55.21875 72.734375 
L 55.21875 41.125 
L 18.96875 41.125 
L 18.96875 72.734375 
L 7.984375 72.734375 
z
" id="Inter-Medium-72"/>
      </defs>
      <g transform="translate(500.444479 1089.085938)rotate(-90)scale(0.17 -0.17)">
       <use xlink:href="#Inter-Medium-66"/>
       <use x="65.411942" xlink:href="#Inter-Medium-48"/>
       <use x="130.007126" xlink:href="#Inter-Medium-48"/>
       <use x="194.60231" xlink:href="#Inter-Medium-77"/>
       <use x="286.186142" xlink:href="#Inter-Medium-54"/>
       <use x="349.751495" xlink:href="#Inter-Medium-81"/>
       <use x="426.598099" xlink:href="#Inter-Medium-79"/>
       <use x="503.409195" xlink:href="#Inter-Medium-68"/>
       <use x="575.568298" xlink:href="#Inter-Medium-72"/>
       <use x="649.787064" xlink:href="#Inter-Medium-50"/>
      </g>
     </g>
    </g>
    <g id="xtick_10">
     <g id="line2d_10">
      <g>
       <use style="stroke:#000000;stroke-width:0.8;" x="534.333524" xlink:href="#m50f609457d" y="961.2"/>
      </g>
     </g>
     <g id="text_10">
      <!-- B00MQSMDYU -->
      <g transform="translate(538.77743 1092.865781)rotate(-90)scale(0.17 -0.17)">
       <use xlink:href="#Inter-Medium-66"/>
       <use x="65.411942" xlink:href="#Inter-Medium-48"/>
       <use x="130.007126" xlink:href="#Inter-Medium-48"/>
       <use x="194.60231" xlink:href="#Inter-Medium-77"/>
       <use x="286.186142" xlink:href="#Inter-Medium-81"/>
       <use x="363.032745" xlink:href="#Inter-Medium-83"/>
       <use x="427.379349" xlink:href="#Inter-Medium-77"/>
       <use x="518.963181" xlink:href="#Inter-Medium-68"/>
       <use x="591.122284" xlink:href="#Inter-Medium-89"/>
       <use x="659.588211" xlink:href="#Inter-Medium-85"/>
      </g>
     </g>
    </g>
    <g id="xtick_11">
     <g id="line2d_11">
      <g>
       <use style="stroke:#000000;stroke-width:0.8;" x="572.666476" xlink:href="#m50f609457d" y="961.2"/>
      </g>
     </g>
     <g id="text_11">
      <!-- B00MXWFUQC -->
      <defs>
       <path d="M 15.625 72.734375 
L 2.90625 72.734375 
L 25.953125 36.359375 
L 2.765625 0 
L 15.5625 0 
L 33.03125 28.046875 
L 33.59375 28.046875 
L 51.0625 0 
L 63.84375 0 
L 41.046875 36.359375 
L 63.703125 72.734375 
L 51 72.734375 
L 33.59375 44.28125 
L 33.03125 44.28125 
z
" id="Inter-Medium-88"/>
       <path d="M 68.390625 49.078125 
C 65.90625 64.625 53.734375 73.71875 38.359375 73.71875 
C 19.53125 73.71875 5.640625 59.625 5.640625 36.359375 
C 5.640625 13.109375 19.46875 -1 38.359375 -1 
C 54.328125 -1 66.015625 9.015625 68.390625 23.40625 
L 57.3125 23.4375 
C 55.4375 14.140625 47.625 9.015625 38.421875 9.015625 
C 25.953125 9.015625 16.546875 18.578125 16.546875 36.359375 
C 16.546875 54.015625 25.921875 63.703125 38.453125 63.703125 
C 47.734375 63.703125 55.5 58.484375 57.3125 49.078125 
z
" id="Inter-Medium-67"/>
      </defs>
      <g transform="translate(577.110382 1092.868438)rotate(-90)scale(0.17 -0.17)">
       <use xlink:href="#Inter-Medium-66"/>
       <use x="65.411942" xlink:href="#Inter-Medium-48"/>
       <use x="130.007126" xlink:href="#Inter-Medium-48"/>
       <use x="194.60231" xlink:href="#Inter-Medium-77"/>
       <use x="286.186142" xlink:href="#Inter-Medium-88"/>
       <use x="352.805481" xlink:href="#Inter-Medium-87"/>
       <use x="450.603806" xlink:href="#Inter-Medium-70"/>
       <use x="509.197571" xlink:href="#Inter-Medium-85"/>
       <use x="582.954681" xlink:href="#Inter-Medium-81"/>
       <use x="659.801285" xlink:href="#Inter-Medium-67"/>
      </g>
     </g>
    </g>
    <g id="xtick_12">
     <g id="line2d_12">
      <g>
       <use style="stroke:#000000;stroke-width:0.8;" x="610.999428" xlink:href="#m50f609457d" y="961.2"/>
      </g>
     </g>
     <g id="text_12">
      <!-- B00P7N0320 -->
      <defs>
       <path d="M 7.984375 0 
L 18.96875 0 
L 18.96875 25.5625 
L 33.875 25.5625 
C 50.75 25.5625 59.09375 35.765625 59.09375 49.1875 
C 59.09375 62.578125 50.8125 72.734375 33.921875 72.734375 
L 7.984375 72.734375 
z
M 18.96875 34.875 
L 18.96875 63.3125 
L 32.75 63.3125 
C 43.609375 63.3125 48.046875 57.421875 48.046875 49.1875 
C 48.046875 40.9375 43.609375 34.875 32.890625 34.875 
z
" id="Inter-Medium-80"/>
      </defs>
      <g transform="translate(615.443334 1078.025312)rotate(-90)scale(0.17 -0.17)">
       <use xlink:href="#Inter-Medium-66"/>
       <use x="65.411942" xlink:href="#Inter-Medium-48"/>
       <use x="130.007126" xlink:href="#Inter-Medium-48"/>
       <use x="194.60231" xlink:href="#Inter-Medium-80"/>
       <use x="258.522781" xlink:href="#Inter-Medium-55"/>
       <use x="316.406311" xlink:href="#Inter-Medium-78"/>
       <use x="391.086731" xlink:href="#Inter-Medium-48"/>
       <use x="455.681915" xlink:href="#Inter-Medium-51"/>
       <use x="520.099548" xlink:href="#Inter-Medium-50"/>
       <use x="581.427689" xlink:href="#Inter-Medium-48"/>
      </g>
     </g>
    </g>
    <g id="xtick_13">
     <g id="line2d_13">
      <g>
       <use style="stroke:#000000;stroke-width:0.8;" x="649.332379" xlink:href="#m50f609457d" y="961.2"/>
      </g>
     </g>
     <g id="text_13">
      <!-- B00QN1T6NM -->
      <g transform="translate(653.776285 1084.870469)rotate(-90)scale(0.17 -0.17)">
       <use xlink:href="#Inter-Medium-66"/>
       <use x="65.411942" xlink:href="#Inter-Medium-48"/>
       <use x="130.007126" xlink:href="#Inter-Medium-48"/>
       <use x="194.60231" xlink:href="#Inter-Medium-81"/>
       <use x="271.448914" xlink:href="#Inter-Medium-78"/>
       <use x="346.129333" xlink:href="#Inter-Medium-49"/>
       <use x="391.370819" xlink:href="#Inter-Medium-84"/>
       <use x="456.463165" xlink:href="#Inter-Medium-54"/>
       <use x="520.028519" xlink:href="#Inter-Medium-78"/>
       <use x="594.708939" xlink:href="#Inter-Medium-77"/>
      </g>
     </g>
    </g>
    <g id="xtick_14">
     <g id="line2d_14">
      <g>
       <use style="stroke:#000000;stroke-width:0.8;" x="687.665331" xlink:href="#m50f609457d" y="961.2"/>
      </g>
     </g>
     <g id="text_14">
      <!-- B00UCZGS6S -->
      <defs>
       <path d="M 6.109375 0 
L 58.09375 0 
L 58.09375 9.453125 
L 19.53125 9.453125 
L 57.78125 65.40625 
L 57.78125 72.734375 
L 5.796875 72.734375 
L 5.796875 63.28125 
L 44.359375 63.28125 
L 6.109375 7.3125 
z
" id="Inter-Medium-90"/>
      </defs>
      <g transform="translate(692.109237 1082.599375)rotate(-90)scale(0.17 -0.17)">
       <use xlink:href="#Inter-Medium-66"/>
       <use x="65.411942" xlink:href="#Inter-Medium-48"/>
       <use x="130.007126" xlink:href="#Inter-Medium-48"/>
       <use x="194.60231" xlink:href="#Inter-Medium-85"/>
       <use x="268.359421" xlink:href="#Inter-Medium-67"/>
       <use x="341.903473" xlink:href="#Inter-Medium-90"/>
       <use x="405.788422" xlink:href="#Inter-Medium-71"/>
       <use x="480.6819" xlink:href="#Inter-Medium-83"/>
       <use x="545.028503" xlink:href="#Inter-Medium-54"/>
       <use x="608.593857" xlink:href="#Inter-Medium-83"/>
      </g>
     </g>
    </g>
    <g id="xtick_15">
     <g id="line2d_15">
      <g>
       <use style="stroke:#000000;stroke-width:0.8;" x="725.998283" xlink:href="#m50f609457d" y="961.2"/>
      </g>
     </g>
     <g id="text_15">
      <!-- B00UH3L82Y -->
      <g transform="translate(730.442189 1079.781094)rotate(-90)scale(0.17 -0.17)">
       <use xlink:href="#Inter-Medium-66"/>
       <use x="65.411942" xlink:href="#Inter-Medium-48"/>
       <use x="130.007126" xlink:href="#Inter-Medium-48"/>
       <use x="194.60231" xlink:href="#Inter-Medium-85"/>
       <use x="268.359421" xlink:href="#Inter-Medium-72"/>
       <use x="342.578186" xlink:href="#Inter-Medium-51"/>
       <use x="406.995819" xlink:href="#Inter-Medium-76"/>
       <use x="463.423386" xlink:href="#Inter-Medium-56"/>
       <use x="526.562607" xlink:href="#Inter-Medium-50"/>
       <use x="587.890747" xlink:href="#Inter-Medium-89"/>
      </g>
     </g>
    </g>
    <g id="xtick_16">
     <g id="line2d_16">
      <g>
       <use style="stroke:#000000;stroke-width:0.8;" x="764.331234" xlink:href="#m50f609457d" y="961.2"/>
      </g>
     </g>
     <g id="text_16">
      <!-- B00VH88CJ0 -->
      <defs>
       <path d="M 14.34375 72.734375 
L 2.484375 72.734375 
L 28.65625 0 
L 41.34375 0 
L 67.515625 72.734375 
L 55.640625 72.734375 
L 35.40625 13.5 
L 34.59375 13.5 
z
" id="Inter-Medium-86"/>
      </defs>
      <g transform="translate(768.775141 1080.131719)rotate(-90)scale(0.17 -0.17)">
       <use xlink:href="#Inter-Medium-66"/>
       <use x="65.411942" xlink:href="#Inter-Medium-48"/>
       <use x="130.007126" xlink:href="#Inter-Medium-48"/>
       <use x="194.60231" xlink:href="#Inter-Medium-86"/>
       <use x="264.59523" xlink:href="#Inter-Medium-72"/>
       <use x="338.813995" xlink:href="#Inter-Medium-56"/>
       <use x="401.953217" xlink:href="#Inter-Medium-56"/>
       <use x="465.092438" xlink:href="#Inter-Medium-67"/>
       <use x="538.63649" xlink:href="#Inter-Medium-74"/>
       <use x="593.821152" xlink:href="#Inter-Medium-48"/>
      </g>
     </g>
    </g>
    <g id="xtick_17">
     <g id="line2d_17">
      <g>
       <use style="stroke:#000000;stroke-width:0.8;" x="802.664186" xlink:href="#m50f609457d" y="961.2"/>
      </g>
     </g>
     <g id="text_17">
      <!-- B00X5RV14Y -->
      <defs>
       <path d="M 5.46875 14.203125 
L 39.953125 14.203125 
L 39.953125 0 
L 50.421875 0 
L 50.421875 14.203125 
L 60.046875 14.203125 
L 60.046875 23.515625 
L 50.421875 23.515625 
L 50.421875 72.734375 
L 36.890625 72.734375 
L 5.46875 23.078125 
z
M 40.015625 23.515625 
L 16.96875 23.515625 
L 16.96875 24.078125 
L 39.453125 59.65625 
L 40.015625 59.65625 
z
" id="Inter-Medium-52"/>
      </defs>
      <g transform="translate(807.108092 1076.460781)rotate(-90)scale(0.17 -0.17)">
       <use xlink:href="#Inter-Medium-66"/>
       <use x="65.411942" xlink:href="#Inter-Medium-48"/>
       <use x="130.007126" xlink:href="#Inter-Medium-48"/>
       <use x="194.60231" xlink:href="#Inter-Medium-88"/>
       <use x="261.221649" xlink:href="#Inter-Medium-53"/>
       <use x="323.224503" xlink:href="#Inter-Medium-82"/>
       <use x="387.71315" xlink:href="#Inter-Medium-86"/>
       <use x="457.70607" xlink:href="#Inter-Medium-49"/>
       <use x="502.947556" xlink:href="#Inter-Medium-52"/>
       <use x="568.359497" xlink:href="#Inter-Medium-89"/>
      </g>
     </g>
    </g>
    <g id="xtick_18">
     <g id="line2d_18">
      <g>
       <use style="stroke:#000000;stroke-width:0.8;" x="840.997138" xlink:href="#m50f609457d" y="961.2"/>
      </g>
     </g>
     <g id="text_18">
      <!-- B014EB532U -->
      <g transform="translate(845.441044 1074.93875)rotate(-90)scale(0.17 -0.17)">
       <use xlink:href="#Inter-Medium-66"/>
       <use x="65.411942" xlink:href="#Inter-Medium-48"/>
       <use x="130.007126" xlink:href="#Inter-Medium-49"/>
       <use x="175.248611" xlink:href="#Inter-Medium-52"/>
       <use x="240.660553" xlink:href="#Inter-Medium-69"/>
       <use x="300.958862" xlink:href="#Inter-Medium-66"/>
       <use x="366.370804" xlink:href="#Inter-Medium-53"/>
       <use x="428.373657" xlink:href="#Inter-Medium-51"/>
       <use x="492.79129" xlink:href="#Inter-Medium-50"/>
       <use x="554.119431" xlink:href="#Inter-Medium-85"/>
      </g>
     </g>
    </g>
    <g id="xtick_19">
     <g id="line2d_19">
      <g>
       <use style="stroke:#000000;stroke-width:0.8;" x="879.330089" xlink:href="#m50f609457d" y="961.2"/>
      </g>
     </g>
     <g id="text_19">
      <!-- B018JW3EOY -->
      <g transform="translate(883.773996 1080.63375)rotate(-90)scale(0.17 -0.17)">
       <use xlink:href="#Inter-Medium-66"/>
       <use x="65.411942" xlink:href="#Inter-Medium-48"/>
       <use x="130.007126" xlink:href="#Inter-Medium-49"/>
       <use x="175.248611" xlink:href="#Inter-Medium-56"/>
       <use x="238.387833" xlink:href="#Inter-Medium-74"/>
       <use x="293.572495" xlink:href="#Inter-Medium-87"/>
       <use x="391.370819" xlink:href="#Inter-Medium-51"/>
       <use x="455.788452" xlink:href="#Inter-Medium-69"/>
       <use x="516.086761" xlink:href="#Inter-Medium-79"/>
       <use x="592.897858" xlink:href="#Inter-Medium-89"/>
      </g>
     </g>
    </g>
    <g id="xtick_20">
     <g id="line2d_20">
      <g>
       <use style="stroke:#000000;stroke-width:0.8;" x="917.663041" xlink:href="#m50f609457d" y="961.2"/>
      </g>
     </g>
     <g id="text_20">
      <!-- B019PV2I3G -->
      <g transform="translate(922.106947 1070.255781)rotate(-90)scale(0.17 -0.17)">
       <use xlink:href="#Inter-Medium-66"/>
       <use x="65.411942" xlink:href="#Inter-Medium-48"/>
       <use x="130.007126" xlink:href="#Inter-Medium-49"/>
       <use x="175.248611" xlink:href="#Inter-Medium-57"/>
       <use x="238.813965" xlink:href="#Inter-Medium-80"/>
       <use x="302.734436" xlink:href="#Inter-Medium-86"/>
       <use x="372.727356" xlink:href="#Inter-Medium-50"/>
       <use x="434.055496" xlink:href="#Inter-Medium-73"/>
       <use x="461.008621" xlink:href="#Inter-Medium-51"/>
       <use x="525.426254" xlink:href="#Inter-Medium-71"/>
      </g>
     </g>
    </g>
    <g id="text_21">
     <!-- Code product -->
     <defs>
      <path d="M 65.203125 50 
C 63.421875 60.375 54.46875 73.71875 37.359375 73.71875 
C 19.46875 73.71875 7.203125 58.671875 7.203125 36.359375 
C 7.203125 14.0625 19.46875 -1 37.359375 -1 
C 54.46875 -1 63.421875 12.5 65.203125 22.734375 
L 62.75 22.734375 
C 60.96875 12.921875 52.203125 1.28125 37.359375 1.28125 
C 22.4375 1.28125 9.515625 13.5 9.515625 36.359375 
C 9.515625 58.953125 22.4375 71.453125 37.359375 71.453125 
C 52.203125 71.453125 60.96875 59.65625 62.75 50 
z
" id="Inter-ThinBETA-67"/>
      <path d="M 28.984375 -1.140625 
C 41.828125 -1.140625 51.5625 11.046875 51.5625 27.125 
C 51.5625 43.1875 41.796875 55.390625 28.984375 55.390625 
C 16.125 55.390625 6.359375 43.21875 6.359375 27.125 
C 6.359375 11.046875 16.125 -1.140625 28.984375 -1.140625 
z
M 28.984375 1.140625 
C 17.40625 1.140625 8.671875 12.328125 8.671875 27.125 
C 8.671875 41.875 17.46875 53.125 28.984375 53.125 
C 40.515625 53.125 49.25 41.90625 49.25 27.125 
C 49.25 12.328125 40.5625 1.140625 28.984375 1.140625 
z
" id="Inter-ThinBETA-111"/>
      <path d="M 27.421875 -1.140625 
C 36.15625 -1.140625 42.90625 4.609375 45.875 13.640625 
L 46.125 13.640625 
L 46.125 0 
L 48.4375 0 
L 48.4375 72.734375 
L 46.125 72.734375 
L 46.125 40.625 
L 45.875 40.625 
C 43.046875 49.71875 36.078125 55.390625 27.421875 55.390625 
C 14.625 55.390625 6.359375 43.1875 6.359375 27.125 
C 6.359375 11.015625 14.484375 -1.140625 27.421875 -1.140625 
z
M 27.421875 1.140625 
C 15.84375 1.140625 8.671875 12.359375 8.671875 27.125 
C 8.671875 41.90625 15.90625 53.125 27.421875 53.125 
C 38.921875 53.125 46.125 41.90625 46.125 27.125 
C 46.125 12.359375 39 1.140625 27.421875 1.140625 
z
" id="Inter-ThinBETA-100"/>
      <path d="M 30.109375 -1.140625 
C 40.734375 -1.140625 46.59375 5.546875 49 9.65625 
L 47.125 10.9375 
C 45.140625 7.671875 40.171875 1.140625 30.109375 1.140625 
C 16.40625 1.140625 8.703125 13.03125 8.671875 27.265625 
L 51.28125 27.265625 
L 51.28125 29.546875 
C 51.28125 43.640625 41.65625 55.390625 28.984375 55.390625 
C 16.09375 55.390625 6.359375 43.1875 6.359375 27.125 
C 6.359375 11.078125 15.796875 -1.140625 30.109375 -1.140625 
z
M 8.734375 29.546875 
C 9.703125 43.109375 18.25 53.125 28.984375 53.125 
C 40.015625 53.125 48.96875 42.65625 48.96875 29.546875 
L 8.734375 29.546875 
z
" id="Inter-ThinBETA-101"/>
      <path id="Inter-ThinBETA-32"/>
      <path d="M 9.375 -20.453125 
L 11.65625 -20.453125 
L 11.65625 13.640625 
L 11.890625 13.640625 
C 14.734375 4.546875 21.734375 -1.140625 30.40625 -1.140625 
C 43.1875 -1.140625 51.421875 11.078125 51.421875 27.125 
C 51.421875 43.25 43.296875 55.390625 30.40625 55.390625 
C 21.625 55.390625 14.84375 49.6875 11.890625 40.625 
L 11.65625 40.625 
L 11.65625 54.546875 
L 9.34375 54.546875 
L 9.34375 -20.453125 
z
M 11.65625 27.125 
C 11.65625 41.90625 18.828125 53.125 30.40625 53.125 
C 41.96875 53.125 49.109375 41.90625 49.109375 27.125 
C 49.109375 12.359375 41.90625 1.140625 30.40625 1.140625 
C 18.890625 1.140625 11.65625 12.359375 11.65625 27.125 
z
" id="Inter-ThinBETA-112"/>
      <path d="M 9.65625 0 
L 11.9375 0 
L 11.9375 36.640625 
C 11.9375 46.171875 18.890625 52.984375 28.546875 52.984375 
C 30.640625 52.984375 32.5 52.65625 33.953125 52.09375 
L 34.796875 54.21875 
C 33.0625 54.859375 30.9375 55.25 28.546875 55.25 
C 21.03125 55.25 14.734375 51.5625 12.1875 45.875 
L 11.9375 45.875 
L 11.9375 54.546875 
L 9.625 54.546875 
L 9.625 0 
z
" id="Inter-ThinBETA-114"/>
      <path d="M 44.859375 17.890625 
C 44.859375 8.375 37.921875 1.5625 28.265625 1.5625 
C 18.609375 1.5625 11.9375 8.234375 11.9375 17.890625 
L 11.9375 54.546875 
L 9.625 54.546875 
L 9.625 17.890625 
C 9.625 6.953125 17.328125 -0.703125 28.265625 -0.703125 
C 35.796875 -0.703125 42.046875 2.984375 44.609375 8.671875 
L 44.859375 8.671875 
L 44.859375 0 
L 47.15625 0 
L 47.15625 54.546875 
L 44.859375 54.546875 
z
" id="Inter-ThinBETA-117"/>
      <path d="M 29.265625 -1.140625 
C 39.203125 -1.140625 47.265625 5.609375 48.859375 15.90625 
L 46.421875 15.90625 
C 45.09375 7 37.96875 1.140625 29.265625 1.140625 
C 17.125 1.140625 8.671875 12.609375 8.671875 27.125 
C 8.671875 42.046875 17.515625 53.125 29.265625 53.125 
C 37.859375 53.125 44.8125 47.1875 46.265625 38.640625 
L 48.71875 38.640625 
C 47.046875 48.578125 39.03125 55.390625 29.265625 55.390625 
C 15.953125 55.390625 6.359375 43.109375 6.359375 27.125 
C 6.359375 11.015625 16.015625 -1.140625 29.265625 -1.140625 
z
" id="Inter-ThinBETA-99"/>
      <path d="M 26.703125 54.546875 
L 15.34375 54.546875 
L 15.34375 67.609375 
L 13.03125 67.609375 
L 13.03125 54.546875 
L 5.078125 54.546875 
L 5.078125 52.265625 
L 13.03125 52.265625 
L 13.03125 11.5 
C 13.03125 3.828125 18.859375 -1 25.5625 -1 
C 27.28125 -1 28.546875 -0.671875 29.96875 -0.140625 
L 29.265625 1.984375 
C 28.015625 1.53125 26.953125 1.28125 25.5625 1.28125 
C 20.140625 1.28125 15.34375 5.15625 15.34375 11.5 
L 15.34375 52.265625 
L 26.703125 52.265625 
L 26.703125 54.546875 
z
" id="Inter-ThinBETA-116"/>
     </defs>
     <g transform="translate(521.775781 1104.240313)scale(0.1 -0.1)">
      <use xlink:href="#Inter-ThinBETA-67"/>
      <use x="72.301147" xlink:href="#Inter-ThinBETA-111"/>
      <use x="130.255707" xlink:href="#Inter-ThinBETA-100"/>
      <use x="190.056854" xlink:href="#Inter-ThinBETA-101"/>
      <use x="247.727325" xlink:href="#Inter-ThinBETA-32"/>
      <use x="275.852325" xlink:href="#Inter-ThinBETA-112"/>
      <use x="333.664841" xlink:href="#Inter-ThinBETA-114"/>
      <use x="369.886429" xlink:href="#Inter-ThinBETA-111"/>
      <use x="427.840988" xlink:href="#Inter-ThinBETA-100"/>
      <use x="487.642136" xlink:href="#Inter-ThinBETA-117"/>
      <use x="544.460327" xlink:href="#Inter-ThinBETA-99"/>
      <use x="599.716019" xlink:href="#Inter-ThinBETA-116"/>
     </g>
    </g>
   </g>
   <g id="matplotlib.axis_2">
    <g id="ytick_1">
     <g id="line2d_21">
      <defs>
       <path d="M 0 0 
L -3.5 0 
" id="m9ca0d58e5c" style="stroke:#000000;stroke-width:0.8;"/>
      </defs>
      <g>
       <use style="stroke:#000000;stroke-width:0.8;" x="135" xlink:href="#m9ca0d58e5c" y="961.2"/>
      </g>
     </g>
     <g id="text_22">
      <!-- 0 -->
      <g transform="translate(117.019063 967.382422)scale(0.17 -0.17)">
       <use xlink:href="#Inter-Medium-48"/>
      </g>
     </g>
    </g>
    <g id="ytick_2">
     <g id="line2d_22">
      <g>
       <use style="stroke:#000000;stroke-width:0.8;" x="135" xlink:href="#m9ca0d58e5c" y="802.8"/>
      </g>
     </g>
     <g id="text_23">
      <!-- 20 -->
      <g transform="translate(106.593281 808.982422)scale(0.17 -0.17)">
       <use xlink:href="#Inter-Medium-50"/>
       <use x="61.32814" xlink:href="#Inter-Medium-48"/>
      </g>
     </g>
    </g>
    <g id="ytick_3">
     <g id="line2d_23">
      <g>
       <use style="stroke:#000000;stroke-width:0.8;" x="135" xlink:href="#m9ca0d58e5c" y="644.4"/>
      </g>
     </g>
     <g id="text_24">
      <!-- 40 -->
      <g transform="translate(105.9 650.582422)scale(0.17 -0.17)">
       <use xlink:href="#Inter-Medium-52"/>
       <use x="65.411942" xlink:href="#Inter-Medium-48"/>
      </g>
     </g>
    </g>
    <g id="ytick_4">
     <g id="line2d_24">
      <g>
       <use style="stroke:#000000;stroke-width:0.8;" x="135" xlink:href="#m9ca0d58e5c" y="486"/>
      </g>
     </g>
     <g id="text_25">
      <!-- 60 -->
      <g transform="translate(106.213437 492.182422)scale(0.17 -0.17)">
       <use xlink:href="#Inter-Medium-54"/>
       <use x="63.565353" xlink:href="#Inter-Medium-48"/>
      </g>
     </g>
    </g>
    <g id="ytick_5">
     <g id="line2d_25">
      <g>
       <use style="stroke:#000000;stroke-width:0.8;" x="135" xlink:href="#m9ca0d58e5c" y="327.6"/>
      </g>
     </g>
     <g id="text_26">
      <!-- 80 -->
      <g transform="translate(106.285156 333.782422)scale(0.17 -0.17)">
       <use xlink:href="#Inter-Medium-56"/>
       <use x="63.139221" xlink:href="#Inter-Medium-48"/>
      </g>
     </g>
    </g>
    <g id="ytick_6">
     <g id="line2d_26">
      <g>
       <use style="stroke:#000000;stroke-width:0.8;" x="135" xlink:href="#m9ca0d58e5c" y="169.2"/>
      </g>
     </g>
     <g id="text_27">
      <!-- 100 -->
      <g transform="translate(98.345625 175.382422)scale(0.17 -0.17)">
       <use xlink:href="#Inter-Medium-49"/>
       <use x="45.241486" xlink:href="#Inter-Medium-48"/>
       <use x="109.83667" xlink:href="#Inter-Medium-48"/>
      </g>
     </g>
    </g>
   </g>
   <g id="patch_63">
    <path d="M 135 961.2 
L 135 129.6 
" style="fill:none;stroke:#000000;stroke-linecap:square;stroke-linejoin:miter;stroke-width:0.8;"/>
   </g>
   <g id="patch_64">
    <path d="M 972 961.2 
L 972 129.6 
" style="fill:none;stroke:#000000;stroke-linecap:square;stroke-linejoin:miter;stroke-width:0.8;"/>
   </g>
   <g id="patch_65">
    <path d="M 135 961.2 
L 972 961.2 
" style="fill:none;stroke:#000000;stroke-linecap:square;stroke-linejoin:miter;stroke-width:0.8;"/>
   </g>
   <g id="patch_66">
    <path d="M 135 129.6 
L 972 129.6 
" style="fill:none;stroke:#000000;stroke-linecap:square;stroke-linejoin:miter;stroke-width:0.8;"/>
   </g>
   <g id="text_28">
    <!-- Opinion for besteller products -->
    <defs>
     <path d="M 67.46875 36.359375 
C 67.46875 58.59375 55.25 73.71875 37.359375 73.71875 
C 19.421875 73.71875 7.203125 58.5625 7.203125 36.359375 
C 7.203125 14.203125 19.390625 -1 37.359375 -1 
C 55.25 -1 67.46875 14.140625 67.46875 36.359375 
z
M 65.171875 36.359375 
C 65.203125 15.484375 53.90625 1.28125 37.359375 1.28125 
C 20.640625 1.28125 9.515625 15.625 9.515625 36.359375 
C 9.515625 57.390625 20.875 71.453125 37.359375 71.453125 
C 53.90625 71.453125 65.125 57.25 65.171875 36.359375 
z
" id="Inter-ThinBETA-79"/>
     <path d="M 9.9375 0 
L 12.21875 0 
L 12.21875 54.546875 
L 9.90625 54.546875 
L 9.90625 0 
z
M 11.078125 64.484375 
C 12.328125 64.484375 13.359375 65.515625 13.359375 66.765625 
C 13.359375 68 12.328125 69.03125 11.078125 69.03125 
C 9.84375 69.03125 8.765625 68 8.765625 66.765625 
C 8.765625 65.515625 9.84375 64.484375 11.078125 64.484375 
z
" id="Inter-ThinBETA-105"/>
     <path d="M 11.9375 36.640625 
C 11.9375 46.171875 18.890625 52.984375 28.546875 52.984375 
C 38.21875 52.984375 44.859375 46.3125 44.859375 36.640625 
L 44.859375 0 
L 47.15625 0 
L 47.15625 36.640625 
C 47.15625 47.578125 39.484375 55.25 28.546875 55.25 
C 21.03125 55.25 14.734375 51.5625 12.1875 45.875 
L 11.9375 45.875 
L 11.9375 54.546875 
L 9.625 54.546875 
L 9.625 0 
L 11.9375 0 
z
" id="Inter-ThinBETA-110"/>
     <path d="M 28.40625 54.546875 
L 16.625 54.546875 
L 16.625 62.5 
C 16.625 68.859375 21.421875 72.734375 26.84375 72.734375 
C 28.234375 72.734375 29.296875 72.484375 30.46875 72.046875 
L 31.1875 74.1875 
C 29.828125 74.6875 28.546875 75 26.84375 75 
C 20.140625 75 14.3125 70.171875 14.3125 62.5 
L 14.3125 54.546875 
L 6.78125 54.546875 
L 6.78125 52.265625 
L 14.3125 52.265625 
L 14.3125 0 
L 16.625 0 
L 16.625 52.265625 
L 28.40625 52.265625 
L 28.40625 54.546875 
z
" id="Inter-ThinBETA-102"/>
     <path d="M 11.359375 0 
L 13.640625 0 
L 13.640625 13.640625 
L 13.890625 13.640625 
C 16.828125 4.578125 23.609375 -1.140625 32.390625 -1.140625 
C 45.28125 -1.140625 53.40625 11.015625 53.40625 27.125 
C 53.40625 43.1875 45.171875 55.390625 32.390625 55.390625 
C 23.71875 55.390625 16.734375 49.71875 13.890625 40.625 
L 13.640625 40.625 
L 13.640625 72.734375 
L 11.328125 72.734375 
L 11.328125 0 
z
M 13.640625 27.125 
C 13.640625 41.90625 20.875 53.125 32.390625 53.125 
C 43.890625 53.125 51.109375 41.90625 51.109375 27.125 
C 51.109375 12.359375 43.96875 1.140625 32.390625 1.140625 
C 20.8125 1.140625 13.640625 12.359375 13.640625 27.125 
z
" id="Inter-ThinBETA-98"/>
     <path d="M 42.328125 43.046875 
C 39.671875 51.203125 33.984375 55.390625 25.5625 55.390625 
C 15.625 55.390625 8.625 49.609375 8.625 41.046875 
C 8.625 34.234375 13.0625 29.375 21.453125 27.265625 
L 29.96875 25.140625 
C 36.96875 23.40625 40.453125 19.421875 40.453125 13.78125 
C 40.453125 6.171875 34.0625 1.140625 24.578125 1.140625 
C 15.90625 1.140625 10.546875 5.328125 8.953125 13.0625 
L 6.640625 12.46875 
C 8.484375 3.796875 14.875 -1.140625 24.578125 -1.140625 
C 35.265625 -1.140625 42.75 4.859375 42.75 13.78125 
C 42.75 20.484375 38.53125 25.421875 30.546875 27.421875 
L 22.015625 29.546875 
C 14.59375 31.390625 10.9375 35.328125 10.9375 41.046875 
C 10.9375 48.296875 16.875 53.125 25.5625 53.125 
C 33.0625 53.125 37.78125 49.578125 40.015625 42.4375 
L 42.328125 43.046875 
z
" id="Inter-ThinBETA-115"/>
     <path d="M 11.9375 72.734375 
L 9.625 72.734375 
L 9.625 0 
L 11.9375 0 
L 11.9375 72.734375 
z
" id="Inter-ThinBETA-108"/>
    </defs>
    <g transform="translate(471.64125 123.6)scale(0.12 -0.12)">
     <use xlink:href="#Inter-ThinBETA-79"/>
     <use x="74.715927" xlink:href="#Inter-ThinBETA-112"/>
     <use x="132.528442" xlink:href="#Inter-ThinBETA-105"/>
     <use x="154.687531" xlink:href="#Inter-ThinBETA-110"/>
     <use x="211.505722" xlink:href="#Inter-ThinBETA-105"/>
     <use x="233.66481" xlink:href="#Inter-ThinBETA-111"/>
     <use x="291.61937" xlink:href="#Inter-ThinBETA-110"/>
     <use x="348.437561" xlink:href="#Inter-ThinBETA-32"/>
     <use x="376.562561" xlink:href="#Inter-ThinBETA-102"/>
     <use x="409.659149" xlink:href="#Inter-ThinBETA-111"/>
     <use x="467.613708" xlink:href="#Inter-ThinBETA-114"/>
     <use x="503.835297" xlink:href="#Inter-ThinBETA-32"/>
     <use x="531.960297" xlink:href="#Inter-ThinBETA-98"/>
     <use x="591.761444" xlink:href="#Inter-ThinBETA-101"/>
     <use x="649.431915" xlink:href="#Inter-ThinBETA-115"/>
     <use x="698.721695" xlink:href="#Inter-ThinBETA-116"/>
     <use x="733.522842" xlink:href="#Inter-ThinBETA-101"/>
     <use x="791.193314" xlink:href="#Inter-ThinBETA-108"/>
     <use x="812.784225" xlink:href="#Inter-ThinBETA-108"/>
     <use x="834.375137" xlink:href="#Inter-ThinBETA-101"/>
     <use x="892.045609" xlink:href="#Inter-ThinBETA-114"/>
     <use x="928.267197" xlink:href="#Inter-ThinBETA-32"/>
     <use x="956.392197" xlink:href="#Inter-ThinBETA-112"/>
     <use x="1014.204712" xlink:href="#Inter-ThinBETA-114"/>
     <use x="1050.4263" xlink:href="#Inter-ThinBETA-111"/>
     <use x="1108.380859" xlink:href="#Inter-ThinBETA-100"/>
     <use x="1168.182007" xlink:href="#Inter-ThinBETA-117"/>
     <use x="1225.000198" xlink:href="#Inter-ThinBETA-99"/>
     <use x="1280.25589" xlink:href="#Inter-ThinBETA-116"/>
     <use x="1315.057037" xlink:href="#Inter-ThinBETA-115"/>
    </g>
   </g>
   <g id="legend_1">
    <g id="patch_67">
     <path d="M 877.4525 193.56875 
L 965.6 193.56875 
Q 968 193.56875 968 191.16875 
L 968 140 
Q 968 137.6 965.6 137.6 
L 877.4525 137.6 
Q 875.0525 137.6 875.0525 140 
L 875.0525 191.16875 
Q 875.0525 193.56875 877.4525 193.56875 
z
" style="fill:#004c3d;opacity:0.5;stroke:#004c3d;stroke-linejoin:miter;"/>
    </g>
    <g id="patch_68">
     <path d="M 875.4525 191.56875 
L 963.6 191.56875 
Q 966 191.56875 966 189.16875 
L 966 138 
Q 966 135.6 963.6 135.6 
L 875.4525 135.6 
Q 873.0525 135.6 873.0525 138 
L 873.0525 189.16875 
Q 873.0525 191.56875 875.4525 191.56875 
z
" style="fill:#00ffcc;stroke:#cccccc;stroke-linejoin:miter;"/>
    </g>
    <g id="patch_69">
     <path d="M 877.8525 149.476875 
L 901.8525 149.476875 
L 901.8525 141.076875 
L 877.8525 141.076875 
z
" style="fill:#b5ffb9;stroke:#ffffff;stroke-linejoin:miter;"/>
    </g>
    <g id="text_29">
     <!-- positive -->
     <defs>
      <path d="M 7.140625 -20.453125 
L 17.75 -20.453125 
L 17.75 8.484375 
L 18.390625 8.484375 
C 20.3125 5 24.21875 -1.0625 34.15625 -1.0625 
C 47.375 -1.0625 56.96875 9.515625 56.96875 27.171875 
C 56.96875 44.84375 47.234375 55.25 34.0625 55.25 
C 23.9375 55.25 20.28125 49.078125 18.390625 45.703125 
L 17.515625 45.703125 
L 17.515625 54.546875 
L 7.140625 54.546875 
z
M 17.546875 27.265625 
C 17.546875 38.671875 22.515625 46.234375 31.78125 46.234375 
C 41.40625 46.234375 46.234375 38.109375 46.234375 27.265625 
C 46.234375 16.328125 41.265625 7.984375 31.78125 7.984375 
C 22.65625 7.984375 17.546875 15.796875 17.546875 27.265625 
z
" id="Inter-Medium-112"/>
      <path d="M 30.109375 -1.09375 
C 45.484375 -1.09375 55.546875 10.15625 55.546875 27.03125 
C 55.546875 44 45.484375 55.25 30.109375 55.25 
C 14.734375 55.25 4.6875 44 4.6875 27.03125 
C 4.6875 10.15625 14.734375 -1.09375 30.109375 -1.09375 
z
M 30.15625 7.8125 
C 20.09375 7.8125 15.40625 16.578125 15.40625 27.0625 
C 15.40625 37.5 20.09375 46.375 30.15625 46.375 
C 40.125 46.375 44.8125 37.5 44.8125 27.0625 
C 44.8125 16.578125 40.125 7.8125 30.15625 7.8125 
z
" id="Inter-Medium-111"/>
      <path d="M 48.015625 41.234375 
C 45.8125 49.71875 39.171875 55.25 27.375 55.25 
C 15.0625 55.25 6.328125 48.75 6.328125 39.09375 
C 6.328125 31.359375 11.015625 26.203125 21.234375 23.9375 
L 30.46875 21.90625 
C 35.71875 20.734375 38.171875 18.390625 38.171875 14.984375 
C 38.171875 10.765625 33.671875 7.453125 26.703125 7.453125 
C 20.34375 7.453125 16.265625 10.1875 14.984375 15.546875 
L 4.71875 13.984375 
C 6.5 4.328125 14.53125 -1.09375 26.78125 -1.09375 
C 39.953125 -1.09375 49.078125 5.890625 49.078125 15.765625 
C 49.078125 23.46875 44.171875 28.234375 34.15625 30.546875 
L 25.5 32.53125 
C 19.5 33.953125 16.90625 35.96875 16.9375 39.671875 
C 16.90625 43.859375 21.453125 46.84375 27.484375 46.84375 
C 34.09375 46.84375 37.140625 43.1875 38.390625 39.53125 
z
" id="Inter-Medium-115"/>
      <path d="M 7.140625 0 
L 17.75 0 
L 17.75 54.546875 
L 7.140625 54.546875 
z
M 12.5 62.96875 
C 16.15625 62.96875 19.21875 65.796875 19.21875 69.28125 
C 19.21875 72.765625 16.15625 75.640625 12.5 75.640625 
C 8.8125 75.640625 5.796875 72.765625 5.796875 69.28125 
C 5.796875 65.796875 8.8125 62.96875 12.5 62.96875 
z
" id="Inter-Medium-105"/>
      <path d="M 32.59375 54.546875 
L 21.421875 54.546875 
L 21.421875 67.609375 
L 10.796875 67.609375 
L 10.796875 54.546875 
L 2.8125 54.546875 
L 2.8125 46.015625 
L 10.796875 46.015625 
L 10.796875 13.8125 
C 10.765625 3.90625 18.328125 -0.890625 26.703125 -0.703125 
C 30.078125 -0.671875 32.359375 -0.03125 33.59375 0.421875 
L 31.671875 9.203125 
C 30.96875 9.0625 29.65625 8.734375 27.953125 8.734375 
C 24.5 8.734375 21.421875 9.875 21.421875 16.015625 
L 21.421875 46.015625 
L 32.59375 46.015625 
z
" id="Inter-Medium-116"/>
      <path d="M 53.796875 54.546875 
L 42.40625 54.546875 
L 28.625 12.578125 
L 28.0625 12.578125 
L 14.234375 54.546875 
L 2.84375 54.546875 
L 22.65625 0 
L 34.015625 0 
z
" id="Inter-Medium-118"/>
      <path d="M 30.640625 -1.09375 
C 42.546875 -1.09375 50.953125 4.765625 53.375 13.640625 
L 43.328125 15.453125 
C 41.40625 10.296875 36.796875 7.671875 30.75 7.671875 
C 21.65625 7.671875 15.5625 13.5625 15.265625 24.078125 
L 54.046875 24.078125 
L 54.046875 27.84375 
C 54.046875 47.546875 42.265625 55.25 29.90625 55.25 
C 14.703125 55.25 4.6875 43.671875 4.6875 26.921875 
C 4.6875 9.984375 14.5625 -1.09375 30.640625 -1.09375 
z
M 15.3125 32.03125 
C 15.734375 39.765625 21.34375 46.484375 29.96875 46.484375 
C 38.21875 46.484375 43.609375 40.375 43.640625 32.03125 
z
" id="Inter-Medium-101"/>
     </defs>
     <g transform="translate(911.4525 149.476875)scale(0.12 -0.12)">
      <use xlink:href="#Inter-Medium-112"/>
      <use x="61.718765" xlink:href="#Inter-Medium-111"/>
      <use x="121.946045" xlink:href="#Inter-Medium-115"/>
      <use x="175.5327" xlink:href="#Inter-Medium-105"/>
      <use x="200.426163" xlink:href="#Inter-Medium-116"/>
      <use x="237.606567" xlink:href="#Inter-Medium-105"/>
      <use x="262.500031" xlink:href="#Inter-Medium-118"/>
      <use x="319.140671" xlink:href="#Inter-Medium-101"/>
     </g>
    </g>
    <g id="patch_70">
     <path d="M 877.8525 166.659375 
L 901.8525 166.659375 
L 901.8525 158.259375 
L 877.8525 158.259375 
z
" style="fill:#f9bc86;stroke:#ffffff;stroke-linejoin:miter;"/>
    </g>
    <g id="text_30">
     <!-- neutral -->
     <defs>
      <path d="M 17.75 32.390625 
C 17.75 41.09375 23.078125 46.0625 30.46875 46.0625 
C 37.671875 46.0625 42.046875 41.328125 42.046875 33.421875 
L 42.046875 0 
L 52.671875 0 
L 52.671875 34.6875 
C 52.671875 48.1875 45.25 55.25 34.09375 55.25 
C 25.890625 55.25 20.53125 51.453125 18 45.671875 
L 17.328125 45.671875 
L 17.328125 54.546875 
L 7.140625 54.546875 
L 7.140625 0 
L 17.75 0 
z
" id="Inter-Medium-110"/>
      <path d="M 41.6875 22.625 
C 41.734375 13.359375 34.84375 8.953125 28.875 8.953125 
C 22.296875 8.953125 17.75 13.703125 17.75 21.125 
L 17.75 54.546875 
L 7.140625 54.546875 
L 7.140625 19.84375 
C 7.140625 6.328125 14.5625 -0.703125 25.03125 -0.703125 
C 33.234375 -0.703125 38.8125 3.625 41.34375 9.453125 
L 41.90625 9.453125 
L 41.90625 0 
L 52.34375 0 
L 52.34375 54.546875 
L 41.6875 54.546875 
z
" id="Inter-Medium-117"/>
      <path d="M 7.140625 0 
L 17.75 0 
L 17.75 33.3125 
C 17.75 40.40625 23.265625 45.5625 30.609375 45.5625 
C 32.671875 45.5625 34.265625 45.140625 35.546875 44.5 
L 38.953125 53.375 
C 37.140625 54.578125 34.796875 55.359375 31.8125 55.359375 
C 25.359375 55.359375 19.953125 51.734375 17.96875 45.875 
L 17.40625 45.875 
L 17.40625 54.546875 
L 7.140625 54.546875 
z
" id="Inter-Medium-114"/>
      <path d="M 23.015625 -1.203125 
C 32.03125 -1.203125 37.109375 3.375 39.140625 7.453125 
L 39.5625 7.453125 
L 39.5625 0 
L 49.9375 0 
L 49.9375 36.21875 
C 49.9375 52.09375 37.4375 55.25 28.765625 55.25 
C 18.890625 55.25 9.796875 51.28125 6.25 41.328125 
L 16.234375 39.0625 
C 17.796875 42.9375 21.765625 46.65625 28.90625 46.65625 
C 35.765625 46.65625 39.28125 43.078125 39.28125 36.890625 
L 39.28125 36.640625 
C 39.28125 32.78125 35.296875 32.84375 25.5 31.71875 
C 15.171875 30.5 4.578125 27.8125 4.578125 15.40625 
C 4.578125 4.6875 12.640625 -1.203125 23.015625 -1.203125 
z
M 25.328125 7.3125 
C 19.3125 7.3125 14.984375 10.015625 14.984375 15.265625 
C 14.984375 20.953125 20.03125 22.96875 26.171875 23.796875 
C 29.625 24.25 37.78125 25.171875 39.3125 26.703125 
L 39.3125 19.671875 
C 39.3125 13.203125 34.15625 7.3125 25.328125 7.3125 
z
" id="Inter-Medium-97"/>
      <path d="M 17.75 72.734375 
L 7.140625 72.734375 
L 7.140625 0 
L 17.75 0 
z
" id="Inter-Medium-108"/>
     </defs>
     <g transform="translate(911.4525 166.659375)scale(0.12 -0.12)">
      <use xlink:href="#Inter-Medium-110"/>
      <use x="59.730118" xlink:href="#Inter-Medium-101"/>
      <use x="118.465927" xlink:href="#Inter-Medium-117"/>
      <use x="177.911957" xlink:href="#Inter-Medium-116"/>
      <use x="215.092361" xlink:href="#Inter-Medium-114"/>
      <use x="254.936111" xlink:href="#Inter-Medium-97"/>
      <use x="311.86084" xlink:href="#Inter-Medium-108"/>
     </g>
    </g>
    <g id="patch_71">
     <path d="M 877.8525 184.190625 
L 901.8525 184.190625 
L 901.8525 175.790625 
L 877.8525 175.790625 
z
" style="fill:#a3acff;stroke:#ffffff;stroke-linejoin:miter;"/>
    </g>
    <g id="text_31">
     <!-- negative -->
     <defs>
      <path d="M 30.015625 -21.484375 
C 43.890625 -21.484375 54.625 -15.125 54.625 -1.203125 
L 54.625 54.546875 
L 44.21875 54.546875 
L 44.21875 45.703125 
L 43.4375 45.703125 
C 41.546875 49.078125 37.78125 55.25 27.625 55.25 
C 14.453125 55.25 4.765625 44.84375 4.765625 27.484375 
C 4.765625 10.078125 14.671875 0.8125 27.5625 0.8125 
C 37.578125 0.8125 41.4375 6.46875 43.359375 9.9375 
L 44.03125 9.9375 
L 44.03125 -0.78125 
C 44.03125 -9.203125 38.171875 -12.921875 30.109375 -12.921875 
C 21.265625 -12.921875 17.828125 -8.484375 15.953125 -5.46875 
L 6.8125 -9.234375 
C 9.703125 -15.796875 16.96875 -21.484375 30.015625 -21.484375 
z
M 29.90625 9.625 
C 20.421875 9.625 15.484375 16.90625 15.484375 27.625 
C 15.484375 38.109375 20.3125 46.234375 29.90625 46.234375 
C 39.171875 46.234375 44.140625 38.671875 44.140625 27.625 
C 44.140625 16.375 39.0625 9.625 29.90625 9.625 
z
" id="Inter-Medium-103"/>
     </defs>
     <g transform="translate(911.4525 184.190625)scale(0.12 -0.12)">
      <use xlink:href="#Inter-Medium-110"/>
      <use x="59.730118" xlink:href="#Inter-Medium-101"/>
      <use x="118.465927" xlink:href="#Inter-Medium-103"/>
      <use x="180.184692" xlink:href="#Inter-Medium-97"/>
      <use x="237.109421" xlink:href="#Inter-Medium-116"/>
      <use x="274.289825" xlink:href="#Inter-Medium-105"/>
      <use x="299.183289" xlink:href="#Inter-Medium-118"/>
      <use x="355.823929" xlink:href="#Inter-Medium-101"/>
     </g>
    </g>
   </g>
  </g>
 </g>
 <defs>
  <clipPath id="p8e34c62768">
   <rect height="831.6" width="837" x="135" y="129.6"/>
  </clipPath>
 </defs>
</svg>
