<?xml version="1.0" encoding="utf-8" standalone="no"?>
<!DOCTYPE svg PUBLIC "-//W3C//DTD SVG 1.1//EN"
  "http://www.w3.org/Graphics/SVG/1.1/DTD/svg11.dtd">
<!-- Created with matplotlib (https://matplotlib.org/) -->
<svg height="1080pt" version="1.1" viewBox="0 0 1080 1080" width="1080pt" xmlns="http://www.w3.org/2000/svg" xmlns:xlink="http://www.w3.org/1999/xlink">
 <defs>
  <style type="text/css">
*{stroke-linecap:butt;stroke-linejoin:round;}
  </style>
 </defs>
 <g id="figure_1">
  <g id="patch_1">
   <path d="M 0 1080 
L 1080 1080 
L 1080 0 
L 0 0 
z
" style="fill:#ffffff;"/>
  </g>
  <g id="axes_1">
   <g id="patch_2">
    <path d="M 135 961.2 
L 972 961.2 
L 972 129.6 
L 135 129.6 
z
" style="fill:#eaeaf2;"/>
   </g>
   <g id="matplotlib.axis_1">
    <g id="text_1">
     <!-- Unique product -->
     <defs>
      <path d="M 54.796875 72.734375 
L 54.796875 24.78125 
C 54.796875 14.59375 46.65625 8.875 36.859375 8.875 
C 27.125 8.875 18.96875 14.59375 18.96875 24.78125 
L 18.96875 72.734375 
L 7.984375 72.734375 
L 7.984375 24.609375 
C 7.984375 8.203125 20.78125 -1.203125 36.859375 -1.203125 
C 52.953125 -1.203125 65.765625 8.203125 65.765625 24.609375 
L 65.765625 72.734375 
z
" id="Inter-Medium-85"/>
      <path d="M 17.75 32.390625 
C 17.75 41.09375 23.078125 46.0625 30.46875 46.0625 
C 37.671875 46.0625 42.046875 41.328125 42.046875 33.421875 
L 42.046875 0 
L 52.671875 0 
L 52.671875 34.6875 
C 52.671875 48.1875 45.25 55.25 34.09375 55.25 
C 25.890625 55.25 20.53125 51.453125 18 45.671875 
L 17.328125 45.671875 
L 17.328125 54.546875 
L 7.140625 54.546875 
L 7.140625 0 
L 17.75 0 
z
" id="Inter-Medium-110"/>
      <path d="M 7.140625 0 
L 17.75 0 
L 17.75 54.546875 
L 7.140625 54.546875 
z
M 12.5 62.96875 
C 16.15625 62.96875 19.21875 65.796875 19.21875 69.28125 
C 19.21875 72.765625 16.15625 75.640625 12.5 75.640625 
C 8.8125 75.640625 5.796875 72.765625 5.796875 69.28125 
C 5.796875 65.796875 8.8125 62.96875 12.5 62.96875 
z
" id="Inter-Medium-105"/>
      <path d="M 54.578125 -20.453125 
L 54.578125 54.546875 
L 44.21875 54.546875 
L 44.21875 45.703125 
L 43.328125 45.703125 
C 41.4375 49.078125 37.78125 55.25 27.671875 55.25 
C 14.484375 55.25 4.765625 44.84375 4.765625 27.171875 
C 4.765625 9.515625 14.34375 -1.0625 27.5625 -1.0625 
C 37.5 -1.0625 41.40625 5 43.328125 8.484375 
L 43.96875 8.484375 
L 43.96875 -20.453125 
z
M 44.171875 27.265625 
C 44.171875 15.796875 39.0625 7.984375 29.9375 7.984375 
C 20.453125 7.984375 15.484375 16.328125 15.484375 27.265625 
C 15.484375 38.109375 20.3125 46.234375 29.9375 46.234375 
C 39.203125 46.234375 44.171875 38.671875 44.171875 27.265625 
z
" id="Inter-Medium-113"/>
      <path d="M 41.6875 22.625 
C 41.734375 13.359375 34.84375 8.953125 28.875 8.953125 
C 22.296875 8.953125 17.75 13.703125 17.75 21.125 
L 17.75 54.546875 
L 7.140625 54.546875 
L 7.140625 19.84375 
C 7.140625 6.328125 14.5625 -0.703125 25.03125 -0.703125 
C 33.234375 -0.703125 38.8125 3.625 41.34375 9.453125 
L 41.90625 9.453125 
L 41.90625 0 
L 52.34375 0 
L 52.34375 54.546875 
L 41.6875 54.546875 
z
" id="Inter-Medium-117"/>
      <path d="M 30.640625 -1.09375 
C 42.546875 -1.09375 50.953125 4.765625 53.375 13.640625 
L 43.328125 15.453125 
C 41.40625 10.296875 36.796875 7.671875 30.75 7.671875 
C 21.65625 7.671875 15.5625 13.5625 15.265625 24.078125 
L 54.046875 24.078125 
L 54.046875 27.84375 
C 54.046875 47.546875 42.265625 55.25 29.90625 55.25 
C 14.703125 55.25 4.6875 43.671875 4.6875 26.921875 
C 4.6875 9.984375 14.5625 -1.09375 30.640625 -1.09375 
z
M 15.3125 32.03125 
C 15.734375 39.765625 21.34375 46.484375 29.96875 46.484375 
C 38.21875 46.484375 43.609375 40.375 43.640625 32.03125 
z
" id="Inter-Medium-101"/>
      <path id="Inter-Medium-32"/>
      <path d="M 7.140625 -20.453125 
L 17.75 -20.453125 
L 17.75 8.484375 
L 18.390625 8.484375 
C 20.3125 5 24.21875 -1.0625 34.15625 -1.0625 
C 47.375 -1.0625 56.96875 9.515625 56.96875 27.171875 
C 56.96875 44.84375 47.234375 55.25 34.0625 55.25 
C 23.9375 55.25 20.28125 49.078125 18.390625 45.703125 
L 17.515625 45.703125 
L 17.515625 54.546875 
L 7.140625 54.546875 
z
M 17.546875 27.265625 
C 17.546875 38.671875 22.515625 46.234375 31.78125 46.234375 
C 41.40625 46.234375 46.234375 38.109375 46.234375 27.265625 
C 46.234375 16.328125 41.265625 7.984375 31.78125 7.984375 
C 22.65625 7.984375 17.546875 15.796875 17.546875 27.265625 
z
" id="Inter-Medium-112"/>
      <path d="M 7.140625 0 
L 17.75 0 
L 17.75 33.3125 
C 17.75 40.40625 23.265625 45.5625 30.609375 45.5625 
C 32.671875 45.5625 34.265625 45.140625 35.546875 44.5 
L 38.953125 53.375 
C 37.140625 54.578125 34.796875 55.359375 31.8125 55.359375 
C 25.359375 55.359375 19.953125 51.734375 17.96875 45.875 
L 17.40625 45.875 
L 17.40625 54.546875 
L 7.140625 54.546875 
z
" id="Inter-Medium-114"/>
      <path d="M 30.109375 -1.09375 
C 45.484375 -1.09375 55.546875 10.15625 55.546875 27.03125 
C 55.546875 44 45.484375 55.25 30.109375 55.25 
C 14.734375 55.25 4.6875 44 4.6875 27.03125 
C 4.6875 10.15625 14.734375 -1.09375 30.109375 -1.09375 
z
M 30.15625 7.8125 
C 20.09375 7.8125 15.40625 16.578125 15.40625 27.0625 
C 15.40625 37.5 20.09375 46.375 30.15625 46.375 
C 40.125 46.375 44.8125 37.5 44.8125 27.0625 
C 44.8125 16.578125 40.125 7.8125 30.15625 7.8125 
z
" id="Inter-Medium-111"/>
      <path d="M 27.5625 -1.0625 
C 37.5 -1.0625 41.40625 5 43.328125 8.484375 
L 44.21875 8.484375 
L 44.21875 0 
L 54.578125 0 
L 54.578125 72.734375 
L 43.96875 72.734375 
L 43.96875 45.703125 
L 43.328125 45.703125 
C 41.40625 49.078125 37.78125 55.25 27.625 55.25 
C 14.453125 55.25 4.765625 44.84375 4.765625 27.171875 
C 4.765625 9.515625 14.3125 -1.0625 27.5625 -1.0625 
z
M 29.90625 7.984375 
C 20.421875 7.984375 15.484375 16.328125 15.484375 27.265625 
C 15.484375 38.109375 20.3125 46.234375 29.90625 46.234375 
C 39.171875 46.234375 44.140625 38.671875 44.140625 27.265625 
C 44.140625 15.796875 39.0625 7.984375 29.90625 7.984375 
z
" id="Inter-Medium-100"/>
      <path d="M 30.109375 -1.09375 
C 43 -1.09375 51.34375 6.640625 52.515625 17.265625 
L 42.1875 17.265625 
C 40.84375 11.359375 36.265625 7.890625 30.1875 7.890625 
C 21.203125 7.890625 15.40625 15.375 15.40625 27.265625 
C 15.40625 38.953125 21.3125 46.3125 30.1875 46.3125 
C 36.9375 46.3125 41.046875 42.046875 42.1875 36.9375 
L 52.515625 36.9375 
C 51.390625 47.9375 42.40625 55.25 30.015625 55.25 
C 14.625 55.25 4.6875 43.671875 4.6875 27.03125 
C 4.6875 10.578125 14.28125 -1.09375 30.109375 -1.09375 
z
" id="Inter-Medium-99"/>
      <path d="M 32.59375 54.546875 
L 21.421875 54.546875 
L 21.421875 67.609375 
L 10.796875 67.609375 
L 10.796875 54.546875 
L 2.8125 54.546875 
L 2.8125 46.015625 
L 10.796875 46.015625 
L 10.796875 13.8125 
C 10.765625 3.90625 18.328125 -0.890625 26.703125 -0.703125 
C 30.078125 -0.671875 32.359375 -0.03125 33.59375 0.421875 
L 31.671875 9.203125 
C 30.96875 9.0625 29.65625 8.734375 27.953125 8.734375 
C 24.5 8.734375 21.421875 9.875 21.421875 16.015625 
L 21.421875 46.015625 
L 32.59375 46.015625 
z
" id="Inter-Medium-116"/>
     </defs>
     <g style="fill:#262626;" transform="translate(497.805469 976.546094)scale(0.15 -0.15)">
      <use xlink:href="#Inter-Medium-85"/>
      <use x="73.757111" xlink:href="#Inter-Medium-110"/>
      <use x="133.487228" xlink:href="#Inter-Medium-105"/>
      <use x="158.380692" xlink:href="#Inter-Medium-113"/>
      <use x="220.099457" xlink:href="#Inter-Medium-117"/>
      <use x="279.545486" xlink:href="#Inter-Medium-101"/>
      <use x="338.281296" xlink:href="#Inter-Medium-32"/>
      <use x="364.772781" xlink:href="#Inter-Medium-112"/>
      <use x="426.491547" xlink:href="#Inter-Medium-114"/>
      <use x="466.335297" xlink:href="#Inter-Medium-111"/>
      <use x="526.562576" xlink:href="#Inter-Medium-100"/>
      <use x="589.133606" xlink:href="#Inter-Medium-117"/>
      <use x="648.579636" xlink:href="#Inter-Medium-99"/>
      <use x="705.36232" xlink:href="#Inter-Medium-116"/>
     </g>
    </g>
   </g>
   <g id="matplotlib.axis_2">
    <g id="ytick_1">
     <g id="line2d_1">
      <path clip-path="url(#p8f9264b0ad)" d="M 135 961.2 
L 972 961.2 
" style="fill:none;stroke:#ffffff;stroke-linecap:round;stroke-width:0.8;"/>
     </g>
     <g id="text_2">
      <!-- 0 -->
      <defs>
       <path d="M 32.3125 -1.203125 
C 49.109375 -1.203125 58.953125 12.5 58.953125 36.328125 
C 58.953125 59.984375 48.96875 73.71875 32.3125 73.71875 
C 15.625 73.71875 5.6875 60.015625 5.640625 36.328125 
C 5.640625 12.53125 15.484375 -1.171875 32.3125 -1.203125 
z
M 32.3125 8.28125 
C 22.484375 8.28125 16.546875 18.140625 16.546875 36.328125 
C 16.578125 54.4375 22.515625 64.421875 32.3125 64.421875 
C 42.078125 64.421875 48.046875 54.4375 48.046875 36.328125 
C 48.046875 18.140625 42.125 8.28125 32.3125 8.28125 
z
" id="Inter-Medium-48"/>
      </defs>
      <g style="fill:#262626;" transform="translate(119.602812 965.927734)scale(0.13 -0.13)">
       <use xlink:href="#Inter-Medium-48"/>
      </g>
     </g>
    </g>
    <g id="ytick_2">
     <g id="line2d_2">
      <path clip-path="url(#p8f9264b0ad)" d="M 135 802.8 
L 972 802.8 
" style="fill:none;stroke:#ffffff;stroke-linecap:round;stroke-width:0.8;"/>
     </g>
     <g id="text_3">
      <!-- 20 -->
      <defs>
       <path d="M 7 0 
L 54.859375 0 
L 54.859375 9.40625 
L 22.125 9.40625 
L 22.125 9.9375 
L 36.578125 25.078125 
C 49.890625 38.53125 53.6875 44.953125 53.6875 53.09375 
C 53.6875 64.765625 44.171875 73.71875 30.46875 73.71875 
C 16.875 73.71875 6.921875 64.921875 6.921875 51.640625 
L 17.40625 51.640625 
C 17.359375 59.453125 22.40625 64.5625 30.25 64.5625 
C 37.640625 64.5625 43.25 60.015625 43.25 52.765625 
C 43.25 46.34375 39.421875 41.71875 31.609375 33.453125 
L 7 7.953125 
z
" id="Inter-Medium-50"/>
      </defs>
      <g style="fill:#262626;" transform="translate(111.630156 807.527734)scale(0.13 -0.13)">
       <use xlink:href="#Inter-Medium-50"/>
       <use x="61.32814" xlink:href="#Inter-Medium-48"/>
      </g>
     </g>
    </g>
    <g id="ytick_3">
     <g id="line2d_3">
      <path clip-path="url(#p8f9264b0ad)" d="M 135 644.4 
L 972 644.4 
" style="fill:none;stroke:#ffffff;stroke-linecap:round;stroke-width:0.8;"/>
     </g>
     <g id="text_4">
      <!-- 40 -->
      <defs>
       <path d="M 5.46875 14.203125 
L 39.953125 14.203125 
L 39.953125 0 
L 50.421875 0 
L 50.421875 14.203125 
L 60.046875 14.203125 
L 60.046875 23.515625 
L 50.421875 23.515625 
L 50.421875 72.734375 
L 36.890625 72.734375 
L 5.46875 23.078125 
z
M 40.015625 23.515625 
L 16.96875 23.515625 
L 16.96875 24.078125 
L 39.453125 59.65625 
L 40.015625 59.65625 
z
" id="Inter-Medium-52"/>
      </defs>
      <g style="fill:#262626;" transform="translate(111.1 649.127734)scale(0.13 -0.13)">
       <use xlink:href="#Inter-Medium-52"/>
       <use x="65.411942" xlink:href="#Inter-Medium-48"/>
      </g>
     </g>
    </g>
    <g id="ytick_4">
     <g id="line2d_4">
      <path clip-path="url(#p8f9264b0ad)" d="M 135 486 
L 972 486 
" style="fill:none;stroke:#ffffff;stroke-linecap:round;stroke-width:0.8;"/>
     </g>
     <g id="text_5">
      <!-- 60 -->
      <defs>
       <path d="M 32.390625 -1 
C 47.59375 -1.140625 57.671875 9.796875 57.640625 23.75 
C 57.671875 37.671875 47.546875 47.65625 34.9375 47.65625 
C 27.28125 47.65625 20.640625 43.96875 16.90625 37.8125 
L 16.375 37.8125 
C 16.40625 54.515625 22.65625 64.28125 33.3125 64.28125 
C 40.3125 64.28125 44.703125 60.046875 46.203125 53.828125 
L 57.03125 53.828125 
C 55.359375 65.515625 46.3125 73.90625 33.3125 73.90625 
C 16.40625 73.90625 5.859375 59.375 5.859375 33.90625 
C 5.859375 7.140625 19.46875 -0.890625 32.390625 -1 
z
M 32.359375 8.234375 
C 23.90625 8.234375 17.71875 15.34375 17.71875 23.515625 
C 17.75 31.640625 24.21875 38.75 32.59375 38.75 
C 40.90625 38.75 47.015625 32.03125 46.984375 23.609375 
C 47.015625 15.015625 40.65625 8.234375 32.359375 8.234375 
z
" id="Inter-Medium-54"/>
      </defs>
      <g style="fill:#262626;" transform="translate(111.339687 490.727734)scale(0.13 -0.13)">
       <use xlink:href="#Inter-Medium-54"/>
       <use x="63.565353" xlink:href="#Inter-Medium-48"/>
      </g>
     </g>
    </g>
    <g id="ytick_5">
     <g id="line2d_5">
      <path clip-path="url(#p8f9264b0ad)" d="M 135 327.6 
L 972 327.6 
" style="fill:none;stroke:#ffffff;stroke-linecap:round;stroke-width:0.8;"/>
     </g>
     <g id="text_6">
      <!-- 80 -->
      <defs>
       <path d="M 31.578125 -1 
C 46.703125 -1 57.390625 7.59375 57.453125 19.390625 
C 57.390625 28.546875 50.953125 36.25 42.828125 37.71875 
L 42.828125 38.140625 
C 49.890625 39.84375 54.6875 46.484375 54.765625 54.328125 
C 54.6875 65.453125 44.890625 73.71875 31.578125 73.71875 
C 18.109375 73.71875 8.3125 65.453125 8.375 54.328125 
C 8.3125 46.515625 13.109375 39.84375 20.3125 38.140625 
L 20.3125 37.71875 
C 12.046875 36.25 5.609375 28.546875 5.6875 19.390625 
C 5.609375 7.59375 16.296875 -1 31.578125 -1 
z
M 31.578125 7.984375 
C 22.484375 7.984375 16.734375 12.8125 16.796875 20.09375 
C 16.734375 27.65625 22.984375 33.0625 31.578125 33.0625 
C 40.015625 33.0625 46.265625 27.65625 46.34375 20.09375 
C 46.265625 12.8125 40.5625 7.984375 31.578125 7.984375 
z
M 31.578125 41.828125 
C 24.21875 41.828125 19 46.484375 19.078125 53.40625 
C 19 60.234375 24.046875 64.734375 31.578125 64.734375 
C 38.953125 64.734375 44 60.234375 44.078125 53.40625 
C 44 46.484375 38.8125 41.828125 31.578125 41.828125 
z
" id="Inter-Medium-56"/>
      </defs>
      <g style="fill:#262626;" transform="translate(111.394531 332.327734)scale(0.13 -0.13)">
       <use xlink:href="#Inter-Medium-56"/>
       <use x="63.139221" xlink:href="#Inter-Medium-48"/>
      </g>
     </g>
    </g>
    <g id="ytick_6">
     <g id="line2d_6">
      <path clip-path="url(#p8f9264b0ad)" d="M 135 169.2 
L 972 169.2 
" style="fill:none;stroke:#ffffff;stroke-linecap:round;stroke-width:0.8;"/>
     </g>
     <g id="text_7">
      <!-- 100 -->
      <defs>
       <path d="M 32.5625 72.734375 
L 22.34375 72.734375 
C 21.953125 70.734375 16.40625 61.546875 5.796875 61.546875 
L 5.796875 52.515625 
C 14.03125 52.515625 19.75 55.78125 20.953125 57.921875 
L 21.5625 57.921875 
L 21.5625 0 
L 32.5625 0 
z
" id="Inter-Medium-49"/>
      </defs>
      <g style="fill:#262626;" transform="translate(105.323125 173.927734)scale(0.13 -0.13)">
       <use xlink:href="#Inter-Medium-49"/>
       <use x="45.241486" xlink:href="#Inter-Medium-48"/>
       <use x="109.83667" xlink:href="#Inter-Medium-48"/>
      </g>
     </g>
    </g>
    <g id="text_8">
     <!-- Percentage -->
     <defs>
      <path d="M 7.984375 0 
L 18.96875 0 
L 18.96875 25.5625 
L 33.875 25.5625 
C 50.75 25.5625 59.09375 35.765625 59.09375 49.1875 
C 59.09375 62.578125 50.8125 72.734375 33.921875 72.734375 
L 7.984375 72.734375 
z
M 18.96875 34.875 
L 18.96875 63.3125 
L 32.75 63.3125 
C 43.609375 63.3125 48.046875 57.421875 48.046875 49.1875 
C 48.046875 40.9375 43.609375 34.875 32.890625 34.875 
z
" id="Inter-Medium-80"/>
      <path d="M 23.015625 -1.203125 
C 32.03125 -1.203125 37.109375 3.375 39.140625 7.453125 
L 39.5625 7.453125 
L 39.5625 0 
L 49.9375 0 
L 49.9375 36.21875 
C 49.9375 52.09375 37.4375 55.25 28.765625 55.25 
C 18.890625 55.25 9.796875 51.28125 6.25 41.328125 
L 16.234375 39.0625 
C 17.796875 42.9375 21.765625 46.65625 28.90625 46.65625 
C 35.765625 46.65625 39.28125 43.078125 39.28125 36.890625 
L 39.28125 36.640625 
C 39.28125 32.78125 35.296875 32.84375 25.5 31.71875 
C 15.171875 30.5 4.578125 27.8125 4.578125 15.40625 
C 4.578125 4.6875 12.640625 -1.203125 23.015625 -1.203125 
z
M 25.328125 7.3125 
C 19.3125 7.3125 14.984375 10.015625 14.984375 15.265625 
C 14.984375 20.953125 20.03125 22.96875 26.171875 23.796875 
C 29.625 24.25 37.78125 25.171875 39.3125 26.703125 
L 39.3125 19.671875 
C 39.3125 13.203125 34.15625 7.3125 25.328125 7.3125 
z
" id="Inter-Medium-97"/>
      <path d="M 30.015625 -21.484375 
C 43.890625 -21.484375 54.625 -15.125 54.625 -1.203125 
L 54.625 54.546875 
L 44.21875 54.546875 
L 44.21875 45.703125 
L 43.4375 45.703125 
C 41.546875 49.078125 37.78125 55.25 27.625 55.25 
C 14.453125 55.25 4.765625 44.84375 4.765625 27.484375 
C 4.765625 10.078125 14.671875 0.8125 27.5625 0.8125 
C 37.578125 0.8125 41.4375 6.46875 43.359375 9.9375 
L 44.03125 9.9375 
L 44.03125 -0.78125 
C 44.03125 -9.203125 38.171875 -12.921875 30.109375 -12.921875 
C 21.265625 -12.921875 17.828125 -8.484375 15.953125 -5.46875 
L 6.8125 -9.234375 
C 9.703125 -15.796875 16.96875 -21.484375 30.015625 -21.484375 
z
M 29.90625 9.625 
C 20.421875 9.625 15.484375 16.90625 15.484375 27.625 
C 15.484375 38.109375 20.3125 46.234375 29.90625 46.234375 
C 39.171875 46.234375 44.140625 38.671875 44.140625 27.625 
C 44.140625 16.375 39.0625 9.625 29.90625 9.625 
z
" id="Inter-Medium-103"/>
     </defs>
     <g style="fill:#262626;" transform="translate(98.100469 586.823437)rotate(-90)scale(0.15 -0.15)">
      <use xlink:href="#Inter-Medium-80"/>
      <use x="63.920471" xlink:href="#Inter-Medium-101"/>
      <use x="122.656281" xlink:href="#Inter-Medium-114"/>
      <use x="162.500031" xlink:href="#Inter-Medium-99"/>
      <use x="219.282715" xlink:href="#Inter-Medium-101"/>
      <use x="278.018524" xlink:href="#Inter-Medium-110"/>
      <use x="337.748642" xlink:href="#Inter-Medium-116"/>
      <use x="374.929047" xlink:href="#Inter-Medium-97"/>
      <use x="431.853775" xlink:href="#Inter-Medium-103"/>
      <use x="493.57254" xlink:href="#Inter-Medium-101"/>
     </g>
    </g>
   </g>
   <g id="patch_3">
    <path clip-path="url(#p8f9264b0ad)" d="M 173.045455 961.2 
L 205.628463 961.2 
L 205.628463 251.599021 
L 173.045455 251.599021 
z
" style="fill:#b5ffb9;stroke:#ffffff;stroke-linejoin:miter;"/>
   </g>
   <g id="patch_4">
    <path clip-path="url(#p8f9264b0ad)" d="M 211.378406 961.2 
L 243.961415 961.2 
L 243.961415 362.733835 
L 211.378406 362.733835 
z
" style="fill:#b5ffb9;stroke:#ffffff;stroke-linejoin:miter;"/>
   </g>
   <g id="patch_5">
    <path clip-path="url(#p8f9264b0ad)" d="M 249.711358 961.2 
L 282.294367 961.2 
L 282.294367 231.909677 
L 249.711358 231.909677 
z
" style="fill:#b5ffb9;stroke:#ffffff;stroke-linejoin:miter;"/>
   </g>
   <g id="patch_6">
    <path clip-path="url(#p8f9264b0ad)" d="M 288.04431 961.2 
L 320.627319 961.2 
L 320.627319 252.406226 
L 288.04431 252.406226 
z
" style="fill:#b5ffb9;stroke:#ffffff;stroke-linejoin:miter;"/>
   </g>
   <g id="patch_7">
    <path clip-path="url(#p8f9264b0ad)" d="M 326.377261 961.2 
L 358.96027 961.2 
L 358.96027 220.174063 
L 326.377261 220.174063 
z
" style="fill:#b5ffb9;stroke:#ffffff;stroke-linejoin:miter;"/>
   </g>
   <g id="patch_8">
    <path clip-path="url(#p8f9264b0ad)" d="M 364.710213 961.2 
L 397.293222 961.2 
L 397.293222 303.213072 
L 364.710213 303.213072 
z
" style="fill:#b5ffb9;stroke:#ffffff;stroke-linejoin:miter;"/>
   </g>
   <g id="patch_9">
    <path clip-path="url(#p8f9264b0ad)" d="M 403.043165 961.2 
L 435.626174 961.2 
L 435.626174 242.808579 
L 403.043165 242.808579 
z
" style="fill:#b5ffb9;stroke:#ffffff;stroke-linejoin:miter;"/>
   </g>
   <g id="patch_10">
    <path clip-path="url(#p8f9264b0ad)" d="M 441.376116 961.2 
L 473.959125 961.2 
L 473.959125 241.711444 
L 441.376116 241.711444 
z
" style="fill:#b5ffb9;stroke:#ffffff;stroke-linejoin:miter;"/>
   </g>
   <g id="patch_11">
    <path clip-path="url(#p8f9264b0ad)" d="M 479.709068 961.2 
L 512.292077 961.2 
L 512.292077 261.613511 
L 479.709068 261.613511 
z
" style="fill:#b5ffb9;stroke:#ffffff;stroke-linejoin:miter;"/>
   </g>
   <g id="patch_12">
    <path clip-path="url(#p8f9264b0ad)" d="M 518.04202 961.2 
L 550.625029 961.2 
L 550.625029 231.850746 
L 518.04202 231.850746 
z
" style="fill:#b5ffb9;stroke:#ffffff;stroke-linejoin:miter;"/>
   </g>
   <g id="patch_13">
    <path clip-path="url(#p8f9264b0ad)" d="M 556.374971 961.2 
L 588.95798 961.2 
L 588.95798 381.371779 
L 556.374971 381.371779 
z
" style="fill:#b5ffb9;stroke:#ffffff;stroke-linejoin:miter;"/>
   </g>
   <g id="patch_14">
    <path clip-path="url(#p8f9264b0ad)" d="M 594.707923 961.2 
L 627.290932 961.2 
L 627.290932 215.264772 
L 594.707923 215.264772 
z
" style="fill:#b5ffb9;stroke:#ffffff;stroke-linejoin:miter;"/>
   </g>
   <g id="patch_15">
    <path clip-path="url(#p8f9264b0ad)" d="M 633.040875 961.2 
L 665.623884 961.2 
L 665.623884 289.904156 
L 633.040875 289.904156 
z
" style="fill:#b5ffb9;stroke:#ffffff;stroke-linejoin:miter;"/>
   </g>
   <g id="patch_16">
    <path clip-path="url(#p8f9264b0ad)" d="M 671.373826 961.2 
L 703.956835 961.2 
L 703.956835 331.842857 
L 671.373826 331.842857 
z
" style="fill:#b5ffb9;stroke:#ffffff;stroke-linejoin:miter;"/>
   </g>
   <g id="patch_17">
    <path clip-path="url(#p8f9264b0ad)" d="M 709.706778 961.2 
L 742.289787 961.2 
L 742.289787 457.343141 
L 709.706778 457.343141 
z
" style="fill:#b5ffb9;stroke:#ffffff;stroke-linejoin:miter;"/>
   </g>
   <g id="patch_18">
    <path clip-path="url(#p8f9264b0ad)" d="M 748.03973 961.2 
L 780.622739 961.2 
L 780.622739 207.340309 
L 748.03973 207.340309 
z
" style="fill:#b5ffb9;stroke:#ffffff;stroke-linejoin:miter;"/>
   </g>
   <g id="patch_19">
    <path clip-path="url(#p8f9264b0ad)" d="M 786.372681 961.2 
L 818.95569 961.2 
L 818.95569 203.225116 
L 786.372681 203.225116 
z
" style="fill:#b5ffb9;stroke:#ffffff;stroke-linejoin:miter;"/>
   </g>
   <g id="patch_20">
    <path clip-path="url(#p8f9264b0ad)" d="M 824.705633 961.2 
L 857.288642 961.2 
L 857.288642 319.52967 
L 824.705633 319.52967 
z
" style="fill:#b5ffb9;stroke:#ffffff;stroke-linejoin:miter;"/>
   </g>
   <g id="patch_21">
    <path clip-path="url(#p8f9264b0ad)" d="M 863.038585 961.2 
L 895.621594 961.2 
L 895.621594 214.427092 
L 863.038585 214.427092 
z
" style="fill:#b5ffb9;stroke:#ffffff;stroke-linejoin:miter;"/>
   </g>
   <g id="patch_22">
    <path clip-path="url(#p8f9264b0ad)" d="M 901.371537 961.2 
L 933.954545 961.2 
L 933.954545 232.223873 
L 901.371537 232.223873 
z
" style="fill:#b5ffb9;stroke:#ffffff;stroke-linejoin:miter;"/>
   </g>
   <g id="patch_23">
    <path clip-path="url(#p8f9264b0ad)" d="M 173.045455 251.599021 
L 205.628463 251.599021 
L 205.628463 210.884211 
L 173.045455 210.884211 
z
" style="fill:#f9bc86;stroke:#ffffff;stroke-linejoin:miter;"/>
   </g>
   <g id="patch_24">
    <path clip-path="url(#p8f9264b0ad)" d="M 211.378406 362.733835 
L 243.961415 362.733835 
L 243.961415 283.087218 
L 211.378406 283.087218 
z
" style="fill:#f9bc86;stroke:#ffffff;stroke-linejoin:miter;"/>
   </g>
   <g id="patch_25">
    <path clip-path="url(#p8f9264b0ad)" d="M 249.711358 231.909677 
L 282.294367 231.909677 
L 282.294367 200.167742 
L 249.711358 200.167742 
z
" style="fill:#f9bc86;stroke:#ffffff;stroke-linejoin:miter;"/>
   </g>
   <g id="patch_26">
    <path clip-path="url(#p8f9264b0ad)" d="M 288.04431 252.406226 
L 320.627319 252.406226 
L 320.627319 224.670817 
L 288.04431 224.670817 
z
" style="fill:#f9bc86;stroke:#ffffff;stroke-linejoin:miter;"/>
   </g>
   <g id="patch_27">
    <path clip-path="url(#p8f9264b0ad)" d="M 326.377261 220.174063 
L 358.96027 220.174063 
L 358.96027 190.502594 
L 326.377261 190.502594 
z
" style="fill:#f9bc86;stroke:#ffffff;stroke-linejoin:miter;"/>
   </g>
   <g id="patch_28">
    <path clip-path="url(#p8f9264b0ad)" d="M 364.710213 303.213072 
L 397.293222 303.213072 
L 397.293222 275.030065 
L 364.710213 275.030065 
z
" style="fill:#f9bc86;stroke:#ffffff;stroke-linejoin:miter;"/>
   </g>
   <g id="patch_29">
    <path clip-path="url(#p8f9264b0ad)" d="M 403.043165 242.808579 
L 435.626174 242.808579 
L 435.626174 217.328686 
L 403.043165 217.328686 
z
" style="fill:#f9bc86;stroke:#ffffff;stroke-linejoin:miter;"/>
   </g>
   <g id="patch_30">
    <path clip-path="url(#p8f9264b0ad)" d="M 441.376116 241.711444 
L 473.959125 241.711444 
L 473.959125 214.207103 
L 441.376116 214.207103 
z
" style="fill:#f9bc86;stroke:#ffffff;stroke-linejoin:miter;"/>
   </g>
   <g id="patch_31">
    <path clip-path="url(#p8f9264b0ad)" d="M 479.709068 261.613511 
L 512.292077 261.613511 
L 512.292077 226.755783 
L 479.709068 226.755783 
z
" style="fill:#f9bc86;stroke:#ffffff;stroke-linejoin:miter;"/>
   </g>
   <g id="patch_32">
    <path clip-path="url(#p8f9264b0ad)" d="M 518.04202 231.850746 
L 550.625029 231.850746 
L 550.625029 206.435821 
L 518.04202 206.435821 
z
" style="fill:#f9bc86;stroke:#ffffff;stroke-linejoin:miter;"/>
   </g>
   <g id="patch_33">
    <path clip-path="url(#p8f9264b0ad)" d="M 556.374971 381.371779 
L 588.95798 381.371779 
L 588.95798 312.537423 
L 556.374971 312.537423 
z
" style="fill:#f9bc86;stroke:#ffffff;stroke-linejoin:miter;"/>
   </g>
   <g id="patch_34">
    <path clip-path="url(#p8f9264b0ad)" d="M 594.707923 215.264772 
L 627.290932 215.264772 
L 627.290932 193.279313 
L 594.707923 193.279313 
z
" style="fill:#f9bc86;stroke:#ffffff;stroke-linejoin:miter;"/>
   </g>
   <g id="patch_35">
    <path clip-path="url(#p8f9264b0ad)" d="M 633.040875 289.904156 
L 665.623884 289.904156 
L 665.623884 242.784352 
L 633.040875 242.784352 
z
" style="fill:#f9bc86;stroke:#ffffff;stroke-linejoin:miter;"/>
   </g>
   <g id="patch_36">
    <path clip-path="url(#p8f9264b0ad)" d="M 671.373826 331.842857 
L 703.956835 331.842857 
L 703.956835 274.485714 
L 671.373826 274.485714 
z
" style="fill:#f9bc86;stroke:#ffffff;stroke-linejoin:miter;"/>
   </g>
   <g id="patch_37">
    <path clip-path="url(#p8f9264b0ad)" d="M 709.706778 457.343141 
L 742.289787 457.343141 
L 742.289787 358.933598 
L 709.706778 358.933598 
z
" style="fill:#f9bc86;stroke:#ffffff;stroke-linejoin:miter;"/>
   </g>
   <g id="patch_38">
    <path clip-path="url(#p8f9264b0ad)" d="M 748.03973 207.340309 
L 780.622739 207.340309 
L 780.622739 191.801665 
L 748.03973 191.801665 
z
" style="fill:#f9bc86;stroke:#ffffff;stroke-linejoin:miter;"/>
   </g>
   <g id="patch_39">
    <path clip-path="url(#p8f9264b0ad)" d="M 786.372681 203.225116 
L 818.95569 203.225116 
L 818.95569 185.427363 
L 786.372681 185.427363 
z
" style="fill:#f9bc86;stroke:#ffffff;stroke-linejoin:miter;"/>
   </g>
   <g id="patch_40">
    <path clip-path="url(#p8f9264b0ad)" d="M 824.705633 319.52967 
L 857.288642 319.52967 
L 857.288642 272.057143 
L 824.705633 272.057143 
z
" style="fill:#f9bc86;stroke:#ffffff;stroke-linejoin:miter;"/>
   </g>
   <g id="patch_41">
    <path clip-path="url(#p8f9264b0ad)" d="M 863.038585 214.427092 
L 895.621594 214.427092 
L 895.621594 192.339442 
L 863.038585 192.339442 
z
" style="fill:#f9bc86;stroke:#ffffff;stroke-linejoin:miter;"/>
   </g>
   <g id="patch_42">
    <path clip-path="url(#p8f9264b0ad)" d="M 901.371537 232.223873 
L 933.954545 232.223873 
L 933.954545 213.316711 
L 901.371537 213.316711 
z
" style="fill:#f9bc86;stroke:#ffffff;stroke-linejoin:miter;"/>
   </g>
   <g id="patch_43">
    <path clip-path="url(#p8f9264b0ad)" d="M 173.045455 210.884211 
L 205.628463 210.884211 
L 205.628463 169.2 
L 173.045455 169.2 
z
" style="fill:#a3acff;stroke:#ffffff;stroke-linejoin:miter;"/>
   </g>
   <g id="patch_44">
    <path clip-path="url(#p8f9264b0ad)" d="M 211.378406 283.087218 
L 243.961415 283.087218 
L 243.961415 169.2 
L 211.378406 169.2 
z
" style="fill:#a3acff;stroke:#ffffff;stroke-linejoin:miter;"/>
   </g>
   <g id="patch_45">
    <path clip-path="url(#p8f9264b0ad)" d="M 249.711358 200.167742 
L 282.294367 200.167742 
L 282.294367 169.2 
L 249.711358 169.2 
z
" style="fill:#a3acff;stroke:#ffffff;stroke-linejoin:miter;"/>
   </g>
   <g id="patch_46">
    <path clip-path="url(#p8f9264b0ad)" d="M 288.04431 224.670817 
L 320.627319 224.670817 
L 320.627319 169.2 
L 288.04431 169.2 
z
" style="fill:#a3acff;stroke:#ffffff;stroke-linejoin:miter;"/>
   </g>
   <g id="patch_47">
    <path clip-path="url(#p8f9264b0ad)" d="M 326.377261 190.502594 
L 358.96027 190.502594 
L 358.96027 169.2 
L 326.377261 169.2 
z
" style="fill:#a3acff;stroke:#ffffff;stroke-linejoin:miter;"/>
   </g>
   <g id="patch_48">
    <path clip-path="url(#p8f9264b0ad)" d="M 364.710213 275.030065 
L 397.293222 275.030065 
L 397.293222 169.2 
L 364.710213 169.2 
z
" style="fill:#a3acff;stroke:#ffffff;stroke-linejoin:miter;"/>
   </g>
   <g id="patch_49">
    <path clip-path="url(#p8f9264b0ad)" d="M 403.043165 217.328686 
L 435.626174 217.328686 
L 435.626174 169.2 
L 403.043165 169.2 
z
" style="fill:#a3acff;stroke:#ffffff;stroke-linejoin:miter;"/>
   </g>
   <g id="patch_50">
    <path clip-path="url(#p8f9264b0ad)" d="M 441.376116 214.207103 
L 473.959125 214.207103 
L 473.959125 169.2 
L 441.376116 169.2 
z
" style="fill:#a3acff;stroke:#ffffff;stroke-linejoin:miter;"/>
   </g>
   <g id="patch_51">
    <path clip-path="url(#p8f9264b0ad)" d="M 479.709068 226.755783 
L 512.292077 226.755783 
L 512.292077 169.2 
L 479.709068 169.2 
z
" style="fill:#a3acff;stroke:#ffffff;stroke-linejoin:miter;"/>
   </g>
   <g id="patch_52">
    <path clip-path="url(#p8f9264b0ad)" d="M 518.04202 206.435821 
L 550.625029 206.435821 
L 550.625029 169.2 
L 518.04202 169.2 
z
" style="fill:#a3acff;stroke:#ffffff;stroke-linejoin:miter;"/>
   </g>
   <g id="patch_53">
    <path clip-path="url(#p8f9264b0ad)" d="M 556.374971 312.537423 
L 588.95798 312.537423 
L 588.95798 169.2 
L 556.374971 169.2 
z
" style="fill:#a3acff;stroke:#ffffff;stroke-linejoin:miter;"/>
   </g>
   <g id="patch_54">
    <path clip-path="url(#p8f9264b0ad)" d="M 594.707923 193.279313 
L 627.290932 193.279313 
L 627.290932 169.2 
L 594.707923 169.2 
z
" style="fill:#a3acff;stroke:#ffffff;stroke-linejoin:miter;"/>
   </g>
   <g id="patch_55">
    <path clip-path="url(#p8f9264b0ad)" d="M 633.040875 242.784352 
L 665.623884 242.784352 
L 665.623884 169.2 
L 633.040875 169.2 
z
" style="fill:#a3acff;stroke:#ffffff;stroke-linejoin:miter;"/>
   </g>
   <g id="patch_56">
    <path clip-path="url(#p8f9264b0ad)" d="M 671.373826 274.485714 
L 703.956835 274.485714 
L 703.956835 169.2 
L 671.373826 169.2 
z
" style="fill:#a3acff;stroke:#ffffff;stroke-linejoin:miter;"/>
   </g>
   <g id="patch_57">
    <path clip-path="url(#p8f9264b0ad)" d="M 709.706778 358.933598 
L 742.289787 358.933598 
L 742.289787 169.2 
L 709.706778 169.2 
z
" style="fill:#a3acff;stroke:#ffffff;stroke-linejoin:miter;"/>
   </g>
   <g id="patch_58">
    <path clip-path="url(#p8f9264b0ad)" d="M 748.03973 191.801665 
L 780.622739 191.801665 
L 780.622739 169.2 
L 748.03973 169.2 
z
" style="fill:#a3acff;stroke:#ffffff;stroke-linejoin:miter;"/>
   </g>
   <g id="patch_59">
    <path clip-path="url(#p8f9264b0ad)" d="M 786.372681 185.427363 
L 818.95569 185.427363 
L 818.95569 169.2 
L 786.372681 169.2 
z
" style="fill:#a3acff;stroke:#ffffff;stroke-linejoin:miter;"/>
   </g>
   <g id="patch_60">
    <path clip-path="url(#p8f9264b0ad)" d="M 824.705633 272.057143 
L 857.288642 272.057143 
L 857.288642 169.2 
L 824.705633 169.2 
z
" style="fill:#a3acff;stroke:#ffffff;stroke-linejoin:miter;"/>
   </g>
   <g id="patch_61">
    <path clip-path="url(#p8f9264b0ad)" d="M 863.038585 192.339442 
L 895.621594 192.339442 
L 895.621594 169.2 
L 863.038585 169.2 
z
" style="fill:#a3acff;stroke:#ffffff;stroke-linejoin:miter;"/>
   </g>
   <g id="patch_62">
    <path clip-path="url(#p8f9264b0ad)" d="M 901.371537 213.316711 
L 933.954545 213.316711 
L 933.954545 169.2 
L 901.371537 169.2 
z
" style="fill:#a3acff;stroke:#ffffff;stroke-linejoin:miter;"/>
   </g>
   <g id="patch_63">
    <path d="M 135 961.2 
L 135 129.6 
" style="fill:none;stroke:#ffffff;stroke-linecap:square;stroke-linejoin:miter;stroke-width:0.8;"/>
   </g>
   <g id="patch_64">
    <path d="M 972 961.2 
L 972 129.6 
" style="fill:none;stroke:#ffffff;stroke-linecap:square;stroke-linejoin:miter;stroke-width:0.8;"/>
   </g>
   <g id="patch_65">
    <path d="M 135 961.2 
L 972 961.2 
" style="fill:none;stroke:#ffffff;stroke-linecap:square;stroke-linejoin:miter;stroke-width:0.8;"/>
   </g>
   <g id="patch_66">
    <path d="M 135 129.6 
L 972 129.6 
" style="fill:none;stroke:#ffffff;stroke-linecap:square;stroke-linejoin:miter;stroke-width:0.8;"/>
   </g>
  </g>
 </g>
 <defs>
  <clipPath id="p8f9264b0ad">
   <rect height="831.6" width="837" x="135" y="129.6"/>
  </clipPath>
 </defs>
</svg>
