<?xml version="1.0" encoding="utf-8" standalone="no"?>
<!DOCTYPE svg PUBLIC "-//W3C//DTD SVG 1.1//EN"
  "http://www.w3.org/Graphics/SVG/1.1/DTD/svg11.dtd">
<!-- Created with matplotlib (https://matplotlib.org/) -->
<svg height="1080pt" version="1.1" viewBox="0 0 1080 1080" width="1080pt" xmlns="http://www.w3.org/2000/svg" xmlns:xlink="http://www.w3.org/1999/xlink">
 <defs>
  <style type="text/css">
*{stroke-linecap:butt;stroke-linejoin:round;}
  </style>
 </defs>
 <g id="figure_1">
  <g id="patch_1">
   <path d="M 0 1080 
L 1080 1080 
L 1080 0 
L 0 0 
z
" style="fill:#ffffff;"/>
  </g>
  <g id="axes_1">
   <g id="patch_2">
    <path d="M 135 945 
L 972 945 
L 972 129.6 
L 135 129.6 
z
" style="fill:#eaeaf2;"/>
   </g>
   <g id="matplotlib.axis_1">
    <g id="xtick_1">
     <g id="line2d_1">
      <path clip-path="url(#pcf2dd0f9da)" d="M 160.328311 945 
L 160.328311 129.6 
" style="fill:none;stroke:#ffffff;stroke-linecap:round;stroke-width:0.8;"/>
     </g>
     <g id="text_1">
      <!-- 2013 -->
      <defs>
       <path d="M 7 0 
L 54.859375 0 
L 54.859375 9.40625 
L 22.125 9.40625 
L 22.125 9.9375 
L 36.578125 25.078125 
C 49.890625 38.53125 53.6875 44.953125 53.6875 53.09375 
C 53.6875 64.765625 44.171875 73.71875 30.46875 73.71875 
C 16.875 73.71875 6.921875 64.921875 6.921875 51.640625 
L 17.40625 51.640625 
C 17.359375 59.453125 22.40625 64.5625 30.25 64.5625 
C 37.640625 64.5625 43.25 60.015625 43.25 52.765625 
C 43.25 46.34375 39.421875 41.71875 31.609375 33.453125 
L 7 7.953125 
z
" id="Inter-Medium-50"/>
       <path d="M 32.3125 -1.203125 
C 49.109375 -1.203125 58.953125 12.5 58.953125 36.328125 
C 58.953125 59.984375 48.96875 73.71875 32.3125 73.71875 
C 15.625 73.71875 5.6875 60.015625 5.640625 36.328125 
C 5.640625 12.53125 15.484375 -1.171875 32.3125 -1.203125 
z
M 32.3125 8.28125 
C 22.484375 8.28125 16.546875 18.140625 16.546875 36.328125 
C 16.578125 54.4375 22.515625 64.421875 32.3125 64.421875 
C 42.078125 64.421875 48.046875 54.4375 48.046875 36.328125 
C 48.046875 18.140625 42.125 8.28125 32.3125 8.28125 
z
" id="Inter-Medium-48"/>
       <path d="M 32.5625 72.734375 
L 22.34375 72.734375 
C 21.953125 70.734375 16.40625 61.546875 5.796875 61.546875 
L 5.796875 52.515625 
C 14.03125 52.515625 19.75 55.78125 20.953125 57.921875 
L 21.5625 57.921875 
L 21.5625 0 
L 32.5625 0 
z
" id="Inter-Medium-49"/>
       <path d="M 32.3125 -1 
C 47.15625 -1 58.0625 7.890625 58.03125 19.953125 
C 58.0625 29.15625 52.484375 35.765625 42.828125 37.25 
L 42.828125 37.8125 
C 50.421875 39.765625 55.359375 45.734375 55.328125 53.90625 
C 55.359375 64.59375 46.59375 73.71875 32.59375 73.71875 
C 19.25 73.71875 8.53125 65.65625 8.171875 53.828125 
L 18.78125 53.828125 
C 19.03125 60.515625 25.328125 64.5625 32.453125 64.5625 
C 39.875 64.5625 44.75 60.046875 44.703125 53.34375 
C 44.75 46.3125 39.09375 41.6875 31.03125 41.6875 
L 24.890625 41.6875 
L 24.890625 32.734375 
L 31.03125 32.734375 
C 41.125 32.734375 46.953125 27.625 46.953125 20.3125 
C 46.953125 13.25 40.796875 8.453125 32.25 8.453125 
C 24.359375 8.453125 18.21875 12.5 17.796875 18.96875 
L 6.640625 18.96875 
C 7.109375 7.109375 17.609375 -1 32.3125 -1 
z
" id="Inter-Medium-51"/>
      </defs>
      <g style="fill:#262626;" transform="translate(140.302842 964.364844)scale(0.17 -0.17)">
       <use xlink:href="#Inter-Medium-50"/>
       <use x="61.32814" xlink:href="#Inter-Medium-48"/>
       <use x="125.923325" xlink:href="#Inter-Medium-49"/>
       <use x="171.16481" xlink:href="#Inter-Medium-51"/>
      </g>
     </g>
    </g>
    <g id="xtick_2">
     <g id="line2d_2">
      <path clip-path="url(#pcf2dd0f9da)" d="M 315.053558 945 
L 315.053558 129.6 
" style="fill:none;stroke:#ffffff;stroke-linecap:round;stroke-width:0.8;"/>
     </g>
     <g id="text_2">
      <!-- 2014 -->
      <defs>
       <path d="M 5.46875 14.203125 
L 39.953125 14.203125 
L 39.953125 0 
L 50.421875 0 
L 50.421875 14.203125 
L 60.046875 14.203125 
L 60.046875 23.515625 
L 50.421875 23.515625 
L 50.421875 72.734375 
L 36.890625 72.734375 
L 5.46875 23.078125 
z
M 40.015625 23.515625 
L 16.96875 23.515625 
L 16.96875 24.078125 
L 39.453125 59.65625 
L 40.015625 59.65625 
z
" id="Inter-Medium-52"/>
      </defs>
      <g style="fill:#262626;" transform="translate(294.944417 964.364844)scale(0.17 -0.17)">
       <use xlink:href="#Inter-Medium-50"/>
       <use x="61.32814" xlink:href="#Inter-Medium-48"/>
       <use x="125.923325" xlink:href="#Inter-Medium-49"/>
       <use x="171.16481" xlink:href="#Inter-Medium-52"/>
      </g>
     </g>
    </g>
    <g id="xtick_3">
     <g id="line2d_3">
      <path clip-path="url(#pcf2dd0f9da)" d="M 469.778805 945 
L 469.778805 129.6 
" style="fill:none;stroke:#ffffff;stroke-linecap:round;stroke-width:0.8;"/>
     </g>
     <g id="text_3">
      <!-- 2015 -->
      <defs>
       <path d="M 31 -1 
C 45.640625 -1 56.078125 9.34375 56.03125 23.515625 
C 56.078125 37.578125 46.265625 47.796875 33.03125 47.796875 
C 27.625 47.796875 22.625 45.734375 19.78125 42.96875 
L 19.359375 42.96875 
L 21.65625 63.3125 
L 52.515625 63.3125 
L 52.515625 72.734375 
L 12.53125 72.734375 
L 8.453125 36.078125 
L 18.5 34.59375 
C 21.234375 37.03125 26.140625 38.703125 30.546875 38.703125 
C 39.171875 38.640625 45.421875 32.171875 45.421875 23.296875 
C 45.421875 14.5625 39.34375 8.234375 31 8.234375 
C 23.96875 8.234375 18.390625 12.71875 17.828125 18.96875 
L 7.171875 18.96875 
C 7.59375 7.390625 17.65625 -1 31 -1 
z
" id="Inter-Medium-53"/>
      </defs>
      <g style="fill:#262626;" transform="translate(449.959195 964.364844)scale(0.17 -0.17)">
       <use xlink:href="#Inter-Medium-50"/>
       <use x="61.32814" xlink:href="#Inter-Medium-48"/>
       <use x="125.923325" xlink:href="#Inter-Medium-49"/>
       <use x="171.16481" xlink:href="#Inter-Medium-53"/>
      </g>
     </g>
    </g>
    <g id="xtick_4">
     <g id="line2d_4">
      <path clip-path="url(#pcf2dd0f9da)" d="M 624.504052 945 
L 624.504052 129.6 
" style="fill:none;stroke:#ffffff;stroke-linecap:round;stroke-width:0.8;"/>
     </g>
     <g id="text_4">
      <!-- 2016 -->
      <defs>
       <path d="M 32.390625 -1 
C 47.59375 -1.140625 57.671875 9.796875 57.640625 23.75 
C 57.671875 37.671875 47.546875 47.65625 34.9375 47.65625 
C 27.28125 47.65625 20.640625 43.96875 16.90625 37.8125 
L 16.375 37.8125 
C 16.40625 54.515625 22.65625 64.28125 33.3125 64.28125 
C 40.3125 64.28125 44.703125 60.046875 46.203125 53.828125 
L 57.03125 53.828125 
C 55.359375 65.515625 46.3125 73.90625 33.3125 73.90625 
C 16.40625 73.90625 5.859375 59.375 5.859375 33.90625 
C 5.859375 7.140625 19.46875 -0.890625 32.390625 -1 
z
M 32.359375 8.234375 
C 23.90625 8.234375 17.71875 15.34375 17.71875 23.515625 
C 17.75 31.640625 24.21875 38.75 32.59375 38.75 
C 40.90625 38.75 47.015625 32.03125 46.984375 23.609375 
C 47.015625 15.015625 40.65625 8.234375 32.359375 8.234375 
z
" id="Inter-Medium-54"/>
      </defs>
      <g style="fill:#262626;" transform="translate(604.55163 964.364844)scale(0.17 -0.17)">
       <use xlink:href="#Inter-Medium-50"/>
       <use x="61.32814" xlink:href="#Inter-Medium-48"/>
       <use x="125.923325" xlink:href="#Inter-Medium-49"/>
       <use x="171.16481" xlink:href="#Inter-Medium-54"/>
      </g>
     </g>
    </g>
    <g id="xtick_5">
     <g id="line2d_5">
      <path clip-path="url(#pcf2dd0f9da)" d="M 779.653203 945 
L 779.653203 129.6 
" style="fill:none;stroke:#ffffff;stroke-linecap:round;stroke-width:0.8;"/>
     </g>
     <g id="text_5">
      <!-- 2017 -->
      <defs>
       <path d="M 9.453125 0 
L 20.921875 0 
L 52.5625 63 
L 52.5625 72.734375 
L 4.46875 72.734375 
L 4.46875 63.3125 
L 41.1875 63.3125 
L 41.1875 62.78125 
z
" id="Inter-Medium-55"/>
      </defs>
      <g style="fill:#262626;" transform="translate(760.182891 964.364844)scale(0.17 -0.17)">
       <use xlink:href="#Inter-Medium-50"/>
       <use x="61.32814" xlink:href="#Inter-Medium-48"/>
       <use x="125.923325" xlink:href="#Inter-Medium-49"/>
       <use x="171.16481" xlink:href="#Inter-Medium-55"/>
      </g>
     </g>
    </g>
    <g id="xtick_6">
     <g id="line2d_6">
      <path clip-path="url(#pcf2dd0f9da)" d="M 934.37845 945 
L 934.37845 129.6 
" style="fill:none;stroke:#ffffff;stroke-linecap:round;stroke-width:0.8;"/>
     </g>
     <g id="text_6">
      <!-- 2018 -->
      <defs>
       <path d="M 31.578125 -1 
C 46.703125 -1 57.390625 7.59375 57.453125 19.390625 
C 57.390625 28.546875 50.953125 36.25 42.828125 37.71875 
L 42.828125 38.140625 
C 49.890625 39.84375 54.6875 46.484375 54.765625 54.328125 
C 54.6875 65.453125 44.890625 73.71875 31.578125 73.71875 
C 18.109375 73.71875 8.3125 65.453125 8.375 54.328125 
C 8.3125 46.515625 13.109375 39.84375 20.3125 38.140625 
L 20.3125 37.71875 
C 12.046875 36.25 5.609375 28.546875 5.6875 19.390625 
C 5.609375 7.59375 16.296875 -1 31.578125 -1 
z
M 31.578125 7.984375 
C 22.484375 7.984375 16.734375 12.8125 16.796875 20.09375 
C 16.734375 27.65625 22.984375 33.0625 31.578125 33.0625 
C 40.015625 33.0625 46.265625 27.65625 46.34375 20.09375 
C 46.265625 12.8125 40.5625 7.984375 31.578125 7.984375 
z
M 31.578125 41.828125 
C 24.21875 41.828125 19 46.484375 19.078125 53.40625 
C 19 60.234375 24.046875 64.734375 31.578125 64.734375 
C 38.953125 64.734375 44 60.234375 44.078125 53.40625 
C 44 46.484375 38.8125 41.828125 31.578125 41.828125 
z
" id="Inter-Medium-56"/>
      </defs>
      <g style="fill:#262626;" transform="translate(914.461888 964.364844)scale(0.17 -0.17)">
       <use xlink:href="#Inter-Medium-50"/>
       <use x="61.32814" xlink:href="#Inter-Medium-48"/>
       <use x="125.923325" xlink:href="#Inter-Medium-49"/>
       <use x="171.16481" xlink:href="#Inter-Medium-56"/>
      </g>
     </g>
    </g>
    <g id="text_7">
     <!-- Time -->
     <defs>
      <path d="M 4.40625 63.28125 
L 27.0625 63.28125 
L 27.0625 0 
L 38 0 
L 38 63.28125 
L 60.6875 63.28125 
L 60.6875 72.734375 
L 4.40625 72.734375 
z
" id="Inter-Medium-84"/>
      <path d="M 7.140625 0 
L 17.75 0 
L 17.75 54.546875 
L 7.140625 54.546875 
z
M 12.5 62.96875 
C 16.15625 62.96875 19.21875 65.796875 19.21875 69.28125 
C 19.21875 72.765625 16.15625 75.640625 12.5 75.640625 
C 8.8125 75.640625 5.796875 72.765625 5.796875 69.28125 
C 5.796875 65.796875 8.8125 62.96875 12.5 62.96875 
z
" id="Inter-Medium-105"/>
      <path d="M 7.140625 0 
L 17.75 0 
L 17.75 33.625 
C 17.75 40.984375 22.90625 46.09375 28.9375 46.09375 
C 34.84375 46.09375 38.921875 42.1875 38.921875 36.25 
L 38.921875 0 
L 49.5 0 
L 49.5 34.765625 
C 49.5 41.328125 53.515625 46.09375 60.4375 46.09375 
C 66.046875 46.09375 70.671875 42.96875 70.671875 35.578125 
L 70.671875 0 
L 81.28125 0 
L 81.28125 36.578125 
C 81.28125 49.046875 74.328125 55.25 64.453125 55.25 
C 56.609375 55.25 50.71875 51.484375 48.078125 45.671875 
L 47.515625 45.671875 
C 45.140625 51.640625 40.125 55.25 32.84375 55.25 
C 25.640625 55.25 20.28125 51.671875 18 45.671875 
L 17.328125 45.671875 
L 17.328125 54.546875 
L 7.140625 54.546875 
z
" id="Inter-Medium-109"/>
      <path d="M 30.640625 -1.09375 
C 42.546875 -1.09375 50.953125 4.765625 53.375 13.640625 
L 43.328125 15.453125 
C 41.40625 10.296875 36.796875 7.671875 30.75 7.671875 
C 21.65625 7.671875 15.5625 13.5625 15.265625 24.078125 
L 54.046875 24.078125 
L 54.046875 27.84375 
C 54.046875 47.546875 42.265625 55.25 29.90625 55.25 
C 14.703125 55.25 4.6875 43.671875 4.6875 26.921875 
C 4.6875 9.984375 14.5625 -1.09375 30.640625 -1.09375 
z
M 15.3125 32.03125 
C 15.734375 39.765625 21.34375 46.484375 29.96875 46.484375 
C 38.21875 46.484375 43.609375 40.375 43.640625 32.03125 
z
" id="Inter-Medium-101"/>
     </defs>
     <g style="fill:#262626;" transform="translate(525.050625 989.298125)scale(0.24 -0.24)">
      <use xlink:href="#Inter-Medium-84"/>
      <use x="65.092346" xlink:href="#Inter-Medium-105"/>
      <use x="89.985809" xlink:href="#Inter-Medium-109"/>
      <use x="178.338104" xlink:href="#Inter-Medium-101"/>
     </g>
    </g>
   </g>
   <g id="matplotlib.axis_2">
    <g id="ytick_1">
     <g id="line2d_7">
      <path clip-path="url(#pcf2dd0f9da)" d="M 135 945 
L 972 945 
" style="fill:none;stroke:#ffffff;stroke-linecap:round;stroke-width:0.8;"/>
     </g>
     <g id="line2d_8">
      <defs>
       <path d="M 0 0 
L -3.5 0 
" id="m81b999017b" style="stroke:#262626;stroke-width:0.8;"/>
      </defs>
      <g>
       <use style="fill:#262626;stroke:#262626;stroke-width:0.8;" x="135" xlink:href="#m81b999017b" y="945"/>
      </g>
     </g>
     <g id="text_8">
      <!-- 0.0 -->
      <defs>
       <path d="M 14.140625 -0.671875 
C 18 -0.671875 21.234375 2.484375 21.234375 6.421875 
C 21.234375 10.296875 18 13.5 14.140625 13.5 
C 10.234375 13.5 7.03125 10.296875 7.03125 6.421875 
C 7.03125 2.484375 10.234375 -0.671875 14.140625 -0.671875 
z
" id="Inter-Medium-46"/>
      </defs>
      <g style="fill:#262626;" transform="translate(101.227656 951.182422)scale(0.17 -0.17)">
       <use xlink:href="#Inter-Medium-48"/>
       <use x="64.595184" xlink:href="#Inter-Medium-46"/>
       <use x="92.897736" xlink:href="#Inter-Medium-48"/>
      </g>
     </g>
    </g>
    <g id="ytick_2">
     <g id="line2d_9">
      <path clip-path="url(#pcf2dd0f9da)" d="M 135 781.92 
L 972 781.92 
" style="fill:none;stroke:#ffffff;stroke-linecap:round;stroke-width:0.8;"/>
     </g>
     <g id="line2d_10">
      <g>
       <use style="fill:#262626;stroke:#262626;stroke-width:0.8;" x="135" xlink:href="#m81b999017b" y="781.92"/>
      </g>
     </g>
     <g id="text_9">
      <!-- 0.2 -->
      <g style="fill:#262626;" transform="translate(101.782813 788.102422)scale(0.17 -0.17)">
       <use xlink:href="#Inter-Medium-48"/>
       <use x="64.595184" xlink:href="#Inter-Medium-46"/>
       <use x="92.897736" xlink:href="#Inter-Medium-50"/>
      </g>
     </g>
    </g>
    <g id="ytick_3">
     <g id="line2d_11">
      <path clip-path="url(#pcf2dd0f9da)" d="M 135 618.84 
L 972 618.84 
" style="fill:none;stroke:#ffffff;stroke-linecap:round;stroke-width:0.8;"/>
     </g>
     <g id="line2d_12">
      <g>
       <use style="fill:#262626;stroke:#262626;stroke-width:0.8;" x="135" xlink:href="#m81b999017b" y="618.84"/>
      </g>
     </g>
     <g id="text_10">
      <!-- 0.4 -->
      <g style="fill:#262626;" transform="translate(101.089531 625.022422)scale(0.17 -0.17)">
       <use xlink:href="#Inter-Medium-48"/>
       <use x="64.595184" xlink:href="#Inter-Medium-46"/>
       <use x="92.897736" xlink:href="#Inter-Medium-52"/>
      </g>
     </g>
    </g>
    <g id="ytick_4">
     <g id="line2d_13">
      <path clip-path="url(#pcf2dd0f9da)" d="M 135 455.76 
L 972 455.76 
" style="fill:none;stroke:#ffffff;stroke-linecap:round;stroke-width:0.8;"/>
     </g>
     <g id="line2d_14">
      <g>
       <use style="fill:#262626;stroke:#262626;stroke-width:0.8;" x="135" xlink:href="#m81b999017b" y="455.76"/>
      </g>
     </g>
     <g id="text_11">
      <!-- 0.6 -->
      <g style="fill:#262626;" transform="translate(101.402969 461.942422)scale(0.17 -0.17)">
       <use xlink:href="#Inter-Medium-48"/>
       <use x="64.595184" xlink:href="#Inter-Medium-46"/>
       <use x="92.897736" xlink:href="#Inter-Medium-54"/>
      </g>
     </g>
    </g>
    <g id="ytick_5">
     <g id="line2d_15">
      <path clip-path="url(#pcf2dd0f9da)" d="M 135 292.68 
L 972 292.68 
" style="fill:none;stroke:#ffffff;stroke-linecap:round;stroke-width:0.8;"/>
     </g>
     <g id="line2d_16">
      <g>
       <use style="fill:#262626;stroke:#262626;stroke-width:0.8;" x="135" xlink:href="#m81b999017b" y="292.68"/>
      </g>
     </g>
     <g id="text_12">
      <!-- 0.8 -->
      <g style="fill:#262626;" transform="translate(101.474688 298.862422)scale(0.17 -0.17)">
       <use xlink:href="#Inter-Medium-48"/>
       <use x="64.595184" xlink:href="#Inter-Medium-46"/>
       <use x="92.897736" xlink:href="#Inter-Medium-56"/>
      </g>
     </g>
    </g>
    <g id="ytick_6">
     <g id="line2d_17">
      <path clip-path="url(#pcf2dd0f9da)" d="M 135 129.6 
L 972 129.6 
" style="fill:none;stroke:#ffffff;stroke-linecap:round;stroke-width:0.8;"/>
     </g>
     <g id="line2d_18">
      <g>
       <use style="fill:#262626;stroke:#262626;stroke-width:0.8;" x="135" xlink:href="#m81b999017b" y="129.6"/>
      </g>
     </g>
     <g id="text_13">
      <!-- 1.0 -->
      <g style="fill:#262626;" transform="translate(104.516094 135.782422)scale(0.17 -0.17)">
       <use xlink:href="#Inter-Medium-49"/>
       <use x="45.241486" xlink:href="#Inter-Medium-46"/>
       <use x="73.544037" xlink:href="#Inter-Medium-48"/>
      </g>
     </g>
    </g>
    <g id="text_14">
     <!-- Ratio of unverified reviews -->
     <defs>
      <path d="M 7.984375 0 
L 18.96875 0 
L 18.96875 27.515625 
L 33.875 27.515625 
C 34.125 27.515625 34.34375 27.515625 34.59375 27.515625 
L 49.359375 0 
L 61.859375 0 
L 45.734375 29.4375 
C 54.65625 32.734375 59.09375 40.15625 59.09375 49.921875 
C 59.09375 63.3125 50.78125 72.734375 33.921875 72.734375 
L 7.984375 72.734375 
z
M 18.96875 36.96875 
L 18.96875 63.3125 
L 32.75 63.3125 
C 43.578125 63.3125 48.046875 58.171875 48.046875 49.921875 
C 48.046875 41.71875 43.578125 36.96875 32.890625 36.96875 
z
" id="Inter-Medium-82"/>
      <path d="M 23.015625 -1.203125 
C 32.03125 -1.203125 37.109375 3.375 39.140625 7.453125 
L 39.5625 7.453125 
L 39.5625 0 
L 49.9375 0 
L 49.9375 36.21875 
C 49.9375 52.09375 37.4375 55.25 28.765625 55.25 
C 18.890625 55.25 9.796875 51.28125 6.25 41.328125 
L 16.234375 39.0625 
C 17.796875 42.9375 21.765625 46.65625 28.90625 46.65625 
C 35.765625 46.65625 39.28125 43.078125 39.28125 36.890625 
L 39.28125 36.640625 
C 39.28125 32.78125 35.296875 32.84375 25.5 31.71875 
C 15.171875 30.5 4.578125 27.8125 4.578125 15.40625 
C 4.578125 4.6875 12.640625 -1.203125 23.015625 -1.203125 
z
M 25.328125 7.3125 
C 19.3125 7.3125 14.984375 10.015625 14.984375 15.265625 
C 14.984375 20.953125 20.03125 22.96875 26.171875 23.796875 
C 29.625 24.25 37.78125 25.171875 39.3125 26.703125 
L 39.3125 19.671875 
C 39.3125 13.203125 34.15625 7.3125 25.328125 7.3125 
z
" id="Inter-Medium-97"/>
      <path d="M 32.59375 54.546875 
L 21.421875 54.546875 
L 21.421875 67.609375 
L 10.796875 67.609375 
L 10.796875 54.546875 
L 2.8125 54.546875 
L 2.8125 46.015625 
L 10.796875 46.015625 
L 10.796875 13.8125 
C 10.765625 3.90625 18.328125 -0.890625 26.703125 -0.703125 
C 30.078125 -0.671875 32.359375 -0.03125 33.59375 0.421875 
L 31.671875 9.203125 
C 30.96875 9.0625 29.65625 8.734375 27.953125 8.734375 
C 24.5 8.734375 21.421875 9.875 21.421875 16.015625 
L 21.421875 46.015625 
L 32.59375 46.015625 
z
" id="Inter-Medium-116"/>
      <path d="M 30.109375 -1.09375 
C 45.484375 -1.09375 55.546875 10.15625 55.546875 27.03125 
C 55.546875 44 45.484375 55.25 30.109375 55.25 
C 14.734375 55.25 4.6875 44 4.6875 27.03125 
C 4.6875 10.15625 14.734375 -1.09375 30.109375 -1.09375 
z
M 30.15625 7.8125 
C 20.09375 7.8125 15.40625 16.578125 15.40625 27.0625 
C 15.40625 37.5 20.09375 46.375 30.15625 46.375 
C 40.125 46.375 44.8125 37.5 44.8125 27.0625 
C 44.8125 16.578125 40.125 7.8125 30.15625 7.8125 
z
" id="Inter-Medium-111"/>
      <path id="Inter-Medium-32"/>
      <path d="M 33.28125 54.546875 
L 21.515625 54.546875 
L 21.515625 59.453125 
C 21.515625 64.28125 23.515625 66.90625 28.6875 66.90625 
C 30.890625 66.90625 32.453125 66.40625 33.453125 66.09375 
L 35.9375 74.6875 
C 34.453125 75.25 31.359375 76.140625 27.0625 76.140625 
C 18.4375 76.140625 10.875 71.09375 10.875 60.859375 
L 10.875 54.546875 
L 2.453125 54.546875 
L 2.453125 46.015625 
L 10.875 46.015625 
L 10.875 0 
L 21.515625 0 
L 21.515625 46.015625 
L 33.28125 46.015625 
z
" id="Inter-Medium-102"/>
      <path d="M 41.6875 22.625 
C 41.734375 13.359375 34.84375 8.953125 28.875 8.953125 
C 22.296875 8.953125 17.75 13.703125 17.75 21.125 
L 17.75 54.546875 
L 7.140625 54.546875 
L 7.140625 19.84375 
C 7.140625 6.328125 14.5625 -0.703125 25.03125 -0.703125 
C 33.234375 -0.703125 38.8125 3.625 41.34375 9.453125 
L 41.90625 9.453125 
L 41.90625 0 
L 52.34375 0 
L 52.34375 54.546875 
L 41.6875 54.546875 
z
" id="Inter-Medium-117"/>
      <path d="M 17.75 32.390625 
C 17.75 41.09375 23.078125 46.0625 30.46875 46.0625 
C 37.671875 46.0625 42.046875 41.328125 42.046875 33.421875 
L 42.046875 0 
L 52.671875 0 
L 52.671875 34.6875 
C 52.671875 48.1875 45.25 55.25 34.09375 55.25 
C 25.890625 55.25 20.53125 51.453125 18 45.671875 
L 17.328125 45.671875 
L 17.328125 54.546875 
L 7.140625 54.546875 
L 7.140625 0 
L 17.75 0 
z
" id="Inter-Medium-110"/>
      <path d="M 53.796875 54.546875 
L 42.40625 54.546875 
L 28.625 12.578125 
L 28.0625 12.578125 
L 14.234375 54.546875 
L 2.84375 54.546875 
L 22.65625 0 
L 34.015625 0 
z
" id="Inter-Medium-118"/>
      <path d="M 7.140625 0 
L 17.75 0 
L 17.75 33.3125 
C 17.75 40.40625 23.265625 45.5625 30.609375 45.5625 
C 32.671875 45.5625 34.265625 45.140625 35.546875 44.5 
L 38.953125 53.375 
C 37.140625 54.578125 34.796875 55.359375 31.8125 55.359375 
C 25.359375 55.359375 19.953125 51.734375 17.96875 45.875 
L 17.40625 45.875 
L 17.40625 54.546875 
L 7.140625 54.546875 
z
" id="Inter-Medium-114"/>
      <path d="M 27.5625 -1.0625 
C 37.5 -1.0625 41.40625 5 43.328125 8.484375 
L 44.21875 8.484375 
L 44.21875 0 
L 54.578125 0 
L 54.578125 72.734375 
L 43.96875 72.734375 
L 43.96875 45.703125 
L 43.328125 45.703125 
C 41.40625 49.078125 37.78125 55.25 27.625 55.25 
C 14.453125 55.25 4.765625 44.84375 4.765625 27.171875 
C 4.765625 9.515625 14.3125 -1.0625 27.5625 -1.0625 
z
M 29.90625 7.984375 
C 20.421875 7.984375 15.484375 16.328125 15.484375 27.265625 
C 15.484375 38.109375 20.3125 46.234375 29.90625 46.234375 
C 39.171875 46.234375 44.140625 38.671875 44.140625 27.265625 
C 44.140625 15.796875 39.0625 7.984375 29.90625 7.984375 
z
" id="Inter-Medium-100"/>
      <path d="M 18.96875 0 
L 29.765625 0 
L 40.84375 39.375 
L 41.65625 39.375 
L 52.734375 0 
L 63.5625 0 
L 79.578125 54.546875 
L 68.609375 54.546875 
L 57.984375 14.671875 
L 57.453125 14.671875 
L 46.8125 54.546875 
L 35.828125 54.546875 
L 25.109375 14.484375 
L 24.578125 14.484375 
L 13.890625 54.546875 
L 2.90625 54.546875 
z
" id="Inter-Medium-119"/>
      <path d="M 48.015625 41.234375 
C 45.8125 49.71875 39.171875 55.25 27.375 55.25 
C 15.0625 55.25 6.328125 48.75 6.328125 39.09375 
C 6.328125 31.359375 11.015625 26.203125 21.234375 23.9375 
L 30.46875 21.90625 
C 35.71875 20.734375 38.171875 18.390625 38.171875 14.984375 
C 38.171875 10.765625 33.671875 7.453125 26.703125 7.453125 
C 20.34375 7.453125 16.265625 10.1875 14.984375 15.546875 
L 4.71875 13.984375 
C 6.5 4.328125 14.53125 -1.09375 26.78125 -1.09375 
C 39.953125 -1.09375 49.078125 5.890625 49.078125 15.765625 
C 49.078125 23.46875 44.171875 28.234375 34.15625 30.546875 
L 25.5 32.53125 
C 19.5 33.953125 16.90625 35.96875 16.9375 39.671875 
C 16.90625 43.859375 21.453125 46.84375 27.484375 46.84375 
C 34.09375 46.84375 37.140625 43.1875 38.390625 39.53125 
z
" id="Inter-Medium-115"/>
     </defs>
     <g style="fill:#008000;" transform="translate(92.180781 690.665625)rotate(-90)scale(0.24 -0.24)">
      <use xlink:href="#Inter-Medium-82"/>
      <use x="64.488647" xlink:href="#Inter-Medium-97"/>
      <use x="121.413376" xlink:href="#Inter-Medium-116"/>
      <use x="158.593781" xlink:href="#Inter-Medium-105"/>
      <use x="183.487244" xlink:href="#Inter-Medium-111"/>
      <use x="243.714523" xlink:href="#Inter-Medium-32"/>
      <use x="270.206009" xlink:href="#Inter-Medium-111"/>
      <use x="330.433289" xlink:href="#Inter-Medium-102"/>
      <use x="367.507156" xlink:href="#Inter-Medium-32"/>
      <use x="393.998642" xlink:href="#Inter-Medium-117"/>
      <use x="453.444672" xlink:href="#Inter-Medium-110"/>
      <use x="513.174789" xlink:href="#Inter-Medium-118"/>
      <use x="569.81543" xlink:href="#Inter-Medium-101"/>
      <use x="628.551239" xlink:href="#Inter-Medium-114"/>
      <use x="668.394989" xlink:href="#Inter-Medium-105"/>
      <use x="693.288452" xlink:href="#Inter-Medium-102"/>
      <use x="730.36232" xlink:href="#Inter-Medium-105"/>
      <use x="755.255783" xlink:href="#Inter-Medium-101"/>
      <use x="813.991592" xlink:href="#Inter-Medium-100"/>
      <use x="876.562622" xlink:href="#Inter-Medium-32"/>
      <use x="903.054108" xlink:href="#Inter-Medium-114"/>
      <use x="942.897858" xlink:href="#Inter-Medium-101"/>
      <use x="1001.633667" xlink:href="#Inter-Medium-118"/>
      <use x="1058.274307" xlink:href="#Inter-Medium-105"/>
      <use x="1083.16777" xlink:href="#Inter-Medium-101"/>
      <use x="1141.90358" xlink:href="#Inter-Medium-119"/>
      <use x="1224.3965" xlink:href="#Inter-Medium-115"/>
     </g>
    </g>
   </g>
   <g id="line2d_19">
    <path clip-path="url(#pcf2dd0f9da)" d="M 173.045455 868.41486 
L 184.914789 871.998987 
L 198.055837 874.738479 
L 210.772981 875.724877 
L 223.914029 869.894112 
L 236.631172 873.879673 
L 249.772221 873.726407 
L 262.913269 883.928803 
L 275.630413 879.865946 
L 288.771461 875.748276 
L 301.488605 883.103262 
L 314.629653 884.29284 
L 327.770701 884.399551 
L 339.640035 880.844162 
L 352.781084 875.554047 
L 365.498227 867.103544 
L 378.639276 857.077833 
L 391.356419 790.009386 
L 404.497468 724.383706 
L 417.638516 713.242155 
L 430.35566 721.013203 
L 443.496708 723.996498 
L 456.213852 808.335536 
L 469.3549 873.348608 
L 482.495948 865.597223 
L 494.365282 866.241571 
L 507.506331 844.796406 
L 520.223474 832.909116 
L 533.364523 834.315074 
L 546.081666 852.515502 
L 559.222715 863.50086 
L 572.363763 857.675401 
L 585.080907 839.669794 
L 598.221955 848.64716 
L 610.939099 819.612112 
L 624.080147 826.072893 
L 637.221195 833.659055 
L 649.514434 841.607417 
L 662.655482 832.055139 
L 675.372626 808.324577 
L 688.513674 815.267409 
L 701.230818 771.094428 
L 714.371866 806.995164 
L 727.512915 853.015391 
L 740.230058 855.688381 
L 753.371107 871.491289 
L 766.08825 888.452914 
L 779.229299 890.722945 
L 792.370347 899.221455 
L 804.239681 903.842907 
L 817.380729 903.498537 
L 830.097873 897.632892 
L 843.238921 896.430427 
L 855.956065 891.806112 
L 869.097113 877.756341 
L 882.238162 887.590564 
L 894.955305 894.145566 
L 908.096354 894.03056 
L 920.813497 898.881629 
L 933.954545 893.910728 
" style="fill:none;stroke:#008000;stroke-linecap:round;stroke-width:2;"/>
   </g>
   <g id="patch_3">
    <path d="M 135 945 
L 135 129.6 
" style="fill:none;stroke:#ffffff;stroke-linecap:square;stroke-linejoin:miter;stroke-width:0.8;"/>
   </g>
   <g id="patch_4">
    <path d="M 972 945 
L 972 129.6 
" style="fill:none;stroke:#ffffff;stroke-linecap:square;stroke-linejoin:miter;stroke-width:0.8;"/>
   </g>
   <g id="patch_5">
    <path d="M 135 945 
L 972 945 
" style="fill:none;stroke:#ffffff;stroke-linecap:square;stroke-linejoin:miter;stroke-width:0.8;"/>
   </g>
   <g id="patch_6">
    <path d="M 135 129.6 
L 972 129.6 
" style="fill:none;stroke:#ffffff;stroke-linecap:square;stroke-linejoin:miter;stroke-width:0.8;"/>
   </g>
  </g>
  <g id="axes_2">
   <g id="matplotlib.axis_3">
    <g id="ytick_7">
     <g id="line2d_20">
      <path clip-path="url(#pcf2dd0f9da)" d="M 135 945 
L 972 945 
" style="fill:none;stroke:#ffffff;stroke-linecap:round;stroke-width:0.8;"/>
     </g>
     <g id="line2d_21">
      <defs>
       <path d="M 0 0 
L 3.5 0 
" id="m744ba8a942" style="stroke:#262626;stroke-width:0.8;"/>
      </defs>
      <g>
       <use style="fill:#262626;stroke:#262626;stroke-width:0.8;" x="972" xlink:href="#m744ba8a942" y="945"/>
      </g>
     </g>
     <g id="text_15">
      <!-- 0 -->
      <g style="fill:#262626;" transform="translate(979 951.182422)scale(0.17 -0.17)">
       <use xlink:href="#Inter-Medium-48"/>
      </g>
     </g>
    </g>
    <g id="ytick_8">
     <g id="line2d_22">
      <path clip-path="url(#pcf2dd0f9da)" d="M 135 816.01938 
L 972 816.01938 
" style="fill:none;stroke:#ffffff;stroke-linecap:round;stroke-width:0.8;"/>
     </g>
     <g id="line2d_23">
      <g>
       <use style="fill:#262626;stroke:#262626;stroke-width:0.8;" x="972" xlink:href="#m744ba8a942" y="816.01938"/>
      </g>
     </g>
     <g id="text_16">
      <!-- 5K -->
      <defs>
       <path d="M 7.984375 0 
L 18.96875 0 
L 18.96875 22.625 
L 27.5625 32.5 
L 51.0625 0 
L 64.28125 0 
L 34.84375 39.984375 
L 64.171875 72.734375 
L 50.359375 72.734375 
L 19.859375 38 
L 18.96875 38 
L 18.96875 72.734375 
L 7.984375 72.734375 
z
" id="Inter-Medium-75"/>
      </defs>
      <g style="fill:#262626;" transform="translate(979 822.201802)scale(0.17 -0.17)">
       <use xlink:href="#Inter-Medium-53"/>
       <use x="62.002853" xlink:href="#Inter-Medium-75"/>
      </g>
     </g>
    </g>
    <g id="ytick_9">
     <g id="line2d_24">
      <path clip-path="url(#pcf2dd0f9da)" d="M 135 687.038761 
L 972 687.038761 
" style="fill:none;stroke:#ffffff;stroke-linecap:round;stroke-width:0.8;"/>
     </g>
     <g id="line2d_25">
      <g>
       <use style="fill:#262626;stroke:#262626;stroke-width:0.8;" x="972" xlink:href="#m744ba8a942" y="687.038761"/>
      </g>
     </g>
     <g id="text_17">
      <!-- 10K -->
      <g style="fill:#262626;" transform="translate(979 693.221182)scale(0.17 -0.17)">
       <use xlink:href="#Inter-Medium-49"/>
       <use x="45.241486" xlink:href="#Inter-Medium-48"/>
       <use x="109.83667" xlink:href="#Inter-Medium-75"/>
      </g>
     </g>
    </g>
    <g id="ytick_10">
     <g id="line2d_26">
      <path clip-path="url(#pcf2dd0f9da)" d="M 135 558.058141 
L 972 558.058141 
" style="fill:none;stroke:#ffffff;stroke-linecap:round;stroke-width:0.8;"/>
     </g>
     <g id="line2d_27">
      <g>
       <use style="fill:#262626;stroke:#262626;stroke-width:0.8;" x="972" xlink:href="#m744ba8a942" y="558.058141"/>
      </g>
     </g>
     <g id="text_18">
      <!-- 15K -->
      <g style="fill:#262626;" transform="translate(979 564.240563)scale(0.17 -0.17)">
       <use xlink:href="#Inter-Medium-49"/>
       <use x="45.241486" xlink:href="#Inter-Medium-53"/>
       <use x="107.244339" xlink:href="#Inter-Medium-75"/>
      </g>
     </g>
    </g>
    <g id="ytick_11">
     <g id="line2d_28">
      <path clip-path="url(#pcf2dd0f9da)" d="M 135 429.077521 
L 972 429.077521 
" style="fill:none;stroke:#ffffff;stroke-linecap:round;stroke-width:0.8;"/>
     </g>
     <g id="line2d_29">
      <g>
       <use style="fill:#262626;stroke:#262626;stroke-width:0.8;" x="972" xlink:href="#m744ba8a942" y="429.077521"/>
      </g>
     </g>
     <g id="text_19">
      <!-- 20K -->
      <g style="fill:#262626;" transform="translate(979 435.259943)scale(0.17 -0.17)">
       <use xlink:href="#Inter-Medium-50"/>
       <use x="61.32814" xlink:href="#Inter-Medium-48"/>
       <use x="125.923325" xlink:href="#Inter-Medium-75"/>
      </g>
     </g>
    </g>
    <g id="ytick_12">
     <g id="line2d_30">
      <path clip-path="url(#pcf2dd0f9da)" d="M 135 300.096902 
L 972 300.096902 
" style="fill:none;stroke:#ffffff;stroke-linecap:round;stroke-width:0.8;"/>
     </g>
     <g id="line2d_31">
      <g>
       <use style="fill:#262626;stroke:#262626;stroke-width:0.8;" x="972" xlink:href="#m744ba8a942" y="300.096902"/>
      </g>
     </g>
     <g id="text_20">
      <!-- 25K -->
      <g style="fill:#262626;" transform="translate(979 306.279323)scale(0.17 -0.17)">
       <use xlink:href="#Inter-Medium-50"/>
       <use x="61.32814" xlink:href="#Inter-Medium-53"/>
       <use x="123.330994" xlink:href="#Inter-Medium-75"/>
      </g>
     </g>
    </g>
    <g id="text_21">
     <!-- Total reviews -->
     <defs>
      <path d="M 17.75 72.734375 
L 7.140625 72.734375 
L 7.140625 0 
L 17.75 0 
z
" id="Inter-Medium-108"/>
     </defs>
     <g style="fill:#c73e31;" transform="translate(1033.157344 614.791875)rotate(-90)scale(0.24 -0.24)">
      <use xlink:href="#Inter-Medium-84"/>
      <use x="65.092346" xlink:href="#Inter-Medium-111"/>
      <use x="125.319626" xlink:href="#Inter-Medium-116"/>
      <use x="162.500031" xlink:href="#Inter-Medium-97"/>
      <use x="219.424759" xlink:href="#Inter-Medium-108"/>
      <use x="244.318222" xlink:href="#Inter-Medium-32"/>
      <use x="270.809708" xlink:href="#Inter-Medium-114"/>
      <use x="310.653458" xlink:href="#Inter-Medium-101"/>
      <use x="369.389267" xlink:href="#Inter-Medium-118"/>
      <use x="426.029907" xlink:href="#Inter-Medium-105"/>
      <use x="450.92337" xlink:href="#Inter-Medium-101"/>
      <use x="509.65918" xlink:href="#Inter-Medium-119"/>
      <use x="592.1521" xlink:href="#Inter-Medium-115"/>
     </g>
    </g>
   </g>
   <g id="line2d_32">
    <path clip-path="url(#pcf2dd0f9da)" d="M 173.045455 754.39244 
L 184.914789 787.101925 
L 198.055837 784.238556 
L 210.772981 792.880257 
L 223.914029 775.003543 
L 236.631172 771.392086 
L 249.772221 749.3364 
L 262.913269 744.202971 
L 275.630413 773.197815 
L 288.771461 743.01635 
L 301.488605 739.404892 
L 314.629653 691.372509 
L 327.770701 669.058862 
L 339.640035 721.399198 
L 352.781084 695.422501 
L 365.498227 710.616418 
L 378.639276 709.352408 
L 391.356419 694.339064 
L 404.497468 481.443653 
L 417.638516 452.268237 
L 430.35566 457.711219 
L 443.496708 374.802476 
L 456.213852 362.60091 
L 469.3549 239.862952 
L 482.495948 201.94265 
L 494.365282 213.757275 
L 507.506331 204.212709 
L 520.223474 283.148848 
L 533.364523 311.988915 
L 546.081666 312.504837 
L 559.222715 275.771157 
L 572.363763 263.56959 
L 585.080907 274.01702 
L 598.221955 217.394528 
L 610.939099 222.992287 
L 624.080147 224.978589 
L 637.221195 161.184774 
L 649.514434 269.580087 
L 662.655482 190.566559 
L 675.372626 212.596449 
L 688.513674 217.987839 
L 701.230818 201.994242 
L 714.371866 208.830215 
L 727.512915 232.69163 
L 740.230058 317.354508 
L 753.371107 410.194759 
L 766.08825 476.310224 
L 779.229299 404.003689 
L 792.370347 424.872753 
L 804.239681 575.496321 
L 817.380729 539.536524 
L 830.097873 613.726176 
L 843.238921 656.573538 
L 855.956065 681.647371 
L 869.097113 684.433352 
L 882.238162 696.222181 
L 894.955305 738.192474 
L 908.096354 755.579062 
L 920.813497 759.371092 
L 933.954545 779.079331 
" style="fill:none;stroke:#c73e31;stroke-linecap:round;stroke-width:2;"/>
   </g>
   <g id="patch_7">
    <path d="M 135 945 
L 135 129.6 
" style="fill:none;stroke:#ffffff;stroke-linecap:square;stroke-linejoin:miter;stroke-width:0.8;"/>
   </g>
   <g id="patch_8">
    <path d="M 972 945 
L 972 129.6 
" style="fill:none;stroke:#ffffff;stroke-linecap:square;stroke-linejoin:miter;stroke-width:0.8;"/>
   </g>
   <g id="patch_9">
    <path d="M 135 945 
L 972 945 
" style="fill:none;stroke:#ffffff;stroke-linecap:square;stroke-linejoin:miter;stroke-width:0.8;"/>
   </g>
   <g id="patch_10">
    <path d="M 135 129.6 
L 972 129.6 
" style="fill:none;stroke:#ffffff;stroke-linecap:square;stroke-linejoin:miter;stroke-width:0.8;"/>
   </g>
  </g>
 </g>
 <defs>
  <clipPath id="pcf2dd0f9da">
   <rect height="815.4" width="837" x="135" y="129.6"/>
  </clipPath>
 </defs>
</svg>
